G04 #@! TF.GenerationSoftware,KiCad,Pcbnew,8.0.6-8.0.6-0~ubuntu22.04.1*
G04 #@! TF.CreationDate,2024-11-22T14:28:03+01:00*
G04 #@! TF.ProjectId,rp2040-launchpad-PCB,72703230-3430-42d6-9c61-756e63687061,rev?*
G04 #@! TF.SameCoordinates,Original*
G04 #@! TF.FileFunction,Legend,Bot*
G04 #@! TF.FilePolarity,Positive*
%FSLAX46Y46*%
G04 Gerber Fmt 4.6, Leading zero omitted, Abs format (unit mm)*
G04 Created by KiCad (PCBNEW 8.0.6-8.0.6-0~ubuntu22.04.1) date 2024-11-22 14:28:03*
%MOMM*%
%LPD*%
G01*
G04 APERTURE LIST*
%ADD10C,0.100000*%
%ADD11C,0.120000*%
%ADD12C,0.200000*%
%ADD13C,0.150000*%
%ADD14C,0.010000*%
%ADD15RoundRect,0.051000X-0.850000X-0.850000X0.850000X-0.850000X0.850000X0.850000X-0.850000X0.850000X0*%
%ADD16O,1.802000X1.802000*%
%ADD17RoundRect,0.051000X0.850000X-0.850000X0.850000X0.850000X-0.850000X0.850000X-0.850000X-0.850000X0*%
%ADD18RoundRect,0.051000X0.850000X0.850000X-0.850000X0.850000X-0.850000X-0.850000X0.850000X-0.850000X0*%
%ADD19C,1.002000*%
%ADD20C,0.752000*%
%ADD21O,1.102000X2.202000*%
%ADD22O,1.102000X1.902000*%
%ADD23C,1.626000*%
%ADD24C,0.300000*%
%ADD25C,0.150000*%
%ADD26C,0.200000*%
%ADD27C,0.010000*%
G04 APERTURE END LIST*
%LPD*%
D10*
X163830000Y-72390000D02*
X168910000Y-72390000D01*
X168910000Y-94996000D01*
X110490000Y-94996000D01*
X110490000Y-72390000D01*
X115570000Y-72390000D01*
X115570000Y-67310000D01*
X163830000Y-67310000D01*
X163830000Y-72390000D01*
G36*
X163830000Y-72390000D02*
G01*
X168910000Y-72390000D01*
X168910000Y-94996000D01*
X110490000Y-94996000D01*
X110490000Y-72390000D01*
X115570000Y-72390000D01*
X115570000Y-67310000D01*
X163830000Y-67310000D01*
X163830000Y-72390000D01*
G37*
X158623000Y-151130000D02*
X156337000Y-151130000D01*
X156337000Y-146050000D01*
X158623000Y-146050000D01*
X158623000Y-151130000D01*
G36*
X158623000Y-151130000D02*
G01*
X156337000Y-151130000D01*
X156337000Y-146050000D01*
X158623000Y-146050000D01*
X158623000Y-151130000D01*
G37*
X163703000Y-151130000D02*
X161417000Y-151130000D01*
X161417000Y-146050000D01*
X163703000Y-146050000D01*
X163703000Y-151130000D01*
G36*
X163703000Y-151130000D02*
G01*
X161417000Y-151130000D01*
X161417000Y-146050000D01*
X163703000Y-146050000D01*
X163703000Y-151130000D01*
G37*
X115316000Y-106680000D02*
X114300000Y-107696000D01*
X110744000Y-107696000D01*
X110744000Y-105664000D01*
X114300000Y-105664000D01*
X115316000Y-106680000D01*
G36*
X115316000Y-106680000D02*
G01*
X114300000Y-107696000D01*
X110744000Y-107696000D01*
X110744000Y-105664000D01*
X114300000Y-105664000D01*
X115316000Y-106680000D01*
G37*
X125476000Y-107696000D02*
X121920000Y-107696000D01*
X120904000Y-106680000D01*
X121920000Y-105664000D01*
X125476000Y-105664000D01*
X125476000Y-107696000D01*
G36*
X125476000Y-107696000D02*
G01*
X121920000Y-107696000D01*
X120904000Y-106680000D01*
X121920000Y-105664000D01*
X125476000Y-105664000D01*
X125476000Y-107696000D01*
G37*
D11*
X120904000Y-109220000D02*
X121920000Y-108204000D01*
X121920000Y-108204000D02*
X125476000Y-108204000D01*
X125476000Y-108204000D02*
X125476000Y-110236000D01*
X125476000Y-110236000D02*
X121920000Y-110236000D01*
X121920000Y-110236000D02*
X120904000Y-109220000D01*
X165100000Y-107696000D02*
X164084000Y-106680000D01*
X168656000Y-107696000D02*
X165100000Y-107696000D01*
X168656000Y-105664000D02*
X168656000Y-107696000D01*
X165100000Y-105664000D02*
X168656000Y-105664000D01*
X164084000Y-106680000D02*
X165100000Y-105664000D01*
X168656000Y-138176000D02*
X165100000Y-138176000D01*
X168656000Y-136144000D02*
X168656000Y-138176000D01*
X165100000Y-136144000D02*
X168656000Y-136144000D01*
X164084000Y-137160000D02*
X165100000Y-136144000D01*
D10*
X168656000Y-140716000D02*
X165100000Y-140716000D01*
X164084000Y-139700000D01*
X165100000Y-138684000D01*
X168656000Y-138684000D01*
X168656000Y-140716000D01*
G36*
X168656000Y-140716000D02*
G01*
X165100000Y-140716000D01*
X164084000Y-139700000D01*
X165100000Y-138684000D01*
X168656000Y-138684000D01*
X168656000Y-140716000D01*
G37*
D11*
X165100000Y-135636000D02*
X164084000Y-134620000D01*
X168656000Y-135636000D02*
X165100000Y-135636000D01*
X168656000Y-133604000D02*
X168656000Y-135636000D01*
X165100000Y-133604000D02*
X168656000Y-133604000D01*
X164084000Y-134620000D02*
X165100000Y-133604000D01*
X165100000Y-138176000D02*
X164084000Y-137160000D01*
X110744000Y-133604000D02*
X110744000Y-135636000D01*
X114300000Y-133604000D02*
X110744000Y-133604000D01*
X115316000Y-134620000D02*
X114300000Y-133604000D01*
D10*
X115316000Y-139700000D02*
X114300000Y-140716000D01*
X110744000Y-140716000D01*
X110744000Y-138684000D01*
X114300000Y-138684000D01*
X115316000Y-139700000D01*
G36*
X115316000Y-139700000D02*
G01*
X114300000Y-140716000D01*
X110744000Y-140716000D01*
X110744000Y-138684000D01*
X114300000Y-138684000D01*
X115316000Y-139700000D01*
G37*
D11*
X114300000Y-138176000D02*
X115316000Y-137160000D01*
X110744000Y-138176000D02*
X114300000Y-138176000D01*
X110744000Y-136144000D02*
X110744000Y-138176000D01*
X114300000Y-136144000D02*
X110744000Y-136144000D01*
X115316000Y-137160000D02*
X114300000Y-136144000D01*
X114300000Y-135636000D02*
X115316000Y-134620000D01*
X110744000Y-135636000D02*
X114300000Y-135636000D01*
X161544000Y-141478000D02*
X163576000Y-141478000D01*
X161544000Y-145034000D02*
X161544000Y-141478000D01*
X161544000Y-145034000D02*
X162560000Y-146050000D01*
X163576000Y-145034000D02*
X163576000Y-141478000D01*
X162560000Y-146050000D02*
X163576000Y-145034000D01*
D10*
X161036000Y-145034000D02*
X160020000Y-146050000D01*
X159004000Y-145034000D01*
X159004000Y-141478000D01*
X161036000Y-141478000D01*
X161036000Y-145034000D01*
G36*
X161036000Y-145034000D02*
G01*
X160020000Y-146050000D01*
X159004000Y-145034000D01*
X159004000Y-141478000D01*
X161036000Y-141478000D01*
X161036000Y-145034000D01*
G37*
X158496000Y-145034000D02*
X157480000Y-146050000D01*
X156464000Y-145034000D01*
X156464000Y-141478000D01*
X158496000Y-141478000D01*
X158496000Y-145034000D01*
G36*
X158496000Y-145034000D02*
G01*
X157480000Y-146050000D01*
X156464000Y-145034000D01*
X156464000Y-141478000D01*
X158496000Y-141478000D01*
X158496000Y-145034000D01*
G37*
D12*
X114268142Y-109421885D02*
X113696714Y-109421885D01*
X114382428Y-109764742D02*
X113982428Y-108564742D01*
X113982428Y-108564742D02*
X113582428Y-109764742D01*
X112953857Y-108564742D02*
X112839571Y-108564742D01*
X112839571Y-108564742D02*
X112725285Y-108621885D01*
X112725285Y-108621885D02*
X112668143Y-108679028D01*
X112668143Y-108679028D02*
X112611000Y-108793314D01*
X112611000Y-108793314D02*
X112553857Y-109021885D01*
X112553857Y-109021885D02*
X112553857Y-109307600D01*
X112553857Y-109307600D02*
X112611000Y-109536171D01*
X112611000Y-109536171D02*
X112668143Y-109650457D01*
X112668143Y-109650457D02*
X112725285Y-109707600D01*
X112725285Y-109707600D02*
X112839571Y-109764742D01*
X112839571Y-109764742D02*
X112953857Y-109764742D01*
X112953857Y-109764742D02*
X113068143Y-109707600D01*
X113068143Y-109707600D02*
X113125285Y-109650457D01*
X113125285Y-109650457D02*
X113182428Y-109536171D01*
X113182428Y-109536171D02*
X113239571Y-109307600D01*
X113239571Y-109307600D02*
X113239571Y-109021885D01*
X113239571Y-109021885D02*
X113182428Y-108793314D01*
X113182428Y-108793314D02*
X113125285Y-108679028D01*
X113125285Y-108679028D02*
X113068143Y-108621885D01*
X113068143Y-108621885D02*
X112953857Y-108564742D01*
X114382428Y-111104742D02*
X113639571Y-111104742D01*
X113639571Y-111104742D02*
X114039571Y-111561885D01*
X114039571Y-111561885D02*
X113868142Y-111561885D01*
X113868142Y-111561885D02*
X113753857Y-111619028D01*
X113753857Y-111619028D02*
X113696714Y-111676171D01*
X113696714Y-111676171D02*
X113639571Y-111790457D01*
X113639571Y-111790457D02*
X113639571Y-112076171D01*
X113639571Y-112076171D02*
X113696714Y-112190457D01*
X113696714Y-112190457D02*
X113753857Y-112247600D01*
X113753857Y-112247600D02*
X113868142Y-112304742D01*
X113868142Y-112304742D02*
X114210999Y-112304742D01*
X114210999Y-112304742D02*
X114325285Y-112247600D01*
X114325285Y-112247600D02*
X114382428Y-112190457D01*
X113239571Y-111104742D02*
X112496714Y-111104742D01*
X112496714Y-111104742D02*
X112896714Y-111561885D01*
X112896714Y-111561885D02*
X112725285Y-111561885D01*
X112725285Y-111561885D02*
X112611000Y-111619028D01*
X112611000Y-111619028D02*
X112553857Y-111676171D01*
X112553857Y-111676171D02*
X112496714Y-111790457D01*
X112496714Y-111790457D02*
X112496714Y-112076171D01*
X112496714Y-112076171D02*
X112553857Y-112190457D01*
X112553857Y-112190457D02*
X112611000Y-112247600D01*
X112611000Y-112247600D02*
X112725285Y-112304742D01*
X112725285Y-112304742D02*
X113068142Y-112304742D01*
X113068142Y-112304742D02*
X113182428Y-112247600D01*
X113182428Y-112247600D02*
X113239571Y-112190457D01*
X114382428Y-113644742D02*
X113639571Y-113644742D01*
X113639571Y-113644742D02*
X114039571Y-114101885D01*
X114039571Y-114101885D02*
X113868142Y-114101885D01*
X113868142Y-114101885D02*
X113753857Y-114159028D01*
X113753857Y-114159028D02*
X113696714Y-114216171D01*
X113696714Y-114216171D02*
X113639571Y-114330457D01*
X113639571Y-114330457D02*
X113639571Y-114616171D01*
X113639571Y-114616171D02*
X113696714Y-114730457D01*
X113696714Y-114730457D02*
X113753857Y-114787600D01*
X113753857Y-114787600D02*
X113868142Y-114844742D01*
X113868142Y-114844742D02*
X114210999Y-114844742D01*
X114210999Y-114844742D02*
X114325285Y-114787600D01*
X114325285Y-114787600D02*
X114382428Y-114730457D01*
X113182428Y-113759028D02*
X113125285Y-113701885D01*
X113125285Y-113701885D02*
X113011000Y-113644742D01*
X113011000Y-113644742D02*
X112725285Y-113644742D01*
X112725285Y-113644742D02*
X112611000Y-113701885D01*
X112611000Y-113701885D02*
X112553857Y-113759028D01*
X112553857Y-113759028D02*
X112496714Y-113873314D01*
X112496714Y-113873314D02*
X112496714Y-113987600D01*
X112496714Y-113987600D02*
X112553857Y-114159028D01*
X112553857Y-114159028D02*
X113239571Y-114844742D01*
X113239571Y-114844742D02*
X112496714Y-114844742D01*
X114509428Y-116184742D02*
X113766571Y-116184742D01*
X113766571Y-116184742D02*
X114166571Y-116641885D01*
X114166571Y-116641885D02*
X113995142Y-116641885D01*
X113995142Y-116641885D02*
X113880857Y-116699028D01*
X113880857Y-116699028D02*
X113823714Y-116756171D01*
X113823714Y-116756171D02*
X113766571Y-116870457D01*
X113766571Y-116870457D02*
X113766571Y-117156171D01*
X113766571Y-117156171D02*
X113823714Y-117270457D01*
X113823714Y-117270457D02*
X113880857Y-117327600D01*
X113880857Y-117327600D02*
X113995142Y-117384742D01*
X113995142Y-117384742D02*
X114337999Y-117384742D01*
X114337999Y-117384742D02*
X114452285Y-117327600D01*
X114452285Y-117327600D02*
X114509428Y-117270457D01*
X112623714Y-117384742D02*
X113309428Y-117384742D01*
X112966571Y-117384742D02*
X112966571Y-116184742D01*
X112966571Y-116184742D02*
X113080857Y-116356171D01*
X113080857Y-116356171D02*
X113195142Y-116470457D01*
X113195142Y-116470457D02*
X113309428Y-116527600D01*
X114268142Y-119581885D02*
X113696714Y-119581885D01*
X114382428Y-119924742D02*
X113982428Y-118724742D01*
X113982428Y-118724742D02*
X113582428Y-119924742D01*
X112668143Y-119124742D02*
X112668143Y-119924742D01*
X112953857Y-118667600D02*
X113239571Y-119524742D01*
X113239571Y-119524742D02*
X112496714Y-119524742D01*
X114509428Y-121264742D02*
X113766571Y-121264742D01*
X113766571Y-121264742D02*
X114166571Y-121721885D01*
X114166571Y-121721885D02*
X113995142Y-121721885D01*
X113995142Y-121721885D02*
X113880857Y-121779028D01*
X113880857Y-121779028D02*
X113823714Y-121836171D01*
X113823714Y-121836171D02*
X113766571Y-121950457D01*
X113766571Y-121950457D02*
X113766571Y-122236171D01*
X113766571Y-122236171D02*
X113823714Y-122350457D01*
X113823714Y-122350457D02*
X113880857Y-122407600D01*
X113880857Y-122407600D02*
X113995142Y-122464742D01*
X113995142Y-122464742D02*
X114337999Y-122464742D01*
X114337999Y-122464742D02*
X114452285Y-122407600D01*
X114452285Y-122407600D02*
X114509428Y-122350457D01*
X113023714Y-121264742D02*
X112909428Y-121264742D01*
X112909428Y-121264742D02*
X112795142Y-121321885D01*
X112795142Y-121321885D02*
X112738000Y-121379028D01*
X112738000Y-121379028D02*
X112680857Y-121493314D01*
X112680857Y-121493314D02*
X112623714Y-121721885D01*
X112623714Y-121721885D02*
X112623714Y-122007600D01*
X112623714Y-122007600D02*
X112680857Y-122236171D01*
X112680857Y-122236171D02*
X112738000Y-122350457D01*
X112738000Y-122350457D02*
X112795142Y-122407600D01*
X112795142Y-122407600D02*
X112909428Y-122464742D01*
X112909428Y-122464742D02*
X113023714Y-122464742D01*
X113023714Y-122464742D02*
X113138000Y-122407600D01*
X113138000Y-122407600D02*
X113195142Y-122350457D01*
X113195142Y-122350457D02*
X113252285Y-122236171D01*
X113252285Y-122236171D02*
X113309428Y-122007600D01*
X113309428Y-122007600D02*
X113309428Y-121721885D01*
X113309428Y-121721885D02*
X113252285Y-121493314D01*
X113252285Y-121493314D02*
X113195142Y-121379028D01*
X113195142Y-121379028D02*
X113138000Y-121321885D01*
X113138000Y-121321885D02*
X113023714Y-121264742D01*
X114509428Y-123804742D02*
X113766571Y-123804742D01*
X113766571Y-123804742D02*
X114166571Y-124261885D01*
X114166571Y-124261885D02*
X113995142Y-124261885D01*
X113995142Y-124261885D02*
X113880857Y-124319028D01*
X113880857Y-124319028D02*
X113823714Y-124376171D01*
X113823714Y-124376171D02*
X113766571Y-124490457D01*
X113766571Y-124490457D02*
X113766571Y-124776171D01*
X113766571Y-124776171D02*
X113823714Y-124890457D01*
X113823714Y-124890457D02*
X113880857Y-124947600D01*
X113880857Y-124947600D02*
X113995142Y-125004742D01*
X113995142Y-125004742D02*
X114337999Y-125004742D01*
X114337999Y-125004742D02*
X114452285Y-124947600D01*
X114452285Y-124947600D02*
X114509428Y-124890457D01*
X112738000Y-123804742D02*
X112966571Y-123804742D01*
X112966571Y-123804742D02*
X113080857Y-123861885D01*
X113080857Y-123861885D02*
X113138000Y-123919028D01*
X113138000Y-123919028D02*
X113252285Y-124090457D01*
X113252285Y-124090457D02*
X113309428Y-124319028D01*
X113309428Y-124319028D02*
X113309428Y-124776171D01*
X113309428Y-124776171D02*
X113252285Y-124890457D01*
X113252285Y-124890457D02*
X113195142Y-124947600D01*
X113195142Y-124947600D02*
X113080857Y-125004742D01*
X113080857Y-125004742D02*
X112852285Y-125004742D01*
X112852285Y-125004742D02*
X112738000Y-124947600D01*
X112738000Y-124947600D02*
X112680857Y-124890457D01*
X112680857Y-124890457D02*
X112623714Y-124776171D01*
X112623714Y-124776171D02*
X112623714Y-124490457D01*
X112623714Y-124490457D02*
X112680857Y-124376171D01*
X112680857Y-124376171D02*
X112738000Y-124319028D01*
X112738000Y-124319028D02*
X112852285Y-124261885D01*
X112852285Y-124261885D02*
X113080857Y-124261885D01*
X113080857Y-124261885D02*
X113195142Y-124319028D01*
X113195142Y-124319028D02*
X113252285Y-124376171D01*
X113252285Y-124376171D02*
X113309428Y-124490457D01*
X114509428Y-126344742D02*
X113766571Y-126344742D01*
X113766571Y-126344742D02*
X114166571Y-126801885D01*
X114166571Y-126801885D02*
X113995142Y-126801885D01*
X113995142Y-126801885D02*
X113880857Y-126859028D01*
X113880857Y-126859028D02*
X113823714Y-126916171D01*
X113823714Y-126916171D02*
X113766571Y-127030457D01*
X113766571Y-127030457D02*
X113766571Y-127316171D01*
X113766571Y-127316171D02*
X113823714Y-127430457D01*
X113823714Y-127430457D02*
X113880857Y-127487600D01*
X113880857Y-127487600D02*
X113995142Y-127544742D01*
X113995142Y-127544742D02*
X114337999Y-127544742D01*
X114337999Y-127544742D02*
X114452285Y-127487600D01*
X114452285Y-127487600D02*
X114509428Y-127430457D01*
X112680857Y-126344742D02*
X113252285Y-126344742D01*
X113252285Y-126344742D02*
X113309428Y-126916171D01*
X113309428Y-126916171D02*
X113252285Y-126859028D01*
X113252285Y-126859028D02*
X113138000Y-126801885D01*
X113138000Y-126801885D02*
X112852285Y-126801885D01*
X112852285Y-126801885D02*
X112738000Y-126859028D01*
X112738000Y-126859028D02*
X112680857Y-126916171D01*
X112680857Y-126916171D02*
X112623714Y-127030457D01*
X112623714Y-127030457D02*
X112623714Y-127316171D01*
X112623714Y-127316171D02*
X112680857Y-127430457D01*
X112680857Y-127430457D02*
X112738000Y-127487600D01*
X112738000Y-127487600D02*
X112852285Y-127544742D01*
X112852285Y-127544742D02*
X113138000Y-127544742D01*
X113138000Y-127544742D02*
X113252285Y-127487600D01*
X113252285Y-127487600D02*
X113309428Y-127430457D01*
X114509428Y-128884742D02*
X113766571Y-128884742D01*
X113766571Y-128884742D02*
X114166571Y-129341885D01*
X114166571Y-129341885D02*
X113995142Y-129341885D01*
X113995142Y-129341885D02*
X113880857Y-129399028D01*
X113880857Y-129399028D02*
X113823714Y-129456171D01*
X113823714Y-129456171D02*
X113766571Y-129570457D01*
X113766571Y-129570457D02*
X113766571Y-129856171D01*
X113766571Y-129856171D02*
X113823714Y-129970457D01*
X113823714Y-129970457D02*
X113880857Y-130027600D01*
X113880857Y-130027600D02*
X113995142Y-130084742D01*
X113995142Y-130084742D02*
X114337999Y-130084742D01*
X114337999Y-130084742D02*
X114452285Y-130027600D01*
X114452285Y-130027600D02*
X114509428Y-129970457D01*
X112738000Y-129284742D02*
X112738000Y-130084742D01*
X113023714Y-128827600D02*
X113309428Y-129684742D01*
X113309428Y-129684742D02*
X112566571Y-129684742D01*
X123539142Y-111961885D02*
X122967714Y-111961885D01*
X123653428Y-112304742D02*
X123253428Y-111104742D01*
X123253428Y-111104742D02*
X122853428Y-112304742D01*
X121824857Y-112304742D02*
X122510571Y-112304742D01*
X122167714Y-112304742D02*
X122167714Y-111104742D01*
X122167714Y-111104742D02*
X122282000Y-111276171D01*
X122282000Y-111276171D02*
X122396285Y-111390457D01*
X122396285Y-111390457D02*
X122510571Y-111447600D01*
X123539142Y-114501885D02*
X122967714Y-114501885D01*
X123653428Y-114844742D02*
X123253428Y-113644742D01*
X123253428Y-113644742D02*
X122853428Y-114844742D01*
X122510571Y-113759028D02*
X122453428Y-113701885D01*
X122453428Y-113701885D02*
X122339143Y-113644742D01*
X122339143Y-113644742D02*
X122053428Y-113644742D01*
X122053428Y-113644742D02*
X121939143Y-113701885D01*
X121939143Y-113701885D02*
X121882000Y-113759028D01*
X121882000Y-113759028D02*
X121824857Y-113873314D01*
X121824857Y-113873314D02*
X121824857Y-113987600D01*
X121824857Y-113987600D02*
X121882000Y-114159028D01*
X121882000Y-114159028D02*
X122567714Y-114844742D01*
X122567714Y-114844742D02*
X121824857Y-114844742D01*
X123539142Y-117041885D02*
X122967714Y-117041885D01*
X123653428Y-117384742D02*
X123253428Y-116184742D01*
X123253428Y-116184742D02*
X122853428Y-117384742D01*
X122567714Y-116184742D02*
X121824857Y-116184742D01*
X121824857Y-116184742D02*
X122224857Y-116641885D01*
X122224857Y-116641885D02*
X122053428Y-116641885D01*
X122053428Y-116641885D02*
X121939143Y-116699028D01*
X121939143Y-116699028D02*
X121882000Y-116756171D01*
X121882000Y-116756171D02*
X121824857Y-116870457D01*
X121824857Y-116870457D02*
X121824857Y-117156171D01*
X121824857Y-117156171D02*
X121882000Y-117270457D01*
X121882000Y-117270457D02*
X121939143Y-117327600D01*
X121939143Y-117327600D02*
X122053428Y-117384742D01*
X122053428Y-117384742D02*
X122396285Y-117384742D01*
X122396285Y-117384742D02*
X122510571Y-117327600D01*
X122510571Y-117327600D02*
X122567714Y-117270457D01*
X123539142Y-119581885D02*
X122967714Y-119581885D01*
X123653428Y-119924742D02*
X123253428Y-118724742D01*
X123253428Y-118724742D02*
X122853428Y-119924742D01*
X121882000Y-118724742D02*
X122453428Y-118724742D01*
X122453428Y-118724742D02*
X122510571Y-119296171D01*
X122510571Y-119296171D02*
X122453428Y-119239028D01*
X122453428Y-119239028D02*
X122339143Y-119181885D01*
X122339143Y-119181885D02*
X122053428Y-119181885D01*
X122053428Y-119181885D02*
X121939143Y-119239028D01*
X121939143Y-119239028D02*
X121882000Y-119296171D01*
X121882000Y-119296171D02*
X121824857Y-119410457D01*
X121824857Y-119410457D02*
X121824857Y-119696171D01*
X121824857Y-119696171D02*
X121882000Y-119810457D01*
X121882000Y-119810457D02*
X121939143Y-119867600D01*
X121939143Y-119867600D02*
X122053428Y-119924742D01*
X122053428Y-119924742D02*
X122339143Y-119924742D01*
X122339143Y-119924742D02*
X122453428Y-119867600D01*
X122453428Y-119867600D02*
X122510571Y-119810457D01*
X123412142Y-122121885D02*
X122840714Y-122121885D01*
X123526428Y-122464742D02*
X123126428Y-121264742D01*
X123126428Y-121264742D02*
X122726428Y-122464742D01*
X121812143Y-121264742D02*
X122040714Y-121264742D01*
X122040714Y-121264742D02*
X122155000Y-121321885D01*
X122155000Y-121321885D02*
X122212143Y-121379028D01*
X122212143Y-121379028D02*
X122326428Y-121550457D01*
X122326428Y-121550457D02*
X122383571Y-121779028D01*
X122383571Y-121779028D02*
X122383571Y-122236171D01*
X122383571Y-122236171D02*
X122326428Y-122350457D01*
X122326428Y-122350457D02*
X122269285Y-122407600D01*
X122269285Y-122407600D02*
X122155000Y-122464742D01*
X122155000Y-122464742D02*
X121926428Y-122464742D01*
X121926428Y-122464742D02*
X121812143Y-122407600D01*
X121812143Y-122407600D02*
X121755000Y-122350457D01*
X121755000Y-122350457D02*
X121697857Y-122236171D01*
X121697857Y-122236171D02*
X121697857Y-121950457D01*
X121697857Y-121950457D02*
X121755000Y-121836171D01*
X121755000Y-121836171D02*
X121812143Y-121779028D01*
X121812143Y-121779028D02*
X121926428Y-121721885D01*
X121926428Y-121721885D02*
X122155000Y-121721885D01*
X122155000Y-121721885D02*
X122269285Y-121779028D01*
X122269285Y-121779028D02*
X122326428Y-121836171D01*
X122326428Y-121836171D02*
X122383571Y-121950457D01*
X123412142Y-124661885D02*
X122840714Y-124661885D01*
X123526428Y-125004742D02*
X123126428Y-123804742D01*
X123126428Y-123804742D02*
X122726428Y-125004742D01*
X122440714Y-123804742D02*
X121640714Y-123804742D01*
X121640714Y-123804742D02*
X122155000Y-125004742D01*
X124358285Y-108621885D02*
X124472571Y-108564742D01*
X124472571Y-108564742D02*
X124643999Y-108564742D01*
X124643999Y-108564742D02*
X124815428Y-108621885D01*
X124815428Y-108621885D02*
X124929713Y-108736171D01*
X124929713Y-108736171D02*
X124986856Y-108850457D01*
X124986856Y-108850457D02*
X125043999Y-109079028D01*
X125043999Y-109079028D02*
X125043999Y-109250457D01*
X125043999Y-109250457D02*
X124986856Y-109479028D01*
X124986856Y-109479028D02*
X124929713Y-109593314D01*
X124929713Y-109593314D02*
X124815428Y-109707600D01*
X124815428Y-109707600D02*
X124643999Y-109764742D01*
X124643999Y-109764742D02*
X124529713Y-109764742D01*
X124529713Y-109764742D02*
X124358285Y-109707600D01*
X124358285Y-109707600D02*
X124301142Y-109650457D01*
X124301142Y-109650457D02*
X124301142Y-109250457D01*
X124301142Y-109250457D02*
X124529713Y-109250457D01*
X123786856Y-109764742D02*
X123786856Y-108564742D01*
X123786856Y-108564742D02*
X123101142Y-109764742D01*
X123101142Y-109764742D02*
X123101142Y-108564742D01*
X122529713Y-109764742D02*
X122529713Y-108564742D01*
X122529713Y-108564742D02*
X122243999Y-108564742D01*
X122243999Y-108564742D02*
X122072570Y-108621885D01*
X122072570Y-108621885D02*
X121958285Y-108736171D01*
X121958285Y-108736171D02*
X121901142Y-108850457D01*
X121901142Y-108850457D02*
X121843999Y-109079028D01*
X121843999Y-109079028D02*
X121843999Y-109250457D01*
X121843999Y-109250457D02*
X121901142Y-109479028D01*
X121901142Y-109479028D02*
X121958285Y-109593314D01*
X121958285Y-109593314D02*
X122072570Y-109707600D01*
X122072570Y-109707600D02*
X122243999Y-109764742D01*
X122243999Y-109764742D02*
X122529713Y-109764742D01*
X166776285Y-108679028D02*
X166719142Y-108621885D01*
X166719142Y-108621885D02*
X166604857Y-108564742D01*
X166604857Y-108564742D02*
X166319142Y-108564742D01*
X166319142Y-108564742D02*
X166204857Y-108621885D01*
X166204857Y-108621885D02*
X166147714Y-108679028D01*
X166147714Y-108679028D02*
X166090571Y-108793314D01*
X166090571Y-108793314D02*
X166090571Y-108907600D01*
X166090571Y-108907600D02*
X166147714Y-109079028D01*
X166147714Y-109079028D02*
X166833428Y-109764742D01*
X166833428Y-109764742D02*
X166090571Y-109764742D01*
X165690571Y-108564742D02*
X164947714Y-108564742D01*
X164947714Y-108564742D02*
X165347714Y-109021885D01*
X165347714Y-109021885D02*
X165176285Y-109021885D01*
X165176285Y-109021885D02*
X165062000Y-109079028D01*
X165062000Y-109079028D02*
X165004857Y-109136171D01*
X165004857Y-109136171D02*
X164947714Y-109250457D01*
X164947714Y-109250457D02*
X164947714Y-109536171D01*
X164947714Y-109536171D02*
X165004857Y-109650457D01*
X165004857Y-109650457D02*
X165062000Y-109707600D01*
X165062000Y-109707600D02*
X165176285Y-109764742D01*
X165176285Y-109764742D02*
X165519142Y-109764742D01*
X165519142Y-109764742D02*
X165633428Y-109707600D01*
X165633428Y-109707600D02*
X165690571Y-109650457D01*
X166776285Y-111219028D02*
X166719142Y-111161885D01*
X166719142Y-111161885D02*
X166604857Y-111104742D01*
X166604857Y-111104742D02*
X166319142Y-111104742D01*
X166319142Y-111104742D02*
X166204857Y-111161885D01*
X166204857Y-111161885D02*
X166147714Y-111219028D01*
X166147714Y-111219028D02*
X166090571Y-111333314D01*
X166090571Y-111333314D02*
X166090571Y-111447600D01*
X166090571Y-111447600D02*
X166147714Y-111619028D01*
X166147714Y-111619028D02*
X166833428Y-112304742D01*
X166833428Y-112304742D02*
X166090571Y-112304742D01*
X164947714Y-112304742D02*
X165633428Y-112304742D01*
X165290571Y-112304742D02*
X165290571Y-111104742D01*
X165290571Y-111104742D02*
X165404857Y-111276171D01*
X165404857Y-111276171D02*
X165519142Y-111390457D01*
X165519142Y-111390457D02*
X165633428Y-111447600D01*
X165963571Y-114844742D02*
X166649285Y-114844742D01*
X166306428Y-114844742D02*
X166306428Y-113644742D01*
X166306428Y-113644742D02*
X166420714Y-113816171D01*
X166420714Y-113816171D02*
X166534999Y-113930457D01*
X166534999Y-113930457D02*
X166649285Y-113987600D01*
X165392142Y-114844742D02*
X165163571Y-114844742D01*
X165163571Y-114844742D02*
X165049285Y-114787600D01*
X165049285Y-114787600D02*
X164992142Y-114730457D01*
X164992142Y-114730457D02*
X164877857Y-114559028D01*
X164877857Y-114559028D02*
X164820714Y-114330457D01*
X164820714Y-114330457D02*
X164820714Y-113873314D01*
X164820714Y-113873314D02*
X164877857Y-113759028D01*
X164877857Y-113759028D02*
X164935000Y-113701885D01*
X164935000Y-113701885D02*
X165049285Y-113644742D01*
X165049285Y-113644742D02*
X165277857Y-113644742D01*
X165277857Y-113644742D02*
X165392142Y-113701885D01*
X165392142Y-113701885D02*
X165449285Y-113759028D01*
X165449285Y-113759028D02*
X165506428Y-113873314D01*
X165506428Y-113873314D02*
X165506428Y-114159028D01*
X165506428Y-114159028D02*
X165449285Y-114273314D01*
X165449285Y-114273314D02*
X165392142Y-114330457D01*
X165392142Y-114330457D02*
X165277857Y-114387600D01*
X165277857Y-114387600D02*
X165049285Y-114387600D01*
X165049285Y-114387600D02*
X164935000Y-114330457D01*
X164935000Y-114330457D02*
X164877857Y-114273314D01*
X164877857Y-114273314D02*
X164820714Y-114159028D01*
X167027142Y-117384742D02*
X167427142Y-116813314D01*
X167712856Y-117384742D02*
X167712856Y-116184742D01*
X167712856Y-116184742D02*
X167255713Y-116184742D01*
X167255713Y-116184742D02*
X167141428Y-116241885D01*
X167141428Y-116241885D02*
X167084285Y-116299028D01*
X167084285Y-116299028D02*
X167027142Y-116413314D01*
X167027142Y-116413314D02*
X167027142Y-116584742D01*
X167027142Y-116584742D02*
X167084285Y-116699028D01*
X167084285Y-116699028D02*
X167141428Y-116756171D01*
X167141428Y-116756171D02*
X167255713Y-116813314D01*
X167255713Y-116813314D02*
X167712856Y-116813314D01*
X166569999Y-117327600D02*
X166398571Y-117384742D01*
X166398571Y-117384742D02*
X166112856Y-117384742D01*
X166112856Y-117384742D02*
X165998571Y-117327600D01*
X165998571Y-117327600D02*
X165941428Y-117270457D01*
X165941428Y-117270457D02*
X165884285Y-117156171D01*
X165884285Y-117156171D02*
X165884285Y-117041885D01*
X165884285Y-117041885D02*
X165941428Y-116927600D01*
X165941428Y-116927600D02*
X165998571Y-116870457D01*
X165998571Y-116870457D02*
X166112856Y-116813314D01*
X166112856Y-116813314D02*
X166341428Y-116756171D01*
X166341428Y-116756171D02*
X166455713Y-116699028D01*
X166455713Y-116699028D02*
X166512856Y-116641885D01*
X166512856Y-116641885D02*
X166569999Y-116527600D01*
X166569999Y-116527600D02*
X166569999Y-116413314D01*
X166569999Y-116413314D02*
X166512856Y-116299028D01*
X166512856Y-116299028D02*
X166455713Y-116241885D01*
X166455713Y-116241885D02*
X166341428Y-116184742D01*
X166341428Y-116184742D02*
X166055713Y-116184742D01*
X166055713Y-116184742D02*
X165884285Y-116241885D01*
X165541428Y-116184742D02*
X164855714Y-116184742D01*
X165198571Y-117384742D02*
X165198571Y-116184742D01*
X167878571Y-115851600D02*
X164861428Y-115851600D01*
X165963571Y-119924742D02*
X166649285Y-119924742D01*
X166306428Y-119924742D02*
X166306428Y-118724742D01*
X166306428Y-118724742D02*
X166420714Y-118896171D01*
X166420714Y-118896171D02*
X166534999Y-119010457D01*
X166534999Y-119010457D02*
X166649285Y-119067600D01*
X164820714Y-119924742D02*
X165506428Y-119924742D01*
X165163571Y-119924742D02*
X165163571Y-118724742D01*
X165163571Y-118724742D02*
X165277857Y-118896171D01*
X165277857Y-118896171D02*
X165392142Y-119010457D01*
X165392142Y-119010457D02*
X165506428Y-119067600D01*
X165963571Y-122464742D02*
X166649285Y-122464742D01*
X166306428Y-122464742D02*
X166306428Y-121264742D01*
X166306428Y-121264742D02*
X166420714Y-121436171D01*
X166420714Y-121436171D02*
X166534999Y-121550457D01*
X166534999Y-121550457D02*
X166649285Y-121607600D01*
X165506428Y-121379028D02*
X165449285Y-121321885D01*
X165449285Y-121321885D02*
X165335000Y-121264742D01*
X165335000Y-121264742D02*
X165049285Y-121264742D01*
X165049285Y-121264742D02*
X164935000Y-121321885D01*
X164935000Y-121321885D02*
X164877857Y-121379028D01*
X164877857Y-121379028D02*
X164820714Y-121493314D01*
X164820714Y-121493314D02*
X164820714Y-121607600D01*
X164820714Y-121607600D02*
X164877857Y-121779028D01*
X164877857Y-121779028D02*
X165563571Y-122464742D01*
X165563571Y-122464742D02*
X164820714Y-122464742D01*
X165963571Y-125004742D02*
X166649285Y-125004742D01*
X166306428Y-125004742D02*
X166306428Y-123804742D01*
X166306428Y-123804742D02*
X166420714Y-123976171D01*
X166420714Y-123976171D02*
X166534999Y-124090457D01*
X166534999Y-124090457D02*
X166649285Y-124147600D01*
X165563571Y-123804742D02*
X164820714Y-123804742D01*
X164820714Y-123804742D02*
X165220714Y-124261885D01*
X165220714Y-124261885D02*
X165049285Y-124261885D01*
X165049285Y-124261885D02*
X164935000Y-124319028D01*
X164935000Y-124319028D02*
X164877857Y-124376171D01*
X164877857Y-124376171D02*
X164820714Y-124490457D01*
X164820714Y-124490457D02*
X164820714Y-124776171D01*
X164820714Y-124776171D02*
X164877857Y-124890457D01*
X164877857Y-124890457D02*
X164935000Y-124947600D01*
X164935000Y-124947600D02*
X165049285Y-125004742D01*
X165049285Y-125004742D02*
X165392142Y-125004742D01*
X165392142Y-125004742D02*
X165506428Y-124947600D01*
X165506428Y-124947600D02*
X165563571Y-124890457D01*
X166090571Y-127544742D02*
X166776285Y-127544742D01*
X166433428Y-127544742D02*
X166433428Y-126344742D01*
X166433428Y-126344742D02*
X166547714Y-126516171D01*
X166547714Y-126516171D02*
X166661999Y-126630457D01*
X166661999Y-126630457D02*
X166776285Y-126687600D01*
X165062000Y-126744742D02*
X165062000Y-127544742D01*
X165347714Y-126287600D02*
X165633428Y-127144742D01*
X165633428Y-127144742D02*
X164890571Y-127144742D01*
X165976285Y-129399028D02*
X166090570Y-129341885D01*
X166090570Y-129341885D02*
X166147713Y-129284742D01*
X166147713Y-129284742D02*
X166204856Y-129170457D01*
X166204856Y-129170457D02*
X166204856Y-129113314D01*
X166204856Y-129113314D02*
X166147713Y-128999028D01*
X166147713Y-128999028D02*
X166090570Y-128941885D01*
X166090570Y-128941885D02*
X165976285Y-128884742D01*
X165976285Y-128884742D02*
X165747713Y-128884742D01*
X165747713Y-128884742D02*
X165633428Y-128941885D01*
X165633428Y-128941885D02*
X165576285Y-128999028D01*
X165576285Y-128999028D02*
X165519142Y-129113314D01*
X165519142Y-129113314D02*
X165519142Y-129170457D01*
X165519142Y-129170457D02*
X165576285Y-129284742D01*
X165576285Y-129284742D02*
X165633428Y-129341885D01*
X165633428Y-129341885D02*
X165747713Y-129399028D01*
X165747713Y-129399028D02*
X165976285Y-129399028D01*
X165976285Y-129399028D02*
X166090570Y-129456171D01*
X166090570Y-129456171D02*
X166147713Y-129513314D01*
X166147713Y-129513314D02*
X166204856Y-129627600D01*
X166204856Y-129627600D02*
X166204856Y-129856171D01*
X166204856Y-129856171D02*
X166147713Y-129970457D01*
X166147713Y-129970457D02*
X166090570Y-130027600D01*
X166090570Y-130027600D02*
X165976285Y-130084742D01*
X165976285Y-130084742D02*
X165747713Y-130084742D01*
X165747713Y-130084742D02*
X165633428Y-130027600D01*
X165633428Y-130027600D02*
X165576285Y-129970457D01*
X165576285Y-129970457D02*
X165519142Y-129856171D01*
X165519142Y-129856171D02*
X165519142Y-129627600D01*
X165519142Y-129627600D02*
X165576285Y-129513314D01*
X165576285Y-129513314D02*
X165633428Y-129456171D01*
X165633428Y-129456171D02*
X165747713Y-129399028D01*
X156819570Y-130084742D02*
X156590999Y-130084742D01*
X156590999Y-130084742D02*
X156476713Y-130027600D01*
X156476713Y-130027600D02*
X156419570Y-129970457D01*
X156419570Y-129970457D02*
X156305285Y-129799028D01*
X156305285Y-129799028D02*
X156248142Y-129570457D01*
X156248142Y-129570457D02*
X156248142Y-129113314D01*
X156248142Y-129113314D02*
X156305285Y-128999028D01*
X156305285Y-128999028D02*
X156362428Y-128941885D01*
X156362428Y-128941885D02*
X156476713Y-128884742D01*
X156476713Y-128884742D02*
X156705285Y-128884742D01*
X156705285Y-128884742D02*
X156819570Y-128941885D01*
X156819570Y-128941885D02*
X156876713Y-128999028D01*
X156876713Y-128999028D02*
X156933856Y-129113314D01*
X156933856Y-129113314D02*
X156933856Y-129399028D01*
X156933856Y-129399028D02*
X156876713Y-129513314D01*
X156876713Y-129513314D02*
X156819570Y-129570457D01*
X156819570Y-129570457D02*
X156705285Y-129627600D01*
X156705285Y-129627600D02*
X156476713Y-129627600D01*
X156476713Y-129627600D02*
X156362428Y-129570457D01*
X156362428Y-129570457D02*
X156305285Y-129513314D01*
X156305285Y-129513314D02*
X156248142Y-129399028D01*
X156819571Y-127544742D02*
X157505285Y-127544742D01*
X157162428Y-127544742D02*
X157162428Y-126344742D01*
X157162428Y-126344742D02*
X157276714Y-126516171D01*
X157276714Y-126516171D02*
X157390999Y-126630457D01*
X157390999Y-126630457D02*
X157505285Y-126687600D01*
X156076714Y-126344742D02*
X155962428Y-126344742D01*
X155962428Y-126344742D02*
X155848142Y-126401885D01*
X155848142Y-126401885D02*
X155791000Y-126459028D01*
X155791000Y-126459028D02*
X155733857Y-126573314D01*
X155733857Y-126573314D02*
X155676714Y-126801885D01*
X155676714Y-126801885D02*
X155676714Y-127087600D01*
X155676714Y-127087600D02*
X155733857Y-127316171D01*
X155733857Y-127316171D02*
X155791000Y-127430457D01*
X155791000Y-127430457D02*
X155848142Y-127487600D01*
X155848142Y-127487600D02*
X155962428Y-127544742D01*
X155962428Y-127544742D02*
X156076714Y-127544742D01*
X156076714Y-127544742D02*
X156191000Y-127487600D01*
X156191000Y-127487600D02*
X156248142Y-127430457D01*
X156248142Y-127430457D02*
X156305285Y-127316171D01*
X156305285Y-127316171D02*
X156362428Y-127087600D01*
X156362428Y-127087600D02*
X156362428Y-126801885D01*
X156362428Y-126801885D02*
X156305285Y-126573314D01*
X156305285Y-126573314D02*
X156248142Y-126459028D01*
X156248142Y-126459028D02*
X156191000Y-126401885D01*
X156191000Y-126401885D02*
X156076714Y-126344742D01*
X156946571Y-125004742D02*
X157632285Y-125004742D01*
X157289428Y-125004742D02*
X157289428Y-123804742D01*
X157289428Y-123804742D02*
X157403714Y-123976171D01*
X157403714Y-123976171D02*
X157517999Y-124090457D01*
X157517999Y-124090457D02*
X157632285Y-124147600D01*
X155860857Y-123804742D02*
X156432285Y-123804742D01*
X156432285Y-123804742D02*
X156489428Y-124376171D01*
X156489428Y-124376171D02*
X156432285Y-124319028D01*
X156432285Y-124319028D02*
X156318000Y-124261885D01*
X156318000Y-124261885D02*
X156032285Y-124261885D01*
X156032285Y-124261885D02*
X155918000Y-124319028D01*
X155918000Y-124319028D02*
X155860857Y-124376171D01*
X155860857Y-124376171D02*
X155803714Y-124490457D01*
X155803714Y-124490457D02*
X155803714Y-124776171D01*
X155803714Y-124776171D02*
X155860857Y-124890457D01*
X155860857Y-124890457D02*
X155918000Y-124947600D01*
X155918000Y-124947600D02*
X156032285Y-125004742D01*
X156032285Y-125004742D02*
X156318000Y-125004742D01*
X156318000Y-125004742D02*
X156432285Y-124947600D01*
X156432285Y-124947600D02*
X156489428Y-124890457D01*
X157073571Y-122464742D02*
X157759285Y-122464742D01*
X157416428Y-122464742D02*
X157416428Y-121264742D01*
X157416428Y-121264742D02*
X157530714Y-121436171D01*
X157530714Y-121436171D02*
X157644999Y-121550457D01*
X157644999Y-121550457D02*
X157759285Y-121607600D01*
X156045000Y-121264742D02*
X156273571Y-121264742D01*
X156273571Y-121264742D02*
X156387857Y-121321885D01*
X156387857Y-121321885D02*
X156445000Y-121379028D01*
X156445000Y-121379028D02*
X156559285Y-121550457D01*
X156559285Y-121550457D02*
X156616428Y-121779028D01*
X156616428Y-121779028D02*
X156616428Y-122236171D01*
X156616428Y-122236171D02*
X156559285Y-122350457D01*
X156559285Y-122350457D02*
X156502142Y-122407600D01*
X156502142Y-122407600D02*
X156387857Y-122464742D01*
X156387857Y-122464742D02*
X156159285Y-122464742D01*
X156159285Y-122464742D02*
X156045000Y-122407600D01*
X156045000Y-122407600D02*
X155987857Y-122350457D01*
X155987857Y-122350457D02*
X155930714Y-122236171D01*
X155930714Y-122236171D02*
X155930714Y-121950457D01*
X155930714Y-121950457D02*
X155987857Y-121836171D01*
X155987857Y-121836171D02*
X156045000Y-121779028D01*
X156045000Y-121779028D02*
X156159285Y-121721885D01*
X156159285Y-121721885D02*
X156387857Y-121721885D01*
X156387857Y-121721885D02*
X156502142Y-121779028D01*
X156502142Y-121779028D02*
X156559285Y-121836171D01*
X156559285Y-121836171D02*
X156616428Y-121950457D01*
X157759285Y-113759028D02*
X157702142Y-113701885D01*
X157702142Y-113701885D02*
X157587857Y-113644742D01*
X157587857Y-113644742D02*
X157302142Y-113644742D01*
X157302142Y-113644742D02*
X157187857Y-113701885D01*
X157187857Y-113701885D02*
X157130714Y-113759028D01*
X157130714Y-113759028D02*
X157073571Y-113873314D01*
X157073571Y-113873314D02*
X157073571Y-113987600D01*
X157073571Y-113987600D02*
X157130714Y-114159028D01*
X157130714Y-114159028D02*
X157816428Y-114844742D01*
X157816428Y-114844742D02*
X157073571Y-114844742D01*
X156330714Y-113644742D02*
X156216428Y-113644742D01*
X156216428Y-113644742D02*
X156102142Y-113701885D01*
X156102142Y-113701885D02*
X156045000Y-113759028D01*
X156045000Y-113759028D02*
X155987857Y-113873314D01*
X155987857Y-113873314D02*
X155930714Y-114101885D01*
X155930714Y-114101885D02*
X155930714Y-114387600D01*
X155930714Y-114387600D02*
X155987857Y-114616171D01*
X155987857Y-114616171D02*
X156045000Y-114730457D01*
X156045000Y-114730457D02*
X156102142Y-114787600D01*
X156102142Y-114787600D02*
X156216428Y-114844742D01*
X156216428Y-114844742D02*
X156330714Y-114844742D01*
X156330714Y-114844742D02*
X156445000Y-114787600D01*
X156445000Y-114787600D02*
X156502142Y-114730457D01*
X156502142Y-114730457D02*
X156559285Y-114616171D01*
X156559285Y-114616171D02*
X156616428Y-114387600D01*
X156616428Y-114387600D02*
X156616428Y-114101885D01*
X156616428Y-114101885D02*
X156559285Y-113873314D01*
X156559285Y-113873314D02*
X156502142Y-113759028D01*
X156502142Y-113759028D02*
X156445000Y-113701885D01*
X156445000Y-113701885D02*
X156330714Y-113644742D01*
X157632285Y-108679028D02*
X157575142Y-108621885D01*
X157575142Y-108621885D02*
X157460857Y-108564742D01*
X157460857Y-108564742D02*
X157175142Y-108564742D01*
X157175142Y-108564742D02*
X157060857Y-108621885D01*
X157060857Y-108621885D02*
X157003714Y-108679028D01*
X157003714Y-108679028D02*
X156946571Y-108793314D01*
X156946571Y-108793314D02*
X156946571Y-108907600D01*
X156946571Y-108907600D02*
X157003714Y-109079028D01*
X157003714Y-109079028D02*
X157689428Y-109764742D01*
X157689428Y-109764742D02*
X156946571Y-109764742D01*
X155918000Y-108964742D02*
X155918000Y-109764742D01*
X156203714Y-108507600D02*
X156489428Y-109364742D01*
X156489428Y-109364742D02*
X155746571Y-109364742D01*
X157632285Y-106139028D02*
X157575142Y-106081885D01*
X157575142Y-106081885D02*
X157460857Y-106024742D01*
X157460857Y-106024742D02*
X157175142Y-106024742D01*
X157175142Y-106024742D02*
X157060857Y-106081885D01*
X157060857Y-106081885D02*
X157003714Y-106139028D01*
X157003714Y-106139028D02*
X156946571Y-106253314D01*
X156946571Y-106253314D02*
X156946571Y-106367600D01*
X156946571Y-106367600D02*
X157003714Y-106539028D01*
X157003714Y-106539028D02*
X157689428Y-107224742D01*
X157689428Y-107224742D02*
X156946571Y-107224742D01*
X155860857Y-106024742D02*
X156432285Y-106024742D01*
X156432285Y-106024742D02*
X156489428Y-106596171D01*
X156489428Y-106596171D02*
X156432285Y-106539028D01*
X156432285Y-106539028D02*
X156318000Y-106481885D01*
X156318000Y-106481885D02*
X156032285Y-106481885D01*
X156032285Y-106481885D02*
X155918000Y-106539028D01*
X155918000Y-106539028D02*
X155860857Y-106596171D01*
X155860857Y-106596171D02*
X155803714Y-106710457D01*
X155803714Y-106710457D02*
X155803714Y-106996171D01*
X155803714Y-106996171D02*
X155860857Y-107110457D01*
X155860857Y-107110457D02*
X155918000Y-107167600D01*
X155918000Y-107167600D02*
X156032285Y-107224742D01*
X156032285Y-107224742D02*
X156318000Y-107224742D01*
X156318000Y-107224742D02*
X156432285Y-107167600D01*
X156432285Y-107167600D02*
X156489428Y-107110457D01*
X167538285Y-106081885D02*
X167652571Y-106024742D01*
X167652571Y-106024742D02*
X167823999Y-106024742D01*
X167823999Y-106024742D02*
X167995428Y-106081885D01*
X167995428Y-106081885D02*
X168109713Y-106196171D01*
X168109713Y-106196171D02*
X168166856Y-106310457D01*
X168166856Y-106310457D02*
X168223999Y-106539028D01*
X168223999Y-106539028D02*
X168223999Y-106710457D01*
X168223999Y-106710457D02*
X168166856Y-106939028D01*
X168166856Y-106939028D02*
X168109713Y-107053314D01*
X168109713Y-107053314D02*
X167995428Y-107167600D01*
X167995428Y-107167600D02*
X167823999Y-107224742D01*
X167823999Y-107224742D02*
X167709713Y-107224742D01*
X167709713Y-107224742D02*
X167538285Y-107167600D01*
X167538285Y-107167600D02*
X167481142Y-107110457D01*
X167481142Y-107110457D02*
X167481142Y-106710457D01*
X167481142Y-106710457D02*
X167709713Y-106710457D01*
X166966856Y-107224742D02*
X166966856Y-106024742D01*
X166966856Y-106024742D02*
X166281142Y-107224742D01*
X166281142Y-107224742D02*
X166281142Y-106024742D01*
X165709713Y-107224742D02*
X165709713Y-106024742D01*
X165709713Y-106024742D02*
X165423999Y-106024742D01*
X165423999Y-106024742D02*
X165252570Y-106081885D01*
X165252570Y-106081885D02*
X165138285Y-106196171D01*
X165138285Y-106196171D02*
X165081142Y-106310457D01*
X165081142Y-106310457D02*
X165023999Y-106539028D01*
X165023999Y-106539028D02*
X165023999Y-106710457D01*
X165023999Y-106710457D02*
X165081142Y-106939028D01*
X165081142Y-106939028D02*
X165138285Y-107053314D01*
X165138285Y-107053314D02*
X165252570Y-107167600D01*
X165252570Y-107167600D02*
X165423999Y-107224742D01*
X165423999Y-107224742D02*
X165709713Y-107224742D01*
X167538285Y-134021885D02*
X167652571Y-133964742D01*
X167652571Y-133964742D02*
X167823999Y-133964742D01*
X167823999Y-133964742D02*
X167995428Y-134021885D01*
X167995428Y-134021885D02*
X168109713Y-134136171D01*
X168109713Y-134136171D02*
X168166856Y-134250457D01*
X168166856Y-134250457D02*
X168223999Y-134479028D01*
X168223999Y-134479028D02*
X168223999Y-134650457D01*
X168223999Y-134650457D02*
X168166856Y-134879028D01*
X168166856Y-134879028D02*
X168109713Y-134993314D01*
X168109713Y-134993314D02*
X167995428Y-135107600D01*
X167995428Y-135107600D02*
X167823999Y-135164742D01*
X167823999Y-135164742D02*
X167709713Y-135164742D01*
X167709713Y-135164742D02*
X167538285Y-135107600D01*
X167538285Y-135107600D02*
X167481142Y-135050457D01*
X167481142Y-135050457D02*
X167481142Y-134650457D01*
X167481142Y-134650457D02*
X167709713Y-134650457D01*
X166966856Y-135164742D02*
X166966856Y-133964742D01*
X166966856Y-133964742D02*
X166281142Y-135164742D01*
X166281142Y-135164742D02*
X166281142Y-133964742D01*
X165709713Y-135164742D02*
X165709713Y-133964742D01*
X165709713Y-133964742D02*
X165423999Y-133964742D01*
X165423999Y-133964742D02*
X165252570Y-134021885D01*
X165252570Y-134021885D02*
X165138285Y-134136171D01*
X165138285Y-134136171D02*
X165081142Y-134250457D01*
X165081142Y-134250457D02*
X165023999Y-134479028D01*
X165023999Y-134479028D02*
X165023999Y-134650457D01*
X165023999Y-134650457D02*
X165081142Y-134879028D01*
X165081142Y-134879028D02*
X165138285Y-134993314D01*
X165138285Y-134993314D02*
X165252570Y-135107600D01*
X165252570Y-135107600D02*
X165423999Y-135164742D01*
X165423999Y-135164742D02*
X165709713Y-135164742D01*
X167538285Y-136561885D02*
X167652571Y-136504742D01*
X167652571Y-136504742D02*
X167823999Y-136504742D01*
X167823999Y-136504742D02*
X167995428Y-136561885D01*
X167995428Y-136561885D02*
X168109713Y-136676171D01*
X168109713Y-136676171D02*
X168166856Y-136790457D01*
X168166856Y-136790457D02*
X168223999Y-137019028D01*
X168223999Y-137019028D02*
X168223999Y-137190457D01*
X168223999Y-137190457D02*
X168166856Y-137419028D01*
X168166856Y-137419028D02*
X168109713Y-137533314D01*
X168109713Y-137533314D02*
X167995428Y-137647600D01*
X167995428Y-137647600D02*
X167823999Y-137704742D01*
X167823999Y-137704742D02*
X167709713Y-137704742D01*
X167709713Y-137704742D02*
X167538285Y-137647600D01*
X167538285Y-137647600D02*
X167481142Y-137590457D01*
X167481142Y-137590457D02*
X167481142Y-137190457D01*
X167481142Y-137190457D02*
X167709713Y-137190457D01*
X166966856Y-137704742D02*
X166966856Y-136504742D01*
X166966856Y-136504742D02*
X166281142Y-137704742D01*
X166281142Y-137704742D02*
X166281142Y-136504742D01*
X165709713Y-137704742D02*
X165709713Y-136504742D01*
X165709713Y-136504742D02*
X165423999Y-136504742D01*
X165423999Y-136504742D02*
X165252570Y-136561885D01*
X165252570Y-136561885D02*
X165138285Y-136676171D01*
X165138285Y-136676171D02*
X165081142Y-136790457D01*
X165081142Y-136790457D02*
X165023999Y-137019028D01*
X165023999Y-137019028D02*
X165023999Y-137190457D01*
X165023999Y-137190457D02*
X165081142Y-137419028D01*
X165081142Y-137419028D02*
X165138285Y-137533314D01*
X165138285Y-137533314D02*
X165252570Y-137647600D01*
X165252570Y-137647600D02*
X165423999Y-137704742D01*
X165423999Y-137704742D02*
X165709713Y-137704742D01*
X113690285Y-136561885D02*
X113804571Y-136504742D01*
X113804571Y-136504742D02*
X113975999Y-136504742D01*
X113975999Y-136504742D02*
X114147428Y-136561885D01*
X114147428Y-136561885D02*
X114261713Y-136676171D01*
X114261713Y-136676171D02*
X114318856Y-136790457D01*
X114318856Y-136790457D02*
X114375999Y-137019028D01*
X114375999Y-137019028D02*
X114375999Y-137190457D01*
X114375999Y-137190457D02*
X114318856Y-137419028D01*
X114318856Y-137419028D02*
X114261713Y-137533314D01*
X114261713Y-137533314D02*
X114147428Y-137647600D01*
X114147428Y-137647600D02*
X113975999Y-137704742D01*
X113975999Y-137704742D02*
X113861713Y-137704742D01*
X113861713Y-137704742D02*
X113690285Y-137647600D01*
X113690285Y-137647600D02*
X113633142Y-137590457D01*
X113633142Y-137590457D02*
X113633142Y-137190457D01*
X113633142Y-137190457D02*
X113861713Y-137190457D01*
X113118856Y-137704742D02*
X113118856Y-136504742D01*
X113118856Y-136504742D02*
X112433142Y-137704742D01*
X112433142Y-137704742D02*
X112433142Y-136504742D01*
X111861713Y-137704742D02*
X111861713Y-136504742D01*
X111861713Y-136504742D02*
X111575999Y-136504742D01*
X111575999Y-136504742D02*
X111404570Y-136561885D01*
X111404570Y-136561885D02*
X111290285Y-136676171D01*
X111290285Y-136676171D02*
X111233142Y-136790457D01*
X111233142Y-136790457D02*
X111175999Y-137019028D01*
X111175999Y-137019028D02*
X111175999Y-137190457D01*
X111175999Y-137190457D02*
X111233142Y-137419028D01*
X111233142Y-137419028D02*
X111290285Y-137533314D01*
X111290285Y-137533314D02*
X111404570Y-137647600D01*
X111404570Y-137647600D02*
X111575999Y-137704742D01*
X111575999Y-137704742D02*
X111861713Y-137704742D01*
X113690285Y-134021885D02*
X113804571Y-133964742D01*
X113804571Y-133964742D02*
X113975999Y-133964742D01*
X113975999Y-133964742D02*
X114147428Y-134021885D01*
X114147428Y-134021885D02*
X114261713Y-134136171D01*
X114261713Y-134136171D02*
X114318856Y-134250457D01*
X114318856Y-134250457D02*
X114375999Y-134479028D01*
X114375999Y-134479028D02*
X114375999Y-134650457D01*
X114375999Y-134650457D02*
X114318856Y-134879028D01*
X114318856Y-134879028D02*
X114261713Y-134993314D01*
X114261713Y-134993314D02*
X114147428Y-135107600D01*
X114147428Y-135107600D02*
X113975999Y-135164742D01*
X113975999Y-135164742D02*
X113861713Y-135164742D01*
X113861713Y-135164742D02*
X113690285Y-135107600D01*
X113690285Y-135107600D02*
X113633142Y-135050457D01*
X113633142Y-135050457D02*
X113633142Y-134650457D01*
X113633142Y-134650457D02*
X113861713Y-134650457D01*
X113118856Y-135164742D02*
X113118856Y-133964742D01*
X113118856Y-133964742D02*
X112433142Y-135164742D01*
X112433142Y-135164742D02*
X112433142Y-133964742D01*
X111861713Y-135164742D02*
X111861713Y-133964742D01*
X111861713Y-133964742D02*
X111575999Y-133964742D01*
X111575999Y-133964742D02*
X111404570Y-134021885D01*
X111404570Y-134021885D02*
X111290285Y-134136171D01*
X111290285Y-134136171D02*
X111233142Y-134250457D01*
X111233142Y-134250457D02*
X111175999Y-134479028D01*
X111175999Y-134479028D02*
X111175999Y-134650457D01*
X111175999Y-134650457D02*
X111233142Y-134879028D01*
X111233142Y-134879028D02*
X111290285Y-134993314D01*
X111290285Y-134993314D02*
X111404570Y-135107600D01*
X111404570Y-135107600D02*
X111575999Y-135164742D01*
X111575999Y-135164742D02*
X111861713Y-135164742D01*
X140509523Y-142708219D02*
X139890476Y-142708219D01*
X139890476Y-142708219D02*
X140223809Y-143089171D01*
X140223809Y-143089171D02*
X140080952Y-143089171D01*
X140080952Y-143089171D02*
X139985714Y-143136790D01*
X139985714Y-143136790D02*
X139938095Y-143184409D01*
X139938095Y-143184409D02*
X139890476Y-143279647D01*
X139890476Y-143279647D02*
X139890476Y-143517742D01*
X139890476Y-143517742D02*
X139938095Y-143612980D01*
X139938095Y-143612980D02*
X139985714Y-143660600D01*
X139985714Y-143660600D02*
X140080952Y-143708219D01*
X140080952Y-143708219D02*
X140366666Y-143708219D01*
X140366666Y-143708219D02*
X140461904Y-143660600D01*
X140461904Y-143660600D02*
X140509523Y-143612980D01*
X139557142Y-142708219D02*
X138938095Y-142708219D01*
X138938095Y-142708219D02*
X139271428Y-143089171D01*
X139271428Y-143089171D02*
X139128571Y-143089171D01*
X139128571Y-143089171D02*
X139033333Y-143136790D01*
X139033333Y-143136790D02*
X138985714Y-143184409D01*
X138985714Y-143184409D02*
X138938095Y-143279647D01*
X138938095Y-143279647D02*
X138938095Y-143517742D01*
X138938095Y-143517742D02*
X138985714Y-143612980D01*
X138985714Y-143612980D02*
X139033333Y-143660600D01*
X139033333Y-143660600D02*
X139128571Y-143708219D01*
X139128571Y-143708219D02*
X139414285Y-143708219D01*
X139414285Y-143708219D02*
X139509523Y-143660600D01*
X139509523Y-143660600D02*
X139557142Y-143612980D01*
X142430476Y-143708219D02*
X143001904Y-143708219D01*
X142716190Y-143708219D02*
X142716190Y-142708219D01*
X142716190Y-142708219D02*
X142811428Y-142851076D01*
X142811428Y-142851076D02*
X142906666Y-142946314D01*
X142906666Y-142946314D02*
X143001904Y-142993933D01*
X142097142Y-142708219D02*
X141430476Y-142708219D01*
X141430476Y-142708219D02*
X141859047Y-143708219D01*
X143049523Y-144232219D02*
X142430476Y-144232219D01*
X142430476Y-144232219D02*
X142763809Y-144613171D01*
X142763809Y-144613171D02*
X142620952Y-144613171D01*
X142620952Y-144613171D02*
X142525714Y-144660790D01*
X142525714Y-144660790D02*
X142478095Y-144708409D01*
X142478095Y-144708409D02*
X142430476Y-144803647D01*
X142430476Y-144803647D02*
X142430476Y-145041742D01*
X142430476Y-145041742D02*
X142478095Y-145136980D01*
X142478095Y-145136980D02*
X142525714Y-145184600D01*
X142525714Y-145184600D02*
X142620952Y-145232219D01*
X142620952Y-145232219D02*
X142906666Y-145232219D01*
X142906666Y-145232219D02*
X143001904Y-145184600D01*
X143001904Y-145184600D02*
X143049523Y-145136980D01*
X142049523Y-144327457D02*
X142001904Y-144279838D01*
X142001904Y-144279838D02*
X141906666Y-144232219D01*
X141906666Y-144232219D02*
X141668571Y-144232219D01*
X141668571Y-144232219D02*
X141573333Y-144279838D01*
X141573333Y-144279838D02*
X141525714Y-144327457D01*
X141525714Y-144327457D02*
X141478095Y-144422695D01*
X141478095Y-144422695D02*
X141478095Y-144517933D01*
X141478095Y-144517933D02*
X141525714Y-144660790D01*
X141525714Y-144660790D02*
X142097142Y-145232219D01*
X142097142Y-145232219D02*
X141478095Y-145232219D01*
X144827618Y-142708219D02*
X144732380Y-142708219D01*
X144732380Y-142708219D02*
X144637142Y-142755838D01*
X144637142Y-142755838D02*
X144589523Y-142803457D01*
X144589523Y-142803457D02*
X144541904Y-142898695D01*
X144541904Y-142898695D02*
X144494285Y-143089171D01*
X144494285Y-143089171D02*
X144494285Y-143327266D01*
X144494285Y-143327266D02*
X144541904Y-143517742D01*
X144541904Y-143517742D02*
X144589523Y-143612980D01*
X144589523Y-143612980D02*
X144637142Y-143660600D01*
X144637142Y-143660600D02*
X144732380Y-143708219D01*
X144732380Y-143708219D02*
X144827618Y-143708219D01*
X144827618Y-143708219D02*
X144922856Y-143660600D01*
X144922856Y-143660600D02*
X144970475Y-143612980D01*
X144970475Y-143612980D02*
X145018094Y-143517742D01*
X145018094Y-143517742D02*
X145065713Y-143327266D01*
X145065713Y-143327266D02*
X145065713Y-143089171D01*
X145065713Y-143089171D02*
X145018094Y-142898695D01*
X145018094Y-142898695D02*
X144970475Y-142803457D01*
X144970475Y-142803457D02*
X144922856Y-142755838D01*
X144922856Y-142755838D02*
X144827618Y-142708219D01*
X144494285Y-145232219D02*
X145065713Y-145232219D01*
X144779999Y-145232219D02*
X144779999Y-144232219D01*
X144779999Y-144232219D02*
X144875237Y-144375076D01*
X144875237Y-144375076D02*
X144970475Y-144470314D01*
X144970475Y-144470314D02*
X145065713Y-144517933D01*
X149621904Y-142708219D02*
X150098094Y-142708219D01*
X150098094Y-142708219D02*
X150145713Y-143184409D01*
X150145713Y-143184409D02*
X150098094Y-143136790D01*
X150098094Y-143136790D02*
X150002856Y-143089171D01*
X150002856Y-143089171D02*
X149764761Y-143089171D01*
X149764761Y-143089171D02*
X149669523Y-143136790D01*
X149669523Y-143136790D02*
X149621904Y-143184409D01*
X149621904Y-143184409D02*
X149574285Y-143279647D01*
X149574285Y-143279647D02*
X149574285Y-143517742D01*
X149574285Y-143517742D02*
X149621904Y-143612980D01*
X149621904Y-143612980D02*
X149669523Y-143660600D01*
X149669523Y-143660600D02*
X149764761Y-143708219D01*
X149764761Y-143708219D02*
X150002856Y-143708219D01*
X150002856Y-143708219D02*
X150098094Y-143660600D01*
X150098094Y-143660600D02*
X150145713Y-143612980D01*
X149669523Y-144232219D02*
X149859999Y-144232219D01*
X149859999Y-144232219D02*
X149955237Y-144279838D01*
X149955237Y-144279838D02*
X150002856Y-144327457D01*
X150002856Y-144327457D02*
X150098094Y-144470314D01*
X150098094Y-144470314D02*
X150145713Y-144660790D01*
X150145713Y-144660790D02*
X150145713Y-145041742D01*
X150145713Y-145041742D02*
X150098094Y-145136980D01*
X150098094Y-145136980D02*
X150050475Y-145184600D01*
X150050475Y-145184600D02*
X149955237Y-145232219D01*
X149955237Y-145232219D02*
X149764761Y-145232219D01*
X149764761Y-145232219D02*
X149669523Y-145184600D01*
X149669523Y-145184600D02*
X149621904Y-145136980D01*
X149621904Y-145136980D02*
X149574285Y-145041742D01*
X149574285Y-145041742D02*
X149574285Y-144803647D01*
X149574285Y-144803647D02*
X149621904Y-144708409D01*
X149621904Y-144708409D02*
X149669523Y-144660790D01*
X149669523Y-144660790D02*
X149764761Y-144613171D01*
X149764761Y-144613171D02*
X149955237Y-144613171D01*
X149955237Y-144613171D02*
X150050475Y-144660790D01*
X150050475Y-144660790D02*
X150098094Y-144708409D01*
X150098094Y-144708409D02*
X150145713Y-144803647D01*
X152733332Y-142708219D02*
X152114285Y-142708219D01*
X152114285Y-142708219D02*
X152447618Y-143089171D01*
X152447618Y-143089171D02*
X152304761Y-143089171D01*
X152304761Y-143089171D02*
X152209523Y-143136790D01*
X152209523Y-143136790D02*
X152161904Y-143184409D01*
X152161904Y-143184409D02*
X152114285Y-143279647D01*
X152114285Y-143279647D02*
X152114285Y-143517742D01*
X152114285Y-143517742D02*
X152161904Y-143612980D01*
X152161904Y-143612980D02*
X152209523Y-143660600D01*
X152209523Y-143660600D02*
X152304761Y-143708219D01*
X152304761Y-143708219D02*
X152590475Y-143708219D01*
X152590475Y-143708219D02*
X152685713Y-143660600D01*
X152685713Y-143660600D02*
X152733332Y-143612980D01*
X152209523Y-144565552D02*
X152209523Y-145232219D01*
X152447618Y-144184600D02*
X152685713Y-144898885D01*
X152685713Y-144898885D02*
X152066666Y-144898885D01*
X155273332Y-144232219D02*
X154606666Y-144232219D01*
X154606666Y-144232219D02*
X155035237Y-145232219D01*
X161961885Y-142595714D02*
X161904742Y-142481429D01*
X161904742Y-142481429D02*
X161904742Y-142310000D01*
X161904742Y-142310000D02*
X161961885Y-142138571D01*
X161961885Y-142138571D02*
X162076171Y-142024286D01*
X162076171Y-142024286D02*
X162190457Y-141967143D01*
X162190457Y-141967143D02*
X162419028Y-141910000D01*
X162419028Y-141910000D02*
X162590457Y-141910000D01*
X162590457Y-141910000D02*
X162819028Y-141967143D01*
X162819028Y-141967143D02*
X162933314Y-142024286D01*
X162933314Y-142024286D02*
X163047600Y-142138571D01*
X163047600Y-142138571D02*
X163104742Y-142310000D01*
X163104742Y-142310000D02*
X163104742Y-142424286D01*
X163104742Y-142424286D02*
X163047600Y-142595714D01*
X163047600Y-142595714D02*
X162990457Y-142652857D01*
X162990457Y-142652857D02*
X162590457Y-142652857D01*
X162590457Y-142652857D02*
X162590457Y-142424286D01*
X163104742Y-143167143D02*
X161904742Y-143167143D01*
X161904742Y-143167143D02*
X163104742Y-143852857D01*
X163104742Y-143852857D02*
X161904742Y-143852857D01*
X163104742Y-144424286D02*
X161904742Y-144424286D01*
X161904742Y-144424286D02*
X161904742Y-144710000D01*
X161904742Y-144710000D02*
X161961885Y-144881429D01*
X161961885Y-144881429D02*
X162076171Y-144995714D01*
X162076171Y-144995714D02*
X162190457Y-145052857D01*
X162190457Y-145052857D02*
X162419028Y-145110000D01*
X162419028Y-145110000D02*
X162590457Y-145110000D01*
X162590457Y-145110000D02*
X162819028Y-145052857D01*
X162819028Y-145052857D02*
X162933314Y-144995714D01*
X162933314Y-144995714D02*
X163047600Y-144881429D01*
X163047600Y-144881429D02*
X163104742Y-144710000D01*
X163104742Y-144710000D02*
X163104742Y-144424286D01*
X157073571Y-119924742D02*
X157759285Y-119924742D01*
X157416428Y-119924742D02*
X157416428Y-118724742D01*
X157416428Y-118724742D02*
X157530714Y-118896171D01*
X157530714Y-118896171D02*
X157644999Y-119010457D01*
X157644999Y-119010457D02*
X157759285Y-119067600D01*
X156673571Y-118724742D02*
X155873571Y-118724742D01*
X155873571Y-118724742D02*
X156387857Y-119924742D01*
X140509523Y-144232219D02*
X139890476Y-144232219D01*
X139890476Y-144232219D02*
X140223809Y-144613171D01*
X140223809Y-144613171D02*
X140080952Y-144613171D01*
X140080952Y-144613171D02*
X139985714Y-144660790D01*
X139985714Y-144660790D02*
X139938095Y-144708409D01*
X139938095Y-144708409D02*
X139890476Y-144803647D01*
X139890476Y-144803647D02*
X139890476Y-145041742D01*
X139890476Y-145041742D02*
X139938095Y-145136980D01*
X139938095Y-145136980D02*
X139985714Y-145184600D01*
X139985714Y-145184600D02*
X140080952Y-145232219D01*
X140080952Y-145232219D02*
X140366666Y-145232219D01*
X140366666Y-145232219D02*
X140461904Y-145184600D01*
X140461904Y-145184600D02*
X140509523Y-145136980D01*
X139557142Y-144232219D02*
X138890476Y-144232219D01*
X138890476Y-144232219D02*
X139319047Y-145232219D01*
X155130476Y-143708219D02*
X155701904Y-143708219D01*
X155416190Y-143708219D02*
X155416190Y-142708219D01*
X155416190Y-142708219D02*
X155511428Y-142851076D01*
X155511428Y-142851076D02*
X155606666Y-142946314D01*
X155606666Y-142946314D02*
X155701904Y-142993933D01*
X154559047Y-143136790D02*
X154654285Y-143089171D01*
X154654285Y-143089171D02*
X154701904Y-143041552D01*
X154701904Y-143041552D02*
X154749523Y-142946314D01*
X154749523Y-142946314D02*
X154749523Y-142898695D01*
X154749523Y-142898695D02*
X154701904Y-142803457D01*
X154701904Y-142803457D02*
X154654285Y-142755838D01*
X154654285Y-142755838D02*
X154559047Y-142708219D01*
X154559047Y-142708219D02*
X154368571Y-142708219D01*
X154368571Y-142708219D02*
X154273333Y-142755838D01*
X154273333Y-142755838D02*
X154225714Y-142803457D01*
X154225714Y-142803457D02*
X154178095Y-142898695D01*
X154178095Y-142898695D02*
X154178095Y-142946314D01*
X154178095Y-142946314D02*
X154225714Y-143041552D01*
X154225714Y-143041552D02*
X154273333Y-143089171D01*
X154273333Y-143089171D02*
X154368571Y-143136790D01*
X154368571Y-143136790D02*
X154559047Y-143136790D01*
X154559047Y-143136790D02*
X154654285Y-143184409D01*
X154654285Y-143184409D02*
X154701904Y-143232028D01*
X154701904Y-143232028D02*
X154749523Y-143327266D01*
X154749523Y-143327266D02*
X154749523Y-143517742D01*
X154749523Y-143517742D02*
X154701904Y-143612980D01*
X154701904Y-143612980D02*
X154654285Y-143660600D01*
X154654285Y-143660600D02*
X154559047Y-143708219D01*
X154559047Y-143708219D02*
X154368571Y-143708219D01*
X154368571Y-143708219D02*
X154273333Y-143660600D01*
X154273333Y-143660600D02*
X154225714Y-143612980D01*
X154225714Y-143612980D02*
X154178095Y-143517742D01*
X154178095Y-143517742D02*
X154178095Y-143327266D01*
X154178095Y-143327266D02*
X154225714Y-143232028D01*
X154225714Y-143232028D02*
X154273333Y-143184409D01*
X154273333Y-143184409D02*
X154368571Y-143136790D01*
X157073571Y-117384742D02*
X157759285Y-117384742D01*
X157416428Y-117384742D02*
X157416428Y-116184742D01*
X157416428Y-116184742D02*
X157530714Y-116356171D01*
X157530714Y-116356171D02*
X157644999Y-116470457D01*
X157644999Y-116470457D02*
X157759285Y-116527600D01*
X156387857Y-116699028D02*
X156502142Y-116641885D01*
X156502142Y-116641885D02*
X156559285Y-116584742D01*
X156559285Y-116584742D02*
X156616428Y-116470457D01*
X156616428Y-116470457D02*
X156616428Y-116413314D01*
X156616428Y-116413314D02*
X156559285Y-116299028D01*
X156559285Y-116299028D02*
X156502142Y-116241885D01*
X156502142Y-116241885D02*
X156387857Y-116184742D01*
X156387857Y-116184742D02*
X156159285Y-116184742D01*
X156159285Y-116184742D02*
X156045000Y-116241885D01*
X156045000Y-116241885D02*
X155987857Y-116299028D01*
X155987857Y-116299028D02*
X155930714Y-116413314D01*
X155930714Y-116413314D02*
X155930714Y-116470457D01*
X155930714Y-116470457D02*
X155987857Y-116584742D01*
X155987857Y-116584742D02*
X156045000Y-116641885D01*
X156045000Y-116641885D02*
X156159285Y-116699028D01*
X156159285Y-116699028D02*
X156387857Y-116699028D01*
X156387857Y-116699028D02*
X156502142Y-116756171D01*
X156502142Y-116756171D02*
X156559285Y-116813314D01*
X156559285Y-116813314D02*
X156616428Y-116927600D01*
X156616428Y-116927600D02*
X156616428Y-117156171D01*
X156616428Y-117156171D02*
X156559285Y-117270457D01*
X156559285Y-117270457D02*
X156502142Y-117327600D01*
X156502142Y-117327600D02*
X156387857Y-117384742D01*
X156387857Y-117384742D02*
X156159285Y-117384742D01*
X156159285Y-117384742D02*
X156045000Y-117327600D01*
X156045000Y-117327600D02*
X155987857Y-117270457D01*
X155987857Y-117270457D02*
X155930714Y-117156171D01*
X155930714Y-117156171D02*
X155930714Y-116927600D01*
X155930714Y-116927600D02*
X155987857Y-116813314D01*
X155987857Y-116813314D02*
X156045000Y-116756171D01*
X156045000Y-116756171D02*
X156159285Y-116699028D01*
X157632285Y-111219028D02*
X157575142Y-111161885D01*
X157575142Y-111161885D02*
X157460857Y-111104742D01*
X157460857Y-111104742D02*
X157175142Y-111104742D01*
X157175142Y-111104742D02*
X157060857Y-111161885D01*
X157060857Y-111161885D02*
X157003714Y-111219028D01*
X157003714Y-111219028D02*
X156946571Y-111333314D01*
X156946571Y-111333314D02*
X156946571Y-111447600D01*
X156946571Y-111447600D02*
X157003714Y-111619028D01*
X157003714Y-111619028D02*
X157689428Y-112304742D01*
X157689428Y-112304742D02*
X156946571Y-112304742D01*
X156489428Y-111219028D02*
X156432285Y-111161885D01*
X156432285Y-111161885D02*
X156318000Y-111104742D01*
X156318000Y-111104742D02*
X156032285Y-111104742D01*
X156032285Y-111104742D02*
X155918000Y-111161885D01*
X155918000Y-111161885D02*
X155860857Y-111219028D01*
X155860857Y-111219028D02*
X155803714Y-111333314D01*
X155803714Y-111333314D02*
X155803714Y-111447600D01*
X155803714Y-111447600D02*
X155860857Y-111619028D01*
X155860857Y-111619028D02*
X156546571Y-112304742D01*
X156546571Y-112304742D02*
X155803714Y-112304742D01*
D13*
X132081819Y-84335666D02*
X132796104Y-84335666D01*
X132796104Y-84335666D02*
X132938961Y-84288047D01*
X132938961Y-84288047D02*
X133034200Y-84192809D01*
X133034200Y-84192809D02*
X133081819Y-84049952D01*
X133081819Y-84049952D02*
X133081819Y-83954714D01*
X132081819Y-84716619D02*
X132081819Y-85335666D01*
X132081819Y-85335666D02*
X132462771Y-85002333D01*
X132462771Y-85002333D02*
X132462771Y-85145190D01*
X132462771Y-85145190D02*
X132510390Y-85240428D01*
X132510390Y-85240428D02*
X132558009Y-85288047D01*
X132558009Y-85288047D02*
X132653247Y-85335666D01*
X132653247Y-85335666D02*
X132891342Y-85335666D01*
X132891342Y-85335666D02*
X132986580Y-85288047D01*
X132986580Y-85288047D02*
X133034200Y-85240428D01*
X133034200Y-85240428D02*
X133081819Y-85145190D01*
X133081819Y-85145190D02*
X133081819Y-84859476D01*
X133081819Y-84859476D02*
X133034200Y-84764238D01*
X133034200Y-84764238D02*
X132986580Y-84716619D01*
D11*
X125127000Y-81919000D02*
X125127000Y-80919000D01*
X125127000Y-87419000D02*
X125127000Y-88419000D01*
X126127000Y-80919000D02*
X125127000Y-80919000D01*
X126127000Y-88419000D02*
X125127000Y-88419000D01*
X130127000Y-80919000D02*
X131127000Y-80919000D01*
X130127000Y-88419000D02*
X131127000Y-88419000D01*
X131127000Y-81919000D02*
X131127000Y-80919000D01*
X131127000Y-87419000D02*
X131127000Y-88419000D01*
D14*
X151119369Y-131975679D02*
X151182449Y-132075123D01*
X151266917Y-132255479D01*
X151358325Y-132486915D01*
X151566475Y-132991517D01*
X151865839Y-133546189D01*
X152249836Y-134103290D01*
X152290752Y-134157854D01*
X152427341Y-134348472D01*
X152522955Y-134495328D01*
X152558966Y-134570281D01*
X152558950Y-134571598D01*
X152521720Y-134588675D01*
X152426418Y-134524817D01*
X152292867Y-134398702D01*
X152140889Y-134229010D01*
X151990305Y-134034419D01*
X151818640Y-133778367D01*
X151631552Y-133465838D01*
X151457938Y-133143888D01*
X151305062Y-132829507D01*
X151180187Y-132539684D01*
X151090576Y-132291411D01*
X151043493Y-132101676D01*
X151046201Y-131987471D01*
X151105963Y-131965785D01*
X151119369Y-131975679D01*
G36*
X151119369Y-131975679D02*
G01*
X151182449Y-132075123D01*
X151266917Y-132255479D01*
X151358325Y-132486915D01*
X151566475Y-132991517D01*
X151865839Y-133546189D01*
X152249836Y-134103290D01*
X152290752Y-134157854D01*
X152427341Y-134348472D01*
X152522955Y-134495328D01*
X152558966Y-134570281D01*
X152558950Y-134571598D01*
X152521720Y-134588675D01*
X152426418Y-134524817D01*
X152292867Y-134398702D01*
X152140889Y-134229010D01*
X151990305Y-134034419D01*
X151818640Y-133778367D01*
X151631552Y-133465838D01*
X151457938Y-133143888D01*
X151305062Y-132829507D01*
X151180187Y-132539684D01*
X151090576Y-132291411D01*
X151043493Y-132101676D01*
X151046201Y-131987471D01*
X151105963Y-131965785D01*
X151119369Y-131975679D01*
G37*
X151342287Y-131149692D02*
X151471744Y-131265504D01*
X151644359Y-131456100D01*
X151848555Y-131705932D01*
X152072753Y-131999456D01*
X152305376Y-132321125D01*
X152534846Y-132655394D01*
X152749586Y-132986718D01*
X152938018Y-133299551D01*
X153088565Y-133578347D01*
X153160531Y-133735956D01*
X153262047Y-133985701D01*
X153369066Y-134270789D01*
X153470902Y-134560631D01*
X153556870Y-134824634D01*
X153616287Y-135032207D01*
X153638466Y-135152761D01*
X153631763Y-135167798D01*
X153554827Y-135191203D01*
X153498313Y-135136214D01*
X153429593Y-134970330D01*
X153357535Y-134709115D01*
X153234227Y-134309936D01*
X153018454Y-133808423D01*
X152733589Y-133275460D01*
X152393289Y-132738954D01*
X152252744Y-132537180D01*
X152044251Y-132245695D01*
X151832845Y-131957581D01*
X151633712Y-131692944D01*
X151462041Y-131471892D01*
X151333018Y-131314532D01*
X151261831Y-131240972D01*
X151230174Y-131206938D01*
X151263282Y-131127487D01*
X151267565Y-131124207D01*
X151342287Y-131149692D01*
G36*
X151342287Y-131149692D02*
G01*
X151471744Y-131265504D01*
X151644359Y-131456100D01*
X151848555Y-131705932D01*
X152072753Y-131999456D01*
X152305376Y-132321125D01*
X152534846Y-132655394D01*
X152749586Y-132986718D01*
X152938018Y-133299551D01*
X153088565Y-133578347D01*
X153160531Y-133735956D01*
X153262047Y-133985701D01*
X153369066Y-134270789D01*
X153470902Y-134560631D01*
X153556870Y-134824634D01*
X153616287Y-135032207D01*
X153638466Y-135152761D01*
X153631763Y-135167798D01*
X153554827Y-135191203D01*
X153498313Y-135136214D01*
X153429593Y-134970330D01*
X153357535Y-134709115D01*
X153234227Y-134309936D01*
X153018454Y-133808423D01*
X152733589Y-133275460D01*
X152393289Y-132738954D01*
X152252744Y-132537180D01*
X152044251Y-132245695D01*
X151832845Y-131957581D01*
X151633712Y-131692944D01*
X151462041Y-131471892D01*
X151333018Y-131314532D01*
X151261831Y-131240972D01*
X151230174Y-131206938D01*
X151263282Y-131127487D01*
X151267565Y-131124207D01*
X151342287Y-131149692D01*
G37*
X152068078Y-131508672D02*
X152151260Y-131556205D01*
X152294630Y-131678775D01*
X152476956Y-131855033D01*
X152677005Y-132063631D01*
X152873543Y-132283221D01*
X153045338Y-132492453D01*
X153450116Y-133088804D01*
X153837738Y-133832741D01*
X154149520Y-134633953D01*
X154373812Y-135462034D01*
X154498966Y-136286578D01*
X154500186Y-136300466D01*
X154518035Y-136546282D01*
X154516637Y-136691665D01*
X154493341Y-136761008D01*
X154445498Y-136778703D01*
X154386809Y-136761789D01*
X154235995Y-136671851D01*
X154037020Y-136521951D01*
X153814061Y-136332006D01*
X153591295Y-136121930D01*
X153392900Y-135911640D01*
X153123882Y-135603953D01*
X153146174Y-135842078D01*
X153151679Y-135930314D01*
X153134502Y-136042770D01*
X153067697Y-136066701D01*
X152937192Y-136002377D01*
X152728918Y-135850066D01*
X152607568Y-135748548D01*
X152290982Y-135431047D01*
X151961967Y-135037747D01*
X151643341Y-134599181D01*
X151357920Y-134145883D01*
X151128521Y-133708387D01*
X151119588Y-133688897D01*
X151007101Y-133420269D01*
X150891626Y-133108085D01*
X150779961Y-132775553D01*
X150678906Y-132445882D01*
X150595259Y-132142284D01*
X150535819Y-131887966D01*
X150507386Y-131706138D01*
X150516758Y-131620011D01*
X150564104Y-131632567D01*
X150631032Y-131765899D01*
X150714646Y-132024364D01*
X150734633Y-132093825D01*
X150905437Y-132659154D01*
X151066337Y-133129134D01*
X151229077Y-133530384D01*
X151405403Y-133889524D01*
X151607060Y-134233174D01*
X151845795Y-134587953D01*
X151890278Y-134650187D01*
X152117849Y-134951671D01*
X152350564Y-135236088D01*
X152569127Y-135481557D01*
X152754241Y-135666198D01*
X152886610Y-135768131D01*
X152941407Y-135793821D01*
X152981994Y-135784043D01*
X152987680Y-135698519D01*
X152966209Y-135512367D01*
X152956493Y-135428830D01*
X152953807Y-135251018D01*
X152991574Y-135191203D01*
X152995538Y-135191706D01*
X153071119Y-135247522D01*
X153194435Y-135377646D01*
X153340851Y-135556328D01*
X153496611Y-135746135D01*
X153735166Y-136010633D01*
X153962572Y-136238953D01*
X153964937Y-136241158D01*
X154135093Y-136392867D01*
X154248722Y-136467417D01*
X154312681Y-136455231D01*
X154333826Y-136346735D01*
X154319015Y-136132353D01*
X154275105Y-135802509D01*
X154221463Y-135493181D01*
X154014423Y-134723576D01*
X153711391Y-133959093D01*
X153326839Y-133228737D01*
X152875242Y-132561517D01*
X152371073Y-131986440D01*
X152247162Y-131862414D01*
X152084932Y-131688791D01*
X152006025Y-131580156D01*
X152002607Y-131524204D01*
X152066841Y-131508629D01*
X152068078Y-131508672D01*
G36*
X152068078Y-131508672D02*
G01*
X152151260Y-131556205D01*
X152294630Y-131678775D01*
X152476956Y-131855033D01*
X152677005Y-132063631D01*
X152873543Y-132283221D01*
X153045338Y-132492453D01*
X153450116Y-133088804D01*
X153837738Y-133832741D01*
X154149520Y-134633953D01*
X154373812Y-135462034D01*
X154498966Y-136286578D01*
X154500186Y-136300466D01*
X154518035Y-136546282D01*
X154516637Y-136691665D01*
X154493341Y-136761008D01*
X154445498Y-136778703D01*
X154386809Y-136761789D01*
X154235995Y-136671851D01*
X154037020Y-136521951D01*
X153814061Y-136332006D01*
X153591295Y-136121930D01*
X153392900Y-135911640D01*
X153123882Y-135603953D01*
X153146174Y-135842078D01*
X153151679Y-135930314D01*
X153134502Y-136042770D01*
X153067697Y-136066701D01*
X152937192Y-136002377D01*
X152728918Y-135850066D01*
X152607568Y-135748548D01*
X152290982Y-135431047D01*
X151961967Y-135037747D01*
X151643341Y-134599181D01*
X151357920Y-134145883D01*
X151128521Y-133708387D01*
X151119588Y-133688897D01*
X151007101Y-133420269D01*
X150891626Y-133108085D01*
X150779961Y-132775553D01*
X150678906Y-132445882D01*
X150595259Y-132142284D01*
X150535819Y-131887966D01*
X150507386Y-131706138D01*
X150516758Y-131620011D01*
X150564104Y-131632567D01*
X150631032Y-131765899D01*
X150714646Y-132024364D01*
X150734633Y-132093825D01*
X150905437Y-132659154D01*
X151066337Y-133129134D01*
X151229077Y-133530384D01*
X151405403Y-133889524D01*
X151607060Y-134233174D01*
X151845795Y-134587953D01*
X151890278Y-134650187D01*
X152117849Y-134951671D01*
X152350564Y-135236088D01*
X152569127Y-135481557D01*
X152754241Y-135666198D01*
X152886610Y-135768131D01*
X152941407Y-135793821D01*
X152981994Y-135784043D01*
X152987680Y-135698519D01*
X152966209Y-135512367D01*
X152956493Y-135428830D01*
X152953807Y-135251018D01*
X152991574Y-135191203D01*
X152995538Y-135191706D01*
X153071119Y-135247522D01*
X153194435Y-135377646D01*
X153340851Y-135556328D01*
X153496611Y-135746135D01*
X153735166Y-136010633D01*
X153962572Y-136238953D01*
X153964937Y-136241158D01*
X154135093Y-136392867D01*
X154248722Y-136467417D01*
X154312681Y-136455231D01*
X154333826Y-136346735D01*
X154319015Y-136132353D01*
X154275105Y-135802509D01*
X154221463Y-135493181D01*
X154014423Y-134723576D01*
X153711391Y-133959093D01*
X153326839Y-133228737D01*
X152875242Y-132561517D01*
X152371073Y-131986440D01*
X152247162Y-131862414D01*
X152084932Y-131688791D01*
X152006025Y-131580156D01*
X152002607Y-131524204D01*
X152066841Y-131508629D01*
X152068078Y-131508672D01*
G37*
X149458762Y-127055413D02*
X149798384Y-127544321D01*
X150110892Y-128059720D01*
X150161841Y-128149499D01*
X150294473Y-128368039D01*
X150398191Y-128502577D01*
X150493341Y-128576048D01*
X150600268Y-128611388D01*
X150795500Y-128677796D01*
X151061968Y-128857416D01*
X151335874Y-129145371D01*
X151622266Y-129547208D01*
X151926190Y-130068473D01*
X151931345Y-130078265D01*
X151980345Y-130171351D01*
X152080987Y-130379710D01*
X152142199Y-130532584D01*
X152152342Y-130602493D01*
X152119893Y-130601102D01*
X152015883Y-130537765D01*
X151875176Y-130418182D01*
X151747854Y-130302366D01*
X151547279Y-130138736D01*
X151381753Y-130026118D01*
X151278353Y-129984203D01*
X151262831Y-129991111D01*
X151174827Y-130061786D01*
X151086772Y-130142953D01*
X151039620Y-130186418D01*
X150885394Y-130337074D01*
X150740336Y-130485823D01*
X150632631Y-130604734D01*
X150590466Y-130665876D01*
X150590532Y-130666686D01*
X150624022Y-130735444D01*
X150707043Y-130880257D01*
X150822337Y-131070969D01*
X150888136Y-131180621D01*
X150989569Y-131372957D01*
X151017000Y-131465094D01*
X150976234Y-131454623D01*
X150873075Y-131339135D01*
X150713325Y-131116221D01*
X150687073Y-131077098D01*
X150561215Y-130889862D01*
X150469375Y-130753767D01*
X150429889Y-130695997D01*
X150420676Y-130695278D01*
X150335562Y-130730844D01*
X150266562Y-130768695D01*
X150194208Y-130808386D01*
X150148628Y-130833517D01*
X149990095Y-130896296D01*
X149880573Y-130903977D01*
X149788977Y-130913537D01*
X149672915Y-130996669D01*
X149627739Y-131053664D01*
X149598254Y-131126187D01*
X149593602Y-131229260D01*
X149615556Y-131385975D01*
X149665892Y-131619425D01*
X149746385Y-131952703D01*
X149764615Y-132035987D01*
X149751125Y-132073847D01*
X149670284Y-132016278D01*
X149596746Y-131946811D01*
X149420422Y-131736610D01*
X149222256Y-131456551D01*
X149023025Y-131136993D01*
X148843506Y-130808291D01*
X148804608Y-130730428D01*
X148700988Y-130506115D01*
X148646527Y-130337181D01*
X148630606Y-130180534D01*
X148641808Y-130005531D01*
X148758156Y-130005531D01*
X148777271Y-130178635D01*
X148842296Y-130406717D01*
X148944216Y-130659345D01*
X149074015Y-130906087D01*
X149155535Y-131038299D01*
X149285027Y-131238058D01*
X149386159Y-131382337D01*
X149506385Y-131539953D01*
X149468817Y-131303057D01*
X149459433Y-131134660D01*
X149527470Y-130919310D01*
X149531639Y-130912912D01*
X149569607Y-130840311D01*
X149570587Y-130768695D01*
X149522813Y-130674014D01*
X149414524Y-130532219D01*
X149233954Y-130319260D01*
X149177157Y-130254121D01*
X148987894Y-130053908D01*
X148853669Y-129941735D01*
X148783521Y-129925503D01*
X148758156Y-130005531D01*
X148641808Y-130005531D01*
X148642605Y-129993082D01*
X148651739Y-129896796D01*
X148654258Y-129740566D01*
X148622698Y-129610685D01*
X148543024Y-129464497D01*
X148401202Y-129259350D01*
X148193848Y-128942784D01*
X148177758Y-128915203D01*
X148430721Y-128915203D01*
X148700969Y-129301696D01*
X148776184Y-129404627D01*
X148973587Y-129653785D01*
X149206216Y-129928397D01*
X149438188Y-130185446D01*
X149593494Y-130346511D01*
X149771877Y-130519897D01*
X149907030Y-130637714D01*
X149977938Y-130680683D01*
X150048427Y-130659916D01*
X150172406Y-130586583D01*
X150180067Y-130580704D01*
X150221596Y-130538495D01*
X150232800Y-130483710D01*
X150205493Y-130397838D01*
X150131488Y-130262370D01*
X150002600Y-130058796D01*
X149810642Y-129768606D01*
X149785871Y-129731362D01*
X149598255Y-129443755D01*
X149476404Y-129242367D01*
X149412743Y-129111984D01*
X149399698Y-129037392D01*
X149429696Y-129003375D01*
X149466799Y-128989931D01*
X149513583Y-128985561D01*
X149562972Y-129013041D01*
X149627516Y-129087777D01*
X149719768Y-129225178D01*
X149852280Y-129440652D01*
X150037603Y-129749606D01*
X150448181Y-130435759D01*
X150616662Y-130289356D01*
X150785144Y-130142953D01*
X150682056Y-129793703D01*
X150638854Y-129662638D01*
X150542663Y-129413872D01*
X150421671Y-129131995D01*
X150287986Y-128842132D01*
X150258805Y-128782861D01*
X150604278Y-128782861D01*
X150606323Y-128869725D01*
X150663982Y-129056415D01*
X150774501Y-129333328D01*
X150845268Y-129496597D01*
X150941115Y-129698799D01*
X151014730Y-129814535D01*
X151080614Y-129864296D01*
X151153269Y-129868577D01*
X151178144Y-129866982D01*
X151336872Y-129898203D01*
X151514220Y-129977561D01*
X151565328Y-130006924D01*
X151685453Y-130067780D01*
X151733466Y-130078265D01*
X151714377Y-130032367D01*
X151642821Y-129903193D01*
X151536879Y-129725572D01*
X151416540Y-129532125D01*
X151301790Y-129355471D01*
X151212617Y-129228231D01*
X151199846Y-129211922D01*
X151059917Y-129065774D01*
X150889989Y-128925211D01*
X150728806Y-128819449D01*
X150615114Y-128777703D01*
X150604278Y-128782861D01*
X150258805Y-128782861D01*
X150153715Y-128569407D01*
X150030966Y-128338949D01*
X149931847Y-128175881D01*
X149868464Y-128105331D01*
X149847955Y-128099796D01*
X149694799Y-128114729D01*
X149478520Y-128189216D01*
X149230470Y-128308557D01*
X148982002Y-128458049D01*
X148764469Y-128622992D01*
X148430721Y-128915203D01*
X148177758Y-128915203D01*
X147963197Y-128547412D01*
X147729497Y-128111667D01*
X147511461Y-127671829D01*
X147327802Y-127264182D01*
X147197233Y-126925006D01*
X147082483Y-126507710D01*
X147028757Y-126121198D01*
X147033593Y-126003398D01*
X147234144Y-126003398D01*
X147266021Y-126292519D01*
X147340508Y-126635691D01*
X147454677Y-127009957D01*
X147483738Y-127091963D01*
X147564263Y-127303742D01*
X147628485Y-127450735D01*
X147664582Y-127505059D01*
X147697787Y-127487081D01*
X147805721Y-127405019D01*
X147953764Y-127279488D01*
X148085256Y-127175870D01*
X148329655Y-127014488D01*
X148577928Y-126878201D01*
X148949544Y-126699842D01*
X148518046Y-126272569D01*
X148218968Y-125996660D01*
X147905559Y-125762440D01*
X147643355Y-125633622D01*
X147436085Y-125611943D01*
X147287481Y-125699141D01*
X147247805Y-125791286D01*
X147234144Y-126003398D01*
X147033593Y-126003398D01*
X147041926Y-125800419D01*
X147120018Y-125557056D01*
X147261064Y-125402789D01*
X147463091Y-125349298D01*
X147509681Y-125351881D01*
X147765218Y-125429239D01*
X148064148Y-125605262D01*
X148394718Y-125867919D01*
X148745178Y-126205183D01*
X149103776Y-126605024D01*
X149178510Y-126699842D01*
X149458762Y-127055413D01*
G36*
X149458762Y-127055413D02*
G01*
X149798384Y-127544321D01*
X150110892Y-128059720D01*
X150161841Y-128149499D01*
X150294473Y-128368039D01*
X150398191Y-128502577D01*
X150493341Y-128576048D01*
X150600268Y-128611388D01*
X150795500Y-128677796D01*
X151061968Y-128857416D01*
X151335874Y-129145371D01*
X151622266Y-129547208D01*
X151926190Y-130068473D01*
X151931345Y-130078265D01*
X151980345Y-130171351D01*
X152080987Y-130379710D01*
X152142199Y-130532584D01*
X152152342Y-130602493D01*
X152119893Y-130601102D01*
X152015883Y-130537765D01*
X151875176Y-130418182D01*
X151747854Y-130302366D01*
X151547279Y-130138736D01*
X151381753Y-130026118D01*
X151278353Y-129984203D01*
X151262831Y-129991111D01*
X151174827Y-130061786D01*
X151086772Y-130142953D01*
X151039620Y-130186418D01*
X150885394Y-130337074D01*
X150740336Y-130485823D01*
X150632631Y-130604734D01*
X150590466Y-130665876D01*
X150590532Y-130666686D01*
X150624022Y-130735444D01*
X150707043Y-130880257D01*
X150822337Y-131070969D01*
X150888136Y-131180621D01*
X150989569Y-131372957D01*
X151017000Y-131465094D01*
X150976234Y-131454623D01*
X150873075Y-131339135D01*
X150713325Y-131116221D01*
X150687073Y-131077098D01*
X150561215Y-130889862D01*
X150469375Y-130753767D01*
X150429889Y-130695997D01*
X150420676Y-130695278D01*
X150335562Y-130730844D01*
X150266562Y-130768695D01*
X150194208Y-130808386D01*
X150148628Y-130833517D01*
X149990095Y-130896296D01*
X149880573Y-130903977D01*
X149788977Y-130913537D01*
X149672915Y-130996669D01*
X149627739Y-131053664D01*
X149598254Y-131126187D01*
X149593602Y-131229260D01*
X149615556Y-131385975D01*
X149665892Y-131619425D01*
X149746385Y-131952703D01*
X149764615Y-132035987D01*
X149751125Y-132073847D01*
X149670284Y-132016278D01*
X149596746Y-131946811D01*
X149420422Y-131736610D01*
X149222256Y-131456551D01*
X149023025Y-131136993D01*
X148843506Y-130808291D01*
X148804608Y-130730428D01*
X148700988Y-130506115D01*
X148646527Y-130337181D01*
X148630606Y-130180534D01*
X148641808Y-130005531D01*
X148758156Y-130005531D01*
X148777271Y-130178635D01*
X148842296Y-130406717D01*
X148944216Y-130659345D01*
X149074015Y-130906087D01*
X149155535Y-131038299D01*
X149285027Y-131238058D01*
X149386159Y-131382337D01*
X149506385Y-131539953D01*
X149468817Y-131303057D01*
X149459433Y-131134660D01*
X149527470Y-130919310D01*
X149531639Y-130912912D01*
X149569607Y-130840311D01*
X149570587Y-130768695D01*
X149522813Y-130674014D01*
X149414524Y-130532219D01*
X149233954Y-130319260D01*
X149177157Y-130254121D01*
X148987894Y-130053908D01*
X148853669Y-129941735D01*
X148783521Y-129925503D01*
X148758156Y-130005531D01*
X148641808Y-130005531D01*
X148642605Y-129993082D01*
X148651739Y-129896796D01*
X148654258Y-129740566D01*
X148622698Y-129610685D01*
X148543024Y-129464497D01*
X148401202Y-129259350D01*
X148193848Y-128942784D01*
X148177758Y-128915203D01*
X148430721Y-128915203D01*
X148700969Y-129301696D01*
X148776184Y-129404627D01*
X148973587Y-129653785D01*
X149206216Y-129928397D01*
X149438188Y-130185446D01*
X149593494Y-130346511D01*
X149771877Y-130519897D01*
X149907030Y-130637714D01*
X149977938Y-130680683D01*
X150048427Y-130659916D01*
X150172406Y-130586583D01*
X150180067Y-130580704D01*
X150221596Y-130538495D01*
X150232800Y-130483710D01*
X150205493Y-130397838D01*
X150131488Y-130262370D01*
X150002600Y-130058796D01*
X149810642Y-129768606D01*
X149785871Y-129731362D01*
X149598255Y-129443755D01*
X149476404Y-129242367D01*
X149412743Y-129111984D01*
X149399698Y-129037392D01*
X149429696Y-129003375D01*
X149466799Y-128989931D01*
X149513583Y-128985561D01*
X149562972Y-129013041D01*
X149627516Y-129087777D01*
X149719768Y-129225178D01*
X149852280Y-129440652D01*
X150037603Y-129749606D01*
X150448181Y-130435759D01*
X150616662Y-130289356D01*
X150785144Y-130142953D01*
X150682056Y-129793703D01*
X150638854Y-129662638D01*
X150542663Y-129413872D01*
X150421671Y-129131995D01*
X150287986Y-128842132D01*
X150258805Y-128782861D01*
X150604278Y-128782861D01*
X150606323Y-128869725D01*
X150663982Y-129056415D01*
X150774501Y-129333328D01*
X150845268Y-129496597D01*
X150941115Y-129698799D01*
X151014730Y-129814535D01*
X151080614Y-129864296D01*
X151153269Y-129868577D01*
X151178144Y-129866982D01*
X151336872Y-129898203D01*
X151514220Y-129977561D01*
X151565328Y-130006924D01*
X151685453Y-130067780D01*
X151733466Y-130078265D01*
X151714377Y-130032367D01*
X151642821Y-129903193D01*
X151536879Y-129725572D01*
X151416540Y-129532125D01*
X151301790Y-129355471D01*
X151212617Y-129228231D01*
X151199846Y-129211922D01*
X151059917Y-129065774D01*
X150889989Y-128925211D01*
X150728806Y-128819449D01*
X150615114Y-128777703D01*
X150604278Y-128782861D01*
X150258805Y-128782861D01*
X150153715Y-128569407D01*
X150030966Y-128338949D01*
X149931847Y-128175881D01*
X149868464Y-128105331D01*
X149847955Y-128099796D01*
X149694799Y-128114729D01*
X149478520Y-128189216D01*
X149230470Y-128308557D01*
X148982002Y-128458049D01*
X148764469Y-128622992D01*
X148430721Y-128915203D01*
X148177758Y-128915203D01*
X147963197Y-128547412D01*
X147729497Y-128111667D01*
X147511461Y-127671829D01*
X147327802Y-127264182D01*
X147197233Y-126925006D01*
X147082483Y-126507710D01*
X147028757Y-126121198D01*
X147033593Y-126003398D01*
X147234144Y-126003398D01*
X147266021Y-126292519D01*
X147340508Y-126635691D01*
X147454677Y-127009957D01*
X147483738Y-127091963D01*
X147564263Y-127303742D01*
X147628485Y-127450735D01*
X147664582Y-127505059D01*
X147697787Y-127487081D01*
X147805721Y-127405019D01*
X147953764Y-127279488D01*
X148085256Y-127175870D01*
X148329655Y-127014488D01*
X148577928Y-126878201D01*
X148949544Y-126699842D01*
X148518046Y-126272569D01*
X148218968Y-125996660D01*
X147905559Y-125762440D01*
X147643355Y-125633622D01*
X147436085Y-125611943D01*
X147287481Y-125699141D01*
X147247805Y-125791286D01*
X147234144Y-126003398D01*
X147033593Y-126003398D01*
X147041926Y-125800419D01*
X147120018Y-125557056D01*
X147261064Y-125402789D01*
X147463091Y-125349298D01*
X147509681Y-125351881D01*
X147765218Y-125429239D01*
X148064148Y-125605262D01*
X148394718Y-125867919D01*
X148745178Y-126205183D01*
X149103776Y-126605024D01*
X149178510Y-126699842D01*
X149458762Y-127055413D01*
G37*
X135087316Y-106448213D02*
X135304508Y-106433698D01*
X135412687Y-106423075D01*
X135641480Y-106383603D01*
X135880688Y-106323105D01*
X136109471Y-106246432D01*
X136155959Y-106229631D01*
X136248438Y-106207798D01*
X136307227Y-106218395D01*
X136338059Y-106263842D01*
X136346671Y-106346560D01*
X136343485Y-106427699D01*
X136334516Y-106482328D01*
X136314987Y-106601295D01*
X136253660Y-106769670D01*
X136155450Y-106942427D01*
X136016301Y-107129169D01*
X135887918Y-107286238D01*
X136000563Y-107352252D01*
X136087810Y-107412512D01*
X136217064Y-107531705D01*
X136331143Y-107670177D01*
X136413799Y-107809932D01*
X136457862Y-107920062D01*
X136510208Y-108145727D01*
X136511918Y-108267901D01*
X136513344Y-108369890D01*
X136468011Y-108587664D01*
X136374956Y-108794163D01*
X136234921Y-108984502D01*
X136114878Y-109117304D01*
X136192819Y-109276602D01*
X136260808Y-109457039D01*
X136299346Y-109680042D01*
X136297208Y-109753400D01*
X136292828Y-109903772D01*
X136242252Y-110108746D01*
X136144052Y-110305518D01*
X136001427Y-110481156D01*
X135816163Y-110633482D01*
X135590047Y-110760319D01*
X135591025Y-110777424D01*
X135603157Y-110831352D01*
X135624276Y-110908695D01*
X135625078Y-110911477D01*
X135653644Y-111061022D01*
X135662662Y-111214481D01*
X135663573Y-111230000D01*
X135654764Y-111396222D01*
X135627117Y-111537496D01*
X135579758Y-111661720D01*
X135466026Y-111852078D01*
X135314275Y-112016100D01*
X135130823Y-112147494D01*
X134921985Y-112239966D01*
X134910069Y-112243856D01*
X134864375Y-112262762D01*
X134838521Y-112290192D01*
X134824386Y-112340169D01*
X134822001Y-112359757D01*
X134813848Y-112426719D01*
X134785682Y-112576564D01*
X134708451Y-112773227D01*
X134592734Y-112949465D01*
X134444763Y-113099308D01*
X134270774Y-113216789D01*
X134253467Y-113223858D01*
X134076998Y-113295937D01*
X133869671Y-113330784D01*
X133810472Y-113333989D01*
X133738265Y-113341172D01*
X133695670Y-113355289D01*
X133669194Y-113382165D01*
X133645344Y-113427624D01*
X133599909Y-113506363D01*
X133490577Y-113639202D01*
X133351762Y-113762074D01*
X133196527Y-113864081D01*
X133037935Y-113934326D01*
X132979812Y-113948103D01*
X132848503Y-113961026D01*
X132676900Y-113961732D01*
X132633856Y-113960318D01*
X132517670Y-113953372D01*
X132430569Y-113940503D01*
X132355876Y-113918472D01*
X132276910Y-113884039D01*
X132257681Y-113874453D01*
X132121667Y-113789988D01*
X131990459Y-113682980D01*
X131878468Y-113566447D01*
X131800107Y-113453404D01*
X131740360Y-113340780D01*
X131548230Y-113329288D01*
X131385342Y-113304523D01*
X131189710Y-113233650D01*
X131183035Y-113229540D01*
X132150122Y-113229540D01*
X132277041Y-113356459D01*
X132329113Y-113405474D01*
X132430173Y-113478343D01*
X132538691Y-113523389D01*
X132593203Y-113538476D01*
X132667571Y-113555325D01*
X132713261Y-113560800D01*
X132833247Y-113538448D01*
X132974017Y-113481931D01*
X133100870Y-113401637D01*
X133195464Y-113307211D01*
X133256827Y-113223858D01*
X133195464Y-113184079D01*
X133095418Y-113109101D01*
X132946100Y-112952801D01*
X132829558Y-112769589D01*
X132821447Y-112753181D01*
X132780313Y-112663218D01*
X132751352Y-112588562D01*
X132740400Y-112543987D01*
X132734800Y-112504936D01*
X132717030Y-112499821D01*
X132692286Y-112534485D01*
X132665950Y-112604550D01*
X132651351Y-112647731D01*
X132577827Y-112795000D01*
X132472384Y-112943924D01*
X132346165Y-113080198D01*
X132210311Y-113189516D01*
X132150122Y-113229540D01*
X131183035Y-113229540D01*
X131012268Y-113124392D01*
X130859426Y-112982931D01*
X130737596Y-112815449D01*
X130653191Y-112628128D01*
X130612621Y-112427151D01*
X130604152Y-112341942D01*
X130596824Y-112311365D01*
X131005102Y-112311365D01*
X131015648Y-112381952D01*
X131030718Y-112446128D01*
X131102980Y-112611036D01*
X131216476Y-112747668D01*
X131368050Y-112851817D01*
X131424233Y-112875412D01*
X131548415Y-112906185D01*
X131677790Y-112917382D01*
X131787900Y-112905855D01*
X131927743Y-112849303D01*
X132059668Y-112755934D01*
X132165552Y-112638269D01*
X132233038Y-112507368D01*
X132235394Y-112500186D01*
X132249328Y-112448342D01*
X133177650Y-112448342D01*
X133191168Y-112520805D01*
X133232148Y-112604307D01*
X133295540Y-112689997D01*
X133376295Y-112769024D01*
X133469364Y-112832535D01*
X133623067Y-112894211D01*
X133792533Y-112916247D01*
X133956422Y-112891997D01*
X134107469Y-112822625D01*
X134238407Y-112709294D01*
X134290608Y-112643527D01*
X134366106Y-112501657D01*
X134391400Y-112359757D01*
X134390033Y-112321438D01*
X134377136Y-112283661D01*
X134340193Y-112257698D01*
X134266796Y-112230695D01*
X134256764Y-112227244D01*
X134133890Y-112169953D01*
X134006041Y-112087996D01*
X133891163Y-111994225D01*
X133807200Y-111901497D01*
X133790148Y-111878183D01*
X133751561Y-111830712D01*
X133729539Y-111811499D01*
X133724739Y-111814317D01*
X133702027Y-111848109D01*
X133672487Y-111908012D01*
X133657242Y-111935017D01*
X133604727Y-112004876D01*
X133529651Y-112091086D01*
X133442477Y-112182829D01*
X133353665Y-112269290D01*
X133273676Y-112339654D01*
X133212971Y-112383104D01*
X133196644Y-112395769D01*
X133181010Y-112439040D01*
X133177650Y-112448342D01*
X132249328Y-112448342D01*
X132251828Y-112439040D01*
X132247003Y-112405947D01*
X132218928Y-112383398D01*
X132200856Y-112372223D01*
X132119271Y-112309821D01*
X132023325Y-112223399D01*
X131925985Y-112125783D01*
X131840217Y-112029798D01*
X131778988Y-111948268D01*
X131693876Y-111814742D01*
X131546994Y-111964851D01*
X131527215Y-111984366D01*
X131429957Y-112066755D01*
X131319702Y-112143694D01*
X131208907Y-112207800D01*
X131110030Y-112251690D01*
X131035530Y-112267979D01*
X131031554Y-112268064D01*
X131009685Y-112277526D01*
X131005102Y-112311365D01*
X130596824Y-112311365D01*
X130591798Y-112290393D01*
X130570156Y-112264446D01*
X130533441Y-112251247D01*
X130429315Y-112214955D01*
X130297691Y-112147820D01*
X130169086Y-112063695D01*
X130062706Y-111973894D01*
X129936336Y-111817482D01*
X129835260Y-111630707D01*
X129771782Y-111434899D01*
X129769166Y-111422481D01*
X129752132Y-111330184D01*
X129744573Y-111249936D01*
X129746426Y-111201729D01*
X130187407Y-111201729D01*
X130190993Y-111319306D01*
X130206521Y-111424257D01*
X130235087Y-111506000D01*
X130259570Y-111548598D01*
X130374081Y-111689510D01*
X130517153Y-111791100D01*
X130627359Y-111830255D01*
X130765799Y-111851434D01*
X130905052Y-111850486D01*
X131022662Y-111825866D01*
X131094764Y-111794161D01*
X131237015Y-111694672D01*
X131343120Y-111563013D01*
X131368927Y-111501178D01*
X132094742Y-111501178D01*
X132112370Y-111641529D01*
X132149563Y-111750920D01*
X132187191Y-111811164D01*
X132282074Y-111918498D01*
X132394665Y-112006510D01*
X132508205Y-112060721D01*
X132674030Y-112089583D01*
X132844844Y-112076014D01*
X133001607Y-112020164D01*
X133137089Y-111925829D01*
X133244060Y-111796807D01*
X133315289Y-111636895D01*
X133317775Y-111628228D01*
X133338507Y-111523350D01*
X133340164Y-111413210D01*
X133321889Y-111284242D01*
X133307356Y-111224212D01*
X133990086Y-111224212D01*
X134012800Y-111402436D01*
X134017266Y-111413210D01*
X134077917Y-111559541D01*
X134183386Y-111690704D01*
X134327153Y-111791100D01*
X134437359Y-111830255D01*
X134575799Y-111851434D01*
X134715052Y-111850486D01*
X134832662Y-111825866D01*
X134945529Y-111769619D01*
X135078952Y-111658319D01*
X135178687Y-111516573D01*
X135191675Y-111490437D01*
X135222559Y-111410364D01*
X135236520Y-111326033D01*
X135238072Y-111214481D01*
X135232261Y-111120272D01*
X135217984Y-111009122D01*
X135199011Y-110922338D01*
X135187294Y-110885754D01*
X135161747Y-110832219D01*
X135123413Y-110805510D01*
X135055317Y-110789993D01*
X135016757Y-110782131D01*
X134863608Y-110731325D01*
X134711277Y-110655034D01*
X134584498Y-110565073D01*
X134545343Y-110531402D01*
X134504166Y-110502408D01*
X134480367Y-110502098D01*
X134461798Y-110526670D01*
X134418229Y-110589958D01*
X134335499Y-110682267D01*
X134239430Y-110769913D01*
X134147355Y-110835851D01*
X134103504Y-110863078D01*
X134057540Y-110903805D01*
X134030194Y-110957538D01*
X134008973Y-111042974D01*
X133990086Y-111224212D01*
X133307356Y-111224212D01*
X133282825Y-111122882D01*
X133258376Y-111043141D01*
X133229881Y-110991993D01*
X133183480Y-110954171D01*
X133104874Y-110912790D01*
X133036869Y-110874522D01*
X132932039Y-110802836D01*
X132840222Y-110727178D01*
X132714779Y-110609840D01*
X132580732Y-110736616D01*
X132504043Y-110801780D01*
X132403374Y-110873321D01*
X132313135Y-110924346D01*
X132248221Y-110955883D01*
X132197016Y-110992799D01*
X132165121Y-111043243D01*
X132136917Y-111125000D01*
X132119477Y-111191817D01*
X132114310Y-111227244D01*
X132097003Y-111345923D01*
X132094742Y-111501178D01*
X131368927Y-111501178D01*
X131408984Y-111405199D01*
X131430507Y-111227244D01*
X131422190Y-111096572D01*
X131399049Y-110979920D01*
X131363539Y-110897901D01*
X131318038Y-110858312D01*
X131300094Y-110849583D01*
X131243791Y-110808845D01*
X131171759Y-110746905D01*
X131096159Y-110675062D01*
X131029153Y-110604619D01*
X130982903Y-110546878D01*
X130944537Y-110489456D01*
X130774735Y-110603321D01*
X130748569Y-110620338D01*
X130629441Y-110687452D01*
X130506471Y-110742995D01*
X130394607Y-110780825D01*
X130308794Y-110794800D01*
X130270541Y-110816804D01*
X130237329Y-110879065D01*
X130211671Y-110971027D01*
X130194665Y-111082109D01*
X130187407Y-111201729D01*
X129746426Y-111201729D01*
X129747660Y-111169639D01*
X129762562Y-111077198D01*
X129790450Y-110960517D01*
X129832496Y-110807500D01*
X129833436Y-110803960D01*
X129831546Y-110770361D01*
X129800034Y-110741718D01*
X129729231Y-110708784D01*
X129727239Y-110707962D01*
X129648134Y-110664969D01*
X129554298Y-110599613D01*
X129465613Y-110525701D01*
X129447853Y-110508923D01*
X129296628Y-110330344D01*
X129190580Y-110132756D01*
X129130695Y-109921632D01*
X129120366Y-109743855D01*
X129545311Y-109743855D01*
X129568918Y-109920313D01*
X129631608Y-110075002D01*
X129731895Y-110202786D01*
X129868293Y-110298533D01*
X130014064Y-110354472D01*
X130187188Y-110376739D01*
X130352956Y-110352399D01*
X130504872Y-110283522D01*
X130636439Y-110172176D01*
X130741163Y-110020432D01*
X130763919Y-109952215D01*
X131243521Y-109952215D01*
X131254643Y-110101964D01*
X131289514Y-110224283D01*
X131294555Y-110234840D01*
X131362121Y-110334450D01*
X131457996Y-110431921D01*
X131565685Y-110512573D01*
X131668694Y-110561729D01*
X131708663Y-110572452D01*
X131888315Y-110590194D01*
X132062446Y-110558443D01*
X132225068Y-110478100D01*
X132254549Y-110457007D01*
X132372494Y-110337323D01*
X132449423Y-110190086D01*
X132485089Y-110017635D01*
X132482787Y-109940694D01*
X132928583Y-109940694D01*
X132931798Y-110017635D01*
X132933230Y-110051940D01*
X132977397Y-110202291D01*
X133066300Y-110353516D01*
X133191332Y-110471991D01*
X133348588Y-110553001D01*
X133393801Y-110567123D01*
X133561370Y-110589299D01*
X133722657Y-110567363D01*
X133870599Y-110506237D01*
X133998132Y-110410844D01*
X134098193Y-110286106D01*
X134163718Y-110136946D01*
X134187643Y-109968286D01*
X134187321Y-109945863D01*
X134176533Y-109834480D01*
X134157192Y-109734170D01*
X134627910Y-109734170D01*
X134647503Y-109917949D01*
X134666885Y-109968286D01*
X134707708Y-110074312D01*
X134808110Y-110201694D01*
X134948293Y-110298533D01*
X135091454Y-110353438D01*
X135259523Y-110376027D01*
X135419664Y-110356140D01*
X135565382Y-110297601D01*
X135690182Y-110204234D01*
X135787572Y-110079862D01*
X135851055Y-109928309D01*
X135874138Y-109753400D01*
X135869155Y-109648215D01*
X135853434Y-109534870D01*
X135829794Y-109431800D01*
X135801123Y-109349102D01*
X135770309Y-109296877D01*
X135740240Y-109285223D01*
X135739907Y-109285360D01*
X135694441Y-109295644D01*
X135615399Y-109306277D01*
X135519684Y-109314978D01*
X135365503Y-109314155D01*
X135142257Y-109271151D01*
X134927624Y-109179694D01*
X134925771Y-109178671D01*
X134855425Y-109145126D01*
X134804881Y-109139420D01*
X134766426Y-109166988D01*
X134732347Y-109233267D01*
X134694931Y-109343693D01*
X134649343Y-109524539D01*
X134627910Y-109734170D01*
X134157192Y-109734170D01*
X134152985Y-109712352D01*
X134120077Y-109589640D01*
X134081208Y-109476505D01*
X134039777Y-109383109D01*
X133999182Y-109319613D01*
X133962823Y-109296179D01*
X133943898Y-109293676D01*
X133876213Y-109271343D01*
X133786900Y-109231831D01*
X133690607Y-109182442D01*
X133601978Y-109130477D01*
X133535662Y-109083237D01*
X133454624Y-109014827D01*
X133332462Y-109103438D01*
X133262686Y-109155334D01*
X133180116Y-109225177D01*
X133122495Y-109291832D01*
X133078453Y-109369477D01*
X133036615Y-109472292D01*
X132984128Y-109634110D01*
X132946283Y-109797306D01*
X132928583Y-109940694D01*
X132482787Y-109940694D01*
X132479244Y-109822311D01*
X132431640Y-109606452D01*
X132342030Y-109372400D01*
X132323132Y-109333180D01*
X132276021Y-109258191D01*
X132213589Y-109195550D01*
X132120479Y-109128341D01*
X131962732Y-109023982D01*
X131888016Y-109086084D01*
X131860748Y-109106744D01*
X131783688Y-109155541D01*
X131691238Y-109206153D01*
X131597961Y-109251310D01*
X131518420Y-109283743D01*
X131467178Y-109296179D01*
X131460034Y-109297361D01*
X131422361Y-109331682D01*
X131378501Y-109409608D01*
X131330991Y-109525936D01*
X131282366Y-109675460D01*
X131268612Y-109737465D01*
X131256376Y-109792635D01*
X131243521Y-109952215D01*
X130763919Y-109952215D01*
X130782116Y-109897666D01*
X130794371Y-109737465D01*
X130775039Y-109553919D01*
X130724327Y-109355304D01*
X130711784Y-109318195D01*
X130677584Y-109228912D01*
X130646970Y-109164378D01*
X130625363Y-109136570D01*
X130612077Y-109135825D01*
X130559890Y-109150816D01*
X130492500Y-109183418D01*
X130347882Y-109250964D01*
X130132330Y-109306302D01*
X129910317Y-109314978D01*
X129909021Y-109314886D01*
X129813261Y-109306098D01*
X129734251Y-109295341D01*
X129688981Y-109284923D01*
X129660772Y-109284499D01*
X129634754Y-109316506D01*
X129605322Y-109389857D01*
X129562272Y-109550759D01*
X129545311Y-109743855D01*
X129120366Y-109743855D01*
X129117960Y-109702445D01*
X129153360Y-109480668D01*
X129237882Y-109261774D01*
X129313347Y-109113049D01*
X129196422Y-108988047D01*
X129135823Y-108917415D01*
X129016252Y-108727126D01*
X128940244Y-108520371D01*
X128908423Y-108304451D01*
X128912794Y-108231171D01*
X129350646Y-108231171D01*
X129351042Y-108337553D01*
X129355662Y-108421002D01*
X129367687Y-108482307D01*
X129390222Y-108536547D01*
X129426372Y-108598799D01*
X129507376Y-108701924D01*
X129627098Y-108799930D01*
X129660794Y-108819966D01*
X129738098Y-108855955D01*
X129820692Y-108874953D01*
X129931227Y-108883158D01*
X130034934Y-108881767D01*
X130145404Y-108867198D01*
X130230869Y-108841126D01*
X130282763Y-108806337D01*
X130292521Y-108765619D01*
X130280352Y-108730262D01*
X130255220Y-108658917D01*
X130224346Y-108572300D01*
X130184597Y-108402110D01*
X130182017Y-108340945D01*
X130621864Y-108340945D01*
X130626090Y-108422935D01*
X130637894Y-108483230D01*
X130660310Y-108536846D01*
X130696372Y-108598799D01*
X130777376Y-108701924D01*
X130897098Y-108799930D01*
X130925321Y-108816815D01*
X131004853Y-108854711D01*
X131089193Y-108875149D01*
X131201227Y-108884492D01*
X131254873Y-108885497D01*
X131410764Y-108866901D01*
X131541463Y-108811384D01*
X131658260Y-108714756D01*
X131727519Y-108642465D01*
X131685203Y-108480382D01*
X131660349Y-108344852D01*
X131660926Y-108295185D01*
X132085066Y-108295185D01*
X132105241Y-108444729D01*
X132155047Y-108556354D01*
X132238781Y-108672485D01*
X132341074Y-108773385D01*
X132447317Y-108842086D01*
X132547488Y-108871706D01*
X132680787Y-108885758D01*
X132819784Y-108880914D01*
X132942797Y-108856541D01*
X132993737Y-108832378D01*
X133072606Y-108779158D01*
X133150070Y-108713084D01*
X133194966Y-108659535D01*
X133683488Y-108659535D01*
X133781204Y-108736927D01*
X133807033Y-108756413D01*
X133891904Y-108811791D01*
X133969244Y-108852060D01*
X134064933Y-108878160D01*
X134201137Y-108888182D01*
X134339580Y-108875831D01*
X134456953Y-108841607D01*
X134475626Y-108832787D01*
X134618190Y-108736806D01*
X134723220Y-108609361D01*
X134789654Y-108454061D01*
X134816430Y-108274515D01*
X134802484Y-108074334D01*
X134746754Y-107857125D01*
X134693142Y-107700751D01*
X134535859Y-107641918D01*
X135062131Y-107641918D01*
X135068334Y-107671223D01*
X135095224Y-107712423D01*
X135131078Y-107768546D01*
X135194844Y-107912091D01*
X135230682Y-108078900D01*
X135241179Y-108274515D01*
X135241484Y-108280200D01*
X135239432Y-108388084D01*
X135230916Y-108489578D01*
X135213402Y-108569901D01*
X135184334Y-108645378D01*
X135162833Y-108694139D01*
X135137767Y-108756301D01*
X135128000Y-108788670D01*
X135131678Y-108795297D01*
X135167835Y-108819967D01*
X135230115Y-108848942D01*
X135314876Y-108873499D01*
X135458000Y-108887945D01*
X135603106Y-108877200D01*
X135726953Y-108841607D01*
X135755206Y-108827937D01*
X135893656Y-108730184D01*
X135996411Y-108600744D01*
X136061885Y-108444892D01*
X136088490Y-108267901D01*
X136074640Y-108075046D01*
X136018748Y-107871602D01*
X135971983Y-107766415D01*
X135913135Y-107685610D01*
X135830913Y-107620685D01*
X135712200Y-107558229D01*
X135652830Y-107533756D01*
X135494482Y-107496639D01*
X135342751Y-107499469D01*
X135209539Y-107542617D01*
X135137126Y-107581348D01*
X135082950Y-107615096D01*
X135062131Y-107641918D01*
X134535859Y-107641918D01*
X134510521Y-107632440D01*
X134402356Y-107597178D01*
X134284980Y-107567617D01*
X134188200Y-107551699D01*
X134119174Y-107547900D01*
X134050317Y-107554626D01*
X133978949Y-107578372D01*
X133884720Y-107623984D01*
X133871654Y-107630765D01*
X133773113Y-107685806D01*
X133714526Y-107732979D01*
X133689965Y-107783628D01*
X133693500Y-107849102D01*
X133719202Y-107940748D01*
X133740337Y-108022615D01*
X133760609Y-108168578D01*
X133764411Y-108308959D01*
X133764693Y-108319400D01*
X133752458Y-108457455D01*
X133723777Y-108565117D01*
X133683488Y-108659535D01*
X133194966Y-108659535D01*
X133250366Y-108593457D01*
X133313405Y-108460512D01*
X133339154Y-108308959D01*
X133328687Y-108132440D01*
X133283075Y-107924600D01*
X133253792Y-107837335D01*
X133203427Y-107746778D01*
X133132882Y-107680365D01*
X133034572Y-107633407D01*
X132900916Y-107601213D01*
X132724329Y-107579096D01*
X132629603Y-107572699D01*
X132551959Y-107577105D01*
X132475714Y-107596851D01*
X132377512Y-107635751D01*
X132206005Y-107708700D01*
X132181035Y-107788844D01*
X132154691Y-107873399D01*
X132143076Y-107912112D01*
X132097895Y-108115132D01*
X132085066Y-108295185D01*
X131660926Y-108295185D01*
X131662811Y-108133004D01*
X131714732Y-107913872D01*
X131757559Y-107788844D01*
X131683830Y-107729160D01*
X131647245Y-107702524D01*
X131565200Y-107651407D01*
X131476167Y-107603272D01*
X131460679Y-107595794D01*
X131367223Y-107560819D01*
X131276982Y-107549846D01*
X131178847Y-107564297D01*
X131061709Y-107605593D01*
X130914459Y-107675156D01*
X130864980Y-107700708D01*
X130841581Y-107712792D01*
X130763131Y-107757765D01*
X130713806Y-107795975D01*
X130683309Y-107836020D01*
X130661339Y-107886500D01*
X130657929Y-107896799D01*
X130640216Y-107982361D01*
X130627641Y-108099317D01*
X130622084Y-108231171D01*
X130621864Y-108340945D01*
X130182017Y-108340945D01*
X130176438Y-108208709D01*
X130200668Y-108016274D01*
X130256423Y-107844404D01*
X130322434Y-107700708D01*
X130178867Y-107637341D01*
X130132890Y-107617486D01*
X130018265Y-107574880D01*
X129926897Y-107556218D01*
X129843728Y-107559575D01*
X129753699Y-107583029D01*
X129637999Y-107637066D01*
X129506659Y-107744520D01*
X129405570Y-107886500D01*
X129379472Y-107945216D01*
X129362388Y-108014019D01*
X129353549Y-108104506D01*
X129350646Y-108231171D01*
X128912794Y-108231171D01*
X128921412Y-108086667D01*
X128979835Y-107874321D01*
X129084315Y-107674714D01*
X129134879Y-107607121D01*
X129246678Y-107488995D01*
X129371860Y-107386282D01*
X129493038Y-107314313D01*
X129560376Y-107283735D01*
X129447132Y-107049498D01*
X129420023Y-106990435D01*
X129365373Y-106850949D01*
X129320700Y-106709113D01*
X129296136Y-106607643D01*
X129514597Y-106607643D01*
X129530833Y-106675571D01*
X129538341Y-106700310D01*
X129565262Y-106772373D01*
X129604839Y-106868750D01*
X129651484Y-106975546D01*
X129755900Y-107207593D01*
X130001866Y-107217676D01*
X130082621Y-107221578D01*
X130181938Y-107230658D01*
X130260098Y-107247035D01*
X130335359Y-107275080D01*
X130425975Y-107319160D01*
X130461686Y-107337347D01*
X130540489Y-107374853D01*
X130591138Y-107391541D01*
X130625726Y-107390290D01*
X130656350Y-107373977D01*
X130690692Y-107338238D01*
X130686360Y-107294447D01*
X130679021Y-107274820D01*
X130661387Y-107209138D01*
X130640046Y-107114394D01*
X130618112Y-107003850D01*
X130572084Y-106756200D01*
X130341792Y-106756008D01*
X130178059Y-106751487D01*
X129895054Y-106718950D01*
X129650215Y-106655309D01*
X129514597Y-106607643D01*
X129296136Y-106607643D01*
X129288154Y-106574672D01*
X129269884Y-106457373D01*
X129268038Y-106366962D01*
X129284766Y-106313186D01*
X129309360Y-106290580D01*
X129371170Y-106276226D01*
X129436471Y-106309954D01*
X129475270Y-106338985D01*
X129582975Y-106393330D01*
X129725428Y-106443626D01*
X129892075Y-106487296D01*
X130072357Y-106521765D01*
X130255718Y-106544455D01*
X130431601Y-106552791D01*
X130548502Y-106552999D01*
X130555203Y-106459697D01*
X130791396Y-106459697D01*
X130800911Y-106641499D01*
X130822285Y-106807000D01*
X130831353Y-106857996D01*
X130851611Y-106976473D01*
X130868469Y-107081013D01*
X130878983Y-107153614D01*
X130884199Y-107192798D01*
X130896266Y-107237168D01*
X130921231Y-107247911D01*
X130971589Y-107236164D01*
X131035004Y-107223620D01*
X131156827Y-107214667D01*
X131294516Y-107216625D01*
X131428078Y-107228965D01*
X131537522Y-107251156D01*
X131617423Y-107281605D01*
X131722458Y-107332703D01*
X131731970Y-107338238D01*
X131822389Y-107390856D01*
X131834915Y-107398934D01*
X131909426Y-107446176D01*
X131963302Y-107478968D01*
X131985608Y-107490626D01*
X132005495Y-107477130D01*
X132055768Y-107441458D01*
X132124942Y-107391714D01*
X132158270Y-107369199D01*
X132288565Y-107299850D01*
X132423424Y-107250453D01*
X133049376Y-107250453D01*
X133202855Y-107332456D01*
X133282248Y-107376875D01*
X133355346Y-107421722D01*
X133399617Y-107453629D01*
X133419112Y-107471040D01*
X133448127Y-107488089D01*
X133477955Y-107477703D01*
X133527800Y-107437460D01*
X133577405Y-107402789D01*
X133599200Y-107390117D01*
X134816522Y-107390117D01*
X134819682Y-107391205D01*
X134857983Y-107383011D01*
X134926067Y-107356468D01*
X135011611Y-107316242D01*
X135069788Y-107287716D01*
X135148208Y-107255146D01*
X135223598Y-107235366D01*
X135313902Y-107224212D01*
X135437061Y-107217522D01*
X135507051Y-107214063D01*
X135599692Y-107207085D01*
X135663233Y-107199151D01*
X135686832Y-107191395D01*
X135692021Y-107180923D01*
X135722652Y-107137308D01*
X135774648Y-107069469D01*
X135840936Y-106986796D01*
X135907676Y-106902698D01*
X136002812Y-106768129D01*
X136066000Y-106653073D01*
X136102086Y-106549414D01*
X136118181Y-106482328D01*
X135933743Y-106540898D01*
X135867511Y-106560474D01*
X135648263Y-106609879D01*
X135417430Y-106642698D01*
X135202846Y-106654600D01*
X135120310Y-106656106D01*
X135072406Y-106664430D01*
X135048601Y-106685171D01*
X135035367Y-106723930D01*
X135020540Y-106771888D01*
X134991292Y-106856556D01*
X134952193Y-106964740D01*
X134907555Y-107084282D01*
X134904985Y-107091073D01*
X134864665Y-107202964D01*
X134834573Y-107296512D01*
X134817571Y-107362101D01*
X134816522Y-107390117D01*
X133599200Y-107390117D01*
X133659318Y-107355164D01*
X133751393Y-107308283D01*
X133768786Y-107300095D01*
X133831295Y-107272131D01*
X133885076Y-107253686D01*
X133942028Y-107243250D01*
X134014049Y-107239313D01*
X134113036Y-107240367D01*
X134250887Y-107244900D01*
X134590288Y-107257045D01*
X134645921Y-107114572D01*
X134660275Y-107077744D01*
X134737256Y-106875291D01*
X134796543Y-106703236D01*
X134837987Y-106552969D01*
X134861439Y-106415880D01*
X134866749Y-106283358D01*
X134853767Y-106146792D01*
X134822345Y-105997571D01*
X134772332Y-105827085D01*
X134703579Y-105626724D01*
X134615937Y-105387875D01*
X134606318Y-105365629D01*
X134591668Y-105354536D01*
X134568274Y-105369002D01*
X134529014Y-105414147D01*
X134466766Y-105495089D01*
X134450636Y-105516090D01*
X134385464Y-105595363D01*
X134328134Y-105657157D01*
X134289506Y-105689557D01*
X134258882Y-105711500D01*
X134239000Y-105743522D01*
X134238305Y-105745933D01*
X134215005Y-105778172D01*
X134162560Y-105839631D01*
X134086284Y-105924382D01*
X133991490Y-106026500D01*
X133883491Y-106140058D01*
X133840901Y-106184469D01*
X133658448Y-106378731D01*
X133508576Y-106546345D01*
X133386697Y-106693042D01*
X133288224Y-106824551D01*
X133208571Y-106946605D01*
X133143150Y-107064932D01*
X133123454Y-107103897D01*
X133049376Y-107250453D01*
X132423424Y-107250453D01*
X132423888Y-107250283D01*
X132474555Y-107235890D01*
X132547086Y-107209282D01*
X132586507Y-107181150D01*
X132604247Y-107144812D01*
X132611877Y-107103897D01*
X132610101Y-107077655D01*
X132603552Y-107073757D01*
X132561019Y-107049264D01*
X132486037Y-107006412D01*
X132386549Y-106949736D01*
X132270500Y-106883771D01*
X132227766Y-106859437D01*
X131955318Y-106700322D01*
X131721579Y-106555673D01*
X131519568Y-106420640D01*
X131342305Y-106290372D01*
X131182810Y-106160020D01*
X131034102Y-106024734D01*
X130864503Y-105862439D01*
X130835809Y-105960069D01*
X130831464Y-105975707D01*
X130806927Y-106110878D01*
X130793486Y-106277516D01*
X130791396Y-106459697D01*
X130555203Y-106459697D01*
X130565377Y-106318049D01*
X130567127Y-106295888D01*
X130583595Y-106154283D01*
X130607886Y-106006052D01*
X130635410Y-105879900D01*
X130641521Y-105856457D01*
X130667740Y-105754111D01*
X130689252Y-105667458D01*
X130701893Y-105613200D01*
X130722012Y-105546809D01*
X130762405Y-105495318D01*
X130817159Y-105492387D01*
X130886426Y-105538027D01*
X130970354Y-105632249D01*
X130990212Y-105657632D01*
X131136392Y-105823171D01*
X131309942Y-105983977D01*
X131521426Y-106149976D01*
X131531053Y-106157022D01*
X131685747Y-106265128D01*
X131869609Y-106386098D01*
X132067602Y-106510470D01*
X132264686Y-106628781D01*
X132445824Y-106731571D01*
X132646547Y-106841243D01*
X132632869Y-106576471D01*
X132610890Y-106369408D01*
X132539056Y-106073547D01*
X132423027Y-105794382D01*
X132265911Y-105537652D01*
X132070816Y-105309092D01*
X131840850Y-105114440D01*
X131766799Y-105061604D01*
X131863633Y-104886552D01*
X131875237Y-104865612D01*
X131920066Y-104785461D01*
X131953465Y-104726915D01*
X131968917Y-104701432D01*
X131981683Y-104700476D01*
X132027069Y-104723494D01*
X132095712Y-104771400D01*
X132179320Y-104837820D01*
X132269598Y-104916378D01*
X132358253Y-105000700D01*
X132514486Y-105171547D01*
X132716179Y-105452178D01*
X132873123Y-105756690D01*
X132985526Y-106085516D01*
X133053598Y-106439085D01*
X133085010Y-106689205D01*
X133234355Y-106513152D01*
X133245029Y-106500680D01*
X133315030Y-106421531D01*
X133410670Y-106316308D01*
X133523970Y-106193660D01*
X133646949Y-106062241D01*
X133771627Y-105930700D01*
X133820724Y-105879179D01*
X133975142Y-105715482D01*
X134099773Y-105579870D01*
X134199571Y-105466378D01*
X134279489Y-105369038D01*
X134344480Y-105281885D01*
X134399500Y-105198953D01*
X134449501Y-105114276D01*
X134509445Y-105021817D01*
X134568611Y-104967130D01*
X134623872Y-104959558D01*
X134678102Y-104997634D01*
X134692321Y-105019318D01*
X134725499Y-105086867D01*
X134768821Y-105187095D01*
X134818673Y-105310535D01*
X134871444Y-105447719D01*
X134923519Y-105589179D01*
X134971288Y-105725450D01*
X135011135Y-105847063D01*
X135039450Y-105944551D01*
X135056141Y-106021423D01*
X135075862Y-106155360D01*
X135084650Y-106278356D01*
X135084729Y-106283358D01*
X135087316Y-106448213D01*
G36*
X135087316Y-106448213D02*
G01*
X135304508Y-106433698D01*
X135412687Y-106423075D01*
X135641480Y-106383603D01*
X135880688Y-106323105D01*
X136109471Y-106246432D01*
X136155959Y-106229631D01*
X136248438Y-106207798D01*
X136307227Y-106218395D01*
X136338059Y-106263842D01*
X136346671Y-106346560D01*
X136343485Y-106427699D01*
X136334516Y-106482328D01*
X136314987Y-106601295D01*
X136253660Y-106769670D01*
X136155450Y-106942427D01*
X136016301Y-107129169D01*
X135887918Y-107286238D01*
X136000563Y-107352252D01*
X136087810Y-107412512D01*
X136217064Y-107531705D01*
X136331143Y-107670177D01*
X136413799Y-107809932D01*
X136457862Y-107920062D01*
X136510208Y-108145727D01*
X136511918Y-108267901D01*
X136513344Y-108369890D01*
X136468011Y-108587664D01*
X136374956Y-108794163D01*
X136234921Y-108984502D01*
X136114878Y-109117304D01*
X136192819Y-109276602D01*
X136260808Y-109457039D01*
X136299346Y-109680042D01*
X136297208Y-109753400D01*
X136292828Y-109903772D01*
X136242252Y-110108746D01*
X136144052Y-110305518D01*
X136001427Y-110481156D01*
X135816163Y-110633482D01*
X135590047Y-110760319D01*
X135591025Y-110777424D01*
X135603157Y-110831352D01*
X135624276Y-110908695D01*
X135625078Y-110911477D01*
X135653644Y-111061022D01*
X135662662Y-111214481D01*
X135663573Y-111230000D01*
X135654764Y-111396222D01*
X135627117Y-111537496D01*
X135579758Y-111661720D01*
X135466026Y-111852078D01*
X135314275Y-112016100D01*
X135130823Y-112147494D01*
X134921985Y-112239966D01*
X134910069Y-112243856D01*
X134864375Y-112262762D01*
X134838521Y-112290192D01*
X134824386Y-112340169D01*
X134822001Y-112359757D01*
X134813848Y-112426719D01*
X134785682Y-112576564D01*
X134708451Y-112773227D01*
X134592734Y-112949465D01*
X134444763Y-113099308D01*
X134270774Y-113216789D01*
X134253467Y-113223858D01*
X134076998Y-113295937D01*
X133869671Y-113330784D01*
X133810472Y-113333989D01*
X133738265Y-113341172D01*
X133695670Y-113355289D01*
X133669194Y-113382165D01*
X133645344Y-113427624D01*
X133599909Y-113506363D01*
X133490577Y-113639202D01*
X133351762Y-113762074D01*
X133196527Y-113864081D01*
X133037935Y-113934326D01*
X132979812Y-113948103D01*
X132848503Y-113961026D01*
X132676900Y-113961732D01*
X132633856Y-113960318D01*
X132517670Y-113953372D01*
X132430569Y-113940503D01*
X132355876Y-113918472D01*
X132276910Y-113884039D01*
X132257681Y-113874453D01*
X132121667Y-113789988D01*
X131990459Y-113682980D01*
X131878468Y-113566447D01*
X131800107Y-113453404D01*
X131740360Y-113340780D01*
X131548230Y-113329288D01*
X131385342Y-113304523D01*
X131189710Y-113233650D01*
X131183035Y-113229540D01*
X132150122Y-113229540D01*
X132277041Y-113356459D01*
X132329113Y-113405474D01*
X132430173Y-113478343D01*
X132538691Y-113523389D01*
X132593203Y-113538476D01*
X132667571Y-113555325D01*
X132713261Y-113560800D01*
X132833247Y-113538448D01*
X132974017Y-113481931D01*
X133100870Y-113401637D01*
X133195464Y-113307211D01*
X133256827Y-113223858D01*
X133195464Y-113184079D01*
X133095418Y-113109101D01*
X132946100Y-112952801D01*
X132829558Y-112769589D01*
X132821447Y-112753181D01*
X132780313Y-112663218D01*
X132751352Y-112588562D01*
X132740400Y-112543987D01*
X132734800Y-112504936D01*
X132717030Y-112499821D01*
X132692286Y-112534485D01*
X132665950Y-112604550D01*
X132651351Y-112647731D01*
X132577827Y-112795000D01*
X132472384Y-112943924D01*
X132346165Y-113080198D01*
X132210311Y-113189516D01*
X132150122Y-113229540D01*
X131183035Y-113229540D01*
X131012268Y-113124392D01*
X130859426Y-112982931D01*
X130737596Y-112815449D01*
X130653191Y-112628128D01*
X130612621Y-112427151D01*
X130604152Y-112341942D01*
X130596824Y-112311365D01*
X131005102Y-112311365D01*
X131015648Y-112381952D01*
X131030718Y-112446128D01*
X131102980Y-112611036D01*
X131216476Y-112747668D01*
X131368050Y-112851817D01*
X131424233Y-112875412D01*
X131548415Y-112906185D01*
X131677790Y-112917382D01*
X131787900Y-112905855D01*
X131927743Y-112849303D01*
X132059668Y-112755934D01*
X132165552Y-112638269D01*
X132233038Y-112507368D01*
X132235394Y-112500186D01*
X132249328Y-112448342D01*
X133177650Y-112448342D01*
X133191168Y-112520805D01*
X133232148Y-112604307D01*
X133295540Y-112689997D01*
X133376295Y-112769024D01*
X133469364Y-112832535D01*
X133623067Y-112894211D01*
X133792533Y-112916247D01*
X133956422Y-112891997D01*
X134107469Y-112822625D01*
X134238407Y-112709294D01*
X134290608Y-112643527D01*
X134366106Y-112501657D01*
X134391400Y-112359757D01*
X134390033Y-112321438D01*
X134377136Y-112283661D01*
X134340193Y-112257698D01*
X134266796Y-112230695D01*
X134256764Y-112227244D01*
X134133890Y-112169953D01*
X134006041Y-112087996D01*
X133891163Y-111994225D01*
X133807200Y-111901497D01*
X133790148Y-111878183D01*
X133751561Y-111830712D01*
X133729539Y-111811499D01*
X133724739Y-111814317D01*
X133702027Y-111848109D01*
X133672487Y-111908012D01*
X133657242Y-111935017D01*
X133604727Y-112004876D01*
X133529651Y-112091086D01*
X133442477Y-112182829D01*
X133353665Y-112269290D01*
X133273676Y-112339654D01*
X133212971Y-112383104D01*
X133196644Y-112395769D01*
X133181010Y-112439040D01*
X133177650Y-112448342D01*
X132249328Y-112448342D01*
X132251828Y-112439040D01*
X132247003Y-112405947D01*
X132218928Y-112383398D01*
X132200856Y-112372223D01*
X132119271Y-112309821D01*
X132023325Y-112223399D01*
X131925985Y-112125783D01*
X131840217Y-112029798D01*
X131778988Y-111948268D01*
X131693876Y-111814742D01*
X131546994Y-111964851D01*
X131527215Y-111984366D01*
X131429957Y-112066755D01*
X131319702Y-112143694D01*
X131208907Y-112207800D01*
X131110030Y-112251690D01*
X131035530Y-112267979D01*
X131031554Y-112268064D01*
X131009685Y-112277526D01*
X131005102Y-112311365D01*
X130596824Y-112311365D01*
X130591798Y-112290393D01*
X130570156Y-112264446D01*
X130533441Y-112251247D01*
X130429315Y-112214955D01*
X130297691Y-112147820D01*
X130169086Y-112063695D01*
X130062706Y-111973894D01*
X129936336Y-111817482D01*
X129835260Y-111630707D01*
X129771782Y-111434899D01*
X129769166Y-111422481D01*
X129752132Y-111330184D01*
X129744573Y-111249936D01*
X129746426Y-111201729D01*
X130187407Y-111201729D01*
X130190993Y-111319306D01*
X130206521Y-111424257D01*
X130235087Y-111506000D01*
X130259570Y-111548598D01*
X130374081Y-111689510D01*
X130517153Y-111791100D01*
X130627359Y-111830255D01*
X130765799Y-111851434D01*
X130905052Y-111850486D01*
X131022662Y-111825866D01*
X131094764Y-111794161D01*
X131237015Y-111694672D01*
X131343120Y-111563013D01*
X131368927Y-111501178D01*
X132094742Y-111501178D01*
X132112370Y-111641529D01*
X132149563Y-111750920D01*
X132187191Y-111811164D01*
X132282074Y-111918498D01*
X132394665Y-112006510D01*
X132508205Y-112060721D01*
X132674030Y-112089583D01*
X132844844Y-112076014D01*
X133001607Y-112020164D01*
X133137089Y-111925829D01*
X133244060Y-111796807D01*
X133315289Y-111636895D01*
X133317775Y-111628228D01*
X133338507Y-111523350D01*
X133340164Y-111413210D01*
X133321889Y-111284242D01*
X133307356Y-111224212D01*
X133990086Y-111224212D01*
X134012800Y-111402436D01*
X134017266Y-111413210D01*
X134077917Y-111559541D01*
X134183386Y-111690704D01*
X134327153Y-111791100D01*
X134437359Y-111830255D01*
X134575799Y-111851434D01*
X134715052Y-111850486D01*
X134832662Y-111825866D01*
X134945529Y-111769619D01*
X135078952Y-111658319D01*
X135178687Y-111516573D01*
X135191675Y-111490437D01*
X135222559Y-111410364D01*
X135236520Y-111326033D01*
X135238072Y-111214481D01*
X135232261Y-111120272D01*
X135217984Y-111009122D01*
X135199011Y-110922338D01*
X135187294Y-110885754D01*
X135161747Y-110832219D01*
X135123413Y-110805510D01*
X135055317Y-110789993D01*
X135016757Y-110782131D01*
X134863608Y-110731325D01*
X134711277Y-110655034D01*
X134584498Y-110565073D01*
X134545343Y-110531402D01*
X134504166Y-110502408D01*
X134480367Y-110502098D01*
X134461798Y-110526670D01*
X134418229Y-110589958D01*
X134335499Y-110682267D01*
X134239430Y-110769913D01*
X134147355Y-110835851D01*
X134103504Y-110863078D01*
X134057540Y-110903805D01*
X134030194Y-110957538D01*
X134008973Y-111042974D01*
X133990086Y-111224212D01*
X133307356Y-111224212D01*
X133282825Y-111122882D01*
X133258376Y-111043141D01*
X133229881Y-110991993D01*
X133183480Y-110954171D01*
X133104874Y-110912790D01*
X133036869Y-110874522D01*
X132932039Y-110802836D01*
X132840222Y-110727178D01*
X132714779Y-110609840D01*
X132580732Y-110736616D01*
X132504043Y-110801780D01*
X132403374Y-110873321D01*
X132313135Y-110924346D01*
X132248221Y-110955883D01*
X132197016Y-110992799D01*
X132165121Y-111043243D01*
X132136917Y-111125000D01*
X132119477Y-111191817D01*
X132114310Y-111227244D01*
X132097003Y-111345923D01*
X132094742Y-111501178D01*
X131368927Y-111501178D01*
X131408984Y-111405199D01*
X131430507Y-111227244D01*
X131422190Y-111096572D01*
X131399049Y-110979920D01*
X131363539Y-110897901D01*
X131318038Y-110858312D01*
X131300094Y-110849583D01*
X131243791Y-110808845D01*
X131171759Y-110746905D01*
X131096159Y-110675062D01*
X131029153Y-110604619D01*
X130982903Y-110546878D01*
X130944537Y-110489456D01*
X130774735Y-110603321D01*
X130748569Y-110620338D01*
X130629441Y-110687452D01*
X130506471Y-110742995D01*
X130394607Y-110780825D01*
X130308794Y-110794800D01*
X130270541Y-110816804D01*
X130237329Y-110879065D01*
X130211671Y-110971027D01*
X130194665Y-111082109D01*
X130187407Y-111201729D01*
X129746426Y-111201729D01*
X129747660Y-111169639D01*
X129762562Y-111077198D01*
X129790450Y-110960517D01*
X129832496Y-110807500D01*
X129833436Y-110803960D01*
X129831546Y-110770361D01*
X129800034Y-110741718D01*
X129729231Y-110708784D01*
X129727239Y-110707962D01*
X129648134Y-110664969D01*
X129554298Y-110599613D01*
X129465613Y-110525701D01*
X129447853Y-110508923D01*
X129296628Y-110330344D01*
X129190580Y-110132756D01*
X129130695Y-109921632D01*
X129120366Y-109743855D01*
X129545311Y-109743855D01*
X129568918Y-109920313D01*
X129631608Y-110075002D01*
X129731895Y-110202786D01*
X129868293Y-110298533D01*
X130014064Y-110354472D01*
X130187188Y-110376739D01*
X130352956Y-110352399D01*
X130504872Y-110283522D01*
X130636439Y-110172176D01*
X130741163Y-110020432D01*
X130763919Y-109952215D01*
X131243521Y-109952215D01*
X131254643Y-110101964D01*
X131289514Y-110224283D01*
X131294555Y-110234840D01*
X131362121Y-110334450D01*
X131457996Y-110431921D01*
X131565685Y-110512573D01*
X131668694Y-110561729D01*
X131708663Y-110572452D01*
X131888315Y-110590194D01*
X132062446Y-110558443D01*
X132225068Y-110478100D01*
X132254549Y-110457007D01*
X132372494Y-110337323D01*
X132449423Y-110190086D01*
X132485089Y-110017635D01*
X132482787Y-109940694D01*
X132928583Y-109940694D01*
X132931798Y-110017635D01*
X132933230Y-110051940D01*
X132977397Y-110202291D01*
X133066300Y-110353516D01*
X133191332Y-110471991D01*
X133348588Y-110553001D01*
X133393801Y-110567123D01*
X133561370Y-110589299D01*
X133722657Y-110567363D01*
X133870599Y-110506237D01*
X133998132Y-110410844D01*
X134098193Y-110286106D01*
X134163718Y-110136946D01*
X134187643Y-109968286D01*
X134187321Y-109945863D01*
X134176533Y-109834480D01*
X134157192Y-109734170D01*
X134627910Y-109734170D01*
X134647503Y-109917949D01*
X134666885Y-109968286D01*
X134707708Y-110074312D01*
X134808110Y-110201694D01*
X134948293Y-110298533D01*
X135091454Y-110353438D01*
X135259523Y-110376027D01*
X135419664Y-110356140D01*
X135565382Y-110297601D01*
X135690182Y-110204234D01*
X135787572Y-110079862D01*
X135851055Y-109928309D01*
X135874138Y-109753400D01*
X135869155Y-109648215D01*
X135853434Y-109534870D01*
X135829794Y-109431800D01*
X135801123Y-109349102D01*
X135770309Y-109296877D01*
X135740240Y-109285223D01*
X135739907Y-109285360D01*
X135694441Y-109295644D01*
X135615399Y-109306277D01*
X135519684Y-109314978D01*
X135365503Y-109314155D01*
X135142257Y-109271151D01*
X134927624Y-109179694D01*
X134925771Y-109178671D01*
X134855425Y-109145126D01*
X134804881Y-109139420D01*
X134766426Y-109166988D01*
X134732347Y-109233267D01*
X134694931Y-109343693D01*
X134649343Y-109524539D01*
X134627910Y-109734170D01*
X134157192Y-109734170D01*
X134152985Y-109712352D01*
X134120077Y-109589640D01*
X134081208Y-109476505D01*
X134039777Y-109383109D01*
X133999182Y-109319613D01*
X133962823Y-109296179D01*
X133943898Y-109293676D01*
X133876213Y-109271343D01*
X133786900Y-109231831D01*
X133690607Y-109182442D01*
X133601978Y-109130477D01*
X133535662Y-109083237D01*
X133454624Y-109014827D01*
X133332462Y-109103438D01*
X133262686Y-109155334D01*
X133180116Y-109225177D01*
X133122495Y-109291832D01*
X133078453Y-109369477D01*
X133036615Y-109472292D01*
X132984128Y-109634110D01*
X132946283Y-109797306D01*
X132928583Y-109940694D01*
X132482787Y-109940694D01*
X132479244Y-109822311D01*
X132431640Y-109606452D01*
X132342030Y-109372400D01*
X132323132Y-109333180D01*
X132276021Y-109258191D01*
X132213589Y-109195550D01*
X132120479Y-109128341D01*
X131962732Y-109023982D01*
X131888016Y-109086084D01*
X131860748Y-109106744D01*
X131783688Y-109155541D01*
X131691238Y-109206153D01*
X131597961Y-109251310D01*
X131518420Y-109283743D01*
X131467178Y-109296179D01*
X131460034Y-109297361D01*
X131422361Y-109331682D01*
X131378501Y-109409608D01*
X131330991Y-109525936D01*
X131282366Y-109675460D01*
X131268612Y-109737465D01*
X131256376Y-109792635D01*
X131243521Y-109952215D01*
X130763919Y-109952215D01*
X130782116Y-109897666D01*
X130794371Y-109737465D01*
X130775039Y-109553919D01*
X130724327Y-109355304D01*
X130711784Y-109318195D01*
X130677584Y-109228912D01*
X130646970Y-109164378D01*
X130625363Y-109136570D01*
X130612077Y-109135825D01*
X130559890Y-109150816D01*
X130492500Y-109183418D01*
X130347882Y-109250964D01*
X130132330Y-109306302D01*
X129910317Y-109314978D01*
X129909021Y-109314886D01*
X129813261Y-109306098D01*
X129734251Y-109295341D01*
X129688981Y-109284923D01*
X129660772Y-109284499D01*
X129634754Y-109316506D01*
X129605322Y-109389857D01*
X129562272Y-109550759D01*
X129545311Y-109743855D01*
X129120366Y-109743855D01*
X129117960Y-109702445D01*
X129153360Y-109480668D01*
X129237882Y-109261774D01*
X129313347Y-109113049D01*
X129196422Y-108988047D01*
X129135823Y-108917415D01*
X129016252Y-108727126D01*
X128940244Y-108520371D01*
X128908423Y-108304451D01*
X128912794Y-108231171D01*
X129350646Y-108231171D01*
X129351042Y-108337553D01*
X129355662Y-108421002D01*
X129367687Y-108482307D01*
X129390222Y-108536547D01*
X129426372Y-108598799D01*
X129507376Y-108701924D01*
X129627098Y-108799930D01*
X129660794Y-108819966D01*
X129738098Y-108855955D01*
X129820692Y-108874953D01*
X129931227Y-108883158D01*
X130034934Y-108881767D01*
X130145404Y-108867198D01*
X130230869Y-108841126D01*
X130282763Y-108806337D01*
X130292521Y-108765619D01*
X130280352Y-108730262D01*
X130255220Y-108658917D01*
X130224346Y-108572300D01*
X130184597Y-108402110D01*
X130182017Y-108340945D01*
X130621864Y-108340945D01*
X130626090Y-108422935D01*
X130637894Y-108483230D01*
X130660310Y-108536846D01*
X130696372Y-108598799D01*
X130777376Y-108701924D01*
X130897098Y-108799930D01*
X130925321Y-108816815D01*
X131004853Y-108854711D01*
X131089193Y-108875149D01*
X131201227Y-108884492D01*
X131254873Y-108885497D01*
X131410764Y-108866901D01*
X131541463Y-108811384D01*
X131658260Y-108714756D01*
X131727519Y-108642465D01*
X131685203Y-108480382D01*
X131660349Y-108344852D01*
X131660926Y-108295185D01*
X132085066Y-108295185D01*
X132105241Y-108444729D01*
X132155047Y-108556354D01*
X132238781Y-108672485D01*
X132341074Y-108773385D01*
X132447317Y-108842086D01*
X132547488Y-108871706D01*
X132680787Y-108885758D01*
X132819784Y-108880914D01*
X132942797Y-108856541D01*
X132993737Y-108832378D01*
X133072606Y-108779158D01*
X133150070Y-108713084D01*
X133194966Y-108659535D01*
X133683488Y-108659535D01*
X133781204Y-108736927D01*
X133807033Y-108756413D01*
X133891904Y-108811791D01*
X133969244Y-108852060D01*
X134064933Y-108878160D01*
X134201137Y-108888182D01*
X134339580Y-108875831D01*
X134456953Y-108841607D01*
X134475626Y-108832787D01*
X134618190Y-108736806D01*
X134723220Y-108609361D01*
X134789654Y-108454061D01*
X134816430Y-108274515D01*
X134802484Y-108074334D01*
X134746754Y-107857125D01*
X134693142Y-107700751D01*
X134535859Y-107641918D01*
X135062131Y-107641918D01*
X135068334Y-107671223D01*
X135095224Y-107712423D01*
X135131078Y-107768546D01*
X135194844Y-107912091D01*
X135230682Y-108078900D01*
X135241179Y-108274515D01*
X135241484Y-108280200D01*
X135239432Y-108388084D01*
X135230916Y-108489578D01*
X135213402Y-108569901D01*
X135184334Y-108645378D01*
X135162833Y-108694139D01*
X135137767Y-108756301D01*
X135128000Y-108788670D01*
X135131678Y-108795297D01*
X135167835Y-108819967D01*
X135230115Y-108848942D01*
X135314876Y-108873499D01*
X135458000Y-108887945D01*
X135603106Y-108877200D01*
X135726953Y-108841607D01*
X135755206Y-108827937D01*
X135893656Y-108730184D01*
X135996411Y-108600744D01*
X136061885Y-108444892D01*
X136088490Y-108267901D01*
X136074640Y-108075046D01*
X136018748Y-107871602D01*
X135971983Y-107766415D01*
X135913135Y-107685610D01*
X135830913Y-107620685D01*
X135712200Y-107558229D01*
X135652830Y-107533756D01*
X135494482Y-107496639D01*
X135342751Y-107499469D01*
X135209539Y-107542617D01*
X135137126Y-107581348D01*
X135082950Y-107615096D01*
X135062131Y-107641918D01*
X134535859Y-107641918D01*
X134510521Y-107632440D01*
X134402356Y-107597178D01*
X134284980Y-107567617D01*
X134188200Y-107551699D01*
X134119174Y-107547900D01*
X134050317Y-107554626D01*
X133978949Y-107578372D01*
X133884720Y-107623984D01*
X133871654Y-107630765D01*
X133773113Y-107685806D01*
X133714526Y-107732979D01*
X133689965Y-107783628D01*
X133693500Y-107849102D01*
X133719202Y-107940748D01*
X133740337Y-108022615D01*
X133760609Y-108168578D01*
X133764411Y-108308959D01*
X133764693Y-108319400D01*
X133752458Y-108457455D01*
X133723777Y-108565117D01*
X133683488Y-108659535D01*
X133194966Y-108659535D01*
X133250366Y-108593457D01*
X133313405Y-108460512D01*
X133339154Y-108308959D01*
X133328687Y-108132440D01*
X133283075Y-107924600D01*
X133253792Y-107837335D01*
X133203427Y-107746778D01*
X133132882Y-107680365D01*
X133034572Y-107633407D01*
X132900916Y-107601213D01*
X132724329Y-107579096D01*
X132629603Y-107572699D01*
X132551959Y-107577105D01*
X132475714Y-107596851D01*
X132377512Y-107635751D01*
X132206005Y-107708700D01*
X132181035Y-107788844D01*
X132154691Y-107873399D01*
X132143076Y-107912112D01*
X132097895Y-108115132D01*
X132085066Y-108295185D01*
X131660926Y-108295185D01*
X131662811Y-108133004D01*
X131714732Y-107913872D01*
X131757559Y-107788844D01*
X131683830Y-107729160D01*
X131647245Y-107702524D01*
X131565200Y-107651407D01*
X131476167Y-107603272D01*
X131460679Y-107595794D01*
X131367223Y-107560819D01*
X131276982Y-107549846D01*
X131178847Y-107564297D01*
X131061709Y-107605593D01*
X130914459Y-107675156D01*
X130864980Y-107700708D01*
X130841581Y-107712792D01*
X130763131Y-107757765D01*
X130713806Y-107795975D01*
X130683309Y-107836020D01*
X130661339Y-107886500D01*
X130657929Y-107896799D01*
X130640216Y-107982361D01*
X130627641Y-108099317D01*
X130622084Y-108231171D01*
X130621864Y-108340945D01*
X130182017Y-108340945D01*
X130176438Y-108208709D01*
X130200668Y-108016274D01*
X130256423Y-107844404D01*
X130322434Y-107700708D01*
X130178867Y-107637341D01*
X130132890Y-107617486D01*
X130018265Y-107574880D01*
X129926897Y-107556218D01*
X129843728Y-107559575D01*
X129753699Y-107583029D01*
X129637999Y-107637066D01*
X129506659Y-107744520D01*
X129405570Y-107886500D01*
X129379472Y-107945216D01*
X129362388Y-108014019D01*
X129353549Y-108104506D01*
X129350646Y-108231171D01*
X128912794Y-108231171D01*
X128921412Y-108086667D01*
X128979835Y-107874321D01*
X129084315Y-107674714D01*
X129134879Y-107607121D01*
X129246678Y-107488995D01*
X129371860Y-107386282D01*
X129493038Y-107314313D01*
X129560376Y-107283735D01*
X129447132Y-107049498D01*
X129420023Y-106990435D01*
X129365373Y-106850949D01*
X129320700Y-106709113D01*
X129296136Y-106607643D01*
X129514597Y-106607643D01*
X129530833Y-106675571D01*
X129538341Y-106700310D01*
X129565262Y-106772373D01*
X129604839Y-106868750D01*
X129651484Y-106975546D01*
X129755900Y-107207593D01*
X130001866Y-107217676D01*
X130082621Y-107221578D01*
X130181938Y-107230658D01*
X130260098Y-107247035D01*
X130335359Y-107275080D01*
X130425975Y-107319160D01*
X130461686Y-107337347D01*
X130540489Y-107374853D01*
X130591138Y-107391541D01*
X130625726Y-107390290D01*
X130656350Y-107373977D01*
X130690692Y-107338238D01*
X130686360Y-107294447D01*
X130679021Y-107274820D01*
X130661387Y-107209138D01*
X130640046Y-107114394D01*
X130618112Y-107003850D01*
X130572084Y-106756200D01*
X130341792Y-106756008D01*
X130178059Y-106751487D01*
X129895054Y-106718950D01*
X129650215Y-106655309D01*
X129514597Y-106607643D01*
X129296136Y-106607643D01*
X129288154Y-106574672D01*
X129269884Y-106457373D01*
X129268038Y-106366962D01*
X129284766Y-106313186D01*
X129309360Y-106290580D01*
X129371170Y-106276226D01*
X129436471Y-106309954D01*
X129475270Y-106338985D01*
X129582975Y-106393330D01*
X129725428Y-106443626D01*
X129892075Y-106487296D01*
X130072357Y-106521765D01*
X130255718Y-106544455D01*
X130431601Y-106552791D01*
X130548502Y-106552999D01*
X130555203Y-106459697D01*
X130791396Y-106459697D01*
X130800911Y-106641499D01*
X130822285Y-106807000D01*
X130831353Y-106857996D01*
X130851611Y-106976473D01*
X130868469Y-107081013D01*
X130878983Y-107153614D01*
X130884199Y-107192798D01*
X130896266Y-107237168D01*
X130921231Y-107247911D01*
X130971589Y-107236164D01*
X131035004Y-107223620D01*
X131156827Y-107214667D01*
X131294516Y-107216625D01*
X131428078Y-107228965D01*
X131537522Y-107251156D01*
X131617423Y-107281605D01*
X131722458Y-107332703D01*
X131731970Y-107338238D01*
X131822389Y-107390856D01*
X131834915Y-107398934D01*
X131909426Y-107446176D01*
X131963302Y-107478968D01*
X131985608Y-107490626D01*
X132005495Y-107477130D01*
X132055768Y-107441458D01*
X132124942Y-107391714D01*
X132158270Y-107369199D01*
X132288565Y-107299850D01*
X132423424Y-107250453D01*
X133049376Y-107250453D01*
X133202855Y-107332456D01*
X133282248Y-107376875D01*
X133355346Y-107421722D01*
X133399617Y-107453629D01*
X133419112Y-107471040D01*
X133448127Y-107488089D01*
X133477955Y-107477703D01*
X133527800Y-107437460D01*
X133577405Y-107402789D01*
X133599200Y-107390117D01*
X134816522Y-107390117D01*
X134819682Y-107391205D01*
X134857983Y-107383011D01*
X134926067Y-107356468D01*
X135011611Y-107316242D01*
X135069788Y-107287716D01*
X135148208Y-107255146D01*
X135223598Y-107235366D01*
X135313902Y-107224212D01*
X135437061Y-107217522D01*
X135507051Y-107214063D01*
X135599692Y-107207085D01*
X135663233Y-107199151D01*
X135686832Y-107191395D01*
X135692021Y-107180923D01*
X135722652Y-107137308D01*
X135774648Y-107069469D01*
X135840936Y-106986796D01*
X135907676Y-106902698D01*
X136002812Y-106768129D01*
X136066000Y-106653073D01*
X136102086Y-106549414D01*
X136118181Y-106482328D01*
X135933743Y-106540898D01*
X135867511Y-106560474D01*
X135648263Y-106609879D01*
X135417430Y-106642698D01*
X135202846Y-106654600D01*
X135120310Y-106656106D01*
X135072406Y-106664430D01*
X135048601Y-106685171D01*
X135035367Y-106723930D01*
X135020540Y-106771888D01*
X134991292Y-106856556D01*
X134952193Y-106964740D01*
X134907555Y-107084282D01*
X134904985Y-107091073D01*
X134864665Y-107202964D01*
X134834573Y-107296512D01*
X134817571Y-107362101D01*
X134816522Y-107390117D01*
X133599200Y-107390117D01*
X133659318Y-107355164D01*
X133751393Y-107308283D01*
X133768786Y-107300095D01*
X133831295Y-107272131D01*
X133885076Y-107253686D01*
X133942028Y-107243250D01*
X134014049Y-107239313D01*
X134113036Y-107240367D01*
X134250887Y-107244900D01*
X134590288Y-107257045D01*
X134645921Y-107114572D01*
X134660275Y-107077744D01*
X134737256Y-106875291D01*
X134796543Y-106703236D01*
X134837987Y-106552969D01*
X134861439Y-106415880D01*
X134866749Y-106283358D01*
X134853767Y-106146792D01*
X134822345Y-105997571D01*
X134772332Y-105827085D01*
X134703579Y-105626724D01*
X134615937Y-105387875D01*
X134606318Y-105365629D01*
X134591668Y-105354536D01*
X134568274Y-105369002D01*
X134529014Y-105414147D01*
X134466766Y-105495089D01*
X134450636Y-105516090D01*
X134385464Y-105595363D01*
X134328134Y-105657157D01*
X134289506Y-105689557D01*
X134258882Y-105711500D01*
X134239000Y-105743522D01*
X134238305Y-105745933D01*
X134215005Y-105778172D01*
X134162560Y-105839631D01*
X134086284Y-105924382D01*
X133991490Y-106026500D01*
X133883491Y-106140058D01*
X133840901Y-106184469D01*
X133658448Y-106378731D01*
X133508576Y-106546345D01*
X133386697Y-106693042D01*
X133288224Y-106824551D01*
X133208571Y-106946605D01*
X133143150Y-107064932D01*
X133123454Y-107103897D01*
X133049376Y-107250453D01*
X132423424Y-107250453D01*
X132423888Y-107250283D01*
X132474555Y-107235890D01*
X132547086Y-107209282D01*
X132586507Y-107181150D01*
X132604247Y-107144812D01*
X132611877Y-107103897D01*
X132610101Y-107077655D01*
X132603552Y-107073757D01*
X132561019Y-107049264D01*
X132486037Y-107006412D01*
X132386549Y-106949736D01*
X132270500Y-106883771D01*
X132227766Y-106859437D01*
X131955318Y-106700322D01*
X131721579Y-106555673D01*
X131519568Y-106420640D01*
X131342305Y-106290372D01*
X131182810Y-106160020D01*
X131034102Y-106024734D01*
X130864503Y-105862439D01*
X130835809Y-105960069D01*
X130831464Y-105975707D01*
X130806927Y-106110878D01*
X130793486Y-106277516D01*
X130791396Y-106459697D01*
X130555203Y-106459697D01*
X130565377Y-106318049D01*
X130567127Y-106295888D01*
X130583595Y-106154283D01*
X130607886Y-106006052D01*
X130635410Y-105879900D01*
X130641521Y-105856457D01*
X130667740Y-105754111D01*
X130689252Y-105667458D01*
X130701893Y-105613200D01*
X130722012Y-105546809D01*
X130762405Y-105495318D01*
X130817159Y-105492387D01*
X130886426Y-105538027D01*
X130970354Y-105632249D01*
X130990212Y-105657632D01*
X131136392Y-105823171D01*
X131309942Y-105983977D01*
X131521426Y-106149976D01*
X131531053Y-106157022D01*
X131685747Y-106265128D01*
X131869609Y-106386098D01*
X132067602Y-106510470D01*
X132264686Y-106628781D01*
X132445824Y-106731571D01*
X132646547Y-106841243D01*
X132632869Y-106576471D01*
X132610890Y-106369408D01*
X132539056Y-106073547D01*
X132423027Y-105794382D01*
X132265911Y-105537652D01*
X132070816Y-105309092D01*
X131840850Y-105114440D01*
X131766799Y-105061604D01*
X131863633Y-104886552D01*
X131875237Y-104865612D01*
X131920066Y-104785461D01*
X131953465Y-104726915D01*
X131968917Y-104701432D01*
X131981683Y-104700476D01*
X132027069Y-104723494D01*
X132095712Y-104771400D01*
X132179320Y-104837820D01*
X132269598Y-104916378D01*
X132358253Y-105000700D01*
X132514486Y-105171547D01*
X132716179Y-105452178D01*
X132873123Y-105756690D01*
X132985526Y-106085516D01*
X133053598Y-106439085D01*
X133085010Y-106689205D01*
X133234355Y-106513152D01*
X133245029Y-106500680D01*
X133315030Y-106421531D01*
X133410670Y-106316308D01*
X133523970Y-106193660D01*
X133646949Y-106062241D01*
X133771627Y-105930700D01*
X133820724Y-105879179D01*
X133975142Y-105715482D01*
X134099773Y-105579870D01*
X134199571Y-105466378D01*
X134279489Y-105369038D01*
X134344480Y-105281885D01*
X134399500Y-105198953D01*
X134449501Y-105114276D01*
X134509445Y-105021817D01*
X134568611Y-104967130D01*
X134623872Y-104959558D01*
X134678102Y-104997634D01*
X134692321Y-105019318D01*
X134725499Y-105086867D01*
X134768821Y-105187095D01*
X134818673Y-105310535D01*
X134871444Y-105447719D01*
X134923519Y-105589179D01*
X134971288Y-105725450D01*
X135011135Y-105847063D01*
X135039450Y-105944551D01*
X135056141Y-106021423D01*
X135075862Y-106155360D01*
X135084650Y-106278356D01*
X135084729Y-106283358D01*
X135087316Y-106448213D01*
G37*
%LPC*%
D15*
X116840000Y-106680000D03*
D16*
X119380000Y-106680000D03*
X116840000Y-109220000D03*
X119380000Y-109220000D03*
X116840000Y-111760000D03*
X119380000Y-111760000D03*
X116840000Y-114300000D03*
X119380000Y-114300000D03*
X116840000Y-116840000D03*
X119380000Y-116840000D03*
X116840000Y-119380000D03*
X119380000Y-119380000D03*
X116840000Y-121920000D03*
X119380000Y-121920000D03*
X116840000Y-124460000D03*
X119380000Y-124460000D03*
X116840000Y-127000000D03*
X119380000Y-127000000D03*
X116840000Y-129540000D03*
X119380000Y-129540000D03*
D15*
X116840000Y-134620000D03*
D16*
X116840000Y-137160000D03*
X116840000Y-139700000D03*
D17*
X139700000Y-149860000D03*
D16*
X139700000Y-147320000D03*
X142240000Y-149860000D03*
X142240000Y-147320000D03*
X144780000Y-149860000D03*
X144780000Y-147320000D03*
X147320000Y-149860000D03*
X147320000Y-147320000D03*
X149860000Y-149860000D03*
X149860000Y-147320000D03*
X152400000Y-149860000D03*
X152400000Y-147320000D03*
X154940000Y-149860000D03*
X154940000Y-147320000D03*
X157480000Y-149860000D03*
X157480000Y-147320000D03*
X160020000Y-149860000D03*
X160020000Y-147320000D03*
X162560000Y-149860000D03*
X162560000Y-147320000D03*
D15*
X160020000Y-106680000D03*
D16*
X162560000Y-106680000D03*
X160020000Y-109220000D03*
X162560000Y-109220000D03*
X160020000Y-111760000D03*
X162560000Y-111760000D03*
X160020000Y-114300000D03*
X162560000Y-114300000D03*
X160020000Y-116840000D03*
X162560000Y-116840000D03*
X160020000Y-119380000D03*
X162560000Y-119380000D03*
X160020000Y-121920000D03*
X162560000Y-121920000D03*
X160020000Y-124460000D03*
X162560000Y-124460000D03*
X160020000Y-127000000D03*
X162560000Y-127000000D03*
X160020000Y-129540000D03*
X162560000Y-129540000D03*
D15*
X162560000Y-134620000D03*
D16*
X162560000Y-137160000D03*
X162560000Y-139700000D03*
D15*
X135382000Y-73533000D03*
D16*
X135382000Y-76073000D03*
D18*
X165100000Y-91440000D03*
D16*
X162560000Y-91440000D03*
X165100000Y-88900000D03*
X162560000Y-88900000D03*
X165100000Y-86360000D03*
X162560000Y-86360000D03*
X165100000Y-83820000D03*
X162560000Y-83820000D03*
X165100000Y-81280000D03*
X162560000Y-81280000D03*
X165100000Y-78740000D03*
X162560000Y-78740000D03*
X165100000Y-76200000D03*
X162560000Y-76200000D03*
X165100000Y-73660000D03*
X162560000Y-73660000D03*
D19*
X131572000Y-148844000D03*
X133872000Y-148844000D03*
D17*
X139573000Y-81534000D03*
D16*
X142113000Y-81534000D03*
D17*
X124460000Y-96520000D03*
D16*
X124460000Y-93980000D03*
X127000000Y-96520000D03*
X127000000Y-93980000D03*
X129540000Y-96520000D03*
X129540000Y-93980000D03*
X132080000Y-96520000D03*
X132080000Y-93980000D03*
X134620000Y-96520000D03*
X134620000Y-93980000D03*
X137160000Y-96520000D03*
X137160000Y-93980000D03*
X139700000Y-96520000D03*
X139700000Y-93980000D03*
X142240000Y-96520000D03*
X142240000Y-93980000D03*
D19*
X112649000Y-81066000D03*
X112649000Y-86066000D03*
D20*
X119665000Y-145855000D03*
X125445000Y-145855000D03*
D21*
X118235000Y-145355000D03*
D22*
X118235000Y-149535000D03*
D21*
X126875000Y-145355000D03*
D22*
X126875000Y-149535000D03*
D17*
X124455000Y-134620000D03*
D16*
X126995000Y-134620000D03*
D17*
X115570000Y-93980000D03*
D16*
X118110000Y-93980000D03*
D19*
X112776000Y-98679000D03*
X112776000Y-100979000D03*
X166590000Y-101030000D03*
X166590000Y-98730000D03*
D20*
X125447000Y-72514000D03*
X119667000Y-72514000D03*
D21*
X126877000Y-73014000D03*
D22*
X126877000Y-68834000D03*
D21*
X118237000Y-73014000D03*
D22*
X118237000Y-68834000D03*
D23*
X129127000Y-82169000D03*
X127127000Y-82169000D03*
%LPD*%
%LPC*%
D24*
X128587571Y-80116900D02*
X129730429Y-80116900D01*
D25*
X159550572Y-70007847D02*
X159883905Y-69531656D01*
X160122000Y-70007847D02*
X160122000Y-69007847D01*
X160122000Y-69007847D02*
X159741048Y-69007847D01*
X159741048Y-69007847D02*
X159645810Y-69055466D01*
X159645810Y-69055466D02*
X159598191Y-69103085D01*
X159598191Y-69103085D02*
X159550572Y-69198323D01*
X159550572Y-69198323D02*
X159550572Y-69341180D01*
X159550572Y-69341180D02*
X159598191Y-69436418D01*
X159598191Y-69436418D02*
X159645810Y-69484037D01*
X159645810Y-69484037D02*
X159741048Y-69531656D01*
X159741048Y-69531656D02*
X160122000Y-69531656D01*
X159122000Y-70007847D02*
X159122000Y-69007847D01*
X159122000Y-69007847D02*
X158741048Y-69007847D01*
X158741048Y-69007847D02*
X158645810Y-69055466D01*
X158645810Y-69055466D02*
X158598191Y-69103085D01*
X158598191Y-69103085D02*
X158550572Y-69198323D01*
X158550572Y-69198323D02*
X158550572Y-69341180D01*
X158550572Y-69341180D02*
X158598191Y-69436418D01*
X158598191Y-69436418D02*
X158645810Y-69484037D01*
X158645810Y-69484037D02*
X158741048Y-69531656D01*
X158741048Y-69531656D02*
X159122000Y-69531656D01*
X158169619Y-69103085D02*
X158122000Y-69055466D01*
X158122000Y-69055466D02*
X158026762Y-69007847D01*
X158026762Y-69007847D02*
X157788667Y-69007847D01*
X157788667Y-69007847D02*
X157693429Y-69055466D01*
X157693429Y-69055466D02*
X157645810Y-69103085D01*
X157645810Y-69103085D02*
X157598191Y-69198323D01*
X157598191Y-69198323D02*
X157598191Y-69293561D01*
X157598191Y-69293561D02*
X157645810Y-69436418D01*
X157645810Y-69436418D02*
X158217238Y-70007847D01*
X158217238Y-70007847D02*
X157598191Y-70007847D01*
X157264857Y-69007847D02*
X156645810Y-69007847D01*
X156645810Y-69007847D02*
X156979143Y-69388799D01*
X156979143Y-69388799D02*
X156836286Y-69388799D01*
X156836286Y-69388799D02*
X156741048Y-69436418D01*
X156741048Y-69436418D02*
X156693429Y-69484037D01*
X156693429Y-69484037D02*
X156645810Y-69579275D01*
X156645810Y-69579275D02*
X156645810Y-69817370D01*
X156645810Y-69817370D02*
X156693429Y-69912608D01*
X156693429Y-69912608D02*
X156741048Y-69960228D01*
X156741048Y-69960228D02*
X156836286Y-70007847D01*
X156836286Y-70007847D02*
X157122000Y-70007847D01*
X157122000Y-70007847D02*
X157217238Y-69960228D01*
X157217238Y-69960228D02*
X157264857Y-69912608D01*
X155741048Y-69007847D02*
X156217238Y-69007847D01*
X156217238Y-69007847D02*
X156264857Y-69484037D01*
X156264857Y-69484037D02*
X156217238Y-69436418D01*
X156217238Y-69436418D02*
X156122000Y-69388799D01*
X156122000Y-69388799D02*
X155883905Y-69388799D01*
X155883905Y-69388799D02*
X155788667Y-69436418D01*
X155788667Y-69436418D02*
X155741048Y-69484037D01*
X155741048Y-69484037D02*
X155693429Y-69579275D01*
X155693429Y-69579275D02*
X155693429Y-69817370D01*
X155693429Y-69817370D02*
X155741048Y-69912608D01*
X155741048Y-69912608D02*
X155788667Y-69960228D01*
X155788667Y-69960228D02*
X155883905Y-70007847D01*
X155883905Y-70007847D02*
X156122000Y-70007847D01*
X156122000Y-70007847D02*
X156217238Y-69960228D01*
X156217238Y-69960228D02*
X156264857Y-69912608D01*
X155074381Y-69007847D02*
X154979143Y-69007847D01*
X154979143Y-69007847D02*
X154883905Y-69055466D01*
X154883905Y-69055466D02*
X154836286Y-69103085D01*
X154836286Y-69103085D02*
X154788667Y-69198323D01*
X154788667Y-69198323D02*
X154741048Y-69388799D01*
X154741048Y-69388799D02*
X154741048Y-69626894D01*
X154741048Y-69626894D02*
X154788667Y-69817370D01*
X154788667Y-69817370D02*
X154836286Y-69912608D01*
X154836286Y-69912608D02*
X154883905Y-69960228D01*
X154883905Y-69960228D02*
X154979143Y-70007847D01*
X154979143Y-70007847D02*
X155074381Y-70007847D01*
X155074381Y-70007847D02*
X155169619Y-69960228D01*
X155169619Y-69960228D02*
X155217238Y-69912608D01*
X155217238Y-69912608D02*
X155264857Y-69817370D01*
X155264857Y-69817370D02*
X155312476Y-69626894D01*
X155312476Y-69626894D02*
X155312476Y-69388799D01*
X155312476Y-69388799D02*
X155264857Y-69198323D01*
X155264857Y-69198323D02*
X155217238Y-69103085D01*
X155217238Y-69103085D02*
X155169619Y-69055466D01*
X155169619Y-69055466D02*
X155074381Y-69007847D01*
X153979143Y-69484037D02*
X153836286Y-69531656D01*
X153836286Y-69531656D02*
X153788667Y-69579275D01*
X153788667Y-69579275D02*
X153741048Y-69674513D01*
X153741048Y-69674513D02*
X153741048Y-69817370D01*
X153741048Y-69817370D02*
X153788667Y-69912608D01*
X153788667Y-69912608D02*
X153836286Y-69960228D01*
X153836286Y-69960228D02*
X153931524Y-70007847D01*
X153931524Y-70007847D02*
X154312476Y-70007847D01*
X154312476Y-70007847D02*
X154312476Y-69007847D01*
X154312476Y-69007847D02*
X153979143Y-69007847D01*
X153979143Y-69007847D02*
X153883905Y-69055466D01*
X153883905Y-69055466D02*
X153836286Y-69103085D01*
X153836286Y-69103085D02*
X153788667Y-69198323D01*
X153788667Y-69198323D02*
X153788667Y-69293561D01*
X153788667Y-69293561D02*
X153836286Y-69388799D01*
X153836286Y-69388799D02*
X153883905Y-69436418D01*
X153883905Y-69436418D02*
X153979143Y-69484037D01*
X153979143Y-69484037D02*
X154312476Y-69484037D01*
X152074381Y-70007847D02*
X152550571Y-70007847D01*
X152550571Y-70007847D02*
X152550571Y-69007847D01*
X151312476Y-70007847D02*
X151312476Y-69484037D01*
X151312476Y-69484037D02*
X151360095Y-69388799D01*
X151360095Y-69388799D02*
X151455333Y-69341180D01*
X151455333Y-69341180D02*
X151645809Y-69341180D01*
X151645809Y-69341180D02*
X151741047Y-69388799D01*
X151312476Y-69960228D02*
X151407714Y-70007847D01*
X151407714Y-70007847D02*
X151645809Y-70007847D01*
X151645809Y-70007847D02*
X151741047Y-69960228D01*
X151741047Y-69960228D02*
X151788666Y-69864989D01*
X151788666Y-69864989D02*
X151788666Y-69769751D01*
X151788666Y-69769751D02*
X151741047Y-69674513D01*
X151741047Y-69674513D02*
X151645809Y-69626894D01*
X151645809Y-69626894D02*
X151407714Y-69626894D01*
X151407714Y-69626894D02*
X151312476Y-69579275D01*
X150407714Y-69341180D02*
X150407714Y-70007847D01*
X150836285Y-69341180D02*
X150836285Y-69864989D01*
X150836285Y-69864989D02*
X150788666Y-69960228D01*
X150788666Y-69960228D02*
X150693428Y-70007847D01*
X150693428Y-70007847D02*
X150550571Y-70007847D01*
X150550571Y-70007847D02*
X150455333Y-69960228D01*
X150455333Y-69960228D02*
X150407714Y-69912608D01*
X149931523Y-69341180D02*
X149931523Y-70007847D01*
X149931523Y-69436418D02*
X149883904Y-69388799D01*
X149883904Y-69388799D02*
X149788666Y-69341180D01*
X149788666Y-69341180D02*
X149645809Y-69341180D01*
X149645809Y-69341180D02*
X149550571Y-69388799D01*
X149550571Y-69388799D02*
X149502952Y-69484037D01*
X149502952Y-69484037D02*
X149502952Y-70007847D01*
X148598190Y-69960228D02*
X148693428Y-70007847D01*
X148693428Y-70007847D02*
X148883904Y-70007847D01*
X148883904Y-70007847D02*
X148979142Y-69960228D01*
X148979142Y-69960228D02*
X149026761Y-69912608D01*
X149026761Y-69912608D02*
X149074380Y-69817370D01*
X149074380Y-69817370D02*
X149074380Y-69531656D01*
X149074380Y-69531656D02*
X149026761Y-69436418D01*
X149026761Y-69436418D02*
X148979142Y-69388799D01*
X148979142Y-69388799D02*
X148883904Y-69341180D01*
X148883904Y-69341180D02*
X148693428Y-69341180D01*
X148693428Y-69341180D02*
X148598190Y-69388799D01*
X148169618Y-70007847D02*
X148169618Y-69007847D01*
X147741047Y-70007847D02*
X147741047Y-69484037D01*
X147741047Y-69484037D02*
X147788666Y-69388799D01*
X147788666Y-69388799D02*
X147883904Y-69341180D01*
X147883904Y-69341180D02*
X148026761Y-69341180D01*
X148026761Y-69341180D02*
X148121999Y-69388799D01*
X148121999Y-69388799D02*
X148169618Y-69436418D01*
X147264856Y-69341180D02*
X147264856Y-70341180D01*
X147264856Y-69388799D02*
X147169618Y-69341180D01*
X147169618Y-69341180D02*
X146979142Y-69341180D01*
X146979142Y-69341180D02*
X146883904Y-69388799D01*
X146883904Y-69388799D02*
X146836285Y-69436418D01*
X146836285Y-69436418D02*
X146788666Y-69531656D01*
X146788666Y-69531656D02*
X146788666Y-69817370D01*
X146788666Y-69817370D02*
X146836285Y-69912608D01*
X146836285Y-69912608D02*
X146883904Y-69960228D01*
X146883904Y-69960228D02*
X146979142Y-70007847D01*
X146979142Y-70007847D02*
X147169618Y-70007847D01*
X147169618Y-70007847D02*
X147264856Y-69960228D01*
X145931523Y-70007847D02*
X145931523Y-69484037D01*
X145931523Y-69484037D02*
X145979142Y-69388799D01*
X145979142Y-69388799D02*
X146074380Y-69341180D01*
X146074380Y-69341180D02*
X146264856Y-69341180D01*
X146264856Y-69341180D02*
X146360094Y-69388799D01*
X145931523Y-69960228D02*
X146026761Y-70007847D01*
X146026761Y-70007847D02*
X146264856Y-70007847D01*
X146264856Y-70007847D02*
X146360094Y-69960228D01*
X146360094Y-69960228D02*
X146407713Y-69864989D01*
X146407713Y-69864989D02*
X146407713Y-69769751D01*
X146407713Y-69769751D02*
X146360094Y-69674513D01*
X146360094Y-69674513D02*
X146264856Y-69626894D01*
X146264856Y-69626894D02*
X146026761Y-69626894D01*
X146026761Y-69626894D02*
X145931523Y-69579275D01*
X145026761Y-70007847D02*
X145026761Y-69007847D01*
X145026761Y-69960228D02*
X145121999Y-70007847D01*
X145121999Y-70007847D02*
X145312475Y-70007847D01*
X145312475Y-70007847D02*
X145407713Y-69960228D01*
X145407713Y-69960228D02*
X145455332Y-69912608D01*
X145455332Y-69912608D02*
X145502951Y-69817370D01*
X145502951Y-69817370D02*
X145502951Y-69531656D01*
X145502951Y-69531656D02*
X145455332Y-69436418D01*
X145455332Y-69436418D02*
X145407713Y-69388799D01*
X145407713Y-69388799D02*
X145312475Y-69341180D01*
X145312475Y-69341180D02*
X145121999Y-69341180D01*
X145121999Y-69341180D02*
X145026761Y-69388799D01*
X143883903Y-69341180D02*
X143645808Y-70007847D01*
X143645808Y-70007847D02*
X143407713Y-69341180D01*
X142502951Y-70007847D02*
X143074379Y-70007847D01*
X142788665Y-70007847D02*
X142788665Y-69007847D01*
X142788665Y-69007847D02*
X142883903Y-69150704D01*
X142883903Y-69150704D02*
X142979141Y-69245942D01*
X142979141Y-69245942D02*
X143074379Y-69293561D01*
X142074379Y-69912608D02*
X142026760Y-69960228D01*
X142026760Y-69960228D02*
X142074379Y-70007847D01*
X142074379Y-70007847D02*
X142121998Y-69960228D01*
X142121998Y-69960228D02*
X142074379Y-69912608D01*
X142074379Y-69912608D02*
X142074379Y-70007847D01*
X141407713Y-69007847D02*
X141312475Y-69007847D01*
X141312475Y-69007847D02*
X141217237Y-69055466D01*
X141217237Y-69055466D02*
X141169618Y-69103085D01*
X141169618Y-69103085D02*
X141121999Y-69198323D01*
X141121999Y-69198323D02*
X141074380Y-69388799D01*
X141074380Y-69388799D02*
X141074380Y-69626894D01*
X141074380Y-69626894D02*
X141121999Y-69817370D01*
X141121999Y-69817370D02*
X141169618Y-69912608D01*
X141169618Y-69912608D02*
X141217237Y-69960228D01*
X141217237Y-69960228D02*
X141312475Y-70007847D01*
X141312475Y-70007847D02*
X141407713Y-70007847D01*
X141407713Y-70007847D02*
X141502951Y-69960228D01*
X141502951Y-69960228D02*
X141550570Y-69912608D01*
X141550570Y-69912608D02*
X141598189Y-69817370D01*
X141598189Y-69817370D02*
X141645808Y-69626894D01*
X141645808Y-69626894D02*
X141645808Y-69388799D01*
X141645808Y-69388799D02*
X141598189Y-69198323D01*
X141598189Y-69198323D02*
X141550570Y-69103085D01*
X141550570Y-69103085D02*
X141502951Y-69055466D01*
X141502951Y-69055466D02*
X141407713Y-69007847D01*
X155431524Y-70855886D02*
X155526763Y-70808267D01*
X155526763Y-70808267D02*
X155717239Y-70808267D01*
X155717239Y-70808267D02*
X155812477Y-70855886D01*
X155812477Y-70855886D02*
X155907715Y-70951124D01*
X155907715Y-70951124D02*
X155955334Y-71046362D01*
X155955334Y-71046362D02*
X155955334Y-71236838D01*
X155955334Y-71236838D02*
X155907715Y-71332076D01*
X155907715Y-71332076D02*
X155812477Y-71427314D01*
X155812477Y-71427314D02*
X155717239Y-71474933D01*
X155717239Y-71474933D02*
X155526763Y-71474933D01*
X155526763Y-71474933D02*
X155431524Y-71427314D01*
X155622001Y-70474933D02*
X155860096Y-70522552D01*
X155860096Y-70522552D02*
X156098191Y-70665410D01*
X156098191Y-70665410D02*
X156241048Y-70903505D01*
X156241048Y-70903505D02*
X156288667Y-71141600D01*
X156288667Y-71141600D02*
X156241048Y-71379695D01*
X156241048Y-71379695D02*
X156098191Y-71617791D01*
X156098191Y-71617791D02*
X155860096Y-71760648D01*
X155860096Y-71760648D02*
X155622001Y-71808267D01*
X155622001Y-71808267D02*
X155383905Y-71760648D01*
X155383905Y-71760648D02*
X155145810Y-71617791D01*
X155145810Y-71617791D02*
X155002953Y-71379695D01*
X155002953Y-71379695D02*
X154955334Y-71141600D01*
X154955334Y-71141600D02*
X155002953Y-70903505D01*
X155002953Y-70903505D02*
X155145810Y-70665410D01*
X155145810Y-70665410D02*
X155383905Y-70522552D01*
X155383905Y-70522552D02*
X155622001Y-70474933D01*
X153812476Y-71332076D02*
X153336286Y-71332076D01*
X153907714Y-71617791D02*
X153574381Y-70617791D01*
X153574381Y-70617791D02*
X153241048Y-71617791D01*
X152907714Y-71522552D02*
X152860095Y-71570172D01*
X152860095Y-71570172D02*
X152907714Y-71617791D01*
X152907714Y-71617791D02*
X152955333Y-71570172D01*
X152955333Y-71570172D02*
X152907714Y-71522552D01*
X152907714Y-71522552D02*
X152907714Y-71617791D01*
X151812476Y-70617791D02*
X151241048Y-70617791D01*
X151526762Y-71617791D02*
X151526762Y-70617791D01*
X150526762Y-71570172D02*
X150622000Y-71617791D01*
X150622000Y-71617791D02*
X150812476Y-71617791D01*
X150812476Y-71617791D02*
X150907714Y-71570172D01*
X150907714Y-71570172D02*
X150955333Y-71474933D01*
X150955333Y-71474933D02*
X150955333Y-71093981D01*
X150955333Y-71093981D02*
X150907714Y-70998743D01*
X150907714Y-70998743D02*
X150812476Y-70951124D01*
X150812476Y-70951124D02*
X150622000Y-70951124D01*
X150622000Y-70951124D02*
X150526762Y-70998743D01*
X150526762Y-70998743D02*
X150479143Y-71093981D01*
X150479143Y-71093981D02*
X150479143Y-71189219D01*
X150479143Y-71189219D02*
X150955333Y-71284457D01*
X150050571Y-71617791D02*
X150050571Y-70951124D01*
X150050571Y-71141600D02*
X150002952Y-71046362D01*
X150002952Y-71046362D02*
X149955333Y-70998743D01*
X149955333Y-70998743D02*
X149860095Y-70951124D01*
X149860095Y-70951124D02*
X149764857Y-70951124D01*
X149479142Y-71570172D02*
X149383904Y-71617791D01*
X149383904Y-71617791D02*
X149193428Y-71617791D01*
X149193428Y-71617791D02*
X149098190Y-71570172D01*
X149098190Y-71570172D02*
X149050571Y-71474933D01*
X149050571Y-71474933D02*
X149050571Y-71427314D01*
X149050571Y-71427314D02*
X149098190Y-71332076D01*
X149098190Y-71332076D02*
X149193428Y-71284457D01*
X149193428Y-71284457D02*
X149336285Y-71284457D01*
X149336285Y-71284457D02*
X149431523Y-71236838D01*
X149431523Y-71236838D02*
X149479142Y-71141600D01*
X149479142Y-71141600D02*
X149479142Y-71093981D01*
X149479142Y-71093981D02*
X149431523Y-70998743D01*
X149431523Y-70998743D02*
X149336285Y-70951124D01*
X149336285Y-70951124D02*
X149193428Y-70951124D01*
X149193428Y-70951124D02*
X149098190Y-70998743D01*
X148764856Y-70951124D02*
X148383904Y-70951124D01*
X148621999Y-70617791D02*
X148621999Y-71474933D01*
X148621999Y-71474933D02*
X148574380Y-71570172D01*
X148574380Y-71570172D02*
X148479142Y-71617791D01*
X148479142Y-71617791D02*
X148383904Y-71617791D01*
X147669618Y-71570172D02*
X147764856Y-71617791D01*
X147764856Y-71617791D02*
X147955332Y-71617791D01*
X147955332Y-71617791D02*
X148050570Y-71570172D01*
X148050570Y-71570172D02*
X148098189Y-71474933D01*
X148098189Y-71474933D02*
X148098189Y-71093981D01*
X148098189Y-71093981D02*
X148050570Y-70998743D01*
X148050570Y-70998743D02*
X147955332Y-70951124D01*
X147955332Y-70951124D02*
X147764856Y-70951124D01*
X147764856Y-70951124D02*
X147669618Y-70998743D01*
X147669618Y-70998743D02*
X147621999Y-71093981D01*
X147621999Y-71093981D02*
X147621999Y-71189219D01*
X147621999Y-71189219D02*
X148098189Y-71284457D01*
X146764856Y-70951124D02*
X146764856Y-71760648D01*
X146764856Y-71760648D02*
X146812475Y-71855886D01*
X146812475Y-71855886D02*
X146860094Y-71903505D01*
X146860094Y-71903505D02*
X146955332Y-71951124D01*
X146955332Y-71951124D02*
X147098189Y-71951124D01*
X147098189Y-71951124D02*
X147193427Y-71903505D01*
X146764856Y-71570172D02*
X146860094Y-71617791D01*
X146860094Y-71617791D02*
X147050570Y-71617791D01*
X147050570Y-71617791D02*
X147145808Y-71570172D01*
X147145808Y-71570172D02*
X147193427Y-71522552D01*
X147193427Y-71522552D02*
X147241046Y-71427314D01*
X147241046Y-71427314D02*
X147241046Y-71141600D01*
X147241046Y-71141600D02*
X147193427Y-71046362D01*
X147193427Y-71046362D02*
X147145808Y-70998743D01*
X147145808Y-70998743D02*
X147050570Y-70951124D01*
X147050570Y-70951124D02*
X146860094Y-70951124D01*
X146860094Y-70951124D02*
X146764856Y-70998743D01*
X145860094Y-70951124D02*
X145860094Y-71760648D01*
X145860094Y-71760648D02*
X145907713Y-71855886D01*
X145907713Y-71855886D02*
X145955332Y-71903505D01*
X145955332Y-71903505D02*
X146050570Y-71951124D01*
X146050570Y-71951124D02*
X146193427Y-71951124D01*
X146193427Y-71951124D02*
X146288665Y-71903505D01*
X145860094Y-71570172D02*
X145955332Y-71617791D01*
X145955332Y-71617791D02*
X146145808Y-71617791D01*
X146145808Y-71617791D02*
X146241046Y-71570172D01*
X146241046Y-71570172D02*
X146288665Y-71522552D01*
X146288665Y-71522552D02*
X146336284Y-71427314D01*
X146336284Y-71427314D02*
X146336284Y-71141600D01*
X146336284Y-71141600D02*
X146288665Y-71046362D01*
X146288665Y-71046362D02*
X146241046Y-70998743D01*
X146241046Y-70998743D02*
X146145808Y-70951124D01*
X146145808Y-70951124D02*
X145955332Y-70951124D01*
X145955332Y-70951124D02*
X145860094Y-70998743D01*
X145002951Y-71570172D02*
X145098189Y-71617791D01*
X145098189Y-71617791D02*
X145288665Y-71617791D01*
X145288665Y-71617791D02*
X145383903Y-71570172D01*
X145383903Y-71570172D02*
X145431522Y-71474933D01*
X145431522Y-71474933D02*
X145431522Y-71093981D01*
X145431522Y-71093981D02*
X145383903Y-70998743D01*
X145383903Y-70998743D02*
X145288665Y-70951124D01*
X145288665Y-70951124D02*
X145098189Y-70951124D01*
X145098189Y-70951124D02*
X145002951Y-70998743D01*
X145002951Y-70998743D02*
X144955332Y-71093981D01*
X144955332Y-71093981D02*
X144955332Y-71189219D01*
X144955332Y-71189219D02*
X145431522Y-71284457D01*
D26*
X114134713Y-106024742D02*
X113391856Y-106024742D01*
X113391856Y-106024742D02*
X113791856Y-106481885D01*
X113791856Y-106481885D02*
X113620427Y-106481885D01*
X113620427Y-106481885D02*
X113506142Y-106539028D01*
X113506142Y-106539028D02*
X113448999Y-106596171D01*
X113448999Y-106596171D02*
X113391856Y-106710457D01*
X113391856Y-106710457D02*
X113391856Y-106996171D01*
X113391856Y-106996171D02*
X113448999Y-107110457D01*
X113448999Y-107110457D02*
X113506142Y-107167600D01*
X113506142Y-107167600D02*
X113620427Y-107224742D01*
X113620427Y-107224742D02*
X113963284Y-107224742D01*
X113963284Y-107224742D02*
X114077570Y-107167600D01*
X114077570Y-107167600D02*
X114134713Y-107110457D01*
X113048999Y-106024742D02*
X112648999Y-107224742D01*
X112648999Y-107224742D02*
X112248999Y-106024742D01*
X111963285Y-106024742D02*
X111220428Y-106024742D01*
X111220428Y-106024742D02*
X111620428Y-106481885D01*
X111620428Y-106481885D02*
X111448999Y-106481885D01*
X111448999Y-106481885D02*
X111334714Y-106539028D01*
X111334714Y-106539028D02*
X111277571Y-106596171D01*
X111277571Y-106596171D02*
X111220428Y-106710457D01*
X111220428Y-106710457D02*
X111220428Y-106996171D01*
X111220428Y-106996171D02*
X111277571Y-107110457D01*
X111277571Y-107110457D02*
X111334714Y-107167600D01*
X111334714Y-107167600D02*
X111448999Y-107224742D01*
X111448999Y-107224742D02*
X111791856Y-107224742D01*
X111791856Y-107224742D02*
X111906142Y-107167600D01*
X111906142Y-107167600D02*
X111963285Y-107110457D01*
X123799571Y-106151742D02*
X124370999Y-106151742D01*
X124370999Y-106151742D02*
X124428142Y-106723171D01*
X124428142Y-106723171D02*
X124370999Y-106666028D01*
X124370999Y-106666028D02*
X124256714Y-106608885D01*
X124256714Y-106608885D02*
X123970999Y-106608885D01*
X123970999Y-106608885D02*
X123856714Y-106666028D01*
X123856714Y-106666028D02*
X123799571Y-106723171D01*
X123799571Y-106723171D02*
X123742428Y-106837457D01*
X123742428Y-106837457D02*
X123742428Y-107123171D01*
X123742428Y-107123171D02*
X123799571Y-107237457D01*
X123799571Y-107237457D02*
X123856714Y-107294600D01*
X123856714Y-107294600D02*
X123970999Y-107351742D01*
X123970999Y-107351742D02*
X124256714Y-107351742D01*
X124256714Y-107351742D02*
X124370999Y-107294600D01*
X124370999Y-107294600D02*
X124428142Y-107237457D01*
X123399571Y-106151742D02*
X122999571Y-107351742D01*
X122999571Y-107351742D02*
X122599571Y-106151742D01*
X168109713Y-139044742D02*
X167366856Y-139044742D01*
X167366856Y-139044742D02*
X167766856Y-139501885D01*
X167766856Y-139501885D02*
X167595427Y-139501885D01*
X167595427Y-139501885D02*
X167481142Y-139559028D01*
X167481142Y-139559028D02*
X167423999Y-139616171D01*
X167423999Y-139616171D02*
X167366856Y-139730457D01*
X167366856Y-139730457D02*
X167366856Y-140016171D01*
X167366856Y-140016171D02*
X167423999Y-140130457D01*
X167423999Y-140130457D02*
X167481142Y-140187600D01*
X167481142Y-140187600D02*
X167595427Y-140244742D01*
X167595427Y-140244742D02*
X167938284Y-140244742D01*
X167938284Y-140244742D02*
X168052570Y-140187600D01*
X168052570Y-140187600D02*
X168109713Y-140130457D01*
X167023999Y-139044742D02*
X166623999Y-140244742D01*
X166623999Y-140244742D02*
X166223999Y-139044742D01*
X165938285Y-139044742D02*
X165195428Y-139044742D01*
X165195428Y-139044742D02*
X165595428Y-139501885D01*
X165595428Y-139501885D02*
X165423999Y-139501885D01*
X165423999Y-139501885D02*
X165309714Y-139559028D01*
X165309714Y-139559028D02*
X165252571Y-139616171D01*
X165252571Y-139616171D02*
X165195428Y-139730457D01*
X165195428Y-139730457D02*
X165195428Y-140016171D01*
X165195428Y-140016171D02*
X165252571Y-140130457D01*
X165252571Y-140130457D02*
X165309714Y-140187600D01*
X165309714Y-140187600D02*
X165423999Y-140244742D01*
X165423999Y-140244742D02*
X165766856Y-140244742D01*
X165766856Y-140244742D02*
X165881142Y-140187600D01*
X165881142Y-140187600D02*
X165938285Y-140130457D01*
X113004571Y-139044742D02*
X113575999Y-139044742D01*
X113575999Y-139044742D02*
X113633142Y-139616171D01*
X113633142Y-139616171D02*
X113575999Y-139559028D01*
X113575999Y-139559028D02*
X113461714Y-139501885D01*
X113461714Y-139501885D02*
X113175999Y-139501885D01*
X113175999Y-139501885D02*
X113061714Y-139559028D01*
X113061714Y-139559028D02*
X113004571Y-139616171D01*
X113004571Y-139616171D02*
X112947428Y-139730457D01*
X112947428Y-139730457D02*
X112947428Y-140016171D01*
X112947428Y-140016171D02*
X113004571Y-140130457D01*
X113004571Y-140130457D02*
X113061714Y-140187600D01*
X113061714Y-140187600D02*
X113175999Y-140244742D01*
X113175999Y-140244742D02*
X113461714Y-140244742D01*
X113461714Y-140244742D02*
X113575999Y-140187600D01*
X113575999Y-140187600D02*
X113633142Y-140130457D01*
X112604571Y-139044742D02*
X112204571Y-140244742D01*
X112204571Y-140244742D02*
X111804571Y-139044742D01*
X159364742Y-141897286D02*
X159364742Y-142640143D01*
X159364742Y-142640143D02*
X159821885Y-142240143D01*
X159821885Y-142240143D02*
X159821885Y-142411572D01*
X159821885Y-142411572D02*
X159879028Y-142525858D01*
X159879028Y-142525858D02*
X159936171Y-142583000D01*
X159936171Y-142583000D02*
X160050457Y-142640143D01*
X160050457Y-142640143D02*
X160336171Y-142640143D01*
X160336171Y-142640143D02*
X160450457Y-142583000D01*
X160450457Y-142583000D02*
X160507600Y-142525858D01*
X160507600Y-142525858D02*
X160564742Y-142411572D01*
X160564742Y-142411572D02*
X160564742Y-142068715D01*
X160564742Y-142068715D02*
X160507600Y-141954429D01*
X160507600Y-141954429D02*
X160450457Y-141897286D01*
X159364742Y-142983000D02*
X160564742Y-143383000D01*
X160564742Y-143383000D02*
X159364742Y-143783000D01*
X159364742Y-144068714D02*
X159364742Y-144811571D01*
X159364742Y-144811571D02*
X159821885Y-144411571D01*
X159821885Y-144411571D02*
X159821885Y-144583000D01*
X159821885Y-144583000D02*
X159879028Y-144697286D01*
X159879028Y-144697286D02*
X159936171Y-144754428D01*
X159936171Y-144754428D02*
X160050457Y-144811571D01*
X160050457Y-144811571D02*
X160336171Y-144811571D01*
X160336171Y-144811571D02*
X160450457Y-144754428D01*
X160450457Y-144754428D02*
X160507600Y-144697286D01*
X160507600Y-144697286D02*
X160564742Y-144583000D01*
X160564742Y-144583000D02*
X160564742Y-144240143D01*
X160564742Y-144240143D02*
X160507600Y-144125857D01*
X160507600Y-144125857D02*
X160450457Y-144068714D01*
X156824742Y-143154428D02*
X156824742Y-142583000D01*
X156824742Y-142583000D02*
X157396171Y-142525857D01*
X157396171Y-142525857D02*
X157339028Y-142583000D01*
X157339028Y-142583000D02*
X157281885Y-142697286D01*
X157281885Y-142697286D02*
X157281885Y-142983000D01*
X157281885Y-142983000D02*
X157339028Y-143097286D01*
X157339028Y-143097286D02*
X157396171Y-143154428D01*
X157396171Y-143154428D02*
X157510457Y-143211571D01*
X157510457Y-143211571D02*
X157796171Y-143211571D01*
X157796171Y-143211571D02*
X157910457Y-143154428D01*
X157910457Y-143154428D02*
X157967600Y-143097286D01*
X157967600Y-143097286D02*
X158024742Y-142983000D01*
X158024742Y-142983000D02*
X158024742Y-142697286D01*
X158024742Y-142697286D02*
X157967600Y-142583000D01*
X157967600Y-142583000D02*
X157910457Y-142525857D01*
X156824742Y-143554428D02*
X158024742Y-143954428D01*
X158024742Y-143954428D02*
X156824742Y-144354428D01*
D24*
X126555571Y-80116900D02*
X127698429Y-80116900D01*
X127127000Y-80688328D02*
X127127000Y-79545471D01*
D27*
X151483905Y-83497157D02*
X151696828Y-83660358D01*
X151901664Y-83848807D01*
X152437437Y-84329658D01*
X153007931Y-84759818D01*
X153657537Y-85170060D01*
X154369624Y-85559670D01*
X154731987Y-85753519D01*
X155026594Y-85922992D01*
X155227582Y-86052287D01*
X155309092Y-86125599D01*
X155308013Y-86133097D01*
X155257448Y-86172189D01*
X155188022Y-86178511D01*
X155066852Y-86141918D01*
X154861058Y-86052263D01*
X154537756Y-85899400D01*
X154514278Y-85888175D01*
X153947624Y-85588494D01*
X153347509Y-85221845D01*
X152760387Y-84820176D01*
X152232713Y-84415436D01*
X151810943Y-84039573D01*
X151777745Y-84006197D01*
X151518970Y-83721787D01*
X151388233Y-83536435D01*
X151378792Y-83458704D01*
X151483905Y-83497157D01*
G36*
X151483905Y-83497157D02*
G01*
X151696828Y-83660358D01*
X151901664Y-83848807D01*
X152437437Y-84329658D01*
X153007931Y-84759818D01*
X153657537Y-85170060D01*
X154369624Y-85559670D01*
X154731987Y-85753519D01*
X155026594Y-85922992D01*
X155227582Y-86052287D01*
X155309092Y-86125599D01*
X155308013Y-86133097D01*
X155257448Y-86172189D01*
X155188022Y-86178511D01*
X155066852Y-86141918D01*
X154861058Y-86052263D01*
X154537756Y-85899400D01*
X154514278Y-85888175D01*
X153947624Y-85588494D01*
X153347509Y-85221845D01*
X152760387Y-84820176D01*
X152232713Y-84415436D01*
X151810943Y-84039573D01*
X151777745Y-84006197D01*
X151518970Y-83721787D01*
X151388233Y-83536435D01*
X151378792Y-83458704D01*
X151483905Y-83497157D01*
G37*
X151040987Y-82172759D02*
X151224541Y-82233388D01*
X151506896Y-82344352D01*
X151908762Y-82512187D01*
X152281224Y-82670836D01*
X153142111Y-83060921D01*
X153903710Y-83458485D01*
X154633355Y-83901195D01*
X155321000Y-84371245D01*
X155649588Y-84616534D01*
X156009471Y-84902792D01*
X156376581Y-85208727D01*
X156726851Y-85513047D01*
X157036211Y-85794460D01*
X157280595Y-86031675D01*
X157435934Y-86203401D01*
X157480000Y-86281188D01*
X157430279Y-86353101D01*
X157280773Y-86290156D01*
X157030967Y-86092035D01*
X156760333Y-85837741D01*
X156347254Y-85460522D01*
X155838417Y-85038922D01*
X155285168Y-84612431D01*
X154738856Y-84220537D01*
X154250828Y-83902727D01*
X154220333Y-83884370D01*
X153777098Y-83634153D01*
X153248069Y-83358502D01*
X152684049Y-83081927D01*
X152135837Y-82828939D01*
X151654235Y-82624049D01*
X151433603Y-82539826D01*
X151157021Y-82425746D01*
X150957507Y-82315058D01*
X150876222Y-82230816D01*
X150876000Y-82227551D01*
X150887427Y-82176374D01*
X150935519Y-82155932D01*
X151040987Y-82172759D01*
G36*
X151040987Y-82172759D02*
G01*
X151224541Y-82233388D01*
X151506896Y-82344352D01*
X151908762Y-82512187D01*
X152281224Y-82670836D01*
X153142111Y-83060921D01*
X153903710Y-83458485D01*
X154633355Y-83901195D01*
X155321000Y-84371245D01*
X155649588Y-84616534D01*
X156009471Y-84902792D01*
X156376581Y-85208727D01*
X156726851Y-85513047D01*
X157036211Y-85794460D01*
X157280595Y-86031675D01*
X157435934Y-86203401D01*
X157480000Y-86281188D01*
X157430279Y-86353101D01*
X157280773Y-86290156D01*
X157030967Y-86092035D01*
X156760333Y-85837741D01*
X156347254Y-85460522D01*
X155838417Y-85038922D01*
X155285168Y-84612431D01*
X154738856Y-84220537D01*
X154250828Y-83902727D01*
X154220333Y-83884370D01*
X153777098Y-83634153D01*
X153248069Y-83358502D01*
X152684049Y-83081927D01*
X152135837Y-82828939D01*
X151654235Y-82624049D01*
X151433603Y-82539826D01*
X151157021Y-82425746D01*
X150957507Y-82315058D01*
X150876222Y-82230816D01*
X150876000Y-82227551D01*
X150887427Y-82176374D01*
X150935519Y-82155932D01*
X151040987Y-82172759D01*
G37*
X152591460Y-82078479D02*
X152947624Y-82178157D01*
X153370181Y-82326394D01*
X153817137Y-82508549D01*
X154216788Y-82695007D01*
X155421864Y-83386482D01*
X156579767Y-84223398D01*
X157664314Y-85183167D01*
X158649325Y-86243203D01*
X159299304Y-87079666D01*
X159524479Y-87404723D01*
X159651638Y-87617846D01*
X159690209Y-87737985D01*
X159649725Y-87784067D01*
X159476678Y-87781036D01*
X159181761Y-87738075D01*
X158805288Y-87663935D01*
X158387572Y-87567370D01*
X157968928Y-87457132D01*
X157589669Y-87341975D01*
X157545936Y-87327296D01*
X157214581Y-87214721D01*
X157016745Y-87152721D01*
X156924975Y-87139318D01*
X156911818Y-87172537D01*
X156949820Y-87250401D01*
X156969021Y-87285767D01*
X157029963Y-87464940D01*
X157054607Y-87667049D01*
X157040338Y-87827448D01*
X156993166Y-87882753D01*
X156892828Y-87856666D01*
X156665201Y-87786398D01*
X156343265Y-87682423D01*
X155960000Y-87555215D01*
X155928919Y-87544766D01*
X154959711Y-87175293D01*
X154021161Y-86735045D01*
X153163104Y-86249190D01*
X152579894Y-85853370D01*
X152335445Y-85656384D01*
X152033634Y-85390172D01*
X151696901Y-85077215D01*
X151347691Y-84739994D01*
X151008443Y-84400991D01*
X150701601Y-84082686D01*
X150449606Y-83807562D01*
X150274901Y-83598099D01*
X150199927Y-83476778D01*
X150198666Y-83467976D01*
X150244779Y-83397131D01*
X150382219Y-83466959D01*
X150609642Y-83676413D01*
X150925702Y-84024442D01*
X150952978Y-84056144D01*
X151793485Y-84922888D01*
X152746090Y-85704985D01*
X153771902Y-86373757D01*
X154781130Y-86878993D01*
X155218440Y-87058163D01*
X155651600Y-87222494D01*
X156052755Y-87362923D01*
X156394051Y-87470390D01*
X156647632Y-87535834D01*
X156785645Y-87550194D01*
X156802666Y-87536591D01*
X156766812Y-87415506D01*
X156676790Y-87209899D01*
X156633963Y-87123234D01*
X156547408Y-86914043D01*
X156526051Y-86772480D01*
X156540298Y-86746172D01*
X156651426Y-86754323D01*
X156864127Y-86822436D01*
X157083487Y-86914122D01*
X157331093Y-87012745D01*
X157663799Y-87125511D01*
X158042965Y-87241714D01*
X158429955Y-87350644D01*
X158786131Y-87441596D01*
X159072854Y-87503860D01*
X159251486Y-87526730D01*
X159281717Y-87523316D01*
X159285481Y-87446012D01*
X159185166Y-87267090D01*
X158995912Y-87005183D01*
X158732859Y-86678923D01*
X158411148Y-86306943D01*
X158045920Y-85907875D01*
X157652316Y-85500352D01*
X157574838Y-85422773D01*
X156651839Y-84572606D01*
X155705776Y-83832648D01*
X154754781Y-83214253D01*
X153816980Y-82728775D01*
X152910504Y-82387569D01*
X152590454Y-82301066D01*
X152324236Y-82220158D01*
X152174714Y-82140632D01*
X152155731Y-82077019D01*
X152281128Y-82043852D01*
X152343683Y-82042000D01*
X152591460Y-82078479D01*
G36*
X152591460Y-82078479D02*
G01*
X152947624Y-82178157D01*
X153370181Y-82326394D01*
X153817137Y-82508549D01*
X154216788Y-82695007D01*
X155421864Y-83386482D01*
X156579767Y-84223398D01*
X157664314Y-85183167D01*
X158649325Y-86243203D01*
X159299304Y-87079666D01*
X159524479Y-87404723D01*
X159651638Y-87617846D01*
X159690209Y-87737985D01*
X159649725Y-87784067D01*
X159476678Y-87781036D01*
X159181761Y-87738075D01*
X158805288Y-87663935D01*
X158387572Y-87567370D01*
X157968928Y-87457132D01*
X157589669Y-87341975D01*
X157545936Y-87327296D01*
X157214581Y-87214721D01*
X157016745Y-87152721D01*
X156924975Y-87139318D01*
X156911818Y-87172537D01*
X156949820Y-87250401D01*
X156969021Y-87285767D01*
X157029963Y-87464940D01*
X157054607Y-87667049D01*
X157040338Y-87827448D01*
X156993166Y-87882753D01*
X156892828Y-87856666D01*
X156665201Y-87786398D01*
X156343265Y-87682423D01*
X155960000Y-87555215D01*
X155928919Y-87544766D01*
X154959711Y-87175293D01*
X154021161Y-86735045D01*
X153163104Y-86249190D01*
X152579894Y-85853370D01*
X152335445Y-85656384D01*
X152033634Y-85390172D01*
X151696901Y-85077215D01*
X151347691Y-84739994D01*
X151008443Y-84400991D01*
X150701601Y-84082686D01*
X150449606Y-83807562D01*
X150274901Y-83598099D01*
X150199927Y-83476778D01*
X150198666Y-83467976D01*
X150244779Y-83397131D01*
X150382219Y-83466959D01*
X150609642Y-83676413D01*
X150925702Y-84024442D01*
X150952978Y-84056144D01*
X151793485Y-84922888D01*
X152746090Y-85704985D01*
X153771902Y-86373757D01*
X154781130Y-86878993D01*
X155218440Y-87058163D01*
X155651600Y-87222494D01*
X156052755Y-87362923D01*
X156394051Y-87470390D01*
X156647632Y-87535834D01*
X156785645Y-87550194D01*
X156802666Y-87536591D01*
X156766812Y-87415506D01*
X156676790Y-87209899D01*
X156633963Y-87123234D01*
X156547408Y-86914043D01*
X156526051Y-86772480D01*
X156540298Y-86746172D01*
X156651426Y-86754323D01*
X156864127Y-86822436D01*
X157083487Y-86914122D01*
X157331093Y-87012745D01*
X157663799Y-87125511D01*
X158042965Y-87241714D01*
X158429955Y-87350644D01*
X158786131Y-87441596D01*
X159072854Y-87503860D01*
X159251486Y-87526730D01*
X159281717Y-87523316D01*
X159285481Y-87446012D01*
X159185166Y-87267090D01*
X158995912Y-87005183D01*
X158732859Y-86678923D01*
X158411148Y-86306943D01*
X158045920Y-85907875D01*
X157652316Y-85500352D01*
X157574838Y-85422773D01*
X156651839Y-84572606D01*
X155705776Y-83832648D01*
X154754781Y-83214253D01*
X153816980Y-82728775D01*
X152910504Y-82387569D01*
X152590454Y-82301066D01*
X152324236Y-82220158D01*
X152174714Y-82140632D01*
X152155731Y-82077019D01*
X152281128Y-82043852D01*
X152343683Y-82042000D01*
X152591460Y-82078479D01*
G37*
X143933333Y-77750976D02*
X144454012Y-77838616D01*
X145076716Y-78016348D01*
X145769268Y-78270998D01*
X146499494Y-78589392D01*
X147235215Y-78958356D01*
X147944256Y-79364715D01*
X148077537Y-79447739D01*
X148366257Y-79624818D01*
X148578731Y-79727144D01*
X148780564Y-79772435D01*
X149037363Y-79778411D01*
X149268618Y-79769435D01*
X149730353Y-79770421D01*
X150115296Y-79828668D01*
X150390751Y-79911299D01*
X150703435Y-80042963D01*
X151048521Y-80223228D01*
X151398686Y-80433015D01*
X151726606Y-80653246D01*
X152004958Y-80864841D01*
X152206418Y-81048722D01*
X152303661Y-81185810D01*
X152296733Y-81242155D01*
X152196309Y-81251295D01*
X151978179Y-81230637D01*
X151703010Y-81186978D01*
X151289543Y-81127972D01*
X150993254Y-81140013D01*
X150771598Y-81237913D01*
X150582030Y-81436484D01*
X150460081Y-81619690D01*
X150319371Y-81860000D01*
X150224469Y-82044334D01*
X150198666Y-82117993D01*
X150264766Y-82195854D01*
X150439869Y-82335825D01*
X150689185Y-82510595D01*
X150749000Y-82550000D01*
X151009626Y-82728173D01*
X151203562Y-82876699D01*
X151296050Y-82968528D01*
X151299333Y-82978281D01*
X151247377Y-83083148D01*
X151086875Y-83080674D01*
X150810878Y-82969398D01*
X150528564Y-82816360D01*
X149937074Y-82473913D01*
X149644537Y-82931222D01*
X149489756Y-83204893D01*
X149383714Y-83453030D01*
X149352000Y-83596504D01*
X149407054Y-83776751D01*
X149555081Y-84032200D01*
X149733000Y-84272194D01*
X149920484Y-84508612D01*
X150056495Y-84692061D01*
X150113653Y-84785477D01*
X150114000Y-84787956D01*
X150045526Y-84837808D01*
X149847193Y-84796530D01*
X149529629Y-84667525D01*
X149152387Y-84480133D01*
X148604305Y-84149414D01*
X148121240Y-83776613D01*
X147723496Y-83383562D01*
X147431377Y-82992098D01*
X147265185Y-82624053D01*
X147250912Y-82528585D01*
X147422623Y-82528585D01*
X147509980Y-82729094D01*
X147662746Y-82981988D01*
X147857300Y-83250244D01*
X148070026Y-83496840D01*
X148183238Y-83607154D01*
X148405742Y-83790037D01*
X148678746Y-83989766D01*
X148970495Y-84186450D01*
X149249231Y-84360200D01*
X149483197Y-84491124D01*
X149640637Y-84559332D01*
X149690666Y-84551308D01*
X149642754Y-84473132D01*
X149520852Y-84308677D01*
X149436666Y-84201000D01*
X149271373Y-83919033D01*
X149184853Y-83616405D01*
X149185836Y-83346340D01*
X149268452Y-83175414D01*
X149253551Y-83101568D01*
X149076276Y-83009074D01*
X148866285Y-82936089D01*
X148494780Y-82808192D01*
X148098647Y-82655575D01*
X147920818Y-82580511D01*
X147670858Y-82478846D01*
X147489201Y-82421237D01*
X147424293Y-82417484D01*
X147422623Y-82528585D01*
X147250912Y-82528585D01*
X147234294Y-82417435D01*
X147172545Y-82292296D01*
X146980290Y-82127826D01*
X146644946Y-81913613D01*
X146578128Y-81874580D01*
X145944861Y-81480049D01*
X145876666Y-81431962D01*
X146642666Y-81431962D01*
X146656189Y-81546766D01*
X146714856Y-81645992D01*
X146845811Y-81751630D01*
X147076201Y-81885671D01*
X147425833Y-82066397D01*
X147982829Y-82334562D01*
X148486551Y-82551045D01*
X148910122Y-82705473D01*
X149226660Y-82787472D01*
X149321095Y-82797813D01*
X149503904Y-82732921D01*
X149639066Y-82594593D01*
X149694911Y-82514247D01*
X149726879Y-82451457D01*
X149716945Y-82390747D01*
X149647084Y-82316644D01*
X149499273Y-82213673D01*
X149255486Y-82066361D01*
X148897699Y-81859231D01*
X148547666Y-81657609D01*
X148210519Y-81462285D01*
X147930730Y-81298868D01*
X147738844Y-81185288D01*
X147666080Y-81140122D01*
X147671283Y-81051842D01*
X147727731Y-80899431D01*
X147824302Y-80687481D01*
X148896638Y-81371237D01*
X149332761Y-81644330D01*
X149648125Y-81828786D01*
X149860447Y-81933426D01*
X149987445Y-81967073D01*
X150044323Y-81942663D01*
X150155324Y-81767155D01*
X150200538Y-81632389D01*
X150166858Y-81501965D01*
X150041178Y-81339485D01*
X149810393Y-81108552D01*
X149708895Y-81011079D01*
X149353850Y-80688067D01*
X148980050Y-80377357D01*
X148615949Y-80099640D01*
X148362353Y-79925333D01*
X148907759Y-79925333D01*
X149651859Y-80627172D01*
X150395958Y-81329011D01*
X150600813Y-81124155D01*
X150730409Y-81012687D01*
X150869094Y-80957184D01*
X151071946Y-80945772D01*
X151348834Y-80962900D01*
X151626609Y-80981992D01*
X151822419Y-80989328D01*
X151892000Y-80983861D01*
X151826515Y-80930458D01*
X151653077Y-80809476D01*
X151406211Y-80644847D01*
X151348334Y-80607010D01*
X150748896Y-80258977D01*
X150205993Y-80039950D01*
X149683578Y-79937149D01*
X149425304Y-79925333D01*
X148907759Y-79925333D01*
X148362353Y-79925333D01*
X148290003Y-79875604D01*
X148030669Y-79725939D01*
X147866400Y-79671333D01*
X147866234Y-79671333D01*
X147674568Y-79744258D01*
X147446794Y-79938959D01*
X147208008Y-80219326D01*
X146983306Y-80549249D01*
X146797783Y-80892618D01*
X146676532Y-81213323D01*
X146642666Y-81431962D01*
X145876666Y-81431962D01*
X145316153Y-81036725D01*
X144716223Y-80565762D01*
X144169293Y-80088316D01*
X143699580Y-79625539D01*
X143331304Y-79198588D01*
X143088686Y-78828616D01*
X143086975Y-78825272D01*
X142945770Y-78467845D01*
X142941371Y-78312398D01*
X143192285Y-78312398D01*
X143269384Y-78607843D01*
X143487014Y-78986365D01*
X143561492Y-79091143D01*
X143714493Y-79278480D01*
X143928584Y-79514404D01*
X144172740Y-79767969D01*
X144415935Y-80008232D01*
X144627142Y-80204250D01*
X144775336Y-80325078D01*
X144822352Y-80348666D01*
X144862583Y-80275814D01*
X144935161Y-80088673D01*
X144991991Y-79924356D01*
X145168225Y-79555307D01*
X145445690Y-79163904D01*
X145551316Y-79042258D01*
X145969708Y-78584470D01*
X145481936Y-78401971D01*
X144868070Y-78194797D01*
X144323282Y-78055439D01*
X143866525Y-77986436D01*
X143516758Y-77990327D01*
X143292935Y-78069652D01*
X143256912Y-78103900D01*
X143192285Y-78312398D01*
X142941371Y-78312398D01*
X142937922Y-78190577D01*
X143065217Y-77967033D01*
X143150166Y-77890061D01*
X143302652Y-77788787D01*
X143468014Y-77740637D01*
X143703942Y-77735364D01*
X143933333Y-77750976D01*
G36*
X143933333Y-77750976D02*
G01*
X144454012Y-77838616D01*
X145076716Y-78016348D01*
X145769268Y-78270998D01*
X146499494Y-78589392D01*
X147235215Y-78958356D01*
X147944256Y-79364715D01*
X148077537Y-79447739D01*
X148366257Y-79624818D01*
X148578731Y-79727144D01*
X148780564Y-79772435D01*
X149037363Y-79778411D01*
X149268618Y-79769435D01*
X149730353Y-79770421D01*
X150115296Y-79828668D01*
X150390751Y-79911299D01*
X150703435Y-80042963D01*
X151048521Y-80223228D01*
X151398686Y-80433015D01*
X151726606Y-80653246D01*
X152004958Y-80864841D01*
X152206418Y-81048722D01*
X152303661Y-81185810D01*
X152296733Y-81242155D01*
X152196309Y-81251295D01*
X151978179Y-81230637D01*
X151703010Y-81186978D01*
X151289543Y-81127972D01*
X150993254Y-81140013D01*
X150771598Y-81237913D01*
X150582030Y-81436484D01*
X150460081Y-81619690D01*
X150319371Y-81860000D01*
X150224469Y-82044334D01*
X150198666Y-82117993D01*
X150264766Y-82195854D01*
X150439869Y-82335825D01*
X150689185Y-82510595D01*
X150749000Y-82550000D01*
X151009626Y-82728173D01*
X151203562Y-82876699D01*
X151296050Y-82968528D01*
X151299333Y-82978281D01*
X151247377Y-83083148D01*
X151086875Y-83080674D01*
X150810878Y-82969398D01*
X150528564Y-82816360D01*
X149937074Y-82473913D01*
X149644537Y-82931222D01*
X149489756Y-83204893D01*
X149383714Y-83453030D01*
X149352000Y-83596504D01*
X149407054Y-83776751D01*
X149555081Y-84032200D01*
X149733000Y-84272194D01*
X149920484Y-84508612D01*
X150056495Y-84692061D01*
X150113653Y-84785477D01*
X150114000Y-84787956D01*
X150045526Y-84837808D01*
X149847193Y-84796530D01*
X149529629Y-84667525D01*
X149152387Y-84480133D01*
X148604305Y-84149414D01*
X148121240Y-83776613D01*
X147723496Y-83383562D01*
X147431377Y-82992098D01*
X147265185Y-82624053D01*
X147250912Y-82528585D01*
X147422623Y-82528585D01*
X147509980Y-82729094D01*
X147662746Y-82981988D01*
X147857300Y-83250244D01*
X148070026Y-83496840D01*
X148183238Y-83607154D01*
X148405742Y-83790037D01*
X148678746Y-83989766D01*
X148970495Y-84186450D01*
X149249231Y-84360200D01*
X149483197Y-84491124D01*
X149640637Y-84559332D01*
X149690666Y-84551308D01*
X149642754Y-84473132D01*
X149520852Y-84308677D01*
X149436666Y-84201000D01*
X149271373Y-83919033D01*
X149184853Y-83616405D01*
X149185836Y-83346340D01*
X149268452Y-83175414D01*
X149253551Y-83101568D01*
X149076276Y-83009074D01*
X148866285Y-82936089D01*
X148494780Y-82808192D01*
X148098647Y-82655575D01*
X147920818Y-82580511D01*
X147670858Y-82478846D01*
X147489201Y-82421237D01*
X147424293Y-82417484D01*
X147422623Y-82528585D01*
X147250912Y-82528585D01*
X147234294Y-82417435D01*
X147172545Y-82292296D01*
X146980290Y-82127826D01*
X146644946Y-81913613D01*
X146578128Y-81874580D01*
X145944861Y-81480049D01*
X145876666Y-81431962D01*
X146642666Y-81431962D01*
X146656189Y-81546766D01*
X146714856Y-81645992D01*
X146845811Y-81751630D01*
X147076201Y-81885671D01*
X147425833Y-82066397D01*
X147982829Y-82334562D01*
X148486551Y-82551045D01*
X148910122Y-82705473D01*
X149226660Y-82787472D01*
X149321095Y-82797813D01*
X149503904Y-82732921D01*
X149639066Y-82594593D01*
X149694911Y-82514247D01*
X149726879Y-82451457D01*
X149716945Y-82390747D01*
X149647084Y-82316644D01*
X149499273Y-82213673D01*
X149255486Y-82066361D01*
X148897699Y-81859231D01*
X148547666Y-81657609D01*
X148210519Y-81462285D01*
X147930730Y-81298868D01*
X147738844Y-81185288D01*
X147666080Y-81140122D01*
X147671283Y-81051842D01*
X147727731Y-80899431D01*
X147824302Y-80687481D01*
X148896638Y-81371237D01*
X149332761Y-81644330D01*
X149648125Y-81828786D01*
X149860447Y-81933426D01*
X149987445Y-81967073D01*
X150044323Y-81942663D01*
X150155324Y-81767155D01*
X150200538Y-81632389D01*
X150166858Y-81501965D01*
X150041178Y-81339485D01*
X149810393Y-81108552D01*
X149708895Y-81011079D01*
X149353850Y-80688067D01*
X148980050Y-80377357D01*
X148615949Y-80099640D01*
X148362353Y-79925333D01*
X148907759Y-79925333D01*
X149651859Y-80627172D01*
X150395958Y-81329011D01*
X150600813Y-81124155D01*
X150730409Y-81012687D01*
X150869094Y-80957184D01*
X151071946Y-80945772D01*
X151348834Y-80962900D01*
X151626609Y-80981992D01*
X151822419Y-80989328D01*
X151892000Y-80983861D01*
X151826515Y-80930458D01*
X151653077Y-80809476D01*
X151406211Y-80644847D01*
X151348334Y-80607010D01*
X150748896Y-80258977D01*
X150205993Y-80039950D01*
X149683578Y-79937149D01*
X149425304Y-79925333D01*
X148907759Y-79925333D01*
X148362353Y-79925333D01*
X148290003Y-79875604D01*
X148030669Y-79725939D01*
X147866400Y-79671333D01*
X147866234Y-79671333D01*
X147674568Y-79744258D01*
X147446794Y-79938959D01*
X147208008Y-80219326D01*
X146983306Y-80549249D01*
X146797783Y-80892618D01*
X146676532Y-81213323D01*
X146642666Y-81431962D01*
X145876666Y-81431962D01*
X145316153Y-81036725D01*
X144716223Y-80565762D01*
X144169293Y-80088316D01*
X143699580Y-79625539D01*
X143331304Y-79198588D01*
X143088686Y-78828616D01*
X143086975Y-78825272D01*
X142945770Y-78467845D01*
X142941371Y-78312398D01*
X143192285Y-78312398D01*
X143269384Y-78607843D01*
X143487014Y-78986365D01*
X143561492Y-79091143D01*
X143714493Y-79278480D01*
X143928584Y-79514404D01*
X144172740Y-79767969D01*
X144415935Y-80008232D01*
X144627142Y-80204250D01*
X144775336Y-80325078D01*
X144822352Y-80348666D01*
X144862583Y-80275814D01*
X144935161Y-80088673D01*
X144991991Y-79924356D01*
X145168225Y-79555307D01*
X145445690Y-79163904D01*
X145551316Y-79042258D01*
X145969708Y-78584470D01*
X145481936Y-78401971D01*
X144868070Y-78194797D01*
X144323282Y-78055439D01*
X143866525Y-77986436D01*
X143516758Y-77990327D01*
X143292935Y-78069652D01*
X143256912Y-78103900D01*
X143192285Y-78312398D01*
X142941371Y-78312398D01*
X142937922Y-78190577D01*
X143065217Y-77967033D01*
X143150166Y-77890061D01*
X143302652Y-77788787D01*
X143468014Y-77740637D01*
X143703942Y-77735364D01*
X143933333Y-77750976D01*
G37*
M02*
