G04 #@! TF.GenerationSoftware,KiCad,Pcbnew,8.0.9-8.0.9-0~ubuntu22.04.1*
G04 #@! TF.CreationDate,2025-02-22T00:09:10+01:00*
G04 #@! TF.ProjectId,rp2350b-launchpad-PCB,72703233-3530-4622-9d6c-61756e636870,rev?*
G04 #@! TF.SameCoordinates,Original*
G04 #@! TF.FileFunction,Soldermask,Bot*
G04 #@! TF.FilePolarity,Negative*
%FSLAX46Y46*%
G04 Gerber Fmt 4.6, Leading zero omitted, Abs format (unit mm)*
G04 Created by KiCad (PCBNEW 8.0.9-8.0.9-0~ubuntu22.04.1) date 2025-02-22 00:09:10*
%MOMM*%
%LPD*%
G01*
G04 APERTURE LIST*
G04 Aperture macros list*
%AMFreePoly0*
4,1,19,0.500000,-0.750000,0.000000,-0.750000,0.000000,-0.744911,-0.071157,-0.744911,-0.207708,-0.704816,-0.327430,-0.627875,-0.420627,-0.520320,-0.479746,-0.390866,-0.500000,-0.250000,-0.500000,0.250000,-0.479746,0.390866,-0.420627,0.520320,-0.327430,0.627875,-0.207708,0.704816,-0.071157,0.744911,0.000000,0.744911,0.000000,0.750000,0.500000,0.750000,0.500000,-0.750000,0.500000,-0.750000,
$1*%
%AMFreePoly1*
4,1,19,0.000000,0.744911,0.071157,0.744911,0.207708,0.704816,0.327430,0.627875,0.420627,0.520320,0.479746,0.390866,0.500000,0.250000,0.500000,-0.250000,0.479746,-0.390866,0.420627,-0.520320,0.327430,-0.627875,0.207708,-0.704816,0.071157,-0.744911,0.000000,-0.744911,0.000000,-0.750000,-0.500000,-0.750000,-0.500000,0.750000,0.000000,0.750000,0.000000,0.744911,0.000000,0.744911,
$1*%
G04 Aperture macros list end*
%ADD10R,1.700000X1.700000*%
%ADD11O,1.700000X1.700000*%
%ADD12C,0.900000*%
%ADD13O,1.000000X1.800000*%
%ADD14O,1.000000X2.200000*%
%ADD15C,1.524000*%
%ADD16FreePoly0,0.000000*%
%ADD17FreePoly1,0.000000*%
%ADD18FreePoly0,180.000000*%
%ADD19FreePoly1,180.000000*%
%ADD20FreePoly0,270.000000*%
%ADD21FreePoly1,270.000000*%
G04 APERTURE END LIST*
D10*
X116840000Y-106680000D03*
D11*
X119380000Y-106680000D03*
X116840000Y-109220000D03*
X119380000Y-109220000D03*
X116840000Y-111760000D03*
X119380000Y-111760000D03*
X116840000Y-114300000D03*
X119380000Y-114300000D03*
X116840000Y-116840000D03*
X119380000Y-116840000D03*
X116840000Y-119380000D03*
X119380000Y-119380000D03*
X116840000Y-121920000D03*
X119380000Y-121920000D03*
X116840000Y-124460000D03*
X119380000Y-124460000D03*
X116840000Y-127000000D03*
X119380000Y-127000000D03*
X116840000Y-129540000D03*
X119380000Y-129540000D03*
D10*
X116840000Y-134620000D03*
D11*
X116840000Y-137160000D03*
X116840000Y-139700000D03*
D10*
X139700000Y-149860000D03*
D11*
X139700000Y-147320000D03*
X142240000Y-149860000D03*
X142240000Y-147320000D03*
X144780000Y-149860000D03*
X144780000Y-147320000D03*
X147320000Y-149860000D03*
X147320000Y-147320000D03*
X149860000Y-149860000D03*
X149860000Y-147320000D03*
X152400000Y-149860000D03*
X152400000Y-147320000D03*
X154940000Y-149860000D03*
X154940000Y-147320000D03*
X157480000Y-149860000D03*
X157480000Y-147320000D03*
X160020000Y-149860000D03*
X160020000Y-147320000D03*
X162560000Y-149860000D03*
X162560000Y-147320000D03*
D10*
X160020000Y-106680000D03*
D11*
X162560000Y-106680000D03*
X160020000Y-109220000D03*
X162560000Y-109220000D03*
X160020000Y-111760000D03*
X162560000Y-111760000D03*
X160020000Y-114300000D03*
X162560000Y-114300000D03*
X160020000Y-116840000D03*
X162560000Y-116840000D03*
X160020000Y-119380000D03*
X162560000Y-119380000D03*
X160020000Y-121920000D03*
X162560000Y-121920000D03*
X160020000Y-124460000D03*
X162560000Y-124460000D03*
X160020000Y-127000000D03*
X162560000Y-127000000D03*
X160020000Y-129540000D03*
X162560000Y-129540000D03*
D10*
X162560000Y-134620000D03*
D11*
X162560000Y-137160000D03*
X162560000Y-139700000D03*
D10*
X135382000Y-73533000D03*
D11*
X135382000Y-76073000D03*
D10*
X165100000Y-91440000D03*
D11*
X162560000Y-91440000D03*
X165100000Y-88900000D03*
X162560000Y-88900000D03*
X165100000Y-86360000D03*
X162560000Y-86360000D03*
X165100000Y-83820000D03*
X162560000Y-83820000D03*
X165100000Y-81280000D03*
X162560000Y-81280000D03*
X165100000Y-78740000D03*
X162560000Y-78740000D03*
X165100000Y-76200000D03*
X162560000Y-76200000D03*
X165100000Y-73660000D03*
X162560000Y-73660000D03*
D12*
X131572000Y-148844000D03*
X133872000Y-148844000D03*
D10*
X139573000Y-81534000D03*
D11*
X142113000Y-81534000D03*
D10*
X124460000Y-96520000D03*
D11*
X124460000Y-93980000D03*
X127000000Y-96520000D03*
X127000000Y-93980000D03*
X129540000Y-96520000D03*
X129540000Y-93980000D03*
X132080000Y-96520000D03*
X132080000Y-93980000D03*
X134620000Y-96520000D03*
X134620000Y-93980000D03*
X137160000Y-96520000D03*
X137160000Y-93980000D03*
X139700000Y-96520000D03*
X139700000Y-93980000D03*
X142240000Y-96520000D03*
X142240000Y-93980000D03*
D12*
X112649000Y-81066000D03*
X112649000Y-86066000D03*
D13*
X118235000Y-145355000D03*
D14*
X118235000Y-149355000D03*
D13*
X126875000Y-145355000D03*
D14*
X126875000Y-149355000D03*
D10*
X124460000Y-134620000D03*
D11*
X124460000Y-137160000D03*
D10*
X115570000Y-93980000D03*
D11*
X118110000Y-93980000D03*
D12*
X112776000Y-98679000D03*
X112776000Y-100979000D03*
X166590000Y-101030000D03*
X166590000Y-98730000D03*
D13*
X126877000Y-73014000D03*
D14*
X126877000Y-69014000D03*
D13*
X118237000Y-73014000D03*
D14*
X118237000Y-69014000D03*
D15*
X129127000Y-82169000D03*
X127127000Y-82169000D03*
D16*
X158847000Y-98171000D03*
D17*
X160147000Y-98171000D03*
D18*
X119380000Y-96520000D03*
D19*
X118080000Y-96520000D03*
D20*
X139192000Y-137033000D03*
D21*
X139192000Y-138333000D03*
M02*
