G04 #@! TF.GenerationSoftware,KiCad,Pcbnew,8.0.6-8.0.6-0~ubuntu22.04.1*
G04 #@! TF.CreationDate,2024-11-22T22:59:57+01:00*
G04 #@! TF.ProjectId,rp2350b-launchpad-PCB,72703233-3530-4622-9d6c-61756e636870,rev?*
G04 #@! TF.SameCoordinates,Original*
G04 #@! TF.FileFunction,Paste,Top*
G04 #@! TF.FilePolarity,Positive*
%FSLAX46Y46*%
G04 Gerber Fmt 4.6, Leading zero omitted, Abs format (unit mm)*
G04 Created by KiCad (PCBNEW 8.0.6-8.0.6-0~ubuntu22.04.1) date 2024-11-22 22:59:57*
%MOMM*%
%LPD*%
G01*
G04 APERTURE LIST*
G04 Aperture macros list*
%AMRoundRect*
0 Rectangle with rounded corners*
0 $1 Rounding radius*
0 $2 $3 $4 $5 $6 $7 $8 $9 X,Y pos of 4 corners*
0 Add a 4 corners polygon primitive as box body*
4,1,4,$2,$3,$4,$5,$6,$7,$8,$9,$2,$3,0*
0 Add four circle primitives for the rounded corners*
1,1,$1+$1,$2,$3*
1,1,$1+$1,$4,$5*
1,1,$1+$1,$6,$7*
1,1,$1+$1,$8,$9*
0 Add four rect primitives between the rounded corners*
20,1,$1+$1,$2,$3,$4,$5,0*
20,1,$1+$1,$4,$5,$6,$7,0*
20,1,$1+$1,$6,$7,$8,$9,0*
20,1,$1+$1,$8,$9,$2,$3,0*%
%AMFreePoly0*
4,1,19,0.563745,0.600348,0.608674,0.548497,0.619677,0.497915,0.619677,-0.497915,0.600348,-0.563745,0.548497,-0.608674,0.497915,-0.619677,-0.497915,-0.619677,-0.563745,-0.600348,-0.608674,-0.548497,-0.619677,-0.497915,-0.619677,0.397045,-0.600348,0.462875,-0.584014,0.483144,-0.483144,0.584014,-0.422927,0.616894,-0.397045,0.619677,0.497915,0.619677,0.563745,0.600348,0.563745,0.600348,
$1*%
%AMFreePoly1*
4,1,19,0.563745,0.600348,0.608674,0.548497,0.619677,0.497915,0.619677,-0.497915,0.600348,-0.563745,0.548497,-0.608674,0.497915,-0.619677,-0.397045,-0.619677,-0.462875,-0.600348,-0.483144,-0.584014,-0.584014,-0.483144,-0.616894,-0.422927,-0.619677,-0.397045,-0.619677,0.497915,-0.600348,0.563745,-0.548497,0.608674,-0.497915,0.619677,0.497915,0.619677,0.563745,0.600348,0.563745,0.600348,
$1*%
%AMFreePoly2*
4,1,19,0.462875,0.600348,0.483144,0.584014,0.584014,0.483144,0.616894,0.422927,0.619677,0.397045,0.619677,-0.497915,0.600348,-0.563745,0.548497,-0.608674,0.497915,-0.619677,-0.497915,-0.619677,-0.563745,-0.600348,-0.608674,-0.548497,-0.619677,-0.497915,-0.619677,0.497915,-0.600348,0.563745,-0.548497,0.608674,-0.497915,0.619677,0.397045,0.619677,0.462875,0.600348,0.462875,0.600348,
$1*%
%AMFreePoly3*
4,1,19,0.563745,0.600348,0.608674,0.548497,0.619677,0.497915,0.619677,-0.397045,0.600348,-0.462875,0.584014,-0.483144,0.483144,-0.584014,0.422927,-0.616894,0.397045,-0.619677,-0.497915,-0.619677,-0.563745,-0.600348,-0.608674,-0.548497,-0.619677,-0.497915,-0.619677,0.497915,-0.600348,0.563745,-0.548497,0.608674,-0.497915,0.619677,0.497915,0.619677,0.563745,0.600348,0.563745,0.600348,
$1*%
%AMFreePoly4*
4,1,19,0.252748,0.308718,0.308718,0.252748,0.329204,0.176292,0.329204,-0.176292,0.308718,-0.252748,0.252748,-0.308718,0.176292,-0.329204,-0.176292,-0.329204,-0.252748,-0.308718,-0.308718,-0.252748,-0.329204,-0.176292,-0.329204,0.049616,-0.308718,0.126072,-0.284417,0.157741,-0.157741,0.284417,-0.089193,0.323994,-0.049616,0.329204,0.176292,0.329204,0.252748,0.308718,0.252748,0.308718,
$1*%
%AMFreePoly5*
4,1,19,0.252748,0.308718,0.308718,0.252748,0.329204,0.176292,0.329204,-0.176292,0.308718,-0.252748,0.252748,-0.308718,0.176292,-0.329204,-0.049616,-0.329204,-0.126072,-0.308718,-0.157741,-0.284417,-0.284417,-0.157741,-0.323994,-0.089193,-0.329204,-0.049616,-0.329204,0.176292,-0.308718,0.252748,-0.252748,0.308718,-0.176292,0.329204,0.176292,0.329204,0.252748,0.308718,0.252748,0.308718,
$1*%
%AMFreePoly6*
4,1,19,0.126072,0.308718,0.157741,0.284417,0.284417,0.157741,0.323994,0.089193,0.329204,0.049616,0.329204,-0.176292,0.308718,-0.252748,0.252748,-0.308718,0.176292,-0.329204,-0.176292,-0.329204,-0.252748,-0.308718,-0.308718,-0.252748,-0.329204,-0.176292,-0.329204,0.176292,-0.308718,0.252748,-0.252748,0.308718,-0.176292,0.329204,0.049616,0.329204,0.126072,0.308718,0.126072,0.308718,
$1*%
%AMFreePoly7*
4,1,19,0.252748,0.308718,0.308718,0.252748,0.329204,0.176292,0.329204,-0.049616,0.308718,-0.126072,0.284417,-0.157741,0.157741,-0.284417,0.089193,-0.323994,0.049616,-0.329204,-0.176292,-0.329204,-0.252748,-0.308718,-0.308718,-0.252748,-0.329204,-0.176292,-0.329204,0.176292,-0.308718,0.252748,-0.252748,0.308718,-0.176292,0.329204,0.176292,0.329204,0.252748,0.308718,0.252748,0.308718,
$1*%
G04 Aperture macros list end*
%ADD10RoundRect,0.140000X0.140000X0.170000X-0.140000X0.170000X-0.140000X-0.170000X0.140000X-0.170000X0*%
%ADD11RoundRect,0.243750X0.456250X-0.243750X0.456250X0.243750X-0.456250X0.243750X-0.456250X-0.243750X0*%
%ADD12RoundRect,0.218750X0.256250X-0.218750X0.256250X0.218750X-0.256250X0.218750X-0.256250X-0.218750X0*%
%ADD13RoundRect,0.218750X-0.256250X0.218750X-0.256250X-0.218750X0.256250X-0.218750X0.256250X0.218750X0*%
%ADD14RoundRect,0.218750X0.218750X0.256250X-0.218750X0.256250X-0.218750X-0.256250X0.218750X-0.256250X0*%
%ADD15RoundRect,0.218750X-0.218750X-0.256250X0.218750X-0.256250X0.218750X0.256250X-0.218750X0.256250X0*%
%ADD16RoundRect,0.250000X0.375000X0.850000X-0.375000X0.850000X-0.375000X-0.850000X0.375000X-0.850000X0*%
%ADD17RoundRect,0.135000X-0.135000X-0.185000X0.135000X-0.185000X0.135000X0.185000X-0.135000X0.185000X0*%
%ADD18R,0.900000X1.300000*%
%ADD19R,1.450000X1.000000*%
%ADD20R,1.060000X0.650000*%
%ADD21R,1.400000X1.200000*%
%ADD22RoundRect,0.250000X-0.435000X-0.615000X0.435000X-0.615000X0.435000X0.615000X-0.435000X0.615000X0*%
%ADD23RoundRect,0.125000X-0.250000X-0.125000X0.250000X-0.125000X0.250000X0.125000X-0.250000X0.125000X0*%
%ADD24FreePoly0,0.000000*%
%ADD25FreePoly1,0.000000*%
%ADD26FreePoly2,0.000000*%
%ADD27FreePoly3,0.000000*%
%ADD28RoundRect,0.050000X-0.387500X-0.050000X0.387500X-0.050000X0.387500X0.050000X-0.387500X0.050000X0*%
%ADD29RoundRect,0.050000X-0.050000X-0.387500X0.050000X-0.387500X0.050000X0.387500X-0.050000X0.387500X0*%
%ADD30R,0.700000X0.700000*%
%ADD31R,1.000000X0.900000*%
%ADD32R,1.500000X0.700000*%
%ADD33R,0.800000X1.000000*%
%ADD34RoundRect,0.225000X-0.225000X-0.250000X0.225000X-0.250000X0.225000X0.250000X-0.225000X0.250000X0*%
%ADD35RoundRect,0.140000X-0.140000X-0.170000X0.140000X-0.170000X0.140000X0.170000X-0.140000X0.170000X0*%
%ADD36RoundRect,0.200000X-0.275000X0.200000X-0.275000X-0.200000X0.275000X-0.200000X0.275000X0.200000X0*%
%ADD37RoundRect,0.200000X-0.200000X-0.275000X0.200000X-0.275000X0.200000X0.275000X-0.200000X0.275000X0*%
%ADD38RoundRect,0.040000X-0.605000X0.040000X-0.605000X-0.040000X0.605000X-0.040000X0.605000X0.040000X0*%
%ADD39RoundRect,0.062500X-0.062500X0.387500X-0.062500X-0.387500X0.062500X-0.387500X0.062500X0.387500X0*%
%ADD40RoundRect,0.140000X-0.170000X0.140000X-0.170000X-0.140000X0.170000X-0.140000X0.170000X0.140000X0*%
%ADD41RoundRect,0.135000X-0.185000X0.135000X-0.185000X-0.135000X0.185000X-0.135000X0.185000X0.135000X0*%
%ADD42RoundRect,0.250000X0.850000X-0.375000X0.850000X0.375000X-0.850000X0.375000X-0.850000X-0.375000X0*%
%ADD43RoundRect,0.200000X0.200000X0.275000X-0.200000X0.275000X-0.200000X-0.275000X0.200000X-0.275000X0*%
%ADD44RoundRect,0.140000X0.170000X-0.140000X0.170000X0.140000X-0.170000X0.140000X-0.170000X-0.140000X0*%
%ADD45R,0.600000X1.150000*%
%ADD46R,0.300000X1.150000*%
%ADD47O,1.000000X2.100000*%
%ADD48O,1.000000X1.800000*%
%ADD49RoundRect,0.200000X0.275000X-0.200000X0.275000X0.200000X-0.275000X0.200000X-0.275000X-0.200000X0*%
%ADD50R,1.300000X0.900000*%
%ADD51R,1.000000X1.450000*%
%ADD52RoundRect,0.135000X0.185000X-0.135000X0.185000X0.135000X-0.185000X0.135000X-0.185000X-0.135000X0*%
%ADD53RoundRect,0.250000X-0.615000X0.435000X-0.615000X-0.435000X0.615000X-0.435000X0.615000X0.435000X0*%
%ADD54RoundRect,0.125000X-0.125000X0.250000X-0.125000X-0.250000X0.125000X-0.250000X0.125000X0.250000X0*%
%ADD55RoundRect,0.135000X0.135000X0.185000X-0.135000X0.185000X-0.135000X-0.185000X0.135000X-0.185000X0*%
%ADD56R,1.200000X1.400000*%
%ADD57FreePoly4,180.000000*%
%ADD58FreePoly5,180.000000*%
%ADD59FreePoly6,180.000000*%
%ADD60FreePoly7,180.000000*%
%ADD61RoundRect,0.050000X0.350000X0.050000X-0.350000X0.050000X-0.350000X-0.050000X0.350000X-0.050000X0*%
%ADD62RoundRect,0.050000X0.050000X0.350000X-0.050000X0.350000X-0.050000X-0.350000X0.050000X-0.350000X0*%
G04 APERTURE END LIST*
D10*
X149729000Y-134493000D03*
X148769000Y-134493000D03*
D11*
X118364000Y-79423500D03*
X118364000Y-77548500D03*
X124714000Y-83947000D03*
X124714000Y-82072000D03*
X118364000Y-90775000D03*
X118364000Y-88900000D03*
X124714000Y-90775000D03*
X124714000Y-88900000D03*
D12*
X145415000Y-91237000D03*
X145415000Y-89662000D03*
X151384000Y-91237000D03*
X151384000Y-89662000D03*
D13*
X157480000Y-89662000D03*
X157480000Y-91237000D03*
D12*
X145288000Y-73965000D03*
X145288000Y-72390000D03*
X154432000Y-73965000D03*
X154432000Y-72390000D03*
X155956000Y-73965000D03*
X155956000Y-72390000D03*
D14*
X136652000Y-80264000D03*
X135077000Y-80264000D03*
D13*
X154432000Y-89662000D03*
X154432000Y-91237000D03*
D12*
X157480000Y-73965000D03*
X157480000Y-72390000D03*
D14*
X128778000Y-77724000D03*
X127203000Y-77724000D03*
D15*
X135077000Y-90424000D03*
X136652000Y-90424000D03*
X135077000Y-84328000D03*
X136652000Y-84328000D03*
X135077000Y-86360000D03*
X136652000Y-86360000D03*
X135077000Y-88392000D03*
X136652000Y-88392000D03*
D16*
X122555000Y-86360000D03*
X120405000Y-86360000D03*
D17*
X151916000Y-127889000D03*
X152936000Y-127889000D03*
X150366000Y-125349000D03*
X151386000Y-125349000D03*
D14*
X128778000Y-79375000D03*
X127203000Y-79375000D03*
D15*
X127203000Y-84328000D03*
X128778000Y-84328000D03*
D14*
X128778000Y-86360000D03*
X127203000Y-86360000D03*
X140005000Y-90424000D03*
X138430000Y-90424000D03*
D13*
X132715000Y-72390000D03*
X132715000Y-73965000D03*
D12*
X151384000Y-73965000D03*
X151384000Y-72390000D03*
X149860000Y-73965000D03*
X149860000Y-72390000D03*
X152908000Y-91237000D03*
X152908000Y-89662000D03*
D14*
X140005000Y-72390000D03*
X138430000Y-72390000D03*
X140005000Y-86360000D03*
X138430000Y-86360000D03*
X140005000Y-88392000D03*
X138430000Y-88392000D03*
D18*
X134822000Y-147594000D03*
X130622000Y-147594000D03*
D19*
X129347000Y-149394000D03*
X136097000Y-149394000D03*
D20*
X122596000Y-83947000D03*
X122596000Y-82997000D03*
X122596000Y-82047000D03*
X120396000Y-82047000D03*
X120396000Y-83947000D03*
D21*
X147279000Y-91298500D03*
X149479000Y-91298500D03*
X149479000Y-89598500D03*
X147279000Y-89598500D03*
D22*
X140120000Y-74871000D03*
X140120000Y-77021000D03*
X141820000Y-74871000D03*
X141820000Y-77021000D03*
D23*
X138270000Y-74041000D03*
X138270000Y-75311000D03*
X138270000Y-76581000D03*
X138270000Y-77851000D03*
X143670000Y-77851000D03*
X143670000Y-76581000D03*
X143670000Y-75311000D03*
X143670000Y-74041000D03*
D24*
X150963000Y-81875000D03*
D25*
X150963000Y-83225000D03*
D26*
X152313000Y-81875000D03*
D27*
X152313000Y-83225000D03*
D28*
X148200500Y-79950000D03*
X148200500Y-80350000D03*
X148200500Y-80750000D03*
X148200500Y-81150000D03*
X148200500Y-81550000D03*
X148200500Y-81950000D03*
X148200500Y-82350000D03*
X148200500Y-82750000D03*
X148200500Y-83150000D03*
X148200500Y-83550000D03*
X148200500Y-83950000D03*
X148200500Y-84350000D03*
X148200500Y-84750000D03*
X148200500Y-85150000D03*
D29*
X149038000Y-85987500D03*
X149438000Y-85987500D03*
X149838000Y-85987500D03*
X150238000Y-85987500D03*
X150638000Y-85987500D03*
X151038000Y-85987500D03*
X151438000Y-85987500D03*
X151838000Y-85987500D03*
X152238000Y-85987500D03*
X152638000Y-85987500D03*
X153038000Y-85987500D03*
X153438000Y-85987500D03*
X153838000Y-85987500D03*
X154238000Y-85987500D03*
D28*
X155075500Y-85150000D03*
X155075500Y-84750000D03*
X155075500Y-84350000D03*
X155075500Y-83950000D03*
X155075500Y-83550000D03*
X155075500Y-83150000D03*
X155075500Y-82750000D03*
X155075500Y-82350000D03*
X155075500Y-81950000D03*
X155075500Y-81550000D03*
X155075500Y-81150000D03*
X155075500Y-80750000D03*
X155075500Y-80350000D03*
X155075500Y-79950000D03*
D29*
X154238000Y-79112500D03*
X153838000Y-79112500D03*
X153438000Y-79112500D03*
X153038000Y-79112500D03*
X152638000Y-79112500D03*
X152238000Y-79112500D03*
X151838000Y-79112500D03*
X151438000Y-79112500D03*
X151038000Y-79112500D03*
X150638000Y-79112500D03*
X150238000Y-79112500D03*
X149838000Y-79112500D03*
X149438000Y-79112500D03*
X149038000Y-79112500D03*
D12*
X152908000Y-73965000D03*
X152908000Y-72390000D03*
X148336000Y-73965000D03*
X148336000Y-72390000D03*
X146812000Y-73965000D03*
X146812000Y-72390000D03*
D13*
X155956000Y-89662000D03*
X155956000Y-91237000D03*
D14*
X136652000Y-81788000D03*
X135077000Y-81788000D03*
D15*
X141935000Y-72390000D03*
X143510000Y-72390000D03*
D20*
X120396000Y-88900000D03*
X120396000Y-89850000D03*
X120396000Y-90800000D03*
X122596000Y-90800000D03*
X122596000Y-88900000D03*
X122596000Y-79370000D03*
X122596000Y-78420000D03*
X122596000Y-77470000D03*
X120396000Y-77470000D03*
X120396000Y-79370000D03*
D12*
X116459000Y-79273500D03*
X116459000Y-77698500D03*
D30*
X142790000Y-138526000D03*
X141690000Y-138526000D03*
X141690000Y-140356000D03*
X142790000Y-140356000D03*
X145330000Y-138526000D03*
X144230000Y-138526000D03*
X144230000Y-140356000D03*
X145330000Y-140356000D03*
X147870000Y-138526000D03*
X146770000Y-138526000D03*
X146770000Y-140356000D03*
X147870000Y-140356000D03*
X150410000Y-138526000D03*
X149310000Y-138526000D03*
X149310000Y-140356000D03*
X150410000Y-140356000D03*
X152950000Y-138526000D03*
X151850000Y-138526000D03*
X151850000Y-140356000D03*
X152950000Y-140356000D03*
X155490000Y-138526000D03*
X154390000Y-138526000D03*
X154390000Y-140356000D03*
X155490000Y-140356000D03*
X158030000Y-138526000D03*
X156930000Y-138526000D03*
X156930000Y-140356000D03*
X158030000Y-140356000D03*
X140250000Y-138526000D03*
X139150000Y-138526000D03*
X139150000Y-140356000D03*
X140250000Y-140356000D03*
D31*
X153224000Y-129141000D03*
X153224000Y-133241000D03*
X151624000Y-129141000D03*
X151624000Y-133241000D03*
D11*
X118364000Y-83947000D03*
X118364000Y-82072000D03*
D32*
X114399000Y-80566000D03*
X114399000Y-82066000D03*
X114399000Y-85066000D03*
X114399000Y-86566000D03*
D33*
X113599000Y-78416000D03*
X111649000Y-78416000D03*
X113599000Y-88716000D03*
X111649000Y-88716000D03*
D34*
X135115000Y-125222000D03*
X136665000Y-125222000D03*
D35*
X150650000Y-134493000D03*
X151610000Y-134493000D03*
X150368000Y-120650000D03*
X151328000Y-120650000D03*
D36*
X166751000Y-141796000D03*
X166751000Y-143446000D03*
X116459000Y-74549000D03*
X116459000Y-76199000D03*
X116459000Y-144780000D03*
X116459000Y-146430000D03*
D37*
X131890000Y-143510000D03*
X133540000Y-143510000D03*
D10*
X128976000Y-113919000D03*
X128016000Y-113919000D03*
D38*
X143649000Y-130457000D03*
D39*
X144399000Y-129032000D03*
X143899000Y-129032000D03*
X143399000Y-129032000D03*
X142899000Y-129032000D03*
X142899000Y-131882000D03*
X143399000Y-131882000D03*
X143899000Y-131882000D03*
X144399000Y-131882000D03*
D10*
X128976000Y-121793000D03*
X128016000Y-121793000D03*
D40*
X133731000Y-128651000D03*
X133731000Y-129611000D03*
D17*
X150366000Y-109601000D03*
X151386000Y-109601000D03*
D41*
X138303000Y-126615000D03*
X138303000Y-127635000D03*
D42*
X135890000Y-129159000D03*
X135890000Y-127009000D03*
D36*
X114935000Y-74550000D03*
X114935000Y-76200000D03*
D43*
X140017000Y-84328000D03*
X138367000Y-84328000D03*
D44*
X136398000Y-108049000D03*
X136398000Y-107089000D03*
D35*
X150368000Y-117221000D03*
X151328000Y-117221000D03*
D40*
X137414000Y-105085000D03*
X137414000Y-106045000D03*
X140335000Y-128707000D03*
X140335000Y-129667000D03*
D45*
X119355000Y-144780000D03*
X120155000Y-144780000D03*
D46*
X120805000Y-144780000D03*
X121305000Y-144780000D03*
X121805000Y-144780000D03*
X122305000Y-144780000D03*
X122805000Y-144780000D03*
X123305000Y-144780000D03*
X123805000Y-144780000D03*
X124305000Y-144780000D03*
D45*
X124955000Y-144780000D03*
X125755000Y-144780000D03*
D47*
X118235000Y-145355000D03*
D48*
X118235000Y-149535000D03*
D47*
X126875000Y-145355000D03*
D48*
X126875000Y-149535000D03*
D17*
X162812000Y-96520000D03*
X163832000Y-96520000D03*
D37*
X124207000Y-138684000D03*
X125857000Y-138684000D03*
D41*
X137414000Y-107087000D03*
X137414000Y-108107000D03*
D10*
X129004000Y-116967000D03*
X128044000Y-116967000D03*
D17*
X150368000Y-114935000D03*
X151388000Y-114935000D03*
D41*
X139319000Y-126617000D03*
X139319000Y-127637000D03*
D35*
X150368000Y-108458000D03*
X151328000Y-108458000D03*
D40*
X133731000Y-126746000D03*
X133731000Y-127706000D03*
D49*
X128651000Y-146430000D03*
X128651000Y-144780000D03*
D17*
X150366000Y-118745000D03*
X151386000Y-118745000D03*
D50*
X114026000Y-101929000D03*
X114026000Y-97729000D03*
D51*
X112226000Y-96454000D03*
X112226000Y-103204000D03*
D40*
X141986000Y-105085000D03*
X141986000Y-106045000D03*
D49*
X128740000Y-74030000D03*
X128740000Y-72380000D03*
D52*
X133731000Y-125857000D03*
X133731000Y-124837000D03*
D50*
X165340000Y-97780000D03*
X165340000Y-101980000D03*
D51*
X167140000Y-103255000D03*
X167140000Y-96505000D03*
D12*
X128270000Y-140233500D03*
X128270000Y-138658500D03*
D10*
X129004000Y-117983000D03*
X128044000Y-117983000D03*
D44*
X141986000Y-108077000D03*
X141986000Y-107117000D03*
D53*
X148844000Y-129745000D03*
X146694000Y-129745000D03*
X148844000Y-131445000D03*
X146694000Y-131445000D03*
D54*
X149674000Y-127895000D03*
X148404000Y-127895000D03*
X147134000Y-127895000D03*
X145864000Y-127895000D03*
X145864000Y-133295000D03*
X147134000Y-133295000D03*
X148404000Y-133295000D03*
X149674000Y-133295000D03*
D35*
X150368000Y-113919000D03*
X151328000Y-113919000D03*
D55*
X121158000Y-96520000D03*
X120138000Y-96520000D03*
D35*
X150396000Y-124333000D03*
X151356000Y-124333000D03*
D45*
X125757000Y-73589000D03*
X124957000Y-73589000D03*
D46*
X124307000Y-73589000D03*
X123807000Y-73589000D03*
X123307000Y-73589000D03*
X122807000Y-73589000D03*
X122307000Y-73589000D03*
X121807000Y-73589000D03*
X121307000Y-73589000D03*
X120807000Y-73589000D03*
D45*
X120157000Y-73589000D03*
X119357000Y-73589000D03*
D47*
X126877000Y-73014000D03*
D48*
X126877000Y-68834000D03*
D47*
X118237000Y-73014000D03*
D48*
X118237000Y-68834000D03*
D55*
X148340000Y-125349000D03*
X147320000Y-125349000D03*
D56*
X140550000Y-107681000D03*
X140550000Y-105481000D03*
X138850000Y-105481000D03*
X138850000Y-107681000D03*
D10*
X129004000Y-122809000D03*
X128044000Y-122809000D03*
D57*
X140787500Y-119197500D03*
D58*
X140787500Y-118472500D03*
D57*
X140787500Y-117747500D03*
D58*
X140787500Y-117022500D03*
D59*
X140062500Y-119197500D03*
D60*
X140062500Y-118472500D03*
D59*
X140062500Y-117747500D03*
D60*
X140062500Y-117022500D03*
D57*
X139337500Y-119197500D03*
D58*
X139337500Y-118472500D03*
D57*
X139337500Y-117747500D03*
D58*
X139337500Y-117022500D03*
D59*
X138612500Y-119197500D03*
D60*
X138612500Y-118472500D03*
D59*
X138612500Y-117747500D03*
D60*
X138612500Y-117022500D03*
D61*
X144650000Y-121910000D03*
X144650000Y-121510000D03*
X144650000Y-121110000D03*
X144650000Y-120710000D03*
X144650000Y-120310000D03*
X144650000Y-119910000D03*
X144650000Y-119510000D03*
X144650000Y-119110000D03*
X144650000Y-118710000D03*
X144650000Y-118310000D03*
X144650000Y-117910000D03*
X144650000Y-117510000D03*
X144650000Y-117110000D03*
X144650000Y-116710000D03*
X144650000Y-116310000D03*
X144650000Y-115910000D03*
X144650000Y-115510000D03*
X144650000Y-115110000D03*
X144650000Y-114710000D03*
X144650000Y-114310000D03*
D62*
X143500000Y-113160000D03*
X143100000Y-113160000D03*
X142700000Y-113160000D03*
X142300000Y-113160000D03*
X141900000Y-113160000D03*
X141500000Y-113160000D03*
X141100000Y-113160000D03*
X140700000Y-113160000D03*
X140300000Y-113160000D03*
X139900000Y-113160000D03*
X139500000Y-113160000D03*
X139100000Y-113160000D03*
X138700000Y-113160000D03*
X138300000Y-113160000D03*
X137900000Y-113160000D03*
X137500000Y-113160000D03*
X137100000Y-113160000D03*
X136700000Y-113160000D03*
X136300000Y-113160000D03*
X135900000Y-113160000D03*
D61*
X134750000Y-114310000D03*
X134750000Y-114710000D03*
X134750000Y-115110000D03*
X134750000Y-115510000D03*
X134750000Y-115910000D03*
X134750000Y-116310000D03*
X134750000Y-116710000D03*
X134750000Y-117110000D03*
X134750000Y-117510000D03*
X134750000Y-117910000D03*
X134750000Y-118310000D03*
X134750000Y-118710000D03*
X134750000Y-119110000D03*
X134750000Y-119510000D03*
X134750000Y-119910000D03*
X134750000Y-120310000D03*
X134750000Y-120710000D03*
X134750000Y-121110000D03*
X134750000Y-121510000D03*
X134750000Y-121910000D03*
D62*
X135900000Y-123060000D03*
X136300000Y-123060000D03*
X136700000Y-123060000D03*
X137100000Y-123060000D03*
X137500000Y-123060000D03*
X137900000Y-123060000D03*
X138300000Y-123060000D03*
X138700000Y-123060000D03*
X139100000Y-123060000D03*
X139500000Y-123060000D03*
X139900000Y-123060000D03*
X140300000Y-123060000D03*
X140700000Y-123060000D03*
X141100000Y-123060000D03*
X141500000Y-123060000D03*
X141900000Y-123060000D03*
X142300000Y-123060000D03*
X142700000Y-123060000D03*
X143100000Y-123060000D03*
X143500000Y-123060000D03*
M02*
