%TF.GenerationSoftware,KiCad,Pcbnew,8.0.6-8.0.6-0~ubuntu22.04.1*%
%TF.CreationDate,2024-11-22T22:59:53+01:00*%
%TF.ProjectId,rp2350b-launchpad-PCB,72703233-3530-4622-9d6c-61756e636870,rev?*%
%TF.SameCoordinates,Original*%
%TF.FileFunction,Drillmap*%
%TF.FilePolarity,Positive*%
%FSLAX45Y45*%
G04 Gerber Fmt 4.5, Leading zero omitted, Abs format (unit mm)*
G04 Created by KiCad (PCBNEW 8.0.6-8.0.6-0~ubuntu22.04.1) date 2024-11-22 22:59:53*
%MOMM*%
%LPD*%
G01*
G04 APERTURE LIST*
%ADD10C,0.050000*%
%ADD11C,0.200000*%
%ADD12C,0.100000*%
G04 APERTURE END LIST*
D10*
X16771600Y-14833600D02*
G75*
G02*
X16451600Y-14833600I-160000J0D01*
G01*
X16451600Y-14833600D02*
G75*
G02*
X16771600Y-14833600I160000J0D01*
G01*
X11488400Y-14833600D02*
G75*
G02*
X11168400Y-14833600I-160000J0D01*
G01*
X11168400Y-14833600D02*
G75*
G02*
X11488400Y-14833600I160000J0D01*
G01*
X11049000Y-10485663D02*
G75*
G02*
X11148848Y-10185400I500610J263D01*
G01*
X11148848Y-9785400D02*
G75*
G02*
X11148848Y-10185400I-299998J-200000D01*
G01*
X11149000Y-9785400D02*
G75*
G02*
X11049000Y-9485400I400000J300000D01*
G01*
X11252200Y-15113000D02*
X12573000Y-15113000D01*
X11049000Y-6934200D02*
X11049000Y-9485400D01*
X11252200Y-6731000D02*
X11811000Y-6731000D01*
X11811000Y-6731000D02*
X16687800Y-6731000D01*
X13776463Y-15112848D02*
G75*
G02*
X13476200Y-15013000I-263J500608D01*
G01*
X13076200Y-15013000D02*
G75*
G02*
X13476200Y-15013000I200000J-300000D01*
G01*
X13076200Y-15013000D02*
G75*
G02*
X12776200Y-15113000I-300000J400000D01*
G01*
X12573000Y-15113000D02*
X12776200Y-15113000D01*
X13776463Y-15112848D02*
X16687800Y-15113000D01*
X11049000Y-10485663D02*
X11049000Y-14909800D01*
X16891000Y-9486900D02*
X16890848Y-9489937D01*
X16687800Y-6731000D02*
G75*
G02*
X16891000Y-6934200I0J-203200D01*
G01*
X16791000Y-10190200D02*
G75*
G02*
X16791000Y-9790200I300000J200000D01*
G01*
X11049000Y-6934200D02*
G75*
G02*
X11252200Y-6731000I203200J0D01*
G01*
X11252200Y-15113000D02*
G75*
G02*
X11049000Y-14909800I0J203200D01*
G01*
X16771600Y-7010400D02*
G75*
G02*
X16451600Y-7010400I-160000J0D01*
G01*
X16451600Y-7010400D02*
G75*
G02*
X16771600Y-7010400I160000J0D01*
G01*
X16791000Y-10190200D02*
G75*
G02*
X16891000Y-10490200I-400000J-300000D01*
G01*
X16891000Y-14909800D02*
X16891000Y-10490200D01*
X16891000Y-14909800D02*
G75*
G02*
X16687800Y-15113000I-203200J0D01*
G01*
X11488400Y-7010400D02*
G75*
G02*
X11168400Y-7010400I-160000J0D01*
G01*
X11168400Y-7010400D02*
G75*
G02*
X11488400Y-7010400I160000J0D01*
G01*
X16891000Y-6934200D02*
X16891000Y-9486900D01*
X16890848Y-9489937D02*
G75*
G02*
X16791000Y-9790200I-500608J-263D01*
G01*
D11*
D12*
X11934000Y-14553000D02*
X11999000Y-14618000D01*
X11999000Y-14553000D02*
X11934000Y-14618000D01*
X11934200Y-7218900D02*
X11999200Y-7283900D01*
X11999200Y-7218900D02*
X11934200Y-7283900D01*
X12512000Y-14553000D02*
X12577000Y-14618000D01*
X12577000Y-14553000D02*
X12512000Y-14618000D01*
X12512200Y-7218900D02*
X12577200Y-7283900D01*
X12577200Y-7218900D02*
X12512200Y-7283900D01*
X11309900Y-8106600D02*
G75*
G02*
X11219900Y-8106600I-45000J0D01*
G01*
X11219900Y-8106600D02*
G75*
G02*
X11309900Y-8106600I45000J0D01*
G01*
X11309900Y-8606600D02*
G75*
G02*
X11219900Y-8606600I-45000J0D01*
G01*
X11219900Y-8606600D02*
G75*
G02*
X11309900Y-8606600I45000J0D01*
G01*
X11322600Y-9867900D02*
G75*
G02*
X11232600Y-9867900I-45000J0D01*
G01*
X11232600Y-9867900D02*
G75*
G02*
X11322600Y-9867900I45000J0D01*
G01*
X11322600Y-10097900D02*
G75*
G02*
X11232600Y-10097900I-45000J0D01*
G01*
X11232600Y-10097900D02*
G75*
G02*
X11322600Y-10097900I45000J0D01*
G01*
X13202200Y-14884400D02*
G75*
G02*
X13112200Y-14884400I-45000J0D01*
G01*
X13112200Y-14884400D02*
G75*
G02*
X13202200Y-14884400I45000J0D01*
G01*
X13432200Y-14884400D02*
G75*
G02*
X13342200Y-14884400I-45000J0D01*
G01*
X13342200Y-14884400D02*
G75*
G02*
X13432200Y-14884400I45000J0D01*
G01*
X16704000Y-9873000D02*
G75*
G02*
X16614000Y-9873000I-45000J0D01*
G01*
X16614000Y-9873000D02*
G75*
G02*
X16704000Y-9873000I45000J0D01*
G01*
X16704000Y-10103000D02*
G75*
G02*
X16614000Y-10103000I-45000J0D01*
G01*
X16614000Y-10103000D02*
G75*
G02*
X16704000Y-10103000I45000J0D01*
G01*
D11*
X11307277Y-15426984D02*
X11307277Y-15226984D01*
X11307277Y-15226984D02*
X11354896Y-15226984D01*
X11354896Y-15226984D02*
X11383467Y-15236508D01*
X11383467Y-15236508D02*
X11402515Y-15255555D01*
X11402515Y-15255555D02*
X11412039Y-15274603D01*
X11412039Y-15274603D02*
X11421562Y-15312698D01*
X11421562Y-15312698D02*
X11421562Y-15341269D01*
X11421562Y-15341269D02*
X11412039Y-15379365D01*
X11412039Y-15379365D02*
X11402515Y-15398412D01*
X11402515Y-15398412D02*
X11383467Y-15417460D01*
X11383467Y-15417460D02*
X11354896Y-15426984D01*
X11354896Y-15426984D02*
X11307277Y-15426984D01*
X11507277Y-15426984D02*
X11507277Y-15293650D01*
X11507277Y-15331746D02*
X11516800Y-15312698D01*
X11516800Y-15312698D02*
X11526324Y-15303174D01*
X11526324Y-15303174D02*
X11545372Y-15293650D01*
X11545372Y-15293650D02*
X11564420Y-15293650D01*
X11631086Y-15426984D02*
X11631086Y-15293650D01*
X11631086Y-15226984D02*
X11621562Y-15236508D01*
X11621562Y-15236508D02*
X11631086Y-15246031D01*
X11631086Y-15246031D02*
X11640610Y-15236508D01*
X11640610Y-15236508D02*
X11631086Y-15226984D01*
X11631086Y-15226984D02*
X11631086Y-15246031D01*
X11754896Y-15426984D02*
X11735848Y-15417460D01*
X11735848Y-15417460D02*
X11726324Y-15398412D01*
X11726324Y-15398412D02*
X11726324Y-15226984D01*
X11859658Y-15426984D02*
X11840610Y-15417460D01*
X11840610Y-15417460D02*
X11831086Y-15398412D01*
X11831086Y-15398412D02*
X11831086Y-15226984D01*
X12088229Y-15426984D02*
X12088229Y-15226984D01*
X12088229Y-15226984D02*
X12154896Y-15369841D01*
X12154896Y-15369841D02*
X12221562Y-15226984D01*
X12221562Y-15226984D02*
X12221562Y-15426984D01*
X12402515Y-15426984D02*
X12402515Y-15322222D01*
X12402515Y-15322222D02*
X12392991Y-15303174D01*
X12392991Y-15303174D02*
X12373943Y-15293650D01*
X12373943Y-15293650D02*
X12335848Y-15293650D01*
X12335848Y-15293650D02*
X12316800Y-15303174D01*
X12402515Y-15417460D02*
X12383467Y-15426984D01*
X12383467Y-15426984D02*
X12335848Y-15426984D01*
X12335848Y-15426984D02*
X12316800Y-15417460D01*
X12316800Y-15417460D02*
X12307277Y-15398412D01*
X12307277Y-15398412D02*
X12307277Y-15379365D01*
X12307277Y-15379365D02*
X12316800Y-15360317D01*
X12316800Y-15360317D02*
X12335848Y-15350793D01*
X12335848Y-15350793D02*
X12383467Y-15350793D01*
X12383467Y-15350793D02*
X12402515Y-15341269D01*
X12497753Y-15293650D02*
X12497753Y-15493650D01*
X12497753Y-15303174D02*
X12516800Y-15293650D01*
X12516800Y-15293650D02*
X12554896Y-15293650D01*
X12554896Y-15293650D02*
X12573943Y-15303174D01*
X12573943Y-15303174D02*
X12583467Y-15312698D01*
X12583467Y-15312698D02*
X12592991Y-15331746D01*
X12592991Y-15331746D02*
X12592991Y-15388888D01*
X12592991Y-15388888D02*
X12583467Y-15407936D01*
X12583467Y-15407936D02*
X12573943Y-15417460D01*
X12573943Y-15417460D02*
X12554896Y-15426984D01*
X12554896Y-15426984D02*
X12516800Y-15426984D01*
X12516800Y-15426984D02*
X12497753Y-15417460D01*
X12678705Y-15407936D02*
X12688229Y-15417460D01*
X12688229Y-15417460D02*
X12678705Y-15426984D01*
X12678705Y-15426984D02*
X12669181Y-15417460D01*
X12669181Y-15417460D02*
X12678705Y-15407936D01*
X12678705Y-15407936D02*
X12678705Y-15426984D01*
X12678705Y-15303174D02*
X12688229Y-15312698D01*
X12688229Y-15312698D02*
X12678705Y-15322222D01*
X12678705Y-15322222D02*
X12669181Y-15312698D01*
X12669181Y-15312698D02*
X12678705Y-15303174D01*
X12678705Y-15303174D02*
X12678705Y-15322222D01*
D12*
X10981500Y-15723000D02*
X11046500Y-15788000D01*
X11046500Y-15723000D02*
X10981500Y-15788000D01*
D11*
X11345372Y-15646984D02*
X11364420Y-15646984D01*
X11364420Y-15646984D02*
X11383467Y-15656508D01*
X11383467Y-15656508D02*
X11392991Y-15666031D01*
X11392991Y-15666031D02*
X11402515Y-15685079D01*
X11402515Y-15685079D02*
X11412039Y-15723174D01*
X11412039Y-15723174D02*
X11412039Y-15770793D01*
X11412039Y-15770793D02*
X11402515Y-15808888D01*
X11402515Y-15808888D02*
X11392991Y-15827936D01*
X11392991Y-15827936D02*
X11383467Y-15837460D01*
X11383467Y-15837460D02*
X11364420Y-15846984D01*
X11364420Y-15846984D02*
X11345372Y-15846984D01*
X11345372Y-15846984D02*
X11326324Y-15837460D01*
X11326324Y-15837460D02*
X11316800Y-15827936D01*
X11316800Y-15827936D02*
X11307277Y-15808888D01*
X11307277Y-15808888D02*
X11297753Y-15770793D01*
X11297753Y-15770793D02*
X11297753Y-15723174D01*
X11297753Y-15723174D02*
X11307277Y-15685079D01*
X11307277Y-15685079D02*
X11316800Y-15666031D01*
X11316800Y-15666031D02*
X11326324Y-15656508D01*
X11326324Y-15656508D02*
X11345372Y-15646984D01*
X11497753Y-15827936D02*
X11507277Y-15837460D01*
X11507277Y-15837460D02*
X11497753Y-15846984D01*
X11497753Y-15846984D02*
X11488229Y-15837460D01*
X11488229Y-15837460D02*
X11497753Y-15827936D01*
X11497753Y-15827936D02*
X11497753Y-15846984D01*
X11678705Y-15646984D02*
X11640610Y-15646984D01*
X11640610Y-15646984D02*
X11621562Y-15656508D01*
X11621562Y-15656508D02*
X11612039Y-15666031D01*
X11612039Y-15666031D02*
X11592991Y-15694603D01*
X11592991Y-15694603D02*
X11583467Y-15732698D01*
X11583467Y-15732698D02*
X11583467Y-15808888D01*
X11583467Y-15808888D02*
X11592991Y-15827936D01*
X11592991Y-15827936D02*
X11602515Y-15837460D01*
X11602515Y-15837460D02*
X11621562Y-15846984D01*
X11621562Y-15846984D02*
X11659658Y-15846984D01*
X11659658Y-15846984D02*
X11678705Y-15837460D01*
X11678705Y-15837460D02*
X11688229Y-15827936D01*
X11688229Y-15827936D02*
X11697753Y-15808888D01*
X11697753Y-15808888D02*
X11697753Y-15761269D01*
X11697753Y-15761269D02*
X11688229Y-15742222D01*
X11688229Y-15742222D02*
X11678705Y-15732698D01*
X11678705Y-15732698D02*
X11659658Y-15723174D01*
X11659658Y-15723174D02*
X11621562Y-15723174D01*
X11621562Y-15723174D02*
X11602515Y-15732698D01*
X11602515Y-15732698D02*
X11592991Y-15742222D01*
X11592991Y-15742222D02*
X11583467Y-15761269D01*
X11878705Y-15646984D02*
X11783467Y-15646984D01*
X11783467Y-15646984D02*
X11773943Y-15742222D01*
X11773943Y-15742222D02*
X11783467Y-15732698D01*
X11783467Y-15732698D02*
X11802515Y-15723174D01*
X11802515Y-15723174D02*
X11850134Y-15723174D01*
X11850134Y-15723174D02*
X11869181Y-15732698D01*
X11869181Y-15732698D02*
X11878705Y-15742222D01*
X11878705Y-15742222D02*
X11888229Y-15761269D01*
X11888229Y-15761269D02*
X11888229Y-15808888D01*
X11888229Y-15808888D02*
X11878705Y-15827936D01*
X11878705Y-15827936D02*
X11869181Y-15837460D01*
X11869181Y-15837460D02*
X11850134Y-15846984D01*
X11850134Y-15846984D02*
X11802515Y-15846984D01*
X11802515Y-15846984D02*
X11783467Y-15837460D01*
X11783467Y-15837460D02*
X11773943Y-15827936D01*
X12012039Y-15646984D02*
X12031086Y-15646984D01*
X12031086Y-15646984D02*
X12050134Y-15656508D01*
X12050134Y-15656508D02*
X12059658Y-15666031D01*
X12059658Y-15666031D02*
X12069181Y-15685079D01*
X12069181Y-15685079D02*
X12078705Y-15723174D01*
X12078705Y-15723174D02*
X12078705Y-15770793D01*
X12078705Y-15770793D02*
X12069181Y-15808888D01*
X12069181Y-15808888D02*
X12059658Y-15827936D01*
X12059658Y-15827936D02*
X12050134Y-15837460D01*
X12050134Y-15837460D02*
X12031086Y-15846984D01*
X12031086Y-15846984D02*
X12012039Y-15846984D01*
X12012039Y-15846984D02*
X11992991Y-15837460D01*
X11992991Y-15837460D02*
X11983467Y-15827936D01*
X11983467Y-15827936D02*
X11973943Y-15808888D01*
X11973943Y-15808888D02*
X11964420Y-15770793D01*
X11964420Y-15770793D02*
X11964420Y-15723174D01*
X11964420Y-15723174D02*
X11973943Y-15685079D01*
X11973943Y-15685079D02*
X11983467Y-15666031D01*
X11983467Y-15666031D02*
X11992991Y-15656508D01*
X11992991Y-15656508D02*
X12012039Y-15646984D01*
X12164420Y-15846984D02*
X12164420Y-15713650D01*
X12164420Y-15732698D02*
X12173943Y-15723174D01*
X12173943Y-15723174D02*
X12192991Y-15713650D01*
X12192991Y-15713650D02*
X12221562Y-15713650D01*
X12221562Y-15713650D02*
X12240610Y-15723174D01*
X12240610Y-15723174D02*
X12250134Y-15742222D01*
X12250134Y-15742222D02*
X12250134Y-15846984D01*
X12250134Y-15742222D02*
X12259658Y-15723174D01*
X12259658Y-15723174D02*
X12278705Y-15713650D01*
X12278705Y-15713650D02*
X12307277Y-15713650D01*
X12307277Y-15713650D02*
X12326324Y-15723174D01*
X12326324Y-15723174D02*
X12335848Y-15742222D01*
X12335848Y-15742222D02*
X12335848Y-15846984D01*
X12431086Y-15846984D02*
X12431086Y-15713650D01*
X12431086Y-15732698D02*
X12440610Y-15723174D01*
X12440610Y-15723174D02*
X12459658Y-15713650D01*
X12459658Y-15713650D02*
X12488229Y-15713650D01*
X12488229Y-15713650D02*
X12507277Y-15723174D01*
X12507277Y-15723174D02*
X12516801Y-15742222D01*
X12516801Y-15742222D02*
X12516801Y-15846984D01*
X12516801Y-15742222D02*
X12526324Y-15723174D01*
X12526324Y-15723174D02*
X12545372Y-15713650D01*
X12545372Y-15713650D02*
X12573943Y-15713650D01*
X12573943Y-15713650D02*
X12592991Y-15723174D01*
X12592991Y-15723174D02*
X12602515Y-15742222D01*
X12602515Y-15742222D02*
X12602515Y-15846984D01*
X12992991Y-15637460D02*
X12821563Y-15894603D01*
X13250134Y-15646984D02*
X13269182Y-15646984D01*
X13269182Y-15646984D02*
X13288229Y-15656508D01*
X13288229Y-15656508D02*
X13297753Y-15666031D01*
X13297753Y-15666031D02*
X13307277Y-15685079D01*
X13307277Y-15685079D02*
X13316801Y-15723174D01*
X13316801Y-15723174D02*
X13316801Y-15770793D01*
X13316801Y-15770793D02*
X13307277Y-15808888D01*
X13307277Y-15808888D02*
X13297753Y-15827936D01*
X13297753Y-15827936D02*
X13288229Y-15837460D01*
X13288229Y-15837460D02*
X13269182Y-15846984D01*
X13269182Y-15846984D02*
X13250134Y-15846984D01*
X13250134Y-15846984D02*
X13231086Y-15837460D01*
X13231086Y-15837460D02*
X13221563Y-15827936D01*
X13221563Y-15827936D02*
X13212039Y-15808888D01*
X13212039Y-15808888D02*
X13202515Y-15770793D01*
X13202515Y-15770793D02*
X13202515Y-15723174D01*
X13202515Y-15723174D02*
X13212039Y-15685079D01*
X13212039Y-15685079D02*
X13221563Y-15666031D01*
X13221563Y-15666031D02*
X13231086Y-15656508D01*
X13231086Y-15656508D02*
X13250134Y-15646984D01*
X13402515Y-15827936D02*
X13412039Y-15837460D01*
X13412039Y-15837460D02*
X13402515Y-15846984D01*
X13402515Y-15846984D02*
X13392991Y-15837460D01*
X13392991Y-15837460D02*
X13402515Y-15827936D01*
X13402515Y-15827936D02*
X13402515Y-15846984D01*
X13535848Y-15646984D02*
X13554896Y-15646984D01*
X13554896Y-15646984D02*
X13573944Y-15656508D01*
X13573944Y-15656508D02*
X13583467Y-15666031D01*
X13583467Y-15666031D02*
X13592991Y-15685079D01*
X13592991Y-15685079D02*
X13602515Y-15723174D01*
X13602515Y-15723174D02*
X13602515Y-15770793D01*
X13602515Y-15770793D02*
X13592991Y-15808888D01*
X13592991Y-15808888D02*
X13583467Y-15827936D01*
X13583467Y-15827936D02*
X13573944Y-15837460D01*
X13573944Y-15837460D02*
X13554896Y-15846984D01*
X13554896Y-15846984D02*
X13535848Y-15846984D01*
X13535848Y-15846984D02*
X13516801Y-15837460D01*
X13516801Y-15837460D02*
X13507277Y-15827936D01*
X13507277Y-15827936D02*
X13497753Y-15808888D01*
X13497753Y-15808888D02*
X13488229Y-15770793D01*
X13488229Y-15770793D02*
X13488229Y-15723174D01*
X13488229Y-15723174D02*
X13497753Y-15685079D01*
X13497753Y-15685079D02*
X13507277Y-15666031D01*
X13507277Y-15666031D02*
X13516801Y-15656508D01*
X13516801Y-15656508D02*
X13535848Y-15646984D01*
X13678705Y-15666031D02*
X13688229Y-15656508D01*
X13688229Y-15656508D02*
X13707277Y-15646984D01*
X13707277Y-15646984D02*
X13754896Y-15646984D01*
X13754896Y-15646984D02*
X13773944Y-15656508D01*
X13773944Y-15656508D02*
X13783467Y-15666031D01*
X13783467Y-15666031D02*
X13792991Y-15685079D01*
X13792991Y-15685079D02*
X13792991Y-15704127D01*
X13792991Y-15704127D02*
X13783467Y-15732698D01*
X13783467Y-15732698D02*
X13669182Y-15846984D01*
X13669182Y-15846984D02*
X13792991Y-15846984D01*
X13973944Y-15646984D02*
X13878705Y-15646984D01*
X13878705Y-15646984D02*
X13869182Y-15742222D01*
X13869182Y-15742222D02*
X13878705Y-15732698D01*
X13878705Y-15732698D02*
X13897753Y-15723174D01*
X13897753Y-15723174D02*
X13945372Y-15723174D01*
X13945372Y-15723174D02*
X13964420Y-15732698D01*
X13964420Y-15732698D02*
X13973944Y-15742222D01*
X13973944Y-15742222D02*
X13983467Y-15761269D01*
X13983467Y-15761269D02*
X13983467Y-15808888D01*
X13983467Y-15808888D02*
X13973944Y-15827936D01*
X13973944Y-15827936D02*
X13964420Y-15837460D01*
X13964420Y-15837460D02*
X13945372Y-15846984D01*
X13945372Y-15846984D02*
X13897753Y-15846984D01*
X13897753Y-15846984D02*
X13878705Y-15837460D01*
X13878705Y-15837460D02*
X13869182Y-15827936D01*
X14154896Y-15646984D02*
X14116801Y-15646984D01*
X14116801Y-15646984D02*
X14097753Y-15656508D01*
X14097753Y-15656508D02*
X14088229Y-15666031D01*
X14088229Y-15666031D02*
X14069182Y-15694603D01*
X14069182Y-15694603D02*
X14059658Y-15732698D01*
X14059658Y-15732698D02*
X14059658Y-15808888D01*
X14059658Y-15808888D02*
X14069182Y-15827936D01*
X14069182Y-15827936D02*
X14078705Y-15837460D01*
X14078705Y-15837460D02*
X14097753Y-15846984D01*
X14097753Y-15846984D02*
X14135848Y-15846984D01*
X14135848Y-15846984D02*
X14154896Y-15837460D01*
X14154896Y-15837460D02*
X14164420Y-15827936D01*
X14164420Y-15827936D02*
X14173944Y-15808888D01*
X14173944Y-15808888D02*
X14173944Y-15761269D01*
X14173944Y-15761269D02*
X14164420Y-15742222D01*
X14164420Y-15742222D02*
X14154896Y-15732698D01*
X14154896Y-15732698D02*
X14135848Y-15723174D01*
X14135848Y-15723174D02*
X14097753Y-15723174D01*
X14097753Y-15723174D02*
X14078705Y-15732698D01*
X14078705Y-15732698D02*
X14069182Y-15742222D01*
X14069182Y-15742222D02*
X14059658Y-15761269D01*
X14250134Y-15646984D02*
X14250134Y-15685079D01*
X14326325Y-15646984D02*
X14326325Y-15685079D01*
X14621563Y-15923174D02*
X14612039Y-15913650D01*
X14612039Y-15913650D02*
X14592991Y-15885079D01*
X14592991Y-15885079D02*
X14583467Y-15866031D01*
X14583467Y-15866031D02*
X14573944Y-15837460D01*
X14573944Y-15837460D02*
X14564420Y-15789841D01*
X14564420Y-15789841D02*
X14564420Y-15751746D01*
X14564420Y-15751746D02*
X14573944Y-15704127D01*
X14573944Y-15704127D02*
X14583467Y-15675555D01*
X14583467Y-15675555D02*
X14592991Y-15656508D01*
X14592991Y-15656508D02*
X14612039Y-15627936D01*
X14612039Y-15627936D02*
X14621563Y-15618412D01*
X14783467Y-15713650D02*
X14783467Y-15846984D01*
X14735848Y-15637460D02*
X14688229Y-15780317D01*
X14688229Y-15780317D02*
X14812039Y-15780317D01*
X15040610Y-15846984D02*
X15040610Y-15646984D01*
X15126325Y-15846984D02*
X15126325Y-15742222D01*
X15126325Y-15742222D02*
X15116801Y-15723174D01*
X15116801Y-15723174D02*
X15097753Y-15713650D01*
X15097753Y-15713650D02*
X15069182Y-15713650D01*
X15069182Y-15713650D02*
X15050134Y-15723174D01*
X15050134Y-15723174D02*
X15040610Y-15732698D01*
X15250134Y-15846984D02*
X15231087Y-15837460D01*
X15231087Y-15837460D02*
X15221563Y-15827936D01*
X15221563Y-15827936D02*
X15212039Y-15808888D01*
X15212039Y-15808888D02*
X15212039Y-15751746D01*
X15212039Y-15751746D02*
X15221563Y-15732698D01*
X15221563Y-15732698D02*
X15231087Y-15723174D01*
X15231087Y-15723174D02*
X15250134Y-15713650D01*
X15250134Y-15713650D02*
X15278706Y-15713650D01*
X15278706Y-15713650D02*
X15297753Y-15723174D01*
X15297753Y-15723174D02*
X15307277Y-15732698D01*
X15307277Y-15732698D02*
X15316801Y-15751746D01*
X15316801Y-15751746D02*
X15316801Y-15808888D01*
X15316801Y-15808888D02*
X15307277Y-15827936D01*
X15307277Y-15827936D02*
X15297753Y-15837460D01*
X15297753Y-15837460D02*
X15278706Y-15846984D01*
X15278706Y-15846984D02*
X15250134Y-15846984D01*
X15431087Y-15846984D02*
X15412039Y-15837460D01*
X15412039Y-15837460D02*
X15402515Y-15818412D01*
X15402515Y-15818412D02*
X15402515Y-15646984D01*
X15583468Y-15837460D02*
X15564420Y-15846984D01*
X15564420Y-15846984D02*
X15526325Y-15846984D01*
X15526325Y-15846984D02*
X15507277Y-15837460D01*
X15507277Y-15837460D02*
X15497753Y-15818412D01*
X15497753Y-15818412D02*
X15497753Y-15742222D01*
X15497753Y-15742222D02*
X15507277Y-15723174D01*
X15507277Y-15723174D02*
X15526325Y-15713650D01*
X15526325Y-15713650D02*
X15564420Y-15713650D01*
X15564420Y-15713650D02*
X15583468Y-15723174D01*
X15583468Y-15723174D02*
X15592991Y-15742222D01*
X15592991Y-15742222D02*
X15592991Y-15761269D01*
X15592991Y-15761269D02*
X15497753Y-15780317D01*
X15669182Y-15837460D02*
X15688229Y-15846984D01*
X15688229Y-15846984D02*
X15726325Y-15846984D01*
X15726325Y-15846984D02*
X15745372Y-15837460D01*
X15745372Y-15837460D02*
X15754896Y-15818412D01*
X15754896Y-15818412D02*
X15754896Y-15808888D01*
X15754896Y-15808888D02*
X15745372Y-15789841D01*
X15745372Y-15789841D02*
X15726325Y-15780317D01*
X15726325Y-15780317D02*
X15697753Y-15780317D01*
X15697753Y-15780317D02*
X15678706Y-15770793D01*
X15678706Y-15770793D02*
X15669182Y-15751746D01*
X15669182Y-15751746D02*
X15669182Y-15742222D01*
X15669182Y-15742222D02*
X15678706Y-15723174D01*
X15678706Y-15723174D02*
X15697753Y-15713650D01*
X15697753Y-15713650D02*
X15726325Y-15713650D01*
X15726325Y-15713650D02*
X15745372Y-15723174D01*
X15821563Y-15923174D02*
X15831087Y-15913650D01*
X15831087Y-15913650D02*
X15850134Y-15885079D01*
X15850134Y-15885079D02*
X15859658Y-15866031D01*
X15859658Y-15866031D02*
X15869182Y-15837460D01*
X15869182Y-15837460D02*
X15878706Y-15789841D01*
X15878706Y-15789841D02*
X15878706Y-15751746D01*
X15878706Y-15751746D02*
X15869182Y-15704127D01*
X15869182Y-15704127D02*
X15859658Y-15675555D01*
X15859658Y-15675555D02*
X15850134Y-15656508D01*
X15850134Y-15656508D02*
X15831087Y-15627936D01*
X15831087Y-15627936D02*
X15821563Y-15618412D01*
X16183468Y-15923174D02*
X16173944Y-15913650D01*
X16173944Y-15913650D02*
X16154896Y-15885079D01*
X16154896Y-15885079D02*
X16145372Y-15866031D01*
X16145372Y-15866031D02*
X16135849Y-15837460D01*
X16135849Y-15837460D02*
X16126325Y-15789841D01*
X16126325Y-15789841D02*
X16126325Y-15751746D01*
X16126325Y-15751746D02*
X16135849Y-15704127D01*
X16135849Y-15704127D02*
X16145372Y-15675555D01*
X16145372Y-15675555D02*
X16154896Y-15656508D01*
X16154896Y-15656508D02*
X16173944Y-15627936D01*
X16173944Y-15627936D02*
X16183468Y-15618412D01*
X16259658Y-15713650D02*
X16259658Y-15846984D01*
X16259658Y-15732698D02*
X16269182Y-15723174D01*
X16269182Y-15723174D02*
X16288229Y-15713650D01*
X16288229Y-15713650D02*
X16316801Y-15713650D01*
X16316801Y-15713650D02*
X16335849Y-15723174D01*
X16335849Y-15723174D02*
X16345372Y-15742222D01*
X16345372Y-15742222D02*
X16345372Y-15846984D01*
X16469182Y-15846984D02*
X16450134Y-15837460D01*
X16450134Y-15837460D02*
X16440610Y-15827936D01*
X16440610Y-15827936D02*
X16431087Y-15808888D01*
X16431087Y-15808888D02*
X16431087Y-15751746D01*
X16431087Y-15751746D02*
X16440610Y-15732698D01*
X16440610Y-15732698D02*
X16450134Y-15723174D01*
X16450134Y-15723174D02*
X16469182Y-15713650D01*
X16469182Y-15713650D02*
X16497753Y-15713650D01*
X16497753Y-15713650D02*
X16516801Y-15723174D01*
X16516801Y-15723174D02*
X16526325Y-15732698D01*
X16526325Y-15732698D02*
X16535849Y-15751746D01*
X16535849Y-15751746D02*
X16535849Y-15808888D01*
X16535849Y-15808888D02*
X16526325Y-15827936D01*
X16526325Y-15827936D02*
X16516801Y-15837460D01*
X16516801Y-15837460D02*
X16497753Y-15846984D01*
X16497753Y-15846984D02*
X16469182Y-15846984D01*
X16592991Y-15713650D02*
X16669182Y-15713650D01*
X16621563Y-15646984D02*
X16621563Y-15818412D01*
X16621563Y-15818412D02*
X16631087Y-15837460D01*
X16631087Y-15837460D02*
X16650134Y-15846984D01*
X16650134Y-15846984D02*
X16669182Y-15846984D01*
X16888230Y-15713650D02*
X16888230Y-15913650D01*
X16888230Y-15723174D02*
X16907277Y-15713650D01*
X16907277Y-15713650D02*
X16945373Y-15713650D01*
X16945373Y-15713650D02*
X16964420Y-15723174D01*
X16964420Y-15723174D02*
X16973944Y-15732698D01*
X16973944Y-15732698D02*
X16983468Y-15751746D01*
X16983468Y-15751746D02*
X16983468Y-15808888D01*
X16983468Y-15808888D02*
X16973944Y-15827936D01*
X16973944Y-15827936D02*
X16964420Y-15837460D01*
X16964420Y-15837460D02*
X16945373Y-15846984D01*
X16945373Y-15846984D02*
X16907277Y-15846984D01*
X16907277Y-15846984D02*
X16888230Y-15837460D01*
X17097753Y-15846984D02*
X17078706Y-15837460D01*
X17078706Y-15837460D02*
X17069182Y-15818412D01*
X17069182Y-15818412D02*
X17069182Y-15646984D01*
X17259658Y-15846984D02*
X17259658Y-15742222D01*
X17259658Y-15742222D02*
X17250134Y-15723174D01*
X17250134Y-15723174D02*
X17231087Y-15713650D01*
X17231087Y-15713650D02*
X17192992Y-15713650D01*
X17192992Y-15713650D02*
X17173944Y-15723174D01*
X17259658Y-15837460D02*
X17240611Y-15846984D01*
X17240611Y-15846984D02*
X17192992Y-15846984D01*
X17192992Y-15846984D02*
X17173944Y-15837460D01*
X17173944Y-15837460D02*
X17164420Y-15818412D01*
X17164420Y-15818412D02*
X17164420Y-15799365D01*
X17164420Y-15799365D02*
X17173944Y-15780317D01*
X17173944Y-15780317D02*
X17192992Y-15770793D01*
X17192992Y-15770793D02*
X17240611Y-15770793D01*
X17240611Y-15770793D02*
X17259658Y-15761269D01*
X17326325Y-15713650D02*
X17402515Y-15713650D01*
X17354896Y-15646984D02*
X17354896Y-15818412D01*
X17354896Y-15818412D02*
X17364420Y-15837460D01*
X17364420Y-15837460D02*
X17383468Y-15846984D01*
X17383468Y-15846984D02*
X17402515Y-15846984D01*
X17545373Y-15837460D02*
X17526325Y-15846984D01*
X17526325Y-15846984D02*
X17488230Y-15846984D01*
X17488230Y-15846984D02*
X17469182Y-15837460D01*
X17469182Y-15837460D02*
X17459658Y-15818412D01*
X17459658Y-15818412D02*
X17459658Y-15742222D01*
X17459658Y-15742222D02*
X17469182Y-15723174D01*
X17469182Y-15723174D02*
X17488230Y-15713650D01*
X17488230Y-15713650D02*
X17526325Y-15713650D01*
X17526325Y-15713650D02*
X17545373Y-15723174D01*
X17545373Y-15723174D02*
X17554896Y-15742222D01*
X17554896Y-15742222D02*
X17554896Y-15761269D01*
X17554896Y-15761269D02*
X17459658Y-15780317D01*
X17726325Y-15846984D02*
X17726325Y-15646984D01*
X17726325Y-15837460D02*
X17707277Y-15846984D01*
X17707277Y-15846984D02*
X17669182Y-15846984D01*
X17669182Y-15846984D02*
X17650134Y-15837460D01*
X17650134Y-15837460D02*
X17640611Y-15827936D01*
X17640611Y-15827936D02*
X17631087Y-15808888D01*
X17631087Y-15808888D02*
X17631087Y-15751746D01*
X17631087Y-15751746D02*
X17640611Y-15732698D01*
X17640611Y-15732698D02*
X17650134Y-15723174D01*
X17650134Y-15723174D02*
X17669182Y-15713650D01*
X17669182Y-15713650D02*
X17707277Y-15713650D01*
X17707277Y-15713650D02*
X17726325Y-15723174D01*
X17802515Y-15923174D02*
X17812039Y-15913650D01*
X17812039Y-15913650D02*
X17831087Y-15885079D01*
X17831087Y-15885079D02*
X17840611Y-15866031D01*
X17840611Y-15866031D02*
X17850134Y-15837460D01*
X17850134Y-15837460D02*
X17859658Y-15789841D01*
X17859658Y-15789841D02*
X17859658Y-15751746D01*
X17859658Y-15751746D02*
X17850134Y-15704127D01*
X17850134Y-15704127D02*
X17840611Y-15675555D01*
X17840611Y-15675555D02*
X17831087Y-15656508D01*
X17831087Y-15656508D02*
X17812039Y-15627936D01*
X17812039Y-15627936D02*
X17802515Y-15618412D01*
D12*
X11046500Y-16019500D02*
G75*
G02*
X10956500Y-16019500I-45000J0D01*
G01*
X10956500Y-16019500D02*
G75*
G02*
X11046500Y-16019500I45000J0D01*
G01*
D11*
X11345372Y-15910984D02*
X11364420Y-15910984D01*
X11364420Y-15910984D02*
X11383467Y-15920508D01*
X11383467Y-15920508D02*
X11392991Y-15930031D01*
X11392991Y-15930031D02*
X11402515Y-15949079D01*
X11402515Y-15949079D02*
X11412039Y-15987174D01*
X11412039Y-15987174D02*
X11412039Y-16034793D01*
X11412039Y-16034793D02*
X11402515Y-16072888D01*
X11402515Y-16072888D02*
X11392991Y-16091936D01*
X11392991Y-16091936D02*
X11383467Y-16101460D01*
X11383467Y-16101460D02*
X11364420Y-16110984D01*
X11364420Y-16110984D02*
X11345372Y-16110984D01*
X11345372Y-16110984D02*
X11326324Y-16101460D01*
X11326324Y-16101460D02*
X11316800Y-16091936D01*
X11316800Y-16091936D02*
X11307277Y-16072888D01*
X11307277Y-16072888D02*
X11297753Y-16034793D01*
X11297753Y-16034793D02*
X11297753Y-15987174D01*
X11297753Y-15987174D02*
X11307277Y-15949079D01*
X11307277Y-15949079D02*
X11316800Y-15930031D01*
X11316800Y-15930031D02*
X11326324Y-15920508D01*
X11326324Y-15920508D02*
X11345372Y-15910984D01*
X11497753Y-16091936D02*
X11507277Y-16101460D01*
X11507277Y-16101460D02*
X11497753Y-16110984D01*
X11497753Y-16110984D02*
X11488229Y-16101460D01*
X11488229Y-16101460D02*
X11497753Y-16091936D01*
X11497753Y-16091936D02*
X11497753Y-16110984D01*
X11602515Y-16110984D02*
X11640610Y-16110984D01*
X11640610Y-16110984D02*
X11659658Y-16101460D01*
X11659658Y-16101460D02*
X11669181Y-16091936D01*
X11669181Y-16091936D02*
X11688229Y-16063365D01*
X11688229Y-16063365D02*
X11697753Y-16025269D01*
X11697753Y-16025269D02*
X11697753Y-15949079D01*
X11697753Y-15949079D02*
X11688229Y-15930031D01*
X11688229Y-15930031D02*
X11678705Y-15920508D01*
X11678705Y-15920508D02*
X11659658Y-15910984D01*
X11659658Y-15910984D02*
X11621562Y-15910984D01*
X11621562Y-15910984D02*
X11602515Y-15920508D01*
X11602515Y-15920508D02*
X11592991Y-15930031D01*
X11592991Y-15930031D02*
X11583467Y-15949079D01*
X11583467Y-15949079D02*
X11583467Y-15996698D01*
X11583467Y-15996698D02*
X11592991Y-16015746D01*
X11592991Y-16015746D02*
X11602515Y-16025269D01*
X11602515Y-16025269D02*
X11621562Y-16034793D01*
X11621562Y-16034793D02*
X11659658Y-16034793D01*
X11659658Y-16034793D02*
X11678705Y-16025269D01*
X11678705Y-16025269D02*
X11688229Y-16015746D01*
X11688229Y-16015746D02*
X11697753Y-15996698D01*
X11821562Y-15910984D02*
X11840610Y-15910984D01*
X11840610Y-15910984D02*
X11859658Y-15920508D01*
X11859658Y-15920508D02*
X11869181Y-15930031D01*
X11869181Y-15930031D02*
X11878705Y-15949079D01*
X11878705Y-15949079D02*
X11888229Y-15987174D01*
X11888229Y-15987174D02*
X11888229Y-16034793D01*
X11888229Y-16034793D02*
X11878705Y-16072888D01*
X11878705Y-16072888D02*
X11869181Y-16091936D01*
X11869181Y-16091936D02*
X11859658Y-16101460D01*
X11859658Y-16101460D02*
X11840610Y-16110984D01*
X11840610Y-16110984D02*
X11821562Y-16110984D01*
X11821562Y-16110984D02*
X11802515Y-16101460D01*
X11802515Y-16101460D02*
X11792991Y-16091936D01*
X11792991Y-16091936D02*
X11783467Y-16072888D01*
X11783467Y-16072888D02*
X11773943Y-16034793D01*
X11773943Y-16034793D02*
X11773943Y-15987174D01*
X11773943Y-15987174D02*
X11783467Y-15949079D01*
X11783467Y-15949079D02*
X11792991Y-15930031D01*
X11792991Y-15930031D02*
X11802515Y-15920508D01*
X11802515Y-15920508D02*
X11821562Y-15910984D01*
X12012039Y-15910984D02*
X12031086Y-15910984D01*
X12031086Y-15910984D02*
X12050134Y-15920508D01*
X12050134Y-15920508D02*
X12059658Y-15930031D01*
X12059658Y-15930031D02*
X12069181Y-15949079D01*
X12069181Y-15949079D02*
X12078705Y-15987174D01*
X12078705Y-15987174D02*
X12078705Y-16034793D01*
X12078705Y-16034793D02*
X12069181Y-16072888D01*
X12069181Y-16072888D02*
X12059658Y-16091936D01*
X12059658Y-16091936D02*
X12050134Y-16101460D01*
X12050134Y-16101460D02*
X12031086Y-16110984D01*
X12031086Y-16110984D02*
X12012039Y-16110984D01*
X12012039Y-16110984D02*
X11992991Y-16101460D01*
X11992991Y-16101460D02*
X11983467Y-16091936D01*
X11983467Y-16091936D02*
X11973943Y-16072888D01*
X11973943Y-16072888D02*
X11964420Y-16034793D01*
X11964420Y-16034793D02*
X11964420Y-15987174D01*
X11964420Y-15987174D02*
X11973943Y-15949079D01*
X11973943Y-15949079D02*
X11983467Y-15930031D01*
X11983467Y-15930031D02*
X11992991Y-15920508D01*
X11992991Y-15920508D02*
X12012039Y-15910984D01*
X12164420Y-16110984D02*
X12164420Y-15977650D01*
X12164420Y-15996698D02*
X12173943Y-15987174D01*
X12173943Y-15987174D02*
X12192991Y-15977650D01*
X12192991Y-15977650D02*
X12221562Y-15977650D01*
X12221562Y-15977650D02*
X12240610Y-15987174D01*
X12240610Y-15987174D02*
X12250134Y-16006222D01*
X12250134Y-16006222D02*
X12250134Y-16110984D01*
X12250134Y-16006222D02*
X12259658Y-15987174D01*
X12259658Y-15987174D02*
X12278705Y-15977650D01*
X12278705Y-15977650D02*
X12307277Y-15977650D01*
X12307277Y-15977650D02*
X12326324Y-15987174D01*
X12326324Y-15987174D02*
X12335848Y-16006222D01*
X12335848Y-16006222D02*
X12335848Y-16110984D01*
X12431086Y-16110984D02*
X12431086Y-15977650D01*
X12431086Y-15996698D02*
X12440610Y-15987174D01*
X12440610Y-15987174D02*
X12459658Y-15977650D01*
X12459658Y-15977650D02*
X12488229Y-15977650D01*
X12488229Y-15977650D02*
X12507277Y-15987174D01*
X12507277Y-15987174D02*
X12516801Y-16006222D01*
X12516801Y-16006222D02*
X12516801Y-16110984D01*
X12516801Y-16006222D02*
X12526324Y-15987174D01*
X12526324Y-15987174D02*
X12545372Y-15977650D01*
X12545372Y-15977650D02*
X12573943Y-15977650D01*
X12573943Y-15977650D02*
X12592991Y-15987174D01*
X12592991Y-15987174D02*
X12602515Y-16006222D01*
X12602515Y-16006222D02*
X12602515Y-16110984D01*
X12992991Y-15901460D02*
X12821563Y-16158603D01*
X13250134Y-15910984D02*
X13269182Y-15910984D01*
X13269182Y-15910984D02*
X13288229Y-15920508D01*
X13288229Y-15920508D02*
X13297753Y-15930031D01*
X13297753Y-15930031D02*
X13307277Y-15949079D01*
X13307277Y-15949079D02*
X13316801Y-15987174D01*
X13316801Y-15987174D02*
X13316801Y-16034793D01*
X13316801Y-16034793D02*
X13307277Y-16072888D01*
X13307277Y-16072888D02*
X13297753Y-16091936D01*
X13297753Y-16091936D02*
X13288229Y-16101460D01*
X13288229Y-16101460D02*
X13269182Y-16110984D01*
X13269182Y-16110984D02*
X13250134Y-16110984D01*
X13250134Y-16110984D02*
X13231086Y-16101460D01*
X13231086Y-16101460D02*
X13221563Y-16091936D01*
X13221563Y-16091936D02*
X13212039Y-16072888D01*
X13212039Y-16072888D02*
X13202515Y-16034793D01*
X13202515Y-16034793D02*
X13202515Y-15987174D01*
X13202515Y-15987174D02*
X13212039Y-15949079D01*
X13212039Y-15949079D02*
X13221563Y-15930031D01*
X13221563Y-15930031D02*
X13231086Y-15920508D01*
X13231086Y-15920508D02*
X13250134Y-15910984D01*
X13402515Y-16091936D02*
X13412039Y-16101460D01*
X13412039Y-16101460D02*
X13402515Y-16110984D01*
X13402515Y-16110984D02*
X13392991Y-16101460D01*
X13392991Y-16101460D02*
X13402515Y-16091936D01*
X13402515Y-16091936D02*
X13402515Y-16110984D01*
X13535848Y-15910984D02*
X13554896Y-15910984D01*
X13554896Y-15910984D02*
X13573944Y-15920508D01*
X13573944Y-15920508D02*
X13583467Y-15930031D01*
X13583467Y-15930031D02*
X13592991Y-15949079D01*
X13592991Y-15949079D02*
X13602515Y-15987174D01*
X13602515Y-15987174D02*
X13602515Y-16034793D01*
X13602515Y-16034793D02*
X13592991Y-16072888D01*
X13592991Y-16072888D02*
X13583467Y-16091936D01*
X13583467Y-16091936D02*
X13573944Y-16101460D01*
X13573944Y-16101460D02*
X13554896Y-16110984D01*
X13554896Y-16110984D02*
X13535848Y-16110984D01*
X13535848Y-16110984D02*
X13516801Y-16101460D01*
X13516801Y-16101460D02*
X13507277Y-16091936D01*
X13507277Y-16091936D02*
X13497753Y-16072888D01*
X13497753Y-16072888D02*
X13488229Y-16034793D01*
X13488229Y-16034793D02*
X13488229Y-15987174D01*
X13488229Y-15987174D02*
X13497753Y-15949079D01*
X13497753Y-15949079D02*
X13507277Y-15930031D01*
X13507277Y-15930031D02*
X13516801Y-15920508D01*
X13516801Y-15920508D02*
X13535848Y-15910984D01*
X13669182Y-15910984D02*
X13792991Y-15910984D01*
X13792991Y-15910984D02*
X13726324Y-15987174D01*
X13726324Y-15987174D02*
X13754896Y-15987174D01*
X13754896Y-15987174D02*
X13773944Y-15996698D01*
X13773944Y-15996698D02*
X13783467Y-16006222D01*
X13783467Y-16006222D02*
X13792991Y-16025269D01*
X13792991Y-16025269D02*
X13792991Y-16072888D01*
X13792991Y-16072888D02*
X13783467Y-16091936D01*
X13783467Y-16091936D02*
X13773944Y-16101460D01*
X13773944Y-16101460D02*
X13754896Y-16110984D01*
X13754896Y-16110984D02*
X13697753Y-16110984D01*
X13697753Y-16110984D02*
X13678705Y-16101460D01*
X13678705Y-16101460D02*
X13669182Y-16091936D01*
X13973944Y-15910984D02*
X13878705Y-15910984D01*
X13878705Y-15910984D02*
X13869182Y-16006222D01*
X13869182Y-16006222D02*
X13878705Y-15996698D01*
X13878705Y-15996698D02*
X13897753Y-15987174D01*
X13897753Y-15987174D02*
X13945372Y-15987174D01*
X13945372Y-15987174D02*
X13964420Y-15996698D01*
X13964420Y-15996698D02*
X13973944Y-16006222D01*
X13973944Y-16006222D02*
X13983467Y-16025269D01*
X13983467Y-16025269D02*
X13983467Y-16072888D01*
X13983467Y-16072888D02*
X13973944Y-16091936D01*
X13973944Y-16091936D02*
X13964420Y-16101460D01*
X13964420Y-16101460D02*
X13945372Y-16110984D01*
X13945372Y-16110984D02*
X13897753Y-16110984D01*
X13897753Y-16110984D02*
X13878705Y-16101460D01*
X13878705Y-16101460D02*
X13869182Y-16091936D01*
X14154896Y-15977650D02*
X14154896Y-16110984D01*
X14107277Y-15901460D02*
X14059658Y-16044317D01*
X14059658Y-16044317D02*
X14183467Y-16044317D01*
X14250134Y-15910984D02*
X14250134Y-15949079D01*
X14326325Y-15910984D02*
X14326325Y-15949079D01*
X14621563Y-16187174D02*
X14612039Y-16177650D01*
X14612039Y-16177650D02*
X14592991Y-16149079D01*
X14592991Y-16149079D02*
X14583467Y-16130031D01*
X14583467Y-16130031D02*
X14573944Y-16101460D01*
X14573944Y-16101460D02*
X14564420Y-16053841D01*
X14564420Y-16053841D02*
X14564420Y-16015746D01*
X14564420Y-16015746D02*
X14573944Y-15968127D01*
X14573944Y-15968127D02*
X14583467Y-15939555D01*
X14583467Y-15939555D02*
X14592991Y-15920508D01*
X14592991Y-15920508D02*
X14612039Y-15891936D01*
X14612039Y-15891936D02*
X14621563Y-15882412D01*
X14726325Y-15996698D02*
X14707277Y-15987174D01*
X14707277Y-15987174D02*
X14697753Y-15977650D01*
X14697753Y-15977650D02*
X14688229Y-15958603D01*
X14688229Y-15958603D02*
X14688229Y-15949079D01*
X14688229Y-15949079D02*
X14697753Y-15930031D01*
X14697753Y-15930031D02*
X14707277Y-15920508D01*
X14707277Y-15920508D02*
X14726325Y-15910984D01*
X14726325Y-15910984D02*
X14764420Y-15910984D01*
X14764420Y-15910984D02*
X14783467Y-15920508D01*
X14783467Y-15920508D02*
X14792991Y-15930031D01*
X14792991Y-15930031D02*
X14802515Y-15949079D01*
X14802515Y-15949079D02*
X14802515Y-15958603D01*
X14802515Y-15958603D02*
X14792991Y-15977650D01*
X14792991Y-15977650D02*
X14783467Y-15987174D01*
X14783467Y-15987174D02*
X14764420Y-15996698D01*
X14764420Y-15996698D02*
X14726325Y-15996698D01*
X14726325Y-15996698D02*
X14707277Y-16006222D01*
X14707277Y-16006222D02*
X14697753Y-16015746D01*
X14697753Y-16015746D02*
X14688229Y-16034793D01*
X14688229Y-16034793D02*
X14688229Y-16072888D01*
X14688229Y-16072888D02*
X14697753Y-16091936D01*
X14697753Y-16091936D02*
X14707277Y-16101460D01*
X14707277Y-16101460D02*
X14726325Y-16110984D01*
X14726325Y-16110984D02*
X14764420Y-16110984D01*
X14764420Y-16110984D02*
X14783467Y-16101460D01*
X14783467Y-16101460D02*
X14792991Y-16091936D01*
X14792991Y-16091936D02*
X14802515Y-16072888D01*
X14802515Y-16072888D02*
X14802515Y-16034793D01*
X14802515Y-16034793D02*
X14792991Y-16015746D01*
X14792991Y-16015746D02*
X14783467Y-16006222D01*
X14783467Y-16006222D02*
X14764420Y-15996698D01*
X15040610Y-16110984D02*
X15040610Y-15910984D01*
X15126325Y-16110984D02*
X15126325Y-16006222D01*
X15126325Y-16006222D02*
X15116801Y-15987174D01*
X15116801Y-15987174D02*
X15097753Y-15977650D01*
X15097753Y-15977650D02*
X15069182Y-15977650D01*
X15069182Y-15977650D02*
X15050134Y-15987174D01*
X15050134Y-15987174D02*
X15040610Y-15996698D01*
X15250134Y-16110984D02*
X15231087Y-16101460D01*
X15231087Y-16101460D02*
X15221563Y-16091936D01*
X15221563Y-16091936D02*
X15212039Y-16072888D01*
X15212039Y-16072888D02*
X15212039Y-16015746D01*
X15212039Y-16015746D02*
X15221563Y-15996698D01*
X15221563Y-15996698D02*
X15231087Y-15987174D01*
X15231087Y-15987174D02*
X15250134Y-15977650D01*
X15250134Y-15977650D02*
X15278706Y-15977650D01*
X15278706Y-15977650D02*
X15297753Y-15987174D01*
X15297753Y-15987174D02*
X15307277Y-15996698D01*
X15307277Y-15996698D02*
X15316801Y-16015746D01*
X15316801Y-16015746D02*
X15316801Y-16072888D01*
X15316801Y-16072888D02*
X15307277Y-16091936D01*
X15307277Y-16091936D02*
X15297753Y-16101460D01*
X15297753Y-16101460D02*
X15278706Y-16110984D01*
X15278706Y-16110984D02*
X15250134Y-16110984D01*
X15431087Y-16110984D02*
X15412039Y-16101460D01*
X15412039Y-16101460D02*
X15402515Y-16082412D01*
X15402515Y-16082412D02*
X15402515Y-15910984D01*
X15583468Y-16101460D02*
X15564420Y-16110984D01*
X15564420Y-16110984D02*
X15526325Y-16110984D01*
X15526325Y-16110984D02*
X15507277Y-16101460D01*
X15507277Y-16101460D02*
X15497753Y-16082412D01*
X15497753Y-16082412D02*
X15497753Y-16006222D01*
X15497753Y-16006222D02*
X15507277Y-15987174D01*
X15507277Y-15987174D02*
X15526325Y-15977650D01*
X15526325Y-15977650D02*
X15564420Y-15977650D01*
X15564420Y-15977650D02*
X15583468Y-15987174D01*
X15583468Y-15987174D02*
X15592991Y-16006222D01*
X15592991Y-16006222D02*
X15592991Y-16025269D01*
X15592991Y-16025269D02*
X15497753Y-16044317D01*
X15669182Y-16101460D02*
X15688229Y-16110984D01*
X15688229Y-16110984D02*
X15726325Y-16110984D01*
X15726325Y-16110984D02*
X15745372Y-16101460D01*
X15745372Y-16101460D02*
X15754896Y-16082412D01*
X15754896Y-16082412D02*
X15754896Y-16072888D01*
X15754896Y-16072888D02*
X15745372Y-16053841D01*
X15745372Y-16053841D02*
X15726325Y-16044317D01*
X15726325Y-16044317D02*
X15697753Y-16044317D01*
X15697753Y-16044317D02*
X15678706Y-16034793D01*
X15678706Y-16034793D02*
X15669182Y-16015746D01*
X15669182Y-16015746D02*
X15669182Y-16006222D01*
X15669182Y-16006222D02*
X15678706Y-15987174D01*
X15678706Y-15987174D02*
X15697753Y-15977650D01*
X15697753Y-15977650D02*
X15726325Y-15977650D01*
X15726325Y-15977650D02*
X15745372Y-15987174D01*
X15821563Y-16187174D02*
X15831087Y-16177650D01*
X15831087Y-16177650D02*
X15850134Y-16149079D01*
X15850134Y-16149079D02*
X15859658Y-16130031D01*
X15859658Y-16130031D02*
X15869182Y-16101460D01*
X15869182Y-16101460D02*
X15878706Y-16053841D01*
X15878706Y-16053841D02*
X15878706Y-16015746D01*
X15878706Y-16015746D02*
X15869182Y-15968127D01*
X15869182Y-15968127D02*
X15859658Y-15939555D01*
X15859658Y-15939555D02*
X15850134Y-15920508D01*
X15850134Y-15920508D02*
X15831087Y-15891936D01*
X15831087Y-15891936D02*
X15821563Y-15882412D01*
X16183468Y-16187174D02*
X16173944Y-16177650D01*
X16173944Y-16177650D02*
X16154896Y-16149079D01*
X16154896Y-16149079D02*
X16145372Y-16130031D01*
X16145372Y-16130031D02*
X16135849Y-16101460D01*
X16135849Y-16101460D02*
X16126325Y-16053841D01*
X16126325Y-16053841D02*
X16126325Y-16015746D01*
X16126325Y-16015746D02*
X16135849Y-15968127D01*
X16135849Y-15968127D02*
X16145372Y-15939555D01*
X16145372Y-15939555D02*
X16154896Y-15920508D01*
X16154896Y-15920508D02*
X16173944Y-15891936D01*
X16173944Y-15891936D02*
X16183468Y-15882412D01*
X16259658Y-15977650D02*
X16259658Y-16110984D01*
X16259658Y-15996698D02*
X16269182Y-15987174D01*
X16269182Y-15987174D02*
X16288229Y-15977650D01*
X16288229Y-15977650D02*
X16316801Y-15977650D01*
X16316801Y-15977650D02*
X16335849Y-15987174D01*
X16335849Y-15987174D02*
X16345372Y-16006222D01*
X16345372Y-16006222D02*
X16345372Y-16110984D01*
X16469182Y-16110984D02*
X16450134Y-16101460D01*
X16450134Y-16101460D02*
X16440610Y-16091936D01*
X16440610Y-16091936D02*
X16431087Y-16072888D01*
X16431087Y-16072888D02*
X16431087Y-16015746D01*
X16431087Y-16015746D02*
X16440610Y-15996698D01*
X16440610Y-15996698D02*
X16450134Y-15987174D01*
X16450134Y-15987174D02*
X16469182Y-15977650D01*
X16469182Y-15977650D02*
X16497753Y-15977650D01*
X16497753Y-15977650D02*
X16516801Y-15987174D01*
X16516801Y-15987174D02*
X16526325Y-15996698D01*
X16526325Y-15996698D02*
X16535849Y-16015746D01*
X16535849Y-16015746D02*
X16535849Y-16072888D01*
X16535849Y-16072888D02*
X16526325Y-16091936D01*
X16526325Y-16091936D02*
X16516801Y-16101460D01*
X16516801Y-16101460D02*
X16497753Y-16110984D01*
X16497753Y-16110984D02*
X16469182Y-16110984D01*
X16592991Y-15977650D02*
X16669182Y-15977650D01*
X16621563Y-15910984D02*
X16621563Y-16082412D01*
X16621563Y-16082412D02*
X16631087Y-16101460D01*
X16631087Y-16101460D02*
X16650134Y-16110984D01*
X16650134Y-16110984D02*
X16669182Y-16110984D01*
X16888230Y-15977650D02*
X16888230Y-16177650D01*
X16888230Y-15987174D02*
X16907277Y-15977650D01*
X16907277Y-15977650D02*
X16945373Y-15977650D01*
X16945373Y-15977650D02*
X16964420Y-15987174D01*
X16964420Y-15987174D02*
X16973944Y-15996698D01*
X16973944Y-15996698D02*
X16983468Y-16015746D01*
X16983468Y-16015746D02*
X16983468Y-16072888D01*
X16983468Y-16072888D02*
X16973944Y-16091936D01*
X16973944Y-16091936D02*
X16964420Y-16101460D01*
X16964420Y-16101460D02*
X16945373Y-16110984D01*
X16945373Y-16110984D02*
X16907277Y-16110984D01*
X16907277Y-16110984D02*
X16888230Y-16101460D01*
X17097753Y-16110984D02*
X17078706Y-16101460D01*
X17078706Y-16101460D02*
X17069182Y-16082412D01*
X17069182Y-16082412D02*
X17069182Y-15910984D01*
X17259658Y-16110984D02*
X17259658Y-16006222D01*
X17259658Y-16006222D02*
X17250134Y-15987174D01*
X17250134Y-15987174D02*
X17231087Y-15977650D01*
X17231087Y-15977650D02*
X17192992Y-15977650D01*
X17192992Y-15977650D02*
X17173944Y-15987174D01*
X17259658Y-16101460D02*
X17240611Y-16110984D01*
X17240611Y-16110984D02*
X17192992Y-16110984D01*
X17192992Y-16110984D02*
X17173944Y-16101460D01*
X17173944Y-16101460D02*
X17164420Y-16082412D01*
X17164420Y-16082412D02*
X17164420Y-16063365D01*
X17164420Y-16063365D02*
X17173944Y-16044317D01*
X17173944Y-16044317D02*
X17192992Y-16034793D01*
X17192992Y-16034793D02*
X17240611Y-16034793D01*
X17240611Y-16034793D02*
X17259658Y-16025269D01*
X17326325Y-15977650D02*
X17402515Y-15977650D01*
X17354896Y-15910984D02*
X17354896Y-16082412D01*
X17354896Y-16082412D02*
X17364420Y-16101460D01*
X17364420Y-16101460D02*
X17383468Y-16110984D01*
X17383468Y-16110984D02*
X17402515Y-16110984D01*
X17545373Y-16101460D02*
X17526325Y-16110984D01*
X17526325Y-16110984D02*
X17488230Y-16110984D01*
X17488230Y-16110984D02*
X17469182Y-16101460D01*
X17469182Y-16101460D02*
X17459658Y-16082412D01*
X17459658Y-16082412D02*
X17459658Y-16006222D01*
X17459658Y-16006222D02*
X17469182Y-15987174D01*
X17469182Y-15987174D02*
X17488230Y-15977650D01*
X17488230Y-15977650D02*
X17526325Y-15977650D01*
X17526325Y-15977650D02*
X17545373Y-15987174D01*
X17545373Y-15987174D02*
X17554896Y-16006222D01*
X17554896Y-16006222D02*
X17554896Y-16025269D01*
X17554896Y-16025269D02*
X17459658Y-16044317D01*
X17726325Y-16110984D02*
X17726325Y-15910984D01*
X17726325Y-16101460D02*
X17707277Y-16110984D01*
X17707277Y-16110984D02*
X17669182Y-16110984D01*
X17669182Y-16110984D02*
X17650134Y-16101460D01*
X17650134Y-16101460D02*
X17640611Y-16091936D01*
X17640611Y-16091936D02*
X17631087Y-16072888D01*
X17631087Y-16072888D02*
X17631087Y-16015746D01*
X17631087Y-16015746D02*
X17640611Y-15996698D01*
X17640611Y-15996698D02*
X17650134Y-15987174D01*
X17650134Y-15987174D02*
X17669182Y-15977650D01*
X17669182Y-15977650D02*
X17707277Y-15977650D01*
X17707277Y-15977650D02*
X17726325Y-15987174D01*
X17802515Y-16187174D02*
X17812039Y-16177650D01*
X17812039Y-16177650D02*
X17831087Y-16149079D01*
X17831087Y-16149079D02*
X17840611Y-16130031D01*
X17840611Y-16130031D02*
X17850134Y-16101460D01*
X17850134Y-16101460D02*
X17859658Y-16053841D01*
X17859658Y-16053841D02*
X17859658Y-16015746D01*
X17859658Y-16015746D02*
X17850134Y-15968127D01*
X17850134Y-15968127D02*
X17840611Y-15939555D01*
X17840611Y-15939555D02*
X17831087Y-15920508D01*
X17831087Y-15920508D02*
X17812039Y-15891936D01*
X17812039Y-15891936D02*
X17802515Y-15882412D01*
M02*
