G04 #@! TF.GenerationSoftware,KiCad,Pcbnew,8.0.9-8.0.9-0~ubuntu22.04.1*
G04 #@! TF.CreationDate,2025-02-22T00:09:10+01:00*
G04 #@! TF.ProjectId,rp2350b-launchpad-PCB,72703233-3530-4622-9d6c-61756e636870,rev?*
G04 #@! TF.SameCoordinates,Original*
G04 #@! TF.FileFunction,Soldermask,Top*
G04 #@! TF.FilePolarity,Negative*
%FSLAX46Y46*%
G04 Gerber Fmt 4.6, Leading zero omitted, Abs format (unit mm)*
G04 Created by KiCad (PCBNEW 8.0.9-8.0.9-0~ubuntu22.04.1) date 2025-02-22 00:09:10*
%MOMM*%
%LPD*%
G01*
G04 APERTURE LIST*
G04 Aperture macros list*
%AMRoundRect*
0 Rectangle with rounded corners*
0 $1 Rounding radius*
0 $2 $3 $4 $5 $6 $7 $8 $9 X,Y pos of 4 corners*
0 Add a 4 corners polygon primitive as box body*
4,1,4,$2,$3,$4,$5,$6,$7,$8,$9,$2,$3,0*
0 Add four circle primitives for the rounded corners*
1,1,$1+$1,$2,$3*
1,1,$1+$1,$4,$5*
1,1,$1+$1,$6,$7*
1,1,$1+$1,$8,$9*
0 Add four rect primitives between the rounded corners*
20,1,$1+$1,$2,$3,$4,$5,0*
20,1,$1+$1,$4,$5,$6,$7,0*
20,1,$1+$1,$6,$7,$8,$9,0*
20,1,$1+$1,$8,$9,$2,$3,0*%
%AMFreePoly0*
4,1,19,0.500000,-0.750000,0.000000,-0.750000,0.000000,-0.744911,-0.071157,-0.744911,-0.207708,-0.704816,-0.327430,-0.627875,-0.420627,-0.520320,-0.479746,-0.390866,-0.500000,-0.250000,-0.500000,0.250000,-0.479746,0.390866,-0.420627,0.520320,-0.327430,0.627875,-0.207708,0.704816,-0.071157,0.744911,0.000000,0.744911,0.000000,0.750000,0.500000,0.750000,0.500000,-0.750000,0.500000,-0.750000,
$1*%
%AMFreePoly1*
4,1,19,0.000000,0.744911,0.071157,0.744911,0.207708,0.704816,0.327430,0.627875,0.420627,0.520320,0.479746,0.390866,0.500000,0.250000,0.500000,-0.250000,0.479746,-0.390866,0.420627,-0.520320,0.327430,-0.627875,0.207708,-0.704816,0.071157,-0.744911,0.000000,-0.744911,0.000000,-0.750000,-0.500000,-0.750000,-0.500000,0.750000,0.000000,0.750000,0.000000,0.744911,0.000000,0.744911,
$1*%
G04 Aperture macros list end*
%ADD10RoundRect,0.140000X0.140000X0.170000X-0.140000X0.170000X-0.140000X-0.170000X0.140000X-0.170000X0*%
%ADD11RoundRect,0.250000X0.475000X-0.250000X0.475000X0.250000X-0.475000X0.250000X-0.475000X-0.250000X0*%
%ADD12RoundRect,0.225000X0.250000X-0.225000X0.250000X0.225000X-0.250000X0.225000X-0.250000X-0.225000X0*%
%ADD13RoundRect,0.225000X-0.250000X0.225000X-0.250000X-0.225000X0.250000X-0.225000X0.250000X0.225000X0*%
%ADD14RoundRect,0.225000X0.225000X0.250000X-0.225000X0.250000X-0.225000X-0.250000X0.225000X-0.250000X0*%
%ADD15RoundRect,0.218750X0.218750X0.256250X-0.218750X0.256250X-0.218750X-0.256250X0.218750X-0.256250X0*%
%ADD16RoundRect,0.218750X-0.218750X-0.256250X0.218750X-0.256250X0.218750X0.256250X-0.218750X0.256250X0*%
%ADD17R,1.700000X1.700000*%
%ADD18O,1.700000X1.700000*%
%ADD19FreePoly0,270.000000*%
%ADD20FreePoly1,270.000000*%
%ADD21R,1.000000X1.600000*%
%ADD22RoundRect,0.135000X-0.135000X-0.185000X0.135000X-0.185000X0.135000X0.185000X-0.135000X0.185000X0*%
%ADD23RoundRect,0.200000X0.200000X0.275000X-0.200000X0.275000X-0.200000X-0.275000X0.200000X-0.275000X0*%
%ADD24RoundRect,0.200000X-0.200000X-0.275000X0.200000X-0.275000X0.200000X0.275000X-0.200000X0.275000X0*%
%ADD25RoundRect,0.200000X-0.275000X0.200000X-0.275000X-0.200000X0.275000X-0.200000X0.275000X0.200000X0*%
%ADD26RoundRect,0.200000X0.275000X-0.200000X0.275000X0.200000X-0.275000X0.200000X-0.275000X-0.200000X0*%
%ADD27C,0.900000*%
%ADD28R,0.900000X1.300000*%
%ADD29R,1.450000X1.000000*%
%ADD30RoundRect,0.150000X0.512500X0.150000X-0.512500X0.150000X-0.512500X-0.150000X0.512500X-0.150000X0*%
%ADD31R,1.400000X1.200000*%
%ADD32RoundRect,0.125000X-0.250000X-0.125000X0.250000X-0.125000X0.250000X0.125000X-0.250000X0.125000X0*%
%ADD33R,3.400000X4.300000*%
%ADD34RoundRect,0.050000X-0.387500X-0.050000X0.387500X-0.050000X0.387500X0.050000X-0.387500X0.050000X0*%
%ADD35RoundRect,0.050000X-0.050000X-0.387500X0.050000X-0.387500X0.050000X0.387500X-0.050000X0.387500X0*%
%ADD36R,3.200000X3.200000*%
%ADD37RoundRect,0.225000X-0.225000X-0.250000X0.225000X-0.250000X0.225000X0.250000X-0.225000X0.250000X0*%
%ADD38RoundRect,0.150000X-0.512500X-0.150000X0.512500X-0.150000X0.512500X0.150000X-0.512500X0.150000X0*%
%ADD39C,2.000000*%
%ADD40R,0.700000X0.700000*%
%ADD41R,1.000000X0.900000*%
%ADD42R,1.500000X0.700000*%
%ADD43R,0.800000X1.000000*%
%ADD44RoundRect,0.140000X-0.140000X-0.170000X0.140000X-0.170000X0.140000X0.170000X-0.140000X0.170000X0*%
%ADD45RoundRect,0.062500X-0.062500X0.387500X-0.062500X-0.387500X0.062500X-0.387500X0.062500X0.387500X0*%
%ADD46R,1.600000X0.200000*%
%ADD47RoundRect,0.135000X-0.185000X0.135000X-0.185000X-0.135000X0.185000X-0.135000X0.185000X0.135000X0*%
%ADD48RoundRect,0.140000X0.170000X-0.140000X0.170000X0.140000X-0.170000X0.140000X-0.170000X-0.140000X0*%
%ADD49RoundRect,0.140000X-0.170000X0.140000X-0.170000X-0.140000X0.170000X-0.140000X0.170000X0.140000X0*%
%ADD50R,0.600000X1.150000*%
%ADD51R,0.300000X1.150000*%
%ADD52O,1.000000X1.800000*%
%ADD53O,1.000000X2.200000*%
%ADD54R,1.300000X0.900000*%
%ADD55R,1.000000X1.450000*%
%ADD56RoundRect,0.135000X0.135000X0.185000X-0.135000X0.185000X-0.135000X-0.185000X0.135000X-0.185000X0*%
%ADD57RoundRect,0.218750X-0.256250X0.218750X-0.256250X-0.218750X0.256250X-0.218750X0.256250X0.218750X0*%
%ADD58RoundRect,0.125000X-0.125000X0.250000X-0.125000X-0.250000X0.125000X-0.250000X0.125000X0.250000X0*%
%ADD59R,4.300000X3.400000*%
%ADD60R,1.200000X1.400000*%
%ADD61RoundRect,0.050000X0.350000X0.050000X-0.350000X0.050000X-0.350000X-0.050000X0.350000X-0.050000X0*%
%ADD62RoundRect,0.050000X0.050000X0.350000X-0.050000X0.350000X-0.050000X-0.350000X0.050000X-0.350000X0*%
%ADD63R,3.400000X3.400000*%
%ADD64C,1.524000*%
G04 APERTURE END LIST*
D10*
X149729000Y-134493000D03*
X148769000Y-134493000D03*
D11*
X118364000Y-79436000D03*
X118364000Y-77536000D03*
X124714000Y-83959500D03*
X124714000Y-82059500D03*
X118364000Y-90787500D03*
X118364000Y-88887500D03*
X124714000Y-90787500D03*
X124714000Y-88887500D03*
D12*
X145415000Y-91224500D03*
X145415000Y-89674500D03*
X151384000Y-91224500D03*
X151384000Y-89674500D03*
D13*
X157480000Y-89674500D03*
X157480000Y-91224500D03*
D12*
X145288000Y-73952500D03*
X145288000Y-72402500D03*
X154432000Y-73952500D03*
X154432000Y-72402500D03*
X155956000Y-73952500D03*
X155956000Y-72402500D03*
D14*
X136639500Y-80264000D03*
X135089500Y-80264000D03*
D13*
X154432000Y-89674500D03*
X154432000Y-91224500D03*
D12*
X157480000Y-73952500D03*
X157480000Y-72402500D03*
D15*
X128778000Y-77724000D03*
X127203000Y-77724000D03*
D16*
X135077000Y-90424000D03*
X136652000Y-90424000D03*
X135077000Y-84328000D03*
X136652000Y-84328000D03*
X135077000Y-86360000D03*
X136652000Y-86360000D03*
X135077000Y-88392000D03*
X136652000Y-88392000D03*
D17*
X116840000Y-106680000D03*
D18*
X119380000Y-106680000D03*
X116840000Y-109220000D03*
X119380000Y-109220000D03*
X116840000Y-111760000D03*
X119380000Y-111760000D03*
X116840000Y-114300000D03*
X119380000Y-114300000D03*
X116840000Y-116840000D03*
X119380000Y-116840000D03*
X116840000Y-119380000D03*
X119380000Y-119380000D03*
X116840000Y-121920000D03*
X119380000Y-121920000D03*
X116840000Y-124460000D03*
X119380000Y-124460000D03*
X116840000Y-127000000D03*
X119380000Y-127000000D03*
X116840000Y-129540000D03*
X119380000Y-129540000D03*
D17*
X116840000Y-134620000D03*
D18*
X116840000Y-137160000D03*
X116840000Y-139700000D03*
D17*
X139700000Y-149860000D03*
D18*
X139700000Y-147320000D03*
X142240000Y-149860000D03*
X142240000Y-147320000D03*
X144780000Y-149860000D03*
X144780000Y-147320000D03*
X147320000Y-149860000D03*
X147320000Y-147320000D03*
X149860000Y-149860000D03*
X149860000Y-147320000D03*
X152400000Y-149860000D03*
X152400000Y-147320000D03*
X154940000Y-149860000D03*
X154940000Y-147320000D03*
X157480000Y-149860000D03*
X157480000Y-147320000D03*
X160020000Y-149860000D03*
X160020000Y-147320000D03*
X162560000Y-149860000D03*
X162560000Y-147320000D03*
D17*
X160020000Y-106680000D03*
D18*
X162560000Y-106680000D03*
X160020000Y-109220000D03*
X162560000Y-109220000D03*
X160020000Y-111760000D03*
X162560000Y-111760000D03*
X160020000Y-114300000D03*
X162560000Y-114300000D03*
X160020000Y-116840000D03*
X162560000Y-116840000D03*
X160020000Y-119380000D03*
X162560000Y-119380000D03*
X160020000Y-121920000D03*
X162560000Y-121920000D03*
X160020000Y-124460000D03*
X162560000Y-124460000D03*
X160020000Y-127000000D03*
X162560000Y-127000000D03*
X160020000Y-129540000D03*
X162560000Y-129540000D03*
D17*
X162560000Y-134620000D03*
D18*
X162560000Y-137160000D03*
X162560000Y-139700000D03*
D19*
X124841000Y-77821000D03*
D20*
X124841000Y-79121000D03*
D17*
X135382000Y-73533000D03*
D18*
X135382000Y-76073000D03*
D17*
X165100000Y-91440000D03*
D18*
X162560000Y-91440000D03*
X165100000Y-88900000D03*
X162560000Y-88900000D03*
X165100000Y-86360000D03*
X162560000Y-86360000D03*
X165100000Y-83820000D03*
X162560000Y-83820000D03*
X165100000Y-81280000D03*
X162560000Y-81280000D03*
X165100000Y-78740000D03*
X162560000Y-78740000D03*
X165100000Y-76200000D03*
X162560000Y-76200000D03*
X165100000Y-73660000D03*
X162560000Y-73660000D03*
D21*
X122480000Y-86106000D03*
X120480000Y-86106000D03*
D22*
X151916000Y-127889000D03*
X152936000Y-127889000D03*
X150366000Y-125349000D03*
X151386000Y-125349000D03*
D23*
X128815500Y-79375000D03*
X127165500Y-79375000D03*
D24*
X127165500Y-84328000D03*
X128815500Y-84328000D03*
D23*
X128815500Y-86360000D03*
X127165500Y-86360000D03*
X140042500Y-90424000D03*
X138392500Y-90424000D03*
D25*
X132715000Y-72352500D03*
X132715000Y-74002500D03*
D26*
X151384000Y-74002500D03*
X151384000Y-72352500D03*
X149860000Y-74002500D03*
X149860000Y-72352500D03*
X152908000Y-91274500D03*
X152908000Y-89624500D03*
D23*
X140042500Y-72390000D03*
X138392500Y-72390000D03*
X140042500Y-86360000D03*
X138392500Y-86360000D03*
X140042500Y-88392000D03*
X138392500Y-88392000D03*
D27*
X131572000Y-148844000D03*
X133872000Y-148844000D03*
D28*
X134822000Y-147594000D03*
X130622000Y-147594000D03*
D29*
X129347000Y-149394000D03*
X136097000Y-149394000D03*
D30*
X122633500Y-83947000D03*
X122633500Y-82997000D03*
X122633500Y-82047000D03*
X120358500Y-82047000D03*
X120358500Y-83947000D03*
D31*
X147279000Y-91248500D03*
X149479000Y-91248500D03*
X149479000Y-89648500D03*
X147279000Y-89648500D03*
D32*
X138270000Y-74041000D03*
X138270000Y-75311000D03*
X138270000Y-76581000D03*
X138270000Y-77851000D03*
X143670000Y-77851000D03*
X143670000Y-76581000D03*
X143670000Y-75311000D03*
X143670000Y-74041000D03*
D33*
X140970000Y-75946000D03*
D17*
X139573000Y-81534000D03*
D18*
X142113000Y-81534000D03*
D34*
X148200500Y-79950000D03*
X148200500Y-80350000D03*
X148200500Y-80750000D03*
X148200500Y-81150000D03*
X148200500Y-81550000D03*
X148200500Y-81950000D03*
X148200500Y-82350000D03*
X148200500Y-82750000D03*
X148200500Y-83150000D03*
X148200500Y-83550000D03*
X148200500Y-83950000D03*
X148200500Y-84350000D03*
X148200500Y-84750000D03*
X148200500Y-85150000D03*
D35*
X149038000Y-85987500D03*
X149438000Y-85987500D03*
X149838000Y-85987500D03*
X150238000Y-85987500D03*
X150638000Y-85987500D03*
X151038000Y-85987500D03*
X151438000Y-85987500D03*
X151838000Y-85987500D03*
X152238000Y-85987500D03*
X152638000Y-85987500D03*
X153038000Y-85987500D03*
X153438000Y-85987500D03*
X153838000Y-85987500D03*
X154238000Y-85987500D03*
D34*
X155075500Y-85150000D03*
X155075500Y-84750000D03*
X155075500Y-84350000D03*
X155075500Y-83950000D03*
X155075500Y-83550000D03*
X155075500Y-83150000D03*
X155075500Y-82750000D03*
X155075500Y-82350000D03*
X155075500Y-81950000D03*
X155075500Y-81550000D03*
X155075500Y-81150000D03*
X155075500Y-80750000D03*
X155075500Y-80350000D03*
X155075500Y-79950000D03*
D35*
X154238000Y-79112500D03*
X153838000Y-79112500D03*
X153438000Y-79112500D03*
X153038000Y-79112500D03*
X152638000Y-79112500D03*
X152238000Y-79112500D03*
X151838000Y-79112500D03*
X151438000Y-79112500D03*
X151038000Y-79112500D03*
X150638000Y-79112500D03*
X150238000Y-79112500D03*
X149838000Y-79112500D03*
X149438000Y-79112500D03*
X149038000Y-79112500D03*
D36*
X151638000Y-82550000D03*
D12*
X152908000Y-73952500D03*
X152908000Y-72402500D03*
X148336000Y-73952500D03*
X148336000Y-72402500D03*
X146812000Y-73952500D03*
X146812000Y-72402500D03*
D13*
X155956000Y-89674500D03*
X155956000Y-91224500D03*
D14*
X136639500Y-81788000D03*
X135089500Y-81788000D03*
D17*
X124460000Y-96520000D03*
D18*
X124460000Y-93980000D03*
X127000000Y-96520000D03*
X127000000Y-93980000D03*
X129540000Y-96520000D03*
X129540000Y-93980000D03*
X132080000Y-96520000D03*
X132080000Y-93980000D03*
X134620000Y-96520000D03*
X134620000Y-93980000D03*
X137160000Y-96520000D03*
X137160000Y-93980000D03*
X139700000Y-96520000D03*
X139700000Y-93980000D03*
X142240000Y-96520000D03*
X142240000Y-93980000D03*
D37*
X141947500Y-72390000D03*
X143497500Y-72390000D03*
D38*
X120358500Y-88900000D03*
X120358500Y-89850000D03*
X120358500Y-90800000D03*
X122633500Y-90800000D03*
X122633500Y-88900000D03*
D30*
X122633500Y-79370000D03*
X122633500Y-78420000D03*
X122633500Y-77470000D03*
X120358500Y-77470000D03*
X120358500Y-79370000D03*
D26*
X116459000Y-79311000D03*
X116459000Y-77661000D03*
D39*
X116078000Y-149606000D03*
D40*
X142790000Y-138526000D03*
X141690000Y-138526000D03*
X141690000Y-140356000D03*
X142790000Y-140356000D03*
X145330000Y-138526000D03*
X144230000Y-138526000D03*
X144230000Y-140356000D03*
X145330000Y-140356000D03*
X147870000Y-138526000D03*
X146770000Y-138526000D03*
X146770000Y-140356000D03*
X147870000Y-140356000D03*
X150410000Y-138526000D03*
X149310000Y-138526000D03*
X149310000Y-140356000D03*
X150410000Y-140356000D03*
X152950000Y-138526000D03*
X151850000Y-138526000D03*
X151850000Y-140356000D03*
X152950000Y-140356000D03*
X155490000Y-138526000D03*
X154390000Y-138526000D03*
X154390000Y-140356000D03*
X155490000Y-140356000D03*
X158030000Y-138526000D03*
X156930000Y-138526000D03*
X156930000Y-140356000D03*
X158030000Y-140356000D03*
X140250000Y-138526000D03*
X139150000Y-138526000D03*
X139150000Y-140356000D03*
X140250000Y-140356000D03*
D41*
X153224000Y-129141000D03*
X153224000Y-133241000D03*
X151624000Y-129141000D03*
X151624000Y-133241000D03*
D39*
X163322000Y-68834000D03*
D11*
X118364000Y-83959500D03*
X118364000Y-82059500D03*
D27*
X112649000Y-81066000D03*
X112649000Y-86066000D03*
D42*
X114399000Y-80566000D03*
X114399000Y-82066000D03*
X114399000Y-85066000D03*
X114399000Y-86566000D03*
D43*
X113599000Y-78416000D03*
X111649000Y-78416000D03*
X113599000Y-88716000D03*
X111649000Y-88716000D03*
D37*
X134861000Y-125349000D03*
X136411000Y-125349000D03*
D44*
X150650000Y-134493000D03*
X151610000Y-134493000D03*
X150368000Y-119888000D03*
X151328000Y-119888000D03*
D25*
X166751000Y-141796000D03*
X166751000Y-143446000D03*
X116459000Y-74549000D03*
X116459000Y-76199000D03*
X116459000Y-144780000D03*
X116459000Y-146430000D03*
D24*
X131890000Y-143510000D03*
X133540000Y-143510000D03*
D10*
X128976000Y-113919000D03*
X128016000Y-113919000D03*
D45*
X144399000Y-129032000D03*
X143899000Y-129032000D03*
X143399000Y-129032000D03*
X142899000Y-129032000D03*
X142899000Y-131882000D03*
X143399000Y-131882000D03*
X143899000Y-131882000D03*
X144399000Y-131882000D03*
D46*
X143649000Y-130457000D03*
D10*
X128976000Y-121793000D03*
X128016000Y-121793000D03*
D37*
X134861000Y-126873000D03*
X136411000Y-126873000D03*
D22*
X150366000Y-109601000D03*
X151386000Y-109601000D03*
D47*
X138303000Y-126615000D03*
X138303000Y-127635000D03*
D21*
X136652000Y-128778000D03*
X134652000Y-128778000D03*
D25*
X114935000Y-74550000D03*
X114935000Y-76200000D03*
D23*
X140017000Y-84328000D03*
X138367000Y-84328000D03*
D48*
X136398000Y-108049000D03*
X136398000Y-107089000D03*
D44*
X150368000Y-117221000D03*
X151328000Y-117221000D03*
D49*
X137414000Y-105085000D03*
X137414000Y-106045000D03*
X140335000Y-128707000D03*
X140335000Y-129667000D03*
D50*
X119355000Y-144780000D03*
X120155000Y-144780000D03*
D51*
X120805000Y-144780000D03*
X121305000Y-144780000D03*
X121805000Y-144780000D03*
X122305000Y-144780000D03*
X122805000Y-144780000D03*
X123305000Y-144780000D03*
X123805000Y-144780000D03*
X124305000Y-144780000D03*
D50*
X124955000Y-144780000D03*
X125755000Y-144780000D03*
D52*
X118235000Y-145355000D03*
D53*
X118235000Y-149355000D03*
D52*
X126875000Y-145355000D03*
D53*
X126875000Y-149355000D03*
D22*
X162812000Y-96520000D03*
X163832000Y-96520000D03*
D24*
X123762000Y-139954000D03*
X125412000Y-139954000D03*
D47*
X137414000Y-107087000D03*
X137414000Y-108107000D03*
D10*
X129004000Y-116967000D03*
X128044000Y-116967000D03*
D22*
X150368000Y-114935000D03*
X151388000Y-114935000D03*
D17*
X124460000Y-134620000D03*
D18*
X124460000Y-137160000D03*
D47*
X139319000Y-126617000D03*
X139319000Y-127637000D03*
D44*
X150368000Y-108458000D03*
X151328000Y-108458000D03*
D10*
X129000000Y-125349000D03*
X128040000Y-125349000D03*
D17*
X115570000Y-93980000D03*
D18*
X118110000Y-93980000D03*
D26*
X128651000Y-146430000D03*
X128651000Y-144780000D03*
D22*
X150366000Y-118745000D03*
X151386000Y-118745000D03*
D27*
X112776000Y-98679000D03*
X112776000Y-100979000D03*
D54*
X114026000Y-101929000D03*
X114026000Y-97729000D03*
D55*
X112226000Y-96454000D03*
X112226000Y-103204000D03*
D49*
X141986000Y-105085000D03*
X141986000Y-106045000D03*
D26*
X128740000Y-74030000D03*
X128740000Y-72380000D03*
D56*
X129032000Y-124333000D03*
X128012000Y-124333000D03*
D27*
X166590000Y-101030000D03*
X166590000Y-98730000D03*
D54*
X165340000Y-97780000D03*
X165340000Y-101980000D03*
D55*
X167140000Y-103255000D03*
X167140000Y-96505000D03*
D57*
X127508000Y-138430000D03*
X127508000Y-140005000D03*
D10*
X129004000Y-117983000D03*
X128044000Y-117983000D03*
D48*
X141986000Y-108077000D03*
X141986000Y-107117000D03*
D58*
X149674000Y-127895000D03*
X148404000Y-127895000D03*
X147134000Y-127895000D03*
X145864000Y-127895000D03*
X145864000Y-133295000D03*
X147134000Y-133295000D03*
X148404000Y-133295000D03*
X149674000Y-133295000D03*
D59*
X147769000Y-130595000D03*
D44*
X150368000Y-113919000D03*
X151328000Y-113919000D03*
D56*
X116590000Y-96520000D03*
X115570000Y-96520000D03*
D44*
X150396000Y-124333000D03*
X151356000Y-124333000D03*
D50*
X125757000Y-73589000D03*
X124957000Y-73589000D03*
D51*
X124307000Y-73589000D03*
X123807000Y-73589000D03*
X123307000Y-73589000D03*
X122807000Y-73589000D03*
X122307000Y-73589000D03*
X121807000Y-73589000D03*
X121307000Y-73589000D03*
X120807000Y-73589000D03*
D50*
X120157000Y-73589000D03*
X119357000Y-73589000D03*
D52*
X126877000Y-73014000D03*
D53*
X126877000Y-69014000D03*
D52*
X118237000Y-73014000D03*
D53*
X118237000Y-69014000D03*
D56*
X148338000Y-125349000D03*
X147318000Y-125349000D03*
D60*
X140500000Y-107681000D03*
X140500000Y-105481000D03*
X138900000Y-105481000D03*
X138900000Y-107681000D03*
D10*
X129004000Y-122809000D03*
X128044000Y-122809000D03*
D61*
X144650000Y-121910000D03*
X144650000Y-121510000D03*
X144650000Y-121110000D03*
X144650000Y-120710000D03*
X144650000Y-120310000D03*
X144650000Y-119910000D03*
X144650000Y-119510000D03*
X144650000Y-119110000D03*
X144650000Y-118710000D03*
X144650000Y-118310000D03*
X144650000Y-117910000D03*
X144650000Y-117510000D03*
X144650000Y-117110000D03*
X144650000Y-116710000D03*
X144650000Y-116310000D03*
X144650000Y-115910000D03*
X144650000Y-115510000D03*
X144650000Y-115110000D03*
X144650000Y-114710000D03*
X144650000Y-114310000D03*
D62*
X143500000Y-113160000D03*
X143100000Y-113160000D03*
X142700000Y-113160000D03*
X142300000Y-113160000D03*
X141900000Y-113160000D03*
X141500000Y-113160000D03*
X141100000Y-113160000D03*
X140700000Y-113160000D03*
X140300000Y-113160000D03*
X139900000Y-113160000D03*
X139500000Y-113160000D03*
X139100000Y-113160000D03*
X138700000Y-113160000D03*
X138300000Y-113160000D03*
X137900000Y-113160000D03*
X137500000Y-113160000D03*
X137100000Y-113160000D03*
X136700000Y-113160000D03*
X136300000Y-113160000D03*
X135900000Y-113160000D03*
D61*
X134750000Y-114310000D03*
X134750000Y-114710000D03*
X134750000Y-115110000D03*
X134750000Y-115510000D03*
X134750000Y-115910000D03*
X134750000Y-116310000D03*
X134750000Y-116710000D03*
X134750000Y-117110000D03*
X134750000Y-117510000D03*
X134750000Y-117910000D03*
X134750000Y-118310000D03*
X134750000Y-118710000D03*
X134750000Y-119110000D03*
X134750000Y-119510000D03*
X134750000Y-119910000D03*
X134750000Y-120310000D03*
X134750000Y-120710000D03*
X134750000Y-121110000D03*
X134750000Y-121510000D03*
X134750000Y-121910000D03*
D62*
X135900000Y-123060000D03*
X136300000Y-123060000D03*
X136700000Y-123060000D03*
X137100000Y-123060000D03*
X137500000Y-123060000D03*
X137900000Y-123060000D03*
X138300000Y-123060000D03*
X138700000Y-123060000D03*
X139100000Y-123060000D03*
X139500000Y-123060000D03*
X139900000Y-123060000D03*
X140300000Y-123060000D03*
X140700000Y-123060000D03*
X141100000Y-123060000D03*
X141500000Y-123060000D03*
X141900000Y-123060000D03*
X142300000Y-123060000D03*
X142700000Y-123060000D03*
X143100000Y-123060000D03*
X143500000Y-123060000D03*
D63*
X139700000Y-118110000D03*
D64*
X129127000Y-82169000D03*
X127127000Y-82169000D03*
M02*
