M48
; DRILL file {KiCad 8.0.6-8.0.6-0~ubuntu22.04.1} date 2024-11-22T22:59:54+0100
; FORMAT={-:-/ absolute / inch / decimal}
; #@! TF.CreationDate,2024-11-22T22:59:54+01:00
; #@! TF.GenerationSoftware,Kicad,Pcbnew,8.0.6-8.0.6-0~ubuntu22.04.1
; #@! TF.FileFunction,Plated,1,2,PTH
FMAT,2
INCH
; #@! TA.AperFunction,Plated,PTH,ComponentDrill
T1C0.0079
; #@! TA.AperFunction,Plated,PTH,ViaDrill
T2C0.0157
; #@! TA.AperFunction,Plated,PTH,ComponentDrill
T3C0.0236
; #@! TA.AperFunction,Plated,PTH,ComponentDrill
T4C0.0287
; #@! TA.AperFunction,Plated,PTH,ComponentDrill
T5C0.0394
%
G90
G05
T1
X5.4429Y-4.5929
X5.4429Y-4.65
X5.4429Y-4.7071
X5.5Y-4.5929
X5.5Y-4.65
X5.5Y-4.7071
X5.5571Y-4.5929
X5.5571Y-4.65
X5.5571Y-4.7071
X5.9169Y-3.1969
X5.9169Y-3.3031
X6.0231Y-3.1969
X6.0231Y-3.3031
T2
X4.4Y-2.9
X4.4Y-2.97
X4.4Y-3.7
X4.4538Y-3.9303
X4.475Y-4.35
X4.475Y-4.45
X4.475Y-4.55
X4.475Y-4.65
X4.475Y-4.75
X4.475Y-4.95
X4.475Y-5.05
X4.475Y-5.15
X4.525Y-3.125
X4.525Y-3.46
X4.585Y-2.69
X4.6Y-3.925
X4.6Y-4.025
X4.6Y-5.585
X4.66Y-3.46
X4.7Y-5.3
X4.7Y-5.4
X4.7Y-5.5
X4.725Y-5.89
X4.73Y-2.9677
X4.73Y-5.645
X4.75Y-2.725
X4.75Y-4.13
X4.783Y-3.016
X4.783Y-3.088
X4.783Y-3.164
X4.785Y-2.85
X4.8Y-3.7
X4.825Y-5.89
X4.83Y-3.155
X4.835Y-4.505
X4.835Y-4.565
X4.8467Y-2.85
X4.885Y-4.505
X4.885Y-4.565
X4.885Y-4.86
X4.9Y-2.725
X4.9Y-5.0
X4.9Y-5.1
X4.915Y-4.595
X4.915Y-4.83
X4.92Y-2.9677
X4.92Y-5.645
X4.925Y-5.89
X4.945Y-4.625
X4.945Y-4.8
X4.95Y-3.4
X4.95Y-4.075
X4.99Y-3.06
X4.99Y-3.125
X5.0Y-4.2
X5.0Y-4.3
X5.0Y-4.375
X5.0Y-4.9
X5.0Y-5.0
X5.0Y-5.1
X5.005Y-4.485
X5.005Y-4.605
X5.005Y-4.645
X5.005Y-4.7957
X5.005Y-4.835
X5.05Y-4.075
X5.08Y-2.69
X5.08Y-2.97
X5.1Y-4.9
X5.1Y-5.0
X5.1Y-5.1
X5.1Y-5.3
X5.1Y-5.4
X5.12Y-4.13
X5.12Y-4.485
X5.12Y-4.605
X5.12Y-4.7957
X5.12Y-4.835
X5.125Y-5.585
X5.15Y-4.075
X5.17Y-2.69
X5.17Y-3.04
X5.17Y-3.15
X5.17Y-3.27
X5.17Y-3.4
X5.17Y-3.48
X5.2Y-4.2
X5.2Y-4.3
X5.2Y-4.375
X5.2Y-5.3
X5.2Y-5.4
X5.2Y-5.5
X5.21Y-5.044
X5.25Y-3.8417
X5.25Y-3.95
X5.26Y-4.595
X5.3Y-5.3
X5.3Y-5.4
X5.3Y-5.5
X5.35Y-3.95
X5.35Y-4.62
X5.365Y-4.525
X5.365Y-4.58
X5.38Y-3.19
X5.3819Y-4.8
X5.4Y-5.3
X5.4Y-5.4
X5.41Y-4.525
X5.415Y-4.36
X5.42Y-2.69
X5.4449Y-4.8
X5.45Y-3.95
X5.45Y-4.05
X5.48Y-5.495
X5.485Y-5.235
X5.55Y-2.85
X5.55Y-2.99
X5.55Y-3.95
X5.55Y-4.05
X5.55Y-4.3
X5.58Y-3.36
X5.58Y-3.44
X5.58Y-3.52
X5.5806Y-4.795
X5.62Y-3.29
X5.62Y-4.795
X5.635Y-4.525
X5.635Y-4.71
X5.64Y-4.889
X5.64Y-4.9599
X5.64Y-5.015
X5.65Y-3.95
X5.65Y-5.25
X5.65Y-5.3051
X5.65Y-5.4
X5.66Y-2.69
X5.685Y-4.925
X5.685Y-5.015
X5.6909Y-5.25
X5.7Y-3.22
X5.75Y-2.85
X5.75Y-5.4
X5.7675Y-3.4325
X5.7683Y-4.4356
X5.78Y-3.65
X5.81Y-2.85
X5.81Y-2.91
X5.85Y-5.4
X5.88Y-3.29
X5.88Y-4.195
X5.88Y-4.27
X5.88Y-4.485
X5.88Y-4.75
X5.88Y-4.8976
X5.88Y-4.935
X5.88Y-5.335
X5.885Y-3.955
X5.89Y-3.65
X5.9Y-2.69
X5.9Y-4.02
X5.925Y-4.075
X5.93Y-4.8051
X5.94Y-3.895
X5.94Y-3.955
X5.96Y-4.12
X5.965Y-4.02
X5.975Y-3.16
X5.975Y-3.34
X5.975Y-4.8051
X5.99Y-3.65
X5.995Y-4.27
X5.995Y-4.485
X5.995Y-4.615
X5.995Y-4.75
X6.0Y-3.955
X6.0Y-4.08
X6.0Y-4.15
X6.01Y-3.45
X6.02Y-2.8
X6.02Y-4.8051
X6.02Y-4.845
X6.03Y-5.14
X6.03Y-5.185
X6.035Y-4.02
X6.045Y-4.12
X6.05Y-5.4
X6.055Y-3.9
X6.06Y-3.29
X6.06Y-3.955
X6.06Y-4.845
X6.06Y-4.975
X6.075Y-4.075
X6.08Y-2.8
X6.1Y-4.02
X6.108Y-4.65
X6.11Y-2.91
X6.11Y-3.53
X6.115Y-3.955
X6.125Y-5.585
X6.14Y-2.69
X6.14Y-2.8
X6.15Y-5.4
X6.155Y-4.75
X6.17Y-2.91
X6.17Y-3.65
X6.185Y-4.85
X6.2Y-2.8
X6.2367Y-3.8333
X6.25Y-5.4
X6.275Y-3.45
X6.275Y-3.55
X6.275Y-3.65
X6.28Y-2.8
X6.28Y-2.85
X6.28Y-2.91
X6.325Y-3.835
X6.4Y-3.925
X6.4Y-4.025
X6.47Y-4.586
X6.55Y-4.35
X6.55Y-4.45
X6.55Y-4.65
X6.55Y-4.75
X6.55Y-4.85
X6.55Y-4.95
X6.55Y-5.05
X6.55Y-5.15
X6.55Y-5.21
X6.55Y-5.35
X6.55Y-5.45
X6.6Y-2.95
X6.6Y-3.05
X6.6Y-3.15
X6.6Y-3.25
X6.6Y-3.35
X6.6Y-3.45
X6.6Y-3.55
X6.6Y-3.65
X6.62Y-5.73
T4
X5.005Y-3.235
X5.0837Y-3.235
T5
X4.55Y-3.7
X4.6Y-4.2
X4.6Y-4.3
X4.6Y-4.4
X4.6Y-4.5
X4.6Y-4.6
X4.6Y-4.7
X4.6Y-4.8
X4.6Y-4.9
X4.6Y-5.0
X4.6Y-5.1
X4.6Y-5.3
X4.6Y-5.4
X4.6Y-5.5
X4.65Y-3.7
X4.7Y-4.2
X4.7Y-4.3
X4.7Y-4.4
X4.7Y-4.5
X4.7Y-4.6
X4.7Y-4.7
X4.7Y-4.8
X4.7Y-4.9
X4.7Y-5.0
X4.7Y-5.1
X4.8998Y-5.3
X4.9Y-3.7
X4.9Y-3.8
X4.9998Y-5.3
X5.0Y-3.7
X5.0Y-3.8
X5.1Y-3.7
X5.1Y-3.8
X5.2Y-3.7
X5.2Y-3.8
X5.3Y-3.7
X5.3Y-3.8
X5.33Y-2.895
X5.33Y-2.995
X5.4Y-3.7
X5.4Y-3.8
X5.495Y-3.21
X5.5Y-3.7
X5.5Y-3.8
X5.5Y-5.8
X5.5Y-5.9
X5.595Y-3.21
X5.6Y-3.7
X5.6Y-3.8
X5.6Y-5.8
X5.6Y-5.9
X5.7Y-5.8
X5.7Y-5.9
X5.8Y-5.8
X5.8Y-5.9
X5.9Y-5.8
X5.9Y-5.9
X6.0Y-5.8
X6.0Y-5.9
X6.1Y-5.8
X6.1Y-5.9
X6.2Y-5.8
X6.2Y-5.9
X6.3Y-4.2
X6.3Y-4.3
X6.3Y-4.4
X6.3Y-4.5
X6.3Y-4.6
X6.3Y-4.7
X6.3Y-4.8
X6.3Y-4.9
X6.3Y-5.0
X6.3Y-5.1
X6.3Y-5.8
X6.3Y-5.9
X6.4Y-2.9
X6.4Y-3.0
X6.4Y-3.1
X6.4Y-3.2
X6.4Y-3.3
X6.4Y-3.4
X6.4Y-3.5
X6.4Y-3.6
X6.4Y-4.2
X6.4Y-4.3
X6.4Y-4.4
X6.4Y-4.5
X6.4Y-4.6
X6.4Y-4.7
X6.4Y-4.8
X6.4Y-4.9
X6.4Y-5.0
X6.4Y-5.1
X6.4Y-5.3
X6.4Y-5.4
X6.4Y-5.5
X6.4Y-5.8
X6.4Y-5.9
X6.5Y-2.9
X6.5Y-3.0
X6.5Y-3.1
X6.5Y-3.2
X6.5Y-3.3
X6.5Y-3.4
X6.5Y-3.5
X6.5Y-3.6
T3
G00X4.6549Y-5.7443
M15
G01X4.6549Y-5.701
M16
G05
G00X4.6549Y-5.8715
M15
G01X4.6549Y-5.903
M16
G05
G00X4.655Y-2.7257
M15
G01X4.655Y-2.6943
M16
G05
G00X4.655Y-2.8529
M15
G01X4.655Y-2.8962
M16
G05
G00X4.9951Y-5.7443
M15
G01X4.9951Y-5.701
M16
G05
G00X4.9951Y-5.8715
M15
G01X4.9951Y-5.903
M16
G05
G00X4.9952Y-2.7257
M15
G01X4.9952Y-2.6943
M16
G05
G00X4.9952Y-2.8529
M15
G01X4.9952Y-2.8962
M16
G05
M30
