%TF.GenerationSoftware,KiCad,Pcbnew,8.0.6-8.0.6-0~ubuntu22.04.1*%
%TF.CreationDate,2024-11-22T22:59:53+01:00*%
%TF.ProjectId,rp2350b-launchpad-PCB,72703233-3530-4622-9d6c-61756e636870,rev?*%
%TF.SameCoordinates,Original*%
%TF.FileFunction,Drillmap*%
%TF.FilePolarity,Positive*%
%FSLAX45Y45*%
G04 Gerber Fmt 4.5, Leading zero omitted, Abs format (unit mm)*
G04 Created by KiCad (PCBNEW 8.0.6-8.0.6-0~ubuntu22.04.1) date 2024-11-22 22:59:53*
%MOMM*%
%LPD*%
G01*
G04 APERTURE LIST*
%ADD10C,0.050000*%
%ADD11C,0.200000*%
%ADD12C,0.100000*%
G04 APERTURE END LIST*
D10*
X16771600Y-14833600D02*
G75*
G02*
X16451600Y-14833600I-160000J0D01*
G01*
X16451600Y-14833600D02*
G75*
G02*
X16771600Y-14833600I160000J0D01*
G01*
X11488400Y-14833600D02*
G75*
G02*
X11168400Y-14833600I-160000J0D01*
G01*
X11168400Y-14833600D02*
G75*
G02*
X11488400Y-14833600I160000J0D01*
G01*
X11049000Y-10485663D02*
G75*
G02*
X11148848Y-10185400I500610J263D01*
G01*
X11148848Y-9785400D02*
G75*
G02*
X11148848Y-10185400I-299998J-200000D01*
G01*
X11149000Y-9785400D02*
G75*
G02*
X11049000Y-9485400I400000J300000D01*
G01*
X11252200Y-15113000D02*
X12573000Y-15113000D01*
X11049000Y-6934200D02*
X11049000Y-9485400D01*
X11252200Y-6731000D02*
X11811000Y-6731000D01*
X11811000Y-6731000D02*
X16687800Y-6731000D01*
X13776463Y-15112848D02*
G75*
G02*
X13476200Y-15013000I-263J500608D01*
G01*
X13076200Y-15013000D02*
G75*
G02*
X13476200Y-15013000I200000J-300000D01*
G01*
X13076200Y-15013000D02*
G75*
G02*
X12776200Y-15113000I-300000J400000D01*
G01*
X12573000Y-15113000D02*
X12776200Y-15113000D01*
X13776463Y-15112848D02*
X16687800Y-15113000D01*
X11049000Y-10485663D02*
X11049000Y-14909800D01*
X16891000Y-9486900D02*
X16890848Y-9489937D01*
X16687800Y-6731000D02*
G75*
G02*
X16891000Y-6934200I0J-203200D01*
G01*
X16791000Y-10190200D02*
G75*
G02*
X16791000Y-9790200I300000J200000D01*
G01*
X11049000Y-6934200D02*
G75*
G02*
X11252200Y-6731000I203200J0D01*
G01*
X11252200Y-15113000D02*
G75*
G02*
X11049000Y-14909800I0J203200D01*
G01*
X16771600Y-7010400D02*
G75*
G02*
X16451600Y-7010400I-160000J0D01*
G01*
X16451600Y-7010400D02*
G75*
G02*
X16771600Y-7010400I160000J0D01*
G01*
X16791000Y-10190200D02*
G75*
G02*
X16891000Y-10490200I-400000J-300000D01*
G01*
X16891000Y-14909800D02*
X16891000Y-10490200D01*
X16891000Y-14909800D02*
G75*
G02*
X16687800Y-15113000I-203200J0D01*
G01*
X11488400Y-7010400D02*
G75*
G02*
X11168400Y-7010400I-160000J0D01*
G01*
X11168400Y-7010400D02*
G75*
G02*
X11488400Y-7010400I160000J0D01*
G01*
X16891000Y-6934200D02*
X16891000Y-9486900D01*
X16890848Y-9489937D02*
G75*
G02*
X16791000Y-9790200I-500608J-263D01*
G01*
D11*
D12*
X13815000Y-11656000D02*
X13835000Y-11676000D01*
X13835000Y-11656000D02*
X13815000Y-11676000D01*
X13815000Y-11801000D02*
X13835000Y-11821000D01*
X13835000Y-11801000D02*
X13815000Y-11821000D01*
X13815000Y-11946000D02*
X13835000Y-11966000D01*
X13835000Y-11946000D02*
X13815000Y-11966000D01*
X13960000Y-11656000D02*
X13980000Y-11676000D01*
X13980000Y-11656000D02*
X13960000Y-11676000D01*
X13960000Y-11801000D02*
X13980000Y-11821000D01*
X13980000Y-11801000D02*
X13960000Y-11821000D01*
X13960000Y-11946000D02*
X13980000Y-11966000D01*
X13980000Y-11946000D02*
X13960000Y-11966000D01*
X14105000Y-11656000D02*
X14125000Y-11676000D01*
X14125000Y-11656000D02*
X14105000Y-11676000D01*
X14105000Y-11801000D02*
X14125000Y-11821000D01*
X14125000Y-11801000D02*
X14105000Y-11821000D01*
X14105000Y-11946000D02*
X14125000Y-11966000D01*
X14125000Y-11946000D02*
X14105000Y-11966000D01*
X15018800Y-8110000D02*
X15038800Y-8130000D01*
X15038800Y-8110000D02*
X15018800Y-8130000D01*
X15018800Y-8380000D02*
X15038800Y-8400000D01*
X15038800Y-8380000D02*
X15018800Y-8400000D01*
X15288800Y-8110000D02*
X15308800Y-8130000D01*
X15308800Y-8110000D02*
X15288800Y-8130000D01*
X15288800Y-8380000D02*
X15308800Y-8400000D01*
X15308800Y-8380000D02*
X15288800Y-8400000D01*
X11196000Y-7366000D02*
G75*
G02*
X11156000Y-7366000I-20000J0D01*
G01*
X11156000Y-7366000D02*
G75*
G02*
X11196000Y-7366000I20000J0D01*
G01*
X11196000Y-7543800D02*
G75*
G02*
X11156000Y-7543800I-20000J0D01*
G01*
X11156000Y-7543800D02*
G75*
G02*
X11196000Y-7543800I20000J0D01*
G01*
X11196000Y-9398000D02*
G75*
G02*
X11156000Y-9398000I-20000J0D01*
G01*
X11156000Y-9398000D02*
G75*
G02*
X11196000Y-9398000I20000J0D01*
G01*
X11332600Y-9982900D02*
G75*
G02*
X11292600Y-9982900I-20000J0D01*
G01*
X11292600Y-9982900D02*
G75*
G02*
X11332600Y-9982900I20000J0D01*
G01*
X11386500Y-11049000D02*
G75*
G02*
X11346500Y-11049000I-20000J0D01*
G01*
X11346500Y-11049000D02*
G75*
G02*
X11386500Y-11049000I20000J0D01*
G01*
X11386500Y-11303000D02*
G75*
G02*
X11346500Y-11303000I-20000J0D01*
G01*
X11346500Y-11303000D02*
G75*
G02*
X11386500Y-11303000I20000J0D01*
G01*
X11386500Y-11557000D02*
G75*
G02*
X11346500Y-11557000I-20000J0D01*
G01*
X11346500Y-11557000D02*
G75*
G02*
X11386500Y-11557000I20000J0D01*
G01*
X11386500Y-11811000D02*
G75*
G02*
X11346500Y-11811000I-20000J0D01*
G01*
X11346500Y-11811000D02*
G75*
G02*
X11386500Y-11811000I20000J0D01*
G01*
X11386500Y-12065000D02*
G75*
G02*
X11346500Y-12065000I-20000J0D01*
G01*
X11346500Y-12065000D02*
G75*
G02*
X11386500Y-12065000I20000J0D01*
G01*
X11386500Y-12573000D02*
G75*
G02*
X11346500Y-12573000I-20000J0D01*
G01*
X11346500Y-12573000D02*
G75*
G02*
X11386500Y-12573000I20000J0D01*
G01*
X11386500Y-12827000D02*
G75*
G02*
X11346500Y-12827000I-20000J0D01*
G01*
X11346500Y-12827000D02*
G75*
G02*
X11386500Y-12827000I20000J0D01*
G01*
X11386500Y-13081000D02*
G75*
G02*
X11346500Y-13081000I-20000J0D01*
G01*
X11346500Y-13081000D02*
G75*
G02*
X11386500Y-13081000I20000J0D01*
G01*
X11513500Y-7937500D02*
G75*
G02*
X11473500Y-7937500I-20000J0D01*
G01*
X11473500Y-7937500D02*
G75*
G02*
X11513500Y-7937500I20000J0D01*
G01*
X11513500Y-8788400D02*
G75*
G02*
X11473500Y-8788400I-20000J0D01*
G01*
X11473500Y-8788400D02*
G75*
G02*
X11513500Y-8788400I20000J0D01*
G01*
X11665900Y-6832600D02*
G75*
G02*
X11625900Y-6832600I-20000J0D01*
G01*
X11625900Y-6832600D02*
G75*
G02*
X11665900Y-6832600I20000J0D01*
G01*
X11704000Y-9969500D02*
G75*
G02*
X11664000Y-9969500I-20000J0D01*
G01*
X11664000Y-9969500D02*
G75*
G02*
X11704000Y-9969500I20000J0D01*
G01*
X11704000Y-10223500D02*
G75*
G02*
X11664000Y-10223500I-20000J0D01*
G01*
X11664000Y-10223500D02*
G75*
G02*
X11704000Y-10223500I20000J0D01*
G01*
X11704000Y-14185900D02*
G75*
G02*
X11664000Y-14185900I-20000J0D01*
G01*
X11664000Y-14185900D02*
G75*
G02*
X11704000Y-14185900I20000J0D01*
G01*
X11856400Y-8788400D02*
G75*
G02*
X11816400Y-8788400I-20000J0D01*
G01*
X11816400Y-8788400D02*
G75*
G02*
X11856400Y-8788400I20000J0D01*
G01*
X11958000Y-13462000D02*
G75*
G02*
X11918000Y-13462000I-20000J0D01*
G01*
X11918000Y-13462000D02*
G75*
G02*
X11958000Y-13462000I20000J0D01*
G01*
X11958000Y-13716000D02*
G75*
G02*
X11918000Y-13716000I-20000J0D01*
G01*
X11918000Y-13716000D02*
G75*
G02*
X11958000Y-13716000I20000J0D01*
G01*
X11958000Y-13970000D02*
G75*
G02*
X11918000Y-13970000I-20000J0D01*
G01*
X11918000Y-13970000D02*
G75*
G02*
X11958000Y-13970000I20000J0D01*
G01*
X12021500Y-14960600D02*
G75*
G02*
X11981500Y-14960600I-20000J0D01*
G01*
X11981500Y-14960600D02*
G75*
G02*
X12021500Y-14960600I20000J0D01*
G01*
X12034200Y-7538000D02*
G75*
G02*
X11994200Y-7538000I-20000J0D01*
G01*
X11994200Y-7538000D02*
G75*
G02*
X12034200Y-7538000I20000J0D01*
G01*
X12034200Y-14338300D02*
G75*
G02*
X11994200Y-14338300I-20000J0D01*
G01*
X11994200Y-14338300D02*
G75*
G02*
X12034200Y-14338300I20000J0D01*
G01*
X12085000Y-6921500D02*
G75*
G02*
X12045000Y-6921500I-20000J0D01*
G01*
X12045000Y-6921500D02*
G75*
G02*
X12085000Y-6921500I20000J0D01*
G01*
X12085000Y-10490200D02*
G75*
G02*
X12045000Y-10490200I-20000J0D01*
G01*
X12045000Y-10490200D02*
G75*
G02*
X12085000Y-10490200I20000J0D01*
G01*
X12168820Y-7660640D02*
G75*
G02*
X12128820Y-7660640I-20000J0D01*
G01*
X12128820Y-7660640D02*
G75*
G02*
X12168820Y-7660640I20000J0D01*
G01*
X12168820Y-7843520D02*
G75*
G02*
X12128820Y-7843520I-20000J0D01*
G01*
X12128820Y-7843520D02*
G75*
G02*
X12168820Y-7843520I20000J0D01*
G01*
X12168820Y-8036560D02*
G75*
G02*
X12128820Y-8036560I-20000J0D01*
G01*
X12128820Y-8036560D02*
G75*
G02*
X12168820Y-8036560I20000J0D01*
G01*
X12173900Y-7239000D02*
G75*
G02*
X12133900Y-7239000I-20000J0D01*
G01*
X12133900Y-7239000D02*
G75*
G02*
X12173900Y-7239000I20000J0D01*
G01*
X12212000Y-9398000D02*
G75*
G02*
X12172000Y-9398000I-20000J0D01*
G01*
X12172000Y-9398000D02*
G75*
G02*
X12212000Y-9398000I20000J0D01*
G01*
X12275500Y-14960600D02*
G75*
G02*
X12235500Y-14960600I-20000J0D01*
G01*
X12235500Y-14960600D02*
G75*
G02*
X12275500Y-14960600I20000J0D01*
G01*
X12288200Y-8013700D02*
G75*
G02*
X12248200Y-8013700I-20000J0D01*
G01*
X12248200Y-8013700D02*
G75*
G02*
X12288200Y-8013700I20000J0D01*
G01*
X12300900Y-11442700D02*
G75*
G02*
X12260900Y-11442700I-20000J0D01*
G01*
X12260900Y-11442700D02*
G75*
G02*
X12300900Y-11442700I20000J0D01*
G01*
X12300900Y-11595100D02*
G75*
G02*
X12260900Y-11595100I-20000J0D01*
G01*
X12260900Y-11595100D02*
G75*
G02*
X12300900Y-11595100I20000J0D01*
G01*
X12330700Y-7239000D02*
G75*
G02*
X12290700Y-7239000I-20000J0D01*
G01*
X12290700Y-7239000D02*
G75*
G02*
X12330700Y-7239000I20000J0D01*
G01*
X12427900Y-11442700D02*
G75*
G02*
X12387900Y-11442700I-20000J0D01*
G01*
X12387900Y-11442700D02*
G75*
G02*
X12427900Y-11442700I20000J0D01*
G01*
X12427900Y-11595100D02*
G75*
G02*
X12387900Y-11595100I-20000J0D01*
G01*
X12387900Y-11595100D02*
G75*
G02*
X12427900Y-11595100I20000J0D01*
G01*
X12427900Y-12344400D02*
G75*
G02*
X12387900Y-12344400I-20000J0D01*
G01*
X12387900Y-12344400D02*
G75*
G02*
X12427900Y-12344400I20000J0D01*
G01*
X12466000Y-6921500D02*
G75*
G02*
X12426000Y-6921500I-20000J0D01*
G01*
X12426000Y-6921500D02*
G75*
G02*
X12466000Y-6921500I20000J0D01*
G01*
X12466000Y-12700000D02*
G75*
G02*
X12426000Y-12700000I-20000J0D01*
G01*
X12426000Y-12700000D02*
G75*
G02*
X12466000Y-12700000I20000J0D01*
G01*
X12466000Y-12954000D02*
G75*
G02*
X12426000Y-12954000I-20000J0D01*
G01*
X12426000Y-12954000D02*
G75*
G02*
X12466000Y-12954000I20000J0D01*
G01*
X12504100Y-11671300D02*
G75*
G02*
X12464100Y-11671300I-20000J0D01*
G01*
X12464100Y-11671300D02*
G75*
G02*
X12504100Y-11671300I20000J0D01*
G01*
X12504100Y-12268200D02*
G75*
G02*
X12464100Y-12268200I-20000J0D01*
G01*
X12464100Y-12268200D02*
G75*
G02*
X12504100Y-12268200I20000J0D01*
G01*
X12516800Y-7538000D02*
G75*
G02*
X12476800Y-7538000I-20000J0D01*
G01*
X12476800Y-7538000D02*
G75*
G02*
X12516800Y-7538000I20000J0D01*
G01*
X12516800Y-14338300D02*
G75*
G02*
X12476800Y-14338300I-20000J0D01*
G01*
X12476800Y-14338300D02*
G75*
G02*
X12516800Y-14338300I20000J0D01*
G01*
X12529500Y-14960600D02*
G75*
G02*
X12489500Y-14960600I-20000J0D01*
G01*
X12489500Y-14960600D02*
G75*
G02*
X12529500Y-14960600I20000J0D01*
G01*
X12580300Y-11747500D02*
G75*
G02*
X12540300Y-11747500I-20000J0D01*
G01*
X12540300Y-11747500D02*
G75*
G02*
X12580300Y-11747500I20000J0D01*
G01*
X12580300Y-12192000D02*
G75*
G02*
X12540300Y-12192000I-20000J0D01*
G01*
X12540300Y-12192000D02*
G75*
G02*
X12580300Y-12192000I20000J0D01*
G01*
X12593000Y-8636000D02*
G75*
G02*
X12553000Y-8636000I-20000J0D01*
G01*
X12553000Y-8636000D02*
G75*
G02*
X12593000Y-8636000I20000J0D01*
G01*
X12593000Y-10350500D02*
G75*
G02*
X12553000Y-10350500I-20000J0D01*
G01*
X12553000Y-10350500D02*
G75*
G02*
X12593000Y-10350500I20000J0D01*
G01*
X12694600Y-7772400D02*
G75*
G02*
X12654600Y-7772400I-20000J0D01*
G01*
X12654600Y-7772400D02*
G75*
G02*
X12694600Y-7772400I20000J0D01*
G01*
X12694600Y-7937500D02*
G75*
G02*
X12654600Y-7937500I-20000J0D01*
G01*
X12654600Y-7937500D02*
G75*
G02*
X12694600Y-7937500I20000J0D01*
G01*
X12720000Y-10668000D02*
G75*
G02*
X12680000Y-10668000I-20000J0D01*
G01*
X12680000Y-10668000D02*
G75*
G02*
X12720000Y-10668000I20000J0D01*
G01*
X12720000Y-10922000D02*
G75*
G02*
X12680000Y-10922000I-20000J0D01*
G01*
X12680000Y-10922000D02*
G75*
G02*
X12720000Y-10922000I20000J0D01*
G01*
X12720000Y-11112500D02*
G75*
G02*
X12680000Y-11112500I-20000J0D01*
G01*
X12680000Y-11112500D02*
G75*
G02*
X12720000Y-11112500I20000J0D01*
G01*
X12720000Y-12446000D02*
G75*
G02*
X12680000Y-12446000I-20000J0D01*
G01*
X12680000Y-12446000D02*
G75*
G02*
X12720000Y-12446000I20000J0D01*
G01*
X12720000Y-12700000D02*
G75*
G02*
X12680000Y-12700000I-20000J0D01*
G01*
X12680000Y-12700000D02*
G75*
G02*
X12720000Y-12700000I20000J0D01*
G01*
X12720000Y-12954000D02*
G75*
G02*
X12680000Y-12954000I-20000J0D01*
G01*
X12680000Y-12954000D02*
G75*
G02*
X12720000Y-12954000I20000J0D01*
G01*
X12732700Y-11391900D02*
G75*
G02*
X12692700Y-11391900I-20000J0D01*
G01*
X12692700Y-11391900D02*
G75*
G02*
X12732700Y-11391900I20000J0D01*
G01*
X12732700Y-11696700D02*
G75*
G02*
X12692700Y-11696700I-20000J0D01*
G01*
X12692700Y-11696700D02*
G75*
G02*
X12732700Y-11696700I20000J0D01*
G01*
X12732700Y-11798300D02*
G75*
G02*
X12692700Y-11798300I-20000J0D01*
G01*
X12692700Y-11798300D02*
G75*
G02*
X12732700Y-11798300I20000J0D01*
G01*
X12732700Y-12181000D02*
G75*
G02*
X12692700Y-12181000I-20000J0D01*
G01*
X12692700Y-12181000D02*
G75*
G02*
X12732700Y-12181000I20000J0D01*
G01*
X12732700Y-12280900D02*
G75*
G02*
X12692700Y-12280900I-20000J0D01*
G01*
X12692700Y-12280900D02*
G75*
G02*
X12732700Y-12280900I20000J0D01*
G01*
X12847000Y-10350500D02*
G75*
G02*
X12807000Y-10350500I-20000J0D01*
G01*
X12807000Y-10350500D02*
G75*
G02*
X12847000Y-10350500I20000J0D01*
G01*
X12923200Y-6832600D02*
G75*
G02*
X12883200Y-6832600I-20000J0D01*
G01*
X12883200Y-6832600D02*
G75*
G02*
X12923200Y-6832600I20000J0D01*
G01*
X12923200Y-7543800D02*
G75*
G02*
X12883200Y-7543800I-20000J0D01*
G01*
X12883200Y-7543800D02*
G75*
G02*
X12923200Y-7543800I20000J0D01*
G01*
X12974000Y-12446000D02*
G75*
G02*
X12934000Y-12446000I-20000J0D01*
G01*
X12934000Y-12446000D02*
G75*
G02*
X12974000Y-12446000I20000J0D01*
G01*
X12974000Y-12700000D02*
G75*
G02*
X12934000Y-12700000I-20000J0D01*
G01*
X12934000Y-12700000D02*
G75*
G02*
X12974000Y-12700000I20000J0D01*
G01*
X12974000Y-12954000D02*
G75*
G02*
X12934000Y-12954000I-20000J0D01*
G01*
X12934000Y-12954000D02*
G75*
G02*
X12974000Y-12954000I20000J0D01*
G01*
X12974000Y-13462000D02*
G75*
G02*
X12934000Y-13462000I-20000J0D01*
G01*
X12934000Y-13462000D02*
G75*
G02*
X12974000Y-13462000I20000J0D01*
G01*
X12974000Y-13716000D02*
G75*
G02*
X12934000Y-13716000I-20000J0D01*
G01*
X12934000Y-13716000D02*
G75*
G02*
X12974000Y-13716000I20000J0D01*
G01*
X13024800Y-10490200D02*
G75*
G02*
X12984800Y-10490200I-20000J0D01*
G01*
X12984800Y-10490200D02*
G75*
G02*
X13024800Y-10490200I20000J0D01*
G01*
X13024800Y-11391900D02*
G75*
G02*
X12984800Y-11391900I-20000J0D01*
G01*
X12984800Y-11391900D02*
G75*
G02*
X13024800Y-11391900I20000J0D01*
G01*
X13024800Y-11696700D02*
G75*
G02*
X12984800Y-11696700I-20000J0D01*
G01*
X12984800Y-11696700D02*
G75*
G02*
X13024800Y-11696700I20000J0D01*
G01*
X13024800Y-12181000D02*
G75*
G02*
X12984800Y-12181000I-20000J0D01*
G01*
X12984800Y-12181000D02*
G75*
G02*
X13024800Y-12181000I20000J0D01*
G01*
X13024800Y-12280900D02*
G75*
G02*
X12984800Y-12280900I-20000J0D01*
G01*
X12984800Y-12280900D02*
G75*
G02*
X13024800Y-12280900I20000J0D01*
G01*
X13037500Y-14185900D02*
G75*
G02*
X12997500Y-14185900I-20000J0D01*
G01*
X12997500Y-14185900D02*
G75*
G02*
X13037500Y-14185900I20000J0D01*
G01*
X13101000Y-10350500D02*
G75*
G02*
X13061000Y-10350500I-20000J0D01*
G01*
X13061000Y-10350500D02*
G75*
G02*
X13101000Y-10350500I20000J0D01*
G01*
X13151800Y-6832600D02*
G75*
G02*
X13111800Y-6832600I-20000J0D01*
G01*
X13111800Y-6832600D02*
G75*
G02*
X13151800Y-6832600I20000J0D01*
G01*
X13151800Y-7721600D02*
G75*
G02*
X13111800Y-7721600I-20000J0D01*
G01*
X13111800Y-7721600D02*
G75*
G02*
X13151800Y-7721600I20000J0D01*
G01*
X13151800Y-8001000D02*
G75*
G02*
X13111800Y-8001000I-20000J0D01*
G01*
X13111800Y-8001000D02*
G75*
G02*
X13151800Y-8001000I20000J0D01*
G01*
X13151800Y-8305800D02*
G75*
G02*
X13111800Y-8305800I-20000J0D01*
G01*
X13111800Y-8305800D02*
G75*
G02*
X13151800Y-8305800I20000J0D01*
G01*
X13151800Y-8636000D02*
G75*
G02*
X13111800Y-8636000I-20000J0D01*
G01*
X13111800Y-8636000D02*
G75*
G02*
X13151800Y-8636000I20000J0D01*
G01*
X13151800Y-8839200D02*
G75*
G02*
X13111800Y-8839200I-20000J0D01*
G01*
X13111800Y-8839200D02*
G75*
G02*
X13151800Y-8839200I20000J0D01*
G01*
X13228000Y-10668000D02*
G75*
G02*
X13188000Y-10668000I-20000J0D01*
G01*
X13188000Y-10668000D02*
G75*
G02*
X13228000Y-10668000I20000J0D01*
G01*
X13228000Y-10922000D02*
G75*
G02*
X13188000Y-10922000I-20000J0D01*
G01*
X13188000Y-10922000D02*
G75*
G02*
X13228000Y-10922000I20000J0D01*
G01*
X13228000Y-11112500D02*
G75*
G02*
X13188000Y-11112500I-20000J0D01*
G01*
X13188000Y-11112500D02*
G75*
G02*
X13228000Y-11112500I20000J0D01*
G01*
X13228000Y-13462000D02*
G75*
G02*
X13188000Y-13462000I-20000J0D01*
G01*
X13188000Y-13462000D02*
G75*
G02*
X13228000Y-13462000I20000J0D01*
G01*
X13228000Y-13716000D02*
G75*
G02*
X13188000Y-13716000I-20000J0D01*
G01*
X13188000Y-13716000D02*
G75*
G02*
X13228000Y-13716000I20000J0D01*
G01*
X13228000Y-13970000D02*
G75*
G02*
X13188000Y-13970000I-20000J0D01*
G01*
X13188000Y-13970000D02*
G75*
G02*
X13228000Y-13970000I20000J0D01*
G01*
X13253400Y-12811760D02*
G75*
G02*
X13213400Y-12811760I-20000J0D01*
G01*
X13213400Y-12811760D02*
G75*
G02*
X13253400Y-12811760I20000J0D01*
G01*
X13355000Y-9757900D02*
G75*
G02*
X13315000Y-9757900I-20000J0D01*
G01*
X13315000Y-9757900D02*
G75*
G02*
X13355000Y-9757900I20000J0D01*
G01*
X13355000Y-10033000D02*
G75*
G02*
X13315000Y-10033000I-20000J0D01*
G01*
X13315000Y-10033000D02*
G75*
G02*
X13355000Y-10033000I20000J0D01*
G01*
X13380400Y-11671300D02*
G75*
G02*
X13340400Y-11671300I-20000J0D01*
G01*
X13340400Y-11671300D02*
G75*
G02*
X13380400Y-11671300I20000J0D01*
G01*
X13482000Y-13462000D02*
G75*
G02*
X13442000Y-13462000I-20000J0D01*
G01*
X13442000Y-13462000D02*
G75*
G02*
X13482000Y-13462000I20000J0D01*
G01*
X13482000Y-13716000D02*
G75*
G02*
X13442000Y-13716000I-20000J0D01*
G01*
X13442000Y-13716000D02*
G75*
G02*
X13482000Y-13716000I20000J0D01*
G01*
X13482000Y-13970000D02*
G75*
G02*
X13442000Y-13970000I-20000J0D01*
G01*
X13442000Y-13970000D02*
G75*
G02*
X13482000Y-13970000I20000J0D01*
G01*
X13609000Y-10033000D02*
G75*
G02*
X13569000Y-10033000I-20000J0D01*
G01*
X13569000Y-10033000D02*
G75*
G02*
X13609000Y-10033000I20000J0D01*
G01*
X13609000Y-11734800D02*
G75*
G02*
X13569000Y-11734800I-20000J0D01*
G01*
X13569000Y-11734800D02*
G75*
G02*
X13609000Y-11734800I20000J0D01*
G01*
X13647100Y-11493500D02*
G75*
G02*
X13607100Y-11493500I-20000J0D01*
G01*
X13607100Y-11493500D02*
G75*
G02*
X13647100Y-11493500I20000J0D01*
G01*
X13647100Y-11633200D02*
G75*
G02*
X13607100Y-11633200I-20000J0D01*
G01*
X13607100Y-11633200D02*
G75*
G02*
X13647100Y-11633200I20000J0D01*
G01*
X13685200Y-8102600D02*
G75*
G02*
X13645200Y-8102600I-20000J0D01*
G01*
X13645200Y-8102600D02*
G75*
G02*
X13685200Y-8102600I20000J0D01*
G01*
X13690000Y-12192000D02*
G75*
G02*
X13650000Y-12192000I-20000J0D01*
G01*
X13650000Y-12192000D02*
G75*
G02*
X13690000Y-12192000I20000J0D01*
G01*
X13736000Y-13462000D02*
G75*
G02*
X13696000Y-13462000I-20000J0D01*
G01*
X13696000Y-13462000D02*
G75*
G02*
X13736000Y-13462000I20000J0D01*
G01*
X13736000Y-13716000D02*
G75*
G02*
X13696000Y-13716000I-20000J0D01*
G01*
X13696000Y-13716000D02*
G75*
G02*
X13736000Y-13716000I20000J0D01*
G01*
X13761400Y-11493500D02*
G75*
G02*
X13721400Y-11493500I-20000J0D01*
G01*
X13721400Y-11493500D02*
G75*
G02*
X13761400Y-11493500I20000J0D01*
G01*
X13774100Y-11074400D02*
G75*
G02*
X13734100Y-11074400I-20000J0D01*
G01*
X13734100Y-11074400D02*
G75*
G02*
X13774100Y-11074400I20000J0D01*
G01*
X13786800Y-6832600D02*
G75*
G02*
X13746800Y-6832600I-20000J0D01*
G01*
X13746800Y-6832600D02*
G75*
G02*
X13786800Y-6832600I20000J0D01*
G01*
X13850000Y-12192000D02*
G75*
G02*
X13810000Y-12192000I-20000J0D01*
G01*
X13810000Y-12192000D02*
G75*
G02*
X13850000Y-12192000I20000J0D01*
G01*
X13863000Y-10033000D02*
G75*
G02*
X13823000Y-10033000I-20000J0D01*
G01*
X13823000Y-10033000D02*
G75*
G02*
X13863000Y-10033000I20000J0D01*
G01*
X13863000Y-10287000D02*
G75*
G02*
X13823000Y-10287000I-20000J0D01*
G01*
X13823000Y-10287000D02*
G75*
G02*
X13863000Y-10287000I20000J0D01*
G01*
X13939200Y-13957300D02*
G75*
G02*
X13899200Y-13957300I-20000J0D01*
G01*
X13899200Y-13957300D02*
G75*
G02*
X13939200Y-13957300I20000J0D01*
G01*
X13951900Y-13296900D02*
G75*
G02*
X13911900Y-13296900I-20000J0D01*
G01*
X13911900Y-13296900D02*
G75*
G02*
X13951900Y-13296900I20000J0D01*
G01*
X14117000Y-7239000D02*
G75*
G02*
X14077000Y-7239000I-20000J0D01*
G01*
X14077000Y-7239000D02*
G75*
G02*
X14117000Y-7239000I20000J0D01*
G01*
X14117000Y-7594600D02*
G75*
G02*
X14077000Y-7594600I-20000J0D01*
G01*
X14077000Y-7594600D02*
G75*
G02*
X14117000Y-7594600I20000J0D01*
G01*
X14117000Y-10033000D02*
G75*
G02*
X14077000Y-10033000I-20000J0D01*
G01*
X14077000Y-10033000D02*
G75*
G02*
X14117000Y-10033000I20000J0D01*
G01*
X14117000Y-10287000D02*
G75*
G02*
X14077000Y-10287000I-20000J0D01*
G01*
X14077000Y-10287000D02*
G75*
G02*
X14117000Y-10287000I20000J0D01*
G01*
X14117000Y-10922000D02*
G75*
G02*
X14077000Y-10922000I-20000J0D01*
G01*
X14077000Y-10922000D02*
G75*
G02*
X14117000Y-10922000I20000J0D01*
G01*
X14193200Y-8534400D02*
G75*
G02*
X14153200Y-8534400I-20000J0D01*
G01*
X14153200Y-8534400D02*
G75*
G02*
X14193200Y-8534400I20000J0D01*
G01*
X14193200Y-8737600D02*
G75*
G02*
X14153200Y-8737600I-20000J0D01*
G01*
X14153200Y-8737600D02*
G75*
G02*
X14193200Y-8737600I20000J0D01*
G01*
X14193200Y-8940800D02*
G75*
G02*
X14153200Y-8940800I-20000J0D01*
G01*
X14153200Y-8940800D02*
G75*
G02*
X14193200Y-8940800I20000J0D01*
G01*
X14194800Y-12179300D02*
G75*
G02*
X14154800Y-12179300I-20000J0D01*
G01*
X14154800Y-12179300D02*
G75*
G02*
X14194800Y-12179300I20000J0D01*
G01*
X14294800Y-8356600D02*
G75*
G02*
X14254800Y-8356600I-20000J0D01*
G01*
X14254800Y-8356600D02*
G75*
G02*
X14294800Y-8356600I20000J0D01*
G01*
X14294800Y-12179300D02*
G75*
G02*
X14254800Y-12179300I-20000J0D01*
G01*
X14254800Y-12179300D02*
G75*
G02*
X14294800Y-12179300I20000J0D01*
G01*
X14332900Y-11493500D02*
G75*
G02*
X14292900Y-11493500I-20000J0D01*
G01*
X14292900Y-11493500D02*
G75*
G02*
X14332900Y-11493500I20000J0D01*
G01*
X14332900Y-11963400D02*
G75*
G02*
X14292900Y-11963400I-20000J0D01*
G01*
X14292900Y-11963400D02*
G75*
G02*
X14332900Y-11963400I20000J0D01*
G01*
X14345600Y-12418100D02*
G75*
G02*
X14305600Y-12418100I-20000J0D01*
G01*
X14305600Y-12418100D02*
G75*
G02*
X14345600Y-12418100I20000J0D01*
G01*
X14345600Y-12598100D02*
G75*
G02*
X14305600Y-12598100I-20000J0D01*
G01*
X14305600Y-12598100D02*
G75*
G02*
X14345600Y-12598100I20000J0D01*
G01*
X14345600Y-12738100D02*
G75*
G02*
X14305600Y-12738100I-20000J0D01*
G01*
X14305600Y-12738100D02*
G75*
G02*
X14345600Y-12738100I20000J0D01*
G01*
X14371000Y-10033000D02*
G75*
G02*
X14331000Y-10033000I-20000J0D01*
G01*
X14331000Y-10033000D02*
G75*
G02*
X14371000Y-10033000I20000J0D01*
G01*
X14371000Y-13335000D02*
G75*
G02*
X14331000Y-13335000I-20000J0D01*
G01*
X14331000Y-13335000D02*
G75*
G02*
X14371000Y-13335000I20000J0D01*
G01*
X14371000Y-13475000D02*
G75*
G02*
X14331000Y-13475000I-20000J0D01*
G01*
X14331000Y-13475000D02*
G75*
G02*
X14371000Y-13475000I20000J0D01*
G01*
X14371000Y-13716000D02*
G75*
G02*
X14331000Y-13716000I-20000J0D01*
G01*
X14331000Y-13716000D02*
G75*
G02*
X14371000Y-13716000I20000J0D01*
G01*
X14396400Y-6832600D02*
G75*
G02*
X14356400Y-6832600I-20000J0D01*
G01*
X14356400Y-6832600D02*
G75*
G02*
X14396400Y-6832600I20000J0D01*
G01*
X14459900Y-12509500D02*
G75*
G02*
X14419900Y-12509500I-20000J0D01*
G01*
X14419900Y-12509500D02*
G75*
G02*
X14459900Y-12509500I20000J0D01*
G01*
X14459900Y-12738100D02*
G75*
G02*
X14419900Y-12738100I-20000J0D01*
G01*
X14419900Y-12738100D02*
G75*
G02*
X14459900Y-12738100I20000J0D01*
G01*
X14475000Y-13335000D02*
G75*
G02*
X14435000Y-13335000I-20000J0D01*
G01*
X14435000Y-13335000D02*
G75*
G02*
X14475000Y-13335000I20000J0D01*
G01*
X14498000Y-8178800D02*
G75*
G02*
X14458000Y-8178800I-20000J0D01*
G01*
X14458000Y-8178800D02*
G75*
G02*
X14498000Y-8178800I20000J0D01*
G01*
X14625000Y-7239000D02*
G75*
G02*
X14585000Y-7239000I-20000J0D01*
G01*
X14585000Y-7239000D02*
G75*
G02*
X14625000Y-7239000I20000J0D01*
G01*
X14625000Y-13716000D02*
G75*
G02*
X14585000Y-13716000I-20000J0D01*
G01*
X14585000Y-13716000D02*
G75*
G02*
X14625000Y-13716000I20000J0D01*
G01*
X14669450Y-8718550D02*
G75*
G02*
X14629450Y-8718550I-20000J0D01*
G01*
X14629450Y-8718550D02*
G75*
G02*
X14669450Y-8718550I20000J0D01*
G01*
X14671500Y-11266300D02*
G75*
G02*
X14631500Y-11266300I-20000J0D01*
G01*
X14631500Y-11266300D02*
G75*
G02*
X14671500Y-11266300I20000J0D01*
G01*
X14701200Y-9271000D02*
G75*
G02*
X14661200Y-9271000I-20000J0D01*
G01*
X14661200Y-9271000D02*
G75*
G02*
X14701200Y-9271000I20000J0D01*
G01*
X14777400Y-7239000D02*
G75*
G02*
X14737400Y-7239000I-20000J0D01*
G01*
X14737400Y-7239000D02*
G75*
G02*
X14777400Y-7239000I20000J0D01*
G01*
X14777400Y-7391400D02*
G75*
G02*
X14737400Y-7391400I-20000J0D01*
G01*
X14737400Y-7391400D02*
G75*
G02*
X14777400Y-7391400I20000J0D01*
G01*
X14879000Y-13716000D02*
G75*
G02*
X14839000Y-13716000I-20000J0D01*
G01*
X14839000Y-13716000D02*
G75*
G02*
X14879000Y-13716000I20000J0D01*
G01*
X14955200Y-8356600D02*
G75*
G02*
X14915200Y-8356600I-20000J0D01*
G01*
X14915200Y-8356600D02*
G75*
G02*
X14955200Y-8356600I20000J0D01*
G01*
X14955200Y-10655300D02*
G75*
G02*
X14915200Y-10655300I-20000J0D01*
G01*
X14915200Y-10655300D02*
G75*
G02*
X14955200Y-10655300I20000J0D01*
G01*
X14955200Y-10845800D02*
G75*
G02*
X14915200Y-10845800I-20000J0D01*
G01*
X14915200Y-10845800D02*
G75*
G02*
X14955200Y-10845800I20000J0D01*
G01*
X14955200Y-11391900D02*
G75*
G02*
X14915200Y-11391900I-20000J0D01*
G01*
X14915200Y-11391900D02*
G75*
G02*
X14955200Y-11391900I20000J0D01*
G01*
X14955200Y-12065000D02*
G75*
G02*
X14915200Y-12065000I-20000J0D01*
G01*
X14915200Y-12065000D02*
G75*
G02*
X14955200Y-12065000I20000J0D01*
G01*
X14955200Y-12439800D02*
G75*
G02*
X14915200Y-12439800I-20000J0D01*
G01*
X14915200Y-12439800D02*
G75*
G02*
X14955200Y-12439800I20000J0D01*
G01*
X14955200Y-12534900D02*
G75*
G02*
X14915200Y-12534900I-20000J0D01*
G01*
X14915200Y-12534900D02*
G75*
G02*
X14955200Y-12534900I20000J0D01*
G01*
X14955200Y-13550900D02*
G75*
G02*
X14915200Y-13550900I-20000J0D01*
G01*
X14915200Y-13550900D02*
G75*
G02*
X14955200Y-13550900I20000J0D01*
G01*
X14967900Y-10045700D02*
G75*
G02*
X14927900Y-10045700I-20000J0D01*
G01*
X14927900Y-10045700D02*
G75*
G02*
X14967900Y-10045700I20000J0D01*
G01*
X14980600Y-9271000D02*
G75*
G02*
X14940600Y-9271000I-20000J0D01*
G01*
X14940600Y-9271000D02*
G75*
G02*
X14980600Y-9271000I20000J0D01*
G01*
X15006000Y-6832600D02*
G75*
G02*
X14966000Y-6832600I-20000J0D01*
G01*
X14966000Y-6832600D02*
G75*
G02*
X15006000Y-6832600I20000J0D01*
G01*
X15006000Y-10210800D02*
G75*
G02*
X14966000Y-10210800I-20000J0D01*
G01*
X14966000Y-10210800D02*
G75*
G02*
X15006000Y-10210800I20000J0D01*
G01*
X15069500Y-10350500D02*
G75*
G02*
X15029500Y-10350500I-20000J0D01*
G01*
X15029500Y-10350500D02*
G75*
G02*
X15069500Y-10350500I20000J0D01*
G01*
X15082200Y-12205000D02*
G75*
G02*
X15042200Y-12205000I-20000J0D01*
G01*
X15042200Y-12205000D02*
G75*
G02*
X15082200Y-12205000I20000J0D01*
G01*
X15107600Y-9893300D02*
G75*
G02*
X15067600Y-9893300I-20000J0D01*
G01*
X15067600Y-9893300D02*
G75*
G02*
X15107600Y-9893300I20000J0D01*
G01*
X15107600Y-10045700D02*
G75*
G02*
X15067600Y-10045700I-20000J0D01*
G01*
X15067600Y-10045700D02*
G75*
G02*
X15107600Y-10045700I20000J0D01*
G01*
X15158400Y-10464800D02*
G75*
G02*
X15118400Y-10464800I-20000J0D01*
G01*
X15118400Y-10464800D02*
G75*
G02*
X15158400Y-10464800I20000J0D01*
G01*
X15171100Y-10210800D02*
G75*
G02*
X15131100Y-10210800I-20000J0D01*
G01*
X15131100Y-10210800D02*
G75*
G02*
X15171100Y-10210800I20000J0D01*
G01*
X15196500Y-8026400D02*
G75*
G02*
X15156500Y-8026400I-20000J0D01*
G01*
X15156500Y-8026400D02*
G75*
G02*
X15196500Y-8026400I20000J0D01*
G01*
X15196500Y-8483600D02*
G75*
G02*
X15156500Y-8483600I-20000J0D01*
G01*
X15156500Y-8483600D02*
G75*
G02*
X15196500Y-8483600I20000J0D01*
G01*
X15196500Y-12205000D02*
G75*
G02*
X15156500Y-12205000I-20000J0D01*
G01*
X15156500Y-12205000D02*
G75*
G02*
X15196500Y-12205000I20000J0D01*
G01*
X15234600Y-9271000D02*
G75*
G02*
X15194600Y-9271000I-20000J0D01*
G01*
X15194600Y-9271000D02*
G75*
G02*
X15234600Y-9271000I20000J0D01*
G01*
X15247300Y-10845800D02*
G75*
G02*
X15207300Y-10845800I-20000J0D01*
G01*
X15207300Y-10845800D02*
G75*
G02*
X15247300Y-10845800I20000J0D01*
G01*
X15247300Y-11391900D02*
G75*
G02*
X15207300Y-11391900I-20000J0D01*
G01*
X15207300Y-11391900D02*
G75*
G02*
X15247300Y-11391900I20000J0D01*
G01*
X15247300Y-11722100D02*
G75*
G02*
X15207300Y-11722100I-20000J0D01*
G01*
X15207300Y-11722100D02*
G75*
G02*
X15247300Y-11722100I20000J0D01*
G01*
X15247300Y-12065000D02*
G75*
G02*
X15207300Y-12065000I-20000J0D01*
G01*
X15207300Y-12065000D02*
G75*
G02*
X15247300Y-12065000I20000J0D01*
G01*
X15260000Y-10045700D02*
G75*
G02*
X15220000Y-10045700I-20000J0D01*
G01*
X15220000Y-10045700D02*
G75*
G02*
X15260000Y-10045700I20000J0D01*
G01*
X15260000Y-10363200D02*
G75*
G02*
X15220000Y-10363200I-20000J0D01*
G01*
X15220000Y-10363200D02*
G75*
G02*
X15260000Y-10363200I20000J0D01*
G01*
X15260000Y-10541000D02*
G75*
G02*
X15220000Y-10541000I-20000J0D01*
G01*
X15220000Y-10541000D02*
G75*
G02*
X15260000Y-10541000I20000J0D01*
G01*
X15285400Y-8763000D02*
G75*
G02*
X15245400Y-8763000I-20000J0D01*
G01*
X15245400Y-8763000D02*
G75*
G02*
X15285400Y-8763000I20000J0D01*
G01*
X15310800Y-7112000D02*
G75*
G02*
X15270800Y-7112000I-20000J0D01*
G01*
X15270800Y-7112000D02*
G75*
G02*
X15310800Y-7112000I20000J0D01*
G01*
X15310800Y-12205000D02*
G75*
G02*
X15270800Y-12205000I-20000J0D01*
G01*
X15270800Y-12205000D02*
G75*
G02*
X15310800Y-12205000I20000J0D01*
G01*
X15310800Y-12306300D02*
G75*
G02*
X15270800Y-12306300I-20000J0D01*
G01*
X15270800Y-12306300D02*
G75*
G02*
X15310800Y-12306300I20000J0D01*
G01*
X15336200Y-13055600D02*
G75*
G02*
X15296200Y-13055600I-20000J0D01*
G01*
X15296200Y-13055600D02*
G75*
G02*
X15336200Y-13055600I20000J0D01*
G01*
X15336200Y-13169900D02*
G75*
G02*
X15296200Y-13169900I-20000J0D01*
G01*
X15296200Y-13169900D02*
G75*
G02*
X15336200Y-13169900I20000J0D01*
G01*
X15348900Y-10210800D02*
G75*
G02*
X15308900Y-10210800I-20000J0D01*
G01*
X15308900Y-10210800D02*
G75*
G02*
X15348900Y-10210800I20000J0D01*
G01*
X15374300Y-10464800D02*
G75*
G02*
X15334300Y-10464800I-20000J0D01*
G01*
X15334300Y-10464800D02*
G75*
G02*
X15374300Y-10464800I20000J0D01*
G01*
X15387000Y-13716000D02*
G75*
G02*
X15347000Y-13716000I-20000J0D01*
G01*
X15347000Y-13716000D02*
G75*
G02*
X15387000Y-13716000I20000J0D01*
G01*
X15399700Y-9906000D02*
G75*
G02*
X15359700Y-9906000I-20000J0D01*
G01*
X15359700Y-9906000D02*
G75*
G02*
X15399700Y-9906000I20000J0D01*
G01*
X15412400Y-8356600D02*
G75*
G02*
X15372400Y-8356600I-20000J0D01*
G01*
X15372400Y-8356600D02*
G75*
G02*
X15412400Y-8356600I20000J0D01*
G01*
X15412400Y-10045700D02*
G75*
G02*
X15372400Y-10045700I-20000J0D01*
G01*
X15372400Y-10045700D02*
G75*
G02*
X15412400Y-10045700I20000J0D01*
G01*
X15412400Y-12306300D02*
G75*
G02*
X15372400Y-12306300I-20000J0D01*
G01*
X15372400Y-12306300D02*
G75*
G02*
X15412400Y-12306300I20000J0D01*
G01*
X15412400Y-12636500D02*
G75*
G02*
X15372400Y-12636500I-20000J0D01*
G01*
X15372400Y-12636500D02*
G75*
G02*
X15412400Y-12636500I20000J0D01*
G01*
X15450500Y-10350500D02*
G75*
G02*
X15410500Y-10350500I-20000J0D01*
G01*
X15410500Y-10350500D02*
G75*
G02*
X15450500Y-10350500I20000J0D01*
G01*
X15463200Y-7112000D02*
G75*
G02*
X15423200Y-7112000I-20000J0D01*
G01*
X15423200Y-7112000D02*
G75*
G02*
X15463200Y-7112000I20000J0D01*
G01*
X15514000Y-10210800D02*
G75*
G02*
X15474000Y-10210800I-20000J0D01*
G01*
X15474000Y-10210800D02*
G75*
G02*
X15514000Y-10210800I20000J0D01*
G01*
X15534320Y-11811000D02*
G75*
G02*
X15494320Y-11811000I-20000J0D01*
G01*
X15494320Y-11811000D02*
G75*
G02*
X15534320Y-11811000I20000J0D01*
G01*
X15539400Y-7391400D02*
G75*
G02*
X15499400Y-7391400I-20000J0D01*
G01*
X15499400Y-7391400D02*
G75*
G02*
X15539400Y-7391400I20000J0D01*
G01*
X15539400Y-8966200D02*
G75*
G02*
X15499400Y-8966200I-20000J0D01*
G01*
X15499400Y-8966200D02*
G75*
G02*
X15539400Y-8966200I20000J0D01*
G01*
X15552100Y-10045700D02*
G75*
G02*
X15512100Y-10045700I-20000J0D01*
G01*
X15512100Y-10045700D02*
G75*
G02*
X15552100Y-10045700I20000J0D01*
G01*
X15577500Y-14185900D02*
G75*
G02*
X15537500Y-14185900I-20000J0D01*
G01*
X15537500Y-14185900D02*
G75*
G02*
X15577500Y-14185900I20000J0D01*
G01*
X15615600Y-6832600D02*
G75*
G02*
X15575600Y-6832600I-20000J0D01*
G01*
X15575600Y-6832600D02*
G75*
G02*
X15615600Y-6832600I20000J0D01*
G01*
X15615600Y-7112000D02*
G75*
G02*
X15575600Y-7112000I-20000J0D01*
G01*
X15575600Y-7112000D02*
G75*
G02*
X15615600Y-7112000I20000J0D01*
G01*
X15641000Y-13716000D02*
G75*
G02*
X15601000Y-13716000I-20000J0D01*
G01*
X15601000Y-13716000D02*
G75*
G02*
X15641000Y-13716000I20000J0D01*
G01*
X15653700Y-12065000D02*
G75*
G02*
X15613700Y-12065000I-20000J0D01*
G01*
X15613700Y-12065000D02*
G75*
G02*
X15653700Y-12065000I20000J0D01*
G01*
X15691800Y-7391400D02*
G75*
G02*
X15651800Y-7391400I-20000J0D01*
G01*
X15651800Y-7391400D02*
G75*
G02*
X15691800Y-7391400I20000J0D01*
G01*
X15691800Y-9271000D02*
G75*
G02*
X15651800Y-9271000I-20000J0D01*
G01*
X15651800Y-9271000D02*
G75*
G02*
X15691800Y-9271000I20000J0D01*
G01*
X15729900Y-12319000D02*
G75*
G02*
X15689900Y-12319000I-20000J0D01*
G01*
X15689900Y-12319000D02*
G75*
G02*
X15729900Y-12319000I20000J0D01*
G01*
X15768000Y-7112000D02*
G75*
G02*
X15728000Y-7112000I-20000J0D01*
G01*
X15728000Y-7112000D02*
G75*
G02*
X15768000Y-7112000I20000J0D01*
G01*
X15861200Y-9736600D02*
G75*
G02*
X15821200Y-9736600I-20000J0D01*
G01*
X15821200Y-9736600D02*
G75*
G02*
X15861200Y-9736600I20000J0D01*
G01*
X15895000Y-13716000D02*
G75*
G02*
X15855000Y-13716000I-20000J0D01*
G01*
X15855000Y-13716000D02*
G75*
G02*
X15895000Y-13716000I20000J0D01*
G01*
X15958500Y-8763000D02*
G75*
G02*
X15918500Y-8763000I-20000J0D01*
G01*
X15918500Y-8763000D02*
G75*
G02*
X15958500Y-8763000I20000J0D01*
G01*
X15958500Y-9017000D02*
G75*
G02*
X15918500Y-9017000I-20000J0D01*
G01*
X15918500Y-9017000D02*
G75*
G02*
X15958500Y-9017000I20000J0D01*
G01*
X15958500Y-9271000D02*
G75*
G02*
X15918500Y-9271000I-20000J0D01*
G01*
X15918500Y-9271000D02*
G75*
G02*
X15958500Y-9271000I20000J0D01*
G01*
X15971200Y-7112000D02*
G75*
G02*
X15931200Y-7112000I-20000J0D01*
G01*
X15931200Y-7112000D02*
G75*
G02*
X15971200Y-7112000I20000J0D01*
G01*
X15971200Y-7239000D02*
G75*
G02*
X15931200Y-7239000I-20000J0D01*
G01*
X15931200Y-7239000D02*
G75*
G02*
X15971200Y-7239000I20000J0D01*
G01*
X15971200Y-7391400D02*
G75*
G02*
X15931200Y-7391400I-20000J0D01*
G01*
X15931200Y-7391400D02*
G75*
G02*
X15971200Y-7391400I20000J0D01*
G01*
X16085500Y-9740900D02*
G75*
G02*
X16045500Y-9740900I-20000J0D01*
G01*
X16045500Y-9740900D02*
G75*
G02*
X16085500Y-9740900I20000J0D01*
G01*
X16276000Y-9969500D02*
G75*
G02*
X16236000Y-9969500I-20000J0D01*
G01*
X16236000Y-9969500D02*
G75*
G02*
X16276000Y-9969500I20000J0D01*
G01*
X16276000Y-10223500D02*
G75*
G02*
X16236000Y-10223500I-20000J0D01*
G01*
X16236000Y-10223500D02*
G75*
G02*
X16276000Y-10223500I20000J0D01*
G01*
X16453800Y-11648440D02*
G75*
G02*
X16413800Y-11648440I-20000J0D01*
G01*
X16413800Y-11648440D02*
G75*
G02*
X16453800Y-11648440I20000J0D01*
G01*
X16657000Y-11049000D02*
G75*
G02*
X16617000Y-11049000I-20000J0D01*
G01*
X16617000Y-11049000D02*
G75*
G02*
X16657000Y-11049000I20000J0D01*
G01*
X16657000Y-11303000D02*
G75*
G02*
X16617000Y-11303000I-20000J0D01*
G01*
X16617000Y-11303000D02*
G75*
G02*
X16657000Y-11303000I20000J0D01*
G01*
X16657000Y-11811000D02*
G75*
G02*
X16617000Y-11811000I-20000J0D01*
G01*
X16617000Y-11811000D02*
G75*
G02*
X16657000Y-11811000I20000J0D01*
G01*
X16657000Y-12065000D02*
G75*
G02*
X16617000Y-12065000I-20000J0D01*
G01*
X16617000Y-12065000D02*
G75*
G02*
X16657000Y-12065000I20000J0D01*
G01*
X16657000Y-12319000D02*
G75*
G02*
X16617000Y-12319000I-20000J0D01*
G01*
X16617000Y-12319000D02*
G75*
G02*
X16657000Y-12319000I20000J0D01*
G01*
X16657000Y-12573000D02*
G75*
G02*
X16617000Y-12573000I-20000J0D01*
G01*
X16617000Y-12573000D02*
G75*
G02*
X16657000Y-12573000I20000J0D01*
G01*
X16657000Y-12827000D02*
G75*
G02*
X16617000Y-12827000I-20000J0D01*
G01*
X16617000Y-12827000D02*
G75*
G02*
X16657000Y-12827000I20000J0D01*
G01*
X16657000Y-13081000D02*
G75*
G02*
X16617000Y-13081000I-20000J0D01*
G01*
X16617000Y-13081000D02*
G75*
G02*
X16657000Y-13081000I20000J0D01*
G01*
X16657000Y-13233400D02*
G75*
G02*
X16617000Y-13233400I-20000J0D01*
G01*
X16617000Y-13233400D02*
G75*
G02*
X16657000Y-13233400I20000J0D01*
G01*
X16657000Y-13589000D02*
G75*
G02*
X16617000Y-13589000I-20000J0D01*
G01*
X16617000Y-13589000D02*
G75*
G02*
X16657000Y-13589000I20000J0D01*
G01*
X16657000Y-13843000D02*
G75*
G02*
X16617000Y-13843000I-20000J0D01*
G01*
X16617000Y-13843000D02*
G75*
G02*
X16657000Y-13843000I20000J0D01*
G01*
X16784000Y-7493000D02*
G75*
G02*
X16744000Y-7493000I-20000J0D01*
G01*
X16744000Y-7493000D02*
G75*
G02*
X16784000Y-7493000I20000J0D01*
G01*
X16784000Y-7747000D02*
G75*
G02*
X16744000Y-7747000I-20000J0D01*
G01*
X16744000Y-7747000D02*
G75*
G02*
X16784000Y-7747000I20000J0D01*
G01*
X16784000Y-8001000D02*
G75*
G02*
X16744000Y-8001000I-20000J0D01*
G01*
X16744000Y-8001000D02*
G75*
G02*
X16784000Y-8001000I20000J0D01*
G01*
X16784000Y-8255000D02*
G75*
G02*
X16744000Y-8255000I-20000J0D01*
G01*
X16744000Y-8255000D02*
G75*
G02*
X16784000Y-8255000I20000J0D01*
G01*
X16784000Y-8509000D02*
G75*
G02*
X16744000Y-8509000I-20000J0D01*
G01*
X16744000Y-8509000D02*
G75*
G02*
X16784000Y-8509000I20000J0D01*
G01*
X16784000Y-8763000D02*
G75*
G02*
X16744000Y-8763000I-20000J0D01*
G01*
X16744000Y-8763000D02*
G75*
G02*
X16784000Y-8763000I20000J0D01*
G01*
X16784000Y-9017000D02*
G75*
G02*
X16744000Y-9017000I-20000J0D01*
G01*
X16744000Y-9017000D02*
G75*
G02*
X16784000Y-9017000I20000J0D01*
G01*
X16784000Y-9271000D02*
G75*
G02*
X16744000Y-9271000I-20000J0D01*
G01*
X16744000Y-9271000D02*
G75*
G02*
X16784000Y-9271000I20000J0D01*
G01*
X16834800Y-14554200D02*
G75*
G02*
X16794800Y-14554200I-20000J0D01*
G01*
X16794800Y-14554200D02*
G75*
G02*
X16834800Y-14554200I20000J0D01*
G01*
X11823500Y-14505500D02*
X11823500Y-14565500D01*
X11793500Y-14535500D02*
X11853500Y-14535500D01*
X11853500Y-14590500D02*
X11853500Y-14480500D01*
X11793500Y-14480500D02*
G75*
G02*
X11853500Y-14480500I30000J0D01*
G01*
X11793500Y-14480500D02*
X11793500Y-14590500D01*
X11793500Y-14590500D02*
G75*
G03*
X11853500Y-14590500I30000J0D01*
G01*
X11823500Y-14923500D02*
X11823500Y-14983500D01*
X11793500Y-14953500D02*
X11853500Y-14953500D01*
X11793500Y-14913500D02*
X11793500Y-14993500D01*
X11853500Y-14993500D02*
G75*
G02*
X11793500Y-14993500I-30000J0D01*
G01*
X11853500Y-14993500D02*
X11853500Y-14913500D01*
X11853500Y-14913500D02*
G75*
G03*
X11793500Y-14913500I-30000J0D01*
G01*
X11823700Y-6853400D02*
X11823700Y-6913400D01*
X11793700Y-6883400D02*
X11853700Y-6883400D01*
X11853700Y-6923400D02*
X11853700Y-6843400D01*
X11793700Y-6843400D02*
G75*
G02*
X11853700Y-6843400I30000J0D01*
G01*
X11793700Y-6843400D02*
X11793700Y-6923400D01*
X11793700Y-6923400D02*
G75*
G03*
X11853700Y-6923400I30000J0D01*
G01*
X11823700Y-7271400D02*
X11823700Y-7331400D01*
X11793700Y-7301400D02*
X11853700Y-7301400D01*
X11793700Y-7246400D02*
X11793700Y-7356400D01*
X11853700Y-7356400D02*
G75*
G02*
X11793700Y-7356400I-30000J0D01*
G01*
X11853700Y-7356400D02*
X11853700Y-7246400D01*
X11853700Y-7246400D02*
G75*
G03*
X11793700Y-7246400I-30000J0D01*
G01*
X12687500Y-14505500D02*
X12687500Y-14565500D01*
X12657500Y-14535500D02*
X12717500Y-14535500D01*
X12717500Y-14590500D02*
X12717500Y-14480500D01*
X12657500Y-14480500D02*
G75*
G02*
X12717500Y-14480500I30000J0D01*
G01*
X12657500Y-14480500D02*
X12657500Y-14590500D01*
X12657500Y-14590500D02*
G75*
G03*
X12717500Y-14590500I30000J0D01*
G01*
X12687500Y-14923500D02*
X12687500Y-14983500D01*
X12657500Y-14953500D02*
X12717500Y-14953500D01*
X12657500Y-14913500D02*
X12657500Y-14993500D01*
X12717500Y-14993500D02*
G75*
G02*
X12657500Y-14993500I-30000J0D01*
G01*
X12717500Y-14993500D02*
X12717500Y-14913500D01*
X12717500Y-14913500D02*
G75*
G03*
X12657500Y-14913500I-30000J0D01*
G01*
X12687700Y-6853400D02*
X12687700Y-6913400D01*
X12657700Y-6883400D02*
X12717700Y-6883400D01*
X12717700Y-6923400D02*
X12717700Y-6843400D01*
X12657700Y-6843400D02*
G75*
G02*
X12717700Y-6843400I30000J0D01*
G01*
X12657700Y-6843400D02*
X12657700Y-6923400D01*
X12657700Y-6923400D02*
G75*
G03*
X12717700Y-6923400I30000J0D01*
G01*
X12687700Y-7271400D02*
X12687700Y-7331400D01*
X12657700Y-7301400D02*
X12717700Y-7301400D01*
X12657700Y-7246400D02*
X12657700Y-7356400D01*
X12717700Y-7356400D02*
G75*
G02*
X12657700Y-7356400I-30000J0D01*
G01*
X12717700Y-7356400D02*
X12717700Y-7246400D01*
X12717700Y-7246400D02*
G75*
G03*
X12657700Y-7246400I-30000J0D01*
G01*
X12738510Y-8242710D02*
X12738510Y-8191090D01*
X12686890Y-8191090D01*
X12686890Y-8242710D01*
X12738510Y-8242710D01*
X12938510Y-8242710D02*
X12938510Y-8191090D01*
X12886890Y-8191090D01*
X12886890Y-8242710D01*
X12938510Y-8242710D01*
X11557000Y-9448000D02*
X11607000Y-9398000D01*
X11557000Y-9348000D01*
X11507000Y-9398000D01*
X11557000Y-9448000D01*
X11684000Y-10718000D02*
X11734000Y-10668000D01*
X11684000Y-10618000D01*
X11634000Y-10668000D01*
X11684000Y-10718000D01*
X11684000Y-10972000D02*
X11734000Y-10922000D01*
X11684000Y-10872000D01*
X11634000Y-10922000D01*
X11684000Y-10972000D01*
X11684000Y-11226000D02*
X11734000Y-11176000D01*
X11684000Y-11126000D01*
X11634000Y-11176000D01*
X11684000Y-11226000D01*
X11684000Y-11480000D02*
X11734000Y-11430000D01*
X11684000Y-11380000D01*
X11634000Y-11430000D01*
X11684000Y-11480000D01*
X11684000Y-11734000D02*
X11734000Y-11684000D01*
X11684000Y-11634000D01*
X11634000Y-11684000D01*
X11684000Y-11734000D01*
X11684000Y-11988000D02*
X11734000Y-11938000D01*
X11684000Y-11888000D01*
X11634000Y-11938000D01*
X11684000Y-11988000D01*
X11684000Y-12242000D02*
X11734000Y-12192000D01*
X11684000Y-12142000D01*
X11634000Y-12192000D01*
X11684000Y-12242000D01*
X11684000Y-12496000D02*
X11734000Y-12446000D01*
X11684000Y-12396000D01*
X11634000Y-12446000D01*
X11684000Y-12496000D01*
X11684000Y-12750000D02*
X11734000Y-12700000D01*
X11684000Y-12650000D01*
X11634000Y-12700000D01*
X11684000Y-12750000D01*
X11684000Y-13004000D02*
X11734000Y-12954000D01*
X11684000Y-12904000D01*
X11634000Y-12954000D01*
X11684000Y-13004000D01*
X11684000Y-13512000D02*
X11734000Y-13462000D01*
X11684000Y-13412000D01*
X11634000Y-13462000D01*
X11684000Y-13512000D01*
X11684000Y-13766000D02*
X11734000Y-13716000D01*
X11684000Y-13666000D01*
X11634000Y-13716000D01*
X11684000Y-13766000D01*
X11684000Y-14020000D02*
X11734000Y-13970000D01*
X11684000Y-13920000D01*
X11634000Y-13970000D01*
X11684000Y-14020000D01*
X11811000Y-9448000D02*
X11861000Y-9398000D01*
X11811000Y-9348000D01*
X11761000Y-9398000D01*
X11811000Y-9448000D01*
X11938000Y-10718000D02*
X11988000Y-10668000D01*
X11938000Y-10618000D01*
X11888000Y-10668000D01*
X11938000Y-10718000D01*
X11938000Y-10972000D02*
X11988000Y-10922000D01*
X11938000Y-10872000D01*
X11888000Y-10922000D01*
X11938000Y-10972000D01*
X11938000Y-11226000D02*
X11988000Y-11176000D01*
X11938000Y-11126000D01*
X11888000Y-11176000D01*
X11938000Y-11226000D01*
X11938000Y-11480000D02*
X11988000Y-11430000D01*
X11938000Y-11380000D01*
X11888000Y-11430000D01*
X11938000Y-11480000D01*
X11938000Y-11734000D02*
X11988000Y-11684000D01*
X11938000Y-11634000D01*
X11888000Y-11684000D01*
X11938000Y-11734000D01*
X11938000Y-11988000D02*
X11988000Y-11938000D01*
X11938000Y-11888000D01*
X11888000Y-11938000D01*
X11938000Y-11988000D01*
X11938000Y-12242000D02*
X11988000Y-12192000D01*
X11938000Y-12142000D01*
X11888000Y-12192000D01*
X11938000Y-12242000D01*
X11938000Y-12496000D02*
X11988000Y-12446000D01*
X11938000Y-12396000D01*
X11888000Y-12446000D01*
X11938000Y-12496000D01*
X11938000Y-12750000D02*
X11988000Y-12700000D01*
X11938000Y-12650000D01*
X11888000Y-12700000D01*
X11938000Y-12750000D01*
X11938000Y-13004000D02*
X11988000Y-12954000D01*
X11938000Y-12904000D01*
X11888000Y-12954000D01*
X11938000Y-13004000D01*
X12445500Y-13512000D02*
X12495500Y-13462000D01*
X12445500Y-13412000D01*
X12395500Y-13462000D01*
X12445500Y-13512000D01*
X12446000Y-9448000D02*
X12496000Y-9398000D01*
X12446000Y-9348000D01*
X12396000Y-9398000D01*
X12446000Y-9448000D01*
X12446000Y-9702000D02*
X12496000Y-9652000D01*
X12446000Y-9602000D01*
X12396000Y-9652000D01*
X12446000Y-9702000D01*
X12699500Y-13512000D02*
X12749500Y-13462000D01*
X12699500Y-13412000D01*
X12649500Y-13462000D01*
X12699500Y-13512000D01*
X12700000Y-9448000D02*
X12750000Y-9398000D01*
X12700000Y-9348000D01*
X12650000Y-9398000D01*
X12700000Y-9448000D01*
X12700000Y-9702000D02*
X12750000Y-9652000D01*
X12700000Y-9602000D01*
X12650000Y-9652000D01*
X12700000Y-9702000D01*
X12954000Y-9448000D02*
X13004000Y-9398000D01*
X12954000Y-9348000D01*
X12904000Y-9398000D01*
X12954000Y-9448000D01*
X12954000Y-9702000D02*
X13004000Y-9652000D01*
X12954000Y-9602000D01*
X12904000Y-9652000D01*
X12954000Y-9702000D01*
X13208000Y-9448000D02*
X13258000Y-9398000D01*
X13208000Y-9348000D01*
X13158000Y-9398000D01*
X13208000Y-9448000D01*
X13208000Y-9702000D02*
X13258000Y-9652000D01*
X13208000Y-9602000D01*
X13158000Y-9652000D01*
X13208000Y-9702000D01*
X13462000Y-9448000D02*
X13512000Y-9398000D01*
X13462000Y-9348000D01*
X13412000Y-9398000D01*
X13462000Y-9448000D01*
X13462000Y-9702000D02*
X13512000Y-9652000D01*
X13462000Y-9602000D01*
X13412000Y-9652000D01*
X13462000Y-9702000D01*
X13538200Y-7403300D02*
X13588200Y-7353300D01*
X13538200Y-7303300D01*
X13488200Y-7353300D01*
X13538200Y-7403300D01*
X13538200Y-7657300D02*
X13588200Y-7607300D01*
X13538200Y-7557300D01*
X13488200Y-7607300D01*
X13538200Y-7657300D01*
X13716000Y-9448000D02*
X13766000Y-9398000D01*
X13716000Y-9348000D01*
X13666000Y-9398000D01*
X13716000Y-9448000D01*
X13716000Y-9702000D02*
X13766000Y-9652000D01*
X13716000Y-9602000D01*
X13666000Y-9652000D01*
X13716000Y-9702000D01*
X13957300Y-8203400D02*
X14007300Y-8153400D01*
X13957300Y-8103400D01*
X13907300Y-8153400D01*
X13957300Y-8203400D01*
X13970000Y-9448000D02*
X14020000Y-9398000D01*
X13970000Y-9348000D01*
X13920000Y-9398000D01*
X13970000Y-9448000D01*
X13970000Y-9702000D02*
X14020000Y-9652000D01*
X13970000Y-9602000D01*
X13920000Y-9652000D01*
X13970000Y-9702000D01*
X13970000Y-14782000D02*
X14020000Y-14732000D01*
X13970000Y-14682000D01*
X13920000Y-14732000D01*
X13970000Y-14782000D01*
X13970000Y-15036000D02*
X14020000Y-14986000D01*
X13970000Y-14936000D01*
X13920000Y-14986000D01*
X13970000Y-15036000D01*
X14211300Y-8203400D02*
X14261300Y-8153400D01*
X14211300Y-8103400D01*
X14161300Y-8153400D01*
X14211300Y-8203400D01*
X14224000Y-9448000D02*
X14274000Y-9398000D01*
X14224000Y-9348000D01*
X14174000Y-9398000D01*
X14224000Y-9448000D01*
X14224000Y-9702000D02*
X14274000Y-9652000D01*
X14224000Y-9602000D01*
X14174000Y-9652000D01*
X14224000Y-9702000D01*
X14224000Y-14782000D02*
X14274000Y-14732000D01*
X14224000Y-14682000D01*
X14174000Y-14732000D01*
X14224000Y-14782000D01*
X14224000Y-15036000D02*
X14274000Y-14986000D01*
X14224000Y-14936000D01*
X14174000Y-14986000D01*
X14224000Y-15036000D01*
X14478000Y-14782000D02*
X14528000Y-14732000D01*
X14478000Y-14682000D01*
X14428000Y-14732000D01*
X14478000Y-14782000D01*
X14478000Y-15036000D02*
X14528000Y-14986000D01*
X14478000Y-14936000D01*
X14428000Y-14986000D01*
X14478000Y-15036000D01*
X14732000Y-14782000D02*
X14782000Y-14732000D01*
X14732000Y-14682000D01*
X14682000Y-14732000D01*
X14732000Y-14782000D01*
X14732000Y-15036000D02*
X14782000Y-14986000D01*
X14732000Y-14936000D01*
X14682000Y-14986000D01*
X14732000Y-15036000D01*
X14986000Y-14782000D02*
X15036000Y-14732000D01*
X14986000Y-14682000D01*
X14936000Y-14732000D01*
X14986000Y-14782000D01*
X14986000Y-15036000D02*
X15036000Y-14986000D01*
X14986000Y-14936000D01*
X14936000Y-14986000D01*
X14986000Y-15036000D01*
X15240000Y-14782000D02*
X15290000Y-14732000D01*
X15240000Y-14682000D01*
X15190000Y-14732000D01*
X15240000Y-14782000D01*
X15240000Y-15036000D02*
X15290000Y-14986000D01*
X15240000Y-14936000D01*
X15190000Y-14986000D01*
X15240000Y-15036000D01*
X15494000Y-14782000D02*
X15544000Y-14732000D01*
X15494000Y-14682000D01*
X15444000Y-14732000D01*
X15494000Y-14782000D01*
X15494000Y-15036000D02*
X15544000Y-14986000D01*
X15494000Y-14936000D01*
X15444000Y-14986000D01*
X15494000Y-15036000D01*
X15748000Y-14782000D02*
X15798000Y-14732000D01*
X15748000Y-14682000D01*
X15698000Y-14732000D01*
X15748000Y-14782000D01*
X15748000Y-15036000D02*
X15798000Y-14986000D01*
X15748000Y-14936000D01*
X15698000Y-14986000D01*
X15748000Y-15036000D01*
X16002000Y-10718000D02*
X16052000Y-10668000D01*
X16002000Y-10618000D01*
X15952000Y-10668000D01*
X16002000Y-10718000D01*
X16002000Y-10972000D02*
X16052000Y-10922000D01*
X16002000Y-10872000D01*
X15952000Y-10922000D01*
X16002000Y-10972000D01*
X16002000Y-11226000D02*
X16052000Y-11176000D01*
X16002000Y-11126000D01*
X15952000Y-11176000D01*
X16002000Y-11226000D01*
X16002000Y-11480000D02*
X16052000Y-11430000D01*
X16002000Y-11380000D01*
X15952000Y-11430000D01*
X16002000Y-11480000D01*
X16002000Y-11734000D02*
X16052000Y-11684000D01*
X16002000Y-11634000D01*
X15952000Y-11684000D01*
X16002000Y-11734000D01*
X16002000Y-11988000D02*
X16052000Y-11938000D01*
X16002000Y-11888000D01*
X15952000Y-11938000D01*
X16002000Y-11988000D01*
X16002000Y-12242000D02*
X16052000Y-12192000D01*
X16002000Y-12142000D01*
X15952000Y-12192000D01*
X16002000Y-12242000D01*
X16002000Y-12496000D02*
X16052000Y-12446000D01*
X16002000Y-12396000D01*
X15952000Y-12446000D01*
X16002000Y-12496000D01*
X16002000Y-12750000D02*
X16052000Y-12700000D01*
X16002000Y-12650000D01*
X15952000Y-12700000D01*
X16002000Y-12750000D01*
X16002000Y-13004000D02*
X16052000Y-12954000D01*
X16002000Y-12904000D01*
X15952000Y-12954000D01*
X16002000Y-13004000D01*
X16002000Y-14782000D02*
X16052000Y-14732000D01*
X16002000Y-14682000D01*
X15952000Y-14732000D01*
X16002000Y-14782000D01*
X16002000Y-15036000D02*
X16052000Y-14986000D01*
X16002000Y-14936000D01*
X15952000Y-14986000D01*
X16002000Y-15036000D01*
X16256000Y-7416000D02*
X16306000Y-7366000D01*
X16256000Y-7316000D01*
X16206000Y-7366000D01*
X16256000Y-7416000D01*
X16256000Y-7670000D02*
X16306000Y-7620000D01*
X16256000Y-7570000D01*
X16206000Y-7620000D01*
X16256000Y-7670000D01*
X16256000Y-7924000D02*
X16306000Y-7874000D01*
X16256000Y-7824000D01*
X16206000Y-7874000D01*
X16256000Y-7924000D01*
X16256000Y-8178000D02*
X16306000Y-8128000D01*
X16256000Y-8078000D01*
X16206000Y-8128000D01*
X16256000Y-8178000D01*
X16256000Y-8432000D02*
X16306000Y-8382000D01*
X16256000Y-8332000D01*
X16206000Y-8382000D01*
X16256000Y-8432000D01*
X16256000Y-8686000D02*
X16306000Y-8636000D01*
X16256000Y-8586000D01*
X16206000Y-8636000D01*
X16256000Y-8686000D01*
X16256000Y-8940000D02*
X16306000Y-8890000D01*
X16256000Y-8840000D01*
X16206000Y-8890000D01*
X16256000Y-8940000D01*
X16256000Y-9194000D02*
X16306000Y-9144000D01*
X16256000Y-9094000D01*
X16206000Y-9144000D01*
X16256000Y-9194000D01*
X16256000Y-10718000D02*
X16306000Y-10668000D01*
X16256000Y-10618000D01*
X16206000Y-10668000D01*
X16256000Y-10718000D01*
X16256000Y-10972000D02*
X16306000Y-10922000D01*
X16256000Y-10872000D01*
X16206000Y-10922000D01*
X16256000Y-10972000D01*
X16256000Y-11226000D02*
X16306000Y-11176000D01*
X16256000Y-11126000D01*
X16206000Y-11176000D01*
X16256000Y-11226000D01*
X16256000Y-11480000D02*
X16306000Y-11430000D01*
X16256000Y-11380000D01*
X16206000Y-11430000D01*
X16256000Y-11480000D01*
X16256000Y-11734000D02*
X16306000Y-11684000D01*
X16256000Y-11634000D01*
X16206000Y-11684000D01*
X16256000Y-11734000D01*
X16256000Y-11988000D02*
X16306000Y-11938000D01*
X16256000Y-11888000D01*
X16206000Y-11938000D01*
X16256000Y-11988000D01*
X16256000Y-12242000D02*
X16306000Y-12192000D01*
X16256000Y-12142000D01*
X16206000Y-12192000D01*
X16256000Y-12242000D01*
X16256000Y-12496000D02*
X16306000Y-12446000D01*
X16256000Y-12396000D01*
X16206000Y-12446000D01*
X16256000Y-12496000D01*
X16256000Y-12750000D02*
X16306000Y-12700000D01*
X16256000Y-12650000D01*
X16206000Y-12700000D01*
X16256000Y-12750000D01*
X16256000Y-13004000D02*
X16306000Y-12954000D01*
X16256000Y-12904000D01*
X16206000Y-12954000D01*
X16256000Y-13004000D01*
X16256000Y-13512000D02*
X16306000Y-13462000D01*
X16256000Y-13412000D01*
X16206000Y-13462000D01*
X16256000Y-13512000D01*
X16256000Y-13766000D02*
X16306000Y-13716000D01*
X16256000Y-13666000D01*
X16206000Y-13716000D01*
X16256000Y-13766000D01*
X16256000Y-14020000D02*
X16306000Y-13970000D01*
X16256000Y-13920000D01*
X16206000Y-13970000D01*
X16256000Y-14020000D01*
X16256000Y-14782000D02*
X16306000Y-14732000D01*
X16256000Y-14682000D01*
X16206000Y-14732000D01*
X16256000Y-14782000D01*
X16256000Y-15036000D02*
X16306000Y-14986000D01*
X16256000Y-14936000D01*
X16206000Y-14986000D01*
X16256000Y-15036000D01*
X16510000Y-7416000D02*
X16560000Y-7366000D01*
X16510000Y-7316000D01*
X16460000Y-7366000D01*
X16510000Y-7416000D01*
X16510000Y-7670000D02*
X16560000Y-7620000D01*
X16510000Y-7570000D01*
X16460000Y-7620000D01*
X16510000Y-7670000D01*
X16510000Y-7924000D02*
X16560000Y-7874000D01*
X16510000Y-7824000D01*
X16460000Y-7874000D01*
X16510000Y-7924000D01*
X16510000Y-8178000D02*
X16560000Y-8128000D01*
X16510000Y-8078000D01*
X16460000Y-8128000D01*
X16510000Y-8178000D01*
X16510000Y-8432000D02*
X16560000Y-8382000D01*
X16510000Y-8332000D01*
X16460000Y-8382000D01*
X16510000Y-8432000D01*
X16510000Y-8686000D02*
X16560000Y-8636000D01*
X16510000Y-8586000D01*
X16460000Y-8636000D01*
X16510000Y-8686000D01*
X16510000Y-8940000D02*
X16560000Y-8890000D01*
X16510000Y-8840000D01*
X16460000Y-8890000D01*
X16510000Y-8940000D01*
X16510000Y-9194000D02*
X16560000Y-9144000D01*
X16510000Y-9094000D01*
X16460000Y-9144000D01*
X16510000Y-9194000D01*
D11*
X11307277Y-15426984D02*
X11307277Y-15226984D01*
X11307277Y-15226984D02*
X11354896Y-15226984D01*
X11354896Y-15226984D02*
X11383467Y-15236508D01*
X11383467Y-15236508D02*
X11402515Y-15255555D01*
X11402515Y-15255555D02*
X11412039Y-15274603D01*
X11412039Y-15274603D02*
X11421562Y-15312698D01*
X11421562Y-15312698D02*
X11421562Y-15341269D01*
X11421562Y-15341269D02*
X11412039Y-15379365D01*
X11412039Y-15379365D02*
X11402515Y-15398412D01*
X11402515Y-15398412D02*
X11383467Y-15417460D01*
X11383467Y-15417460D02*
X11354896Y-15426984D01*
X11354896Y-15426984D02*
X11307277Y-15426984D01*
X11507277Y-15426984D02*
X11507277Y-15293650D01*
X11507277Y-15331746D02*
X11516800Y-15312698D01*
X11516800Y-15312698D02*
X11526324Y-15303174D01*
X11526324Y-15303174D02*
X11545372Y-15293650D01*
X11545372Y-15293650D02*
X11564420Y-15293650D01*
X11631086Y-15426984D02*
X11631086Y-15293650D01*
X11631086Y-15226984D02*
X11621562Y-15236508D01*
X11621562Y-15236508D02*
X11631086Y-15246031D01*
X11631086Y-15246031D02*
X11640610Y-15236508D01*
X11640610Y-15236508D02*
X11631086Y-15226984D01*
X11631086Y-15226984D02*
X11631086Y-15246031D01*
X11754896Y-15426984D02*
X11735848Y-15417460D01*
X11735848Y-15417460D02*
X11726324Y-15398412D01*
X11726324Y-15398412D02*
X11726324Y-15226984D01*
X11859658Y-15426984D02*
X11840610Y-15417460D01*
X11840610Y-15417460D02*
X11831086Y-15398412D01*
X11831086Y-15398412D02*
X11831086Y-15226984D01*
X12088229Y-15426984D02*
X12088229Y-15226984D01*
X12088229Y-15226984D02*
X12154896Y-15369841D01*
X12154896Y-15369841D02*
X12221562Y-15226984D01*
X12221562Y-15226984D02*
X12221562Y-15426984D01*
X12402515Y-15426984D02*
X12402515Y-15322222D01*
X12402515Y-15322222D02*
X12392991Y-15303174D01*
X12392991Y-15303174D02*
X12373943Y-15293650D01*
X12373943Y-15293650D02*
X12335848Y-15293650D01*
X12335848Y-15293650D02*
X12316800Y-15303174D01*
X12402515Y-15417460D02*
X12383467Y-15426984D01*
X12383467Y-15426984D02*
X12335848Y-15426984D01*
X12335848Y-15426984D02*
X12316800Y-15417460D01*
X12316800Y-15417460D02*
X12307277Y-15398412D01*
X12307277Y-15398412D02*
X12307277Y-15379365D01*
X12307277Y-15379365D02*
X12316800Y-15360317D01*
X12316800Y-15360317D02*
X12335848Y-15350793D01*
X12335848Y-15350793D02*
X12383467Y-15350793D01*
X12383467Y-15350793D02*
X12402515Y-15341269D01*
X12497753Y-15293650D02*
X12497753Y-15493650D01*
X12497753Y-15303174D02*
X12516800Y-15293650D01*
X12516800Y-15293650D02*
X12554896Y-15293650D01*
X12554896Y-15293650D02*
X12573943Y-15303174D01*
X12573943Y-15303174D02*
X12583467Y-15312698D01*
X12583467Y-15312698D02*
X12592991Y-15331746D01*
X12592991Y-15331746D02*
X12592991Y-15388888D01*
X12592991Y-15388888D02*
X12583467Y-15407936D01*
X12583467Y-15407936D02*
X12573943Y-15417460D01*
X12573943Y-15417460D02*
X12554896Y-15426984D01*
X12554896Y-15426984D02*
X12516800Y-15426984D01*
X12516800Y-15426984D02*
X12497753Y-15417460D01*
X12678705Y-15407936D02*
X12688229Y-15417460D01*
X12688229Y-15417460D02*
X12678705Y-15426984D01*
X12678705Y-15426984D02*
X12669181Y-15417460D01*
X12669181Y-15417460D02*
X12678705Y-15407936D01*
X12678705Y-15407936D02*
X12678705Y-15426984D01*
X12678705Y-15303174D02*
X12688229Y-15312698D01*
X12688229Y-15312698D02*
X12678705Y-15322222D01*
X12678705Y-15322222D02*
X12669181Y-15312698D01*
X12669181Y-15312698D02*
X12678705Y-15303174D01*
X12678705Y-15303174D02*
X12678705Y-15322222D01*
D12*
X11026500Y-15745500D02*
X11046500Y-15765500D01*
X11046500Y-15745500D02*
X11026500Y-15765500D01*
D11*
X11345372Y-15646984D02*
X11364420Y-15646984D01*
X11364420Y-15646984D02*
X11383467Y-15656508D01*
X11383467Y-15656508D02*
X11392991Y-15666031D01*
X11392991Y-15666031D02*
X11402515Y-15685079D01*
X11402515Y-15685079D02*
X11412039Y-15723174D01*
X11412039Y-15723174D02*
X11412039Y-15770793D01*
X11412039Y-15770793D02*
X11402515Y-15808888D01*
X11402515Y-15808888D02*
X11392991Y-15827936D01*
X11392991Y-15827936D02*
X11383467Y-15837460D01*
X11383467Y-15837460D02*
X11364420Y-15846984D01*
X11364420Y-15846984D02*
X11345372Y-15846984D01*
X11345372Y-15846984D02*
X11326324Y-15837460D01*
X11326324Y-15837460D02*
X11316800Y-15827936D01*
X11316800Y-15827936D02*
X11307277Y-15808888D01*
X11307277Y-15808888D02*
X11297753Y-15770793D01*
X11297753Y-15770793D02*
X11297753Y-15723174D01*
X11297753Y-15723174D02*
X11307277Y-15685079D01*
X11307277Y-15685079D02*
X11316800Y-15666031D01*
X11316800Y-15666031D02*
X11326324Y-15656508D01*
X11326324Y-15656508D02*
X11345372Y-15646984D01*
X11497753Y-15827936D02*
X11507277Y-15837460D01*
X11507277Y-15837460D02*
X11497753Y-15846984D01*
X11497753Y-15846984D02*
X11488229Y-15837460D01*
X11488229Y-15837460D02*
X11497753Y-15827936D01*
X11497753Y-15827936D02*
X11497753Y-15846984D01*
X11583467Y-15666031D02*
X11592991Y-15656508D01*
X11592991Y-15656508D02*
X11612039Y-15646984D01*
X11612039Y-15646984D02*
X11659658Y-15646984D01*
X11659658Y-15646984D02*
X11678705Y-15656508D01*
X11678705Y-15656508D02*
X11688229Y-15666031D01*
X11688229Y-15666031D02*
X11697753Y-15685079D01*
X11697753Y-15685079D02*
X11697753Y-15704127D01*
X11697753Y-15704127D02*
X11688229Y-15732698D01*
X11688229Y-15732698D02*
X11573943Y-15846984D01*
X11573943Y-15846984D02*
X11697753Y-15846984D01*
X11821562Y-15646984D02*
X11840610Y-15646984D01*
X11840610Y-15646984D02*
X11859658Y-15656508D01*
X11859658Y-15656508D02*
X11869181Y-15666031D01*
X11869181Y-15666031D02*
X11878705Y-15685079D01*
X11878705Y-15685079D02*
X11888229Y-15723174D01*
X11888229Y-15723174D02*
X11888229Y-15770793D01*
X11888229Y-15770793D02*
X11878705Y-15808888D01*
X11878705Y-15808888D02*
X11869181Y-15827936D01*
X11869181Y-15827936D02*
X11859658Y-15837460D01*
X11859658Y-15837460D02*
X11840610Y-15846984D01*
X11840610Y-15846984D02*
X11821562Y-15846984D01*
X11821562Y-15846984D02*
X11802515Y-15837460D01*
X11802515Y-15837460D02*
X11792991Y-15827936D01*
X11792991Y-15827936D02*
X11783467Y-15808888D01*
X11783467Y-15808888D02*
X11773943Y-15770793D01*
X11773943Y-15770793D02*
X11773943Y-15723174D01*
X11773943Y-15723174D02*
X11783467Y-15685079D01*
X11783467Y-15685079D02*
X11792991Y-15666031D01*
X11792991Y-15666031D02*
X11802515Y-15656508D01*
X11802515Y-15656508D02*
X11821562Y-15646984D01*
X12012039Y-15646984D02*
X12031086Y-15646984D01*
X12031086Y-15646984D02*
X12050134Y-15656508D01*
X12050134Y-15656508D02*
X12059658Y-15666031D01*
X12059658Y-15666031D02*
X12069181Y-15685079D01*
X12069181Y-15685079D02*
X12078705Y-15723174D01*
X12078705Y-15723174D02*
X12078705Y-15770793D01*
X12078705Y-15770793D02*
X12069181Y-15808888D01*
X12069181Y-15808888D02*
X12059658Y-15827936D01*
X12059658Y-15827936D02*
X12050134Y-15837460D01*
X12050134Y-15837460D02*
X12031086Y-15846984D01*
X12031086Y-15846984D02*
X12012039Y-15846984D01*
X12012039Y-15846984D02*
X11992991Y-15837460D01*
X11992991Y-15837460D02*
X11983467Y-15827936D01*
X11983467Y-15827936D02*
X11973943Y-15808888D01*
X11973943Y-15808888D02*
X11964420Y-15770793D01*
X11964420Y-15770793D02*
X11964420Y-15723174D01*
X11964420Y-15723174D02*
X11973943Y-15685079D01*
X11973943Y-15685079D02*
X11983467Y-15666031D01*
X11983467Y-15666031D02*
X11992991Y-15656508D01*
X11992991Y-15656508D02*
X12012039Y-15646984D01*
X12164420Y-15846984D02*
X12164420Y-15713650D01*
X12164420Y-15732698D02*
X12173943Y-15723174D01*
X12173943Y-15723174D02*
X12192991Y-15713650D01*
X12192991Y-15713650D02*
X12221562Y-15713650D01*
X12221562Y-15713650D02*
X12240610Y-15723174D01*
X12240610Y-15723174D02*
X12250134Y-15742222D01*
X12250134Y-15742222D02*
X12250134Y-15846984D01*
X12250134Y-15742222D02*
X12259658Y-15723174D01*
X12259658Y-15723174D02*
X12278705Y-15713650D01*
X12278705Y-15713650D02*
X12307277Y-15713650D01*
X12307277Y-15713650D02*
X12326324Y-15723174D01*
X12326324Y-15723174D02*
X12335848Y-15742222D01*
X12335848Y-15742222D02*
X12335848Y-15846984D01*
X12431086Y-15846984D02*
X12431086Y-15713650D01*
X12431086Y-15732698D02*
X12440610Y-15723174D01*
X12440610Y-15723174D02*
X12459658Y-15713650D01*
X12459658Y-15713650D02*
X12488229Y-15713650D01*
X12488229Y-15713650D02*
X12507277Y-15723174D01*
X12507277Y-15723174D02*
X12516801Y-15742222D01*
X12516801Y-15742222D02*
X12516801Y-15846984D01*
X12516801Y-15742222D02*
X12526324Y-15723174D01*
X12526324Y-15723174D02*
X12545372Y-15713650D01*
X12545372Y-15713650D02*
X12573943Y-15713650D01*
X12573943Y-15713650D02*
X12592991Y-15723174D01*
X12592991Y-15723174D02*
X12602515Y-15742222D01*
X12602515Y-15742222D02*
X12602515Y-15846984D01*
X12992991Y-15637460D02*
X12821563Y-15894603D01*
X13250134Y-15646984D02*
X13269182Y-15646984D01*
X13269182Y-15646984D02*
X13288229Y-15656508D01*
X13288229Y-15656508D02*
X13297753Y-15666031D01*
X13297753Y-15666031D02*
X13307277Y-15685079D01*
X13307277Y-15685079D02*
X13316801Y-15723174D01*
X13316801Y-15723174D02*
X13316801Y-15770793D01*
X13316801Y-15770793D02*
X13307277Y-15808888D01*
X13307277Y-15808888D02*
X13297753Y-15827936D01*
X13297753Y-15827936D02*
X13288229Y-15837460D01*
X13288229Y-15837460D02*
X13269182Y-15846984D01*
X13269182Y-15846984D02*
X13250134Y-15846984D01*
X13250134Y-15846984D02*
X13231086Y-15837460D01*
X13231086Y-15837460D02*
X13221563Y-15827936D01*
X13221563Y-15827936D02*
X13212039Y-15808888D01*
X13212039Y-15808888D02*
X13202515Y-15770793D01*
X13202515Y-15770793D02*
X13202515Y-15723174D01*
X13202515Y-15723174D02*
X13212039Y-15685079D01*
X13212039Y-15685079D02*
X13221563Y-15666031D01*
X13221563Y-15666031D02*
X13231086Y-15656508D01*
X13231086Y-15656508D02*
X13250134Y-15646984D01*
X13402515Y-15827936D02*
X13412039Y-15837460D01*
X13412039Y-15837460D02*
X13402515Y-15846984D01*
X13402515Y-15846984D02*
X13392991Y-15837460D01*
X13392991Y-15837460D02*
X13402515Y-15827936D01*
X13402515Y-15827936D02*
X13402515Y-15846984D01*
X13535848Y-15646984D02*
X13554896Y-15646984D01*
X13554896Y-15646984D02*
X13573944Y-15656508D01*
X13573944Y-15656508D02*
X13583467Y-15666031D01*
X13583467Y-15666031D02*
X13592991Y-15685079D01*
X13592991Y-15685079D02*
X13602515Y-15723174D01*
X13602515Y-15723174D02*
X13602515Y-15770793D01*
X13602515Y-15770793D02*
X13592991Y-15808888D01*
X13592991Y-15808888D02*
X13583467Y-15827936D01*
X13583467Y-15827936D02*
X13573944Y-15837460D01*
X13573944Y-15837460D02*
X13554896Y-15846984D01*
X13554896Y-15846984D02*
X13535848Y-15846984D01*
X13535848Y-15846984D02*
X13516801Y-15837460D01*
X13516801Y-15837460D02*
X13507277Y-15827936D01*
X13507277Y-15827936D02*
X13497753Y-15808888D01*
X13497753Y-15808888D02*
X13488229Y-15770793D01*
X13488229Y-15770793D02*
X13488229Y-15723174D01*
X13488229Y-15723174D02*
X13497753Y-15685079D01*
X13497753Y-15685079D02*
X13507277Y-15666031D01*
X13507277Y-15666031D02*
X13516801Y-15656508D01*
X13516801Y-15656508D02*
X13535848Y-15646984D01*
X13726324Y-15646984D02*
X13745372Y-15646984D01*
X13745372Y-15646984D02*
X13764420Y-15656508D01*
X13764420Y-15656508D02*
X13773944Y-15666031D01*
X13773944Y-15666031D02*
X13783467Y-15685079D01*
X13783467Y-15685079D02*
X13792991Y-15723174D01*
X13792991Y-15723174D02*
X13792991Y-15770793D01*
X13792991Y-15770793D02*
X13783467Y-15808888D01*
X13783467Y-15808888D02*
X13773944Y-15827936D01*
X13773944Y-15827936D02*
X13764420Y-15837460D01*
X13764420Y-15837460D02*
X13745372Y-15846984D01*
X13745372Y-15846984D02*
X13726324Y-15846984D01*
X13726324Y-15846984D02*
X13707277Y-15837460D01*
X13707277Y-15837460D02*
X13697753Y-15827936D01*
X13697753Y-15827936D02*
X13688229Y-15808888D01*
X13688229Y-15808888D02*
X13678705Y-15770793D01*
X13678705Y-15770793D02*
X13678705Y-15723174D01*
X13678705Y-15723174D02*
X13688229Y-15685079D01*
X13688229Y-15685079D02*
X13697753Y-15666031D01*
X13697753Y-15666031D02*
X13707277Y-15656508D01*
X13707277Y-15656508D02*
X13726324Y-15646984D01*
X13859658Y-15646984D02*
X13992991Y-15646984D01*
X13992991Y-15646984D02*
X13907277Y-15846984D01*
X14078705Y-15846984D02*
X14116801Y-15846984D01*
X14116801Y-15846984D02*
X14135848Y-15837460D01*
X14135848Y-15837460D02*
X14145372Y-15827936D01*
X14145372Y-15827936D02*
X14164420Y-15799365D01*
X14164420Y-15799365D02*
X14173944Y-15761269D01*
X14173944Y-15761269D02*
X14173944Y-15685079D01*
X14173944Y-15685079D02*
X14164420Y-15666031D01*
X14164420Y-15666031D02*
X14154896Y-15656508D01*
X14154896Y-15656508D02*
X14135848Y-15646984D01*
X14135848Y-15646984D02*
X14097753Y-15646984D01*
X14097753Y-15646984D02*
X14078705Y-15656508D01*
X14078705Y-15656508D02*
X14069182Y-15666031D01*
X14069182Y-15666031D02*
X14059658Y-15685079D01*
X14059658Y-15685079D02*
X14059658Y-15732698D01*
X14059658Y-15732698D02*
X14069182Y-15751746D01*
X14069182Y-15751746D02*
X14078705Y-15761269D01*
X14078705Y-15761269D02*
X14097753Y-15770793D01*
X14097753Y-15770793D02*
X14135848Y-15770793D01*
X14135848Y-15770793D02*
X14154896Y-15761269D01*
X14154896Y-15761269D02*
X14164420Y-15751746D01*
X14164420Y-15751746D02*
X14173944Y-15732698D01*
X14250134Y-15646984D02*
X14250134Y-15685079D01*
X14326325Y-15646984D02*
X14326325Y-15685079D01*
X14621563Y-15923174D02*
X14612039Y-15913650D01*
X14612039Y-15913650D02*
X14592991Y-15885079D01*
X14592991Y-15885079D02*
X14583467Y-15866031D01*
X14583467Y-15866031D02*
X14573944Y-15837460D01*
X14573944Y-15837460D02*
X14564420Y-15789841D01*
X14564420Y-15789841D02*
X14564420Y-15751746D01*
X14564420Y-15751746D02*
X14573944Y-15704127D01*
X14573944Y-15704127D02*
X14583467Y-15675555D01*
X14583467Y-15675555D02*
X14592991Y-15656508D01*
X14592991Y-15656508D02*
X14612039Y-15627936D01*
X14612039Y-15627936D02*
X14621563Y-15618412D01*
X14802515Y-15846984D02*
X14688229Y-15846984D01*
X14745372Y-15846984D02*
X14745372Y-15646984D01*
X14745372Y-15646984D02*
X14726325Y-15675555D01*
X14726325Y-15675555D02*
X14707277Y-15694603D01*
X14707277Y-15694603D02*
X14688229Y-15704127D01*
X14869182Y-15646984D02*
X14992991Y-15646984D01*
X14992991Y-15646984D02*
X14926325Y-15723174D01*
X14926325Y-15723174D02*
X14954896Y-15723174D01*
X14954896Y-15723174D02*
X14973944Y-15732698D01*
X14973944Y-15732698D02*
X14983467Y-15742222D01*
X14983467Y-15742222D02*
X14992991Y-15761269D01*
X14992991Y-15761269D02*
X14992991Y-15808888D01*
X14992991Y-15808888D02*
X14983467Y-15827936D01*
X14983467Y-15827936D02*
X14973944Y-15837460D01*
X14973944Y-15837460D02*
X14954896Y-15846984D01*
X14954896Y-15846984D02*
X14897753Y-15846984D01*
X14897753Y-15846984D02*
X14878706Y-15837460D01*
X14878706Y-15837460D02*
X14869182Y-15827936D01*
X15231087Y-15846984D02*
X15231087Y-15646984D01*
X15316801Y-15846984D02*
X15316801Y-15742222D01*
X15316801Y-15742222D02*
X15307277Y-15723174D01*
X15307277Y-15723174D02*
X15288229Y-15713650D01*
X15288229Y-15713650D02*
X15259658Y-15713650D01*
X15259658Y-15713650D02*
X15240610Y-15723174D01*
X15240610Y-15723174D02*
X15231087Y-15732698D01*
X15440610Y-15846984D02*
X15421563Y-15837460D01*
X15421563Y-15837460D02*
X15412039Y-15827936D01*
X15412039Y-15827936D02*
X15402515Y-15808888D01*
X15402515Y-15808888D02*
X15402515Y-15751746D01*
X15402515Y-15751746D02*
X15412039Y-15732698D01*
X15412039Y-15732698D02*
X15421563Y-15723174D01*
X15421563Y-15723174D02*
X15440610Y-15713650D01*
X15440610Y-15713650D02*
X15469182Y-15713650D01*
X15469182Y-15713650D02*
X15488229Y-15723174D01*
X15488229Y-15723174D02*
X15497753Y-15732698D01*
X15497753Y-15732698D02*
X15507277Y-15751746D01*
X15507277Y-15751746D02*
X15507277Y-15808888D01*
X15507277Y-15808888D02*
X15497753Y-15827936D01*
X15497753Y-15827936D02*
X15488229Y-15837460D01*
X15488229Y-15837460D02*
X15469182Y-15846984D01*
X15469182Y-15846984D02*
X15440610Y-15846984D01*
X15621563Y-15846984D02*
X15602515Y-15837460D01*
X15602515Y-15837460D02*
X15592991Y-15818412D01*
X15592991Y-15818412D02*
X15592991Y-15646984D01*
X15773944Y-15837460D02*
X15754896Y-15846984D01*
X15754896Y-15846984D02*
X15716801Y-15846984D01*
X15716801Y-15846984D02*
X15697753Y-15837460D01*
X15697753Y-15837460D02*
X15688229Y-15818412D01*
X15688229Y-15818412D02*
X15688229Y-15742222D01*
X15688229Y-15742222D02*
X15697753Y-15723174D01*
X15697753Y-15723174D02*
X15716801Y-15713650D01*
X15716801Y-15713650D02*
X15754896Y-15713650D01*
X15754896Y-15713650D02*
X15773944Y-15723174D01*
X15773944Y-15723174D02*
X15783468Y-15742222D01*
X15783468Y-15742222D02*
X15783468Y-15761269D01*
X15783468Y-15761269D02*
X15688229Y-15780317D01*
X15859658Y-15837460D02*
X15878706Y-15846984D01*
X15878706Y-15846984D02*
X15916801Y-15846984D01*
X15916801Y-15846984D02*
X15935849Y-15837460D01*
X15935849Y-15837460D02*
X15945372Y-15818412D01*
X15945372Y-15818412D02*
X15945372Y-15808888D01*
X15945372Y-15808888D02*
X15935849Y-15789841D01*
X15935849Y-15789841D02*
X15916801Y-15780317D01*
X15916801Y-15780317D02*
X15888229Y-15780317D01*
X15888229Y-15780317D02*
X15869182Y-15770793D01*
X15869182Y-15770793D02*
X15859658Y-15751746D01*
X15859658Y-15751746D02*
X15859658Y-15742222D01*
X15859658Y-15742222D02*
X15869182Y-15723174D01*
X15869182Y-15723174D02*
X15888229Y-15713650D01*
X15888229Y-15713650D02*
X15916801Y-15713650D01*
X15916801Y-15713650D02*
X15935849Y-15723174D01*
X16012039Y-15923174D02*
X16021563Y-15913650D01*
X16021563Y-15913650D02*
X16040610Y-15885079D01*
X16040610Y-15885079D02*
X16050134Y-15866031D01*
X16050134Y-15866031D02*
X16059658Y-15837460D01*
X16059658Y-15837460D02*
X16069182Y-15789841D01*
X16069182Y-15789841D02*
X16069182Y-15751746D01*
X16069182Y-15751746D02*
X16059658Y-15704127D01*
X16059658Y-15704127D02*
X16050134Y-15675555D01*
X16050134Y-15675555D02*
X16040610Y-15656508D01*
X16040610Y-15656508D02*
X16021563Y-15627936D01*
X16021563Y-15627936D02*
X16012039Y-15618412D01*
D12*
X11046500Y-16019500D02*
G75*
G02*
X11006500Y-16019500I-20000J0D01*
G01*
X11006500Y-16019500D02*
G75*
G02*
X11046500Y-16019500I20000J0D01*
G01*
D11*
X11345372Y-15910984D02*
X11364420Y-15910984D01*
X11364420Y-15910984D02*
X11383467Y-15920508D01*
X11383467Y-15920508D02*
X11392991Y-15930031D01*
X11392991Y-15930031D02*
X11402515Y-15949079D01*
X11402515Y-15949079D02*
X11412039Y-15987174D01*
X11412039Y-15987174D02*
X11412039Y-16034793D01*
X11412039Y-16034793D02*
X11402515Y-16072888D01*
X11402515Y-16072888D02*
X11392991Y-16091936D01*
X11392991Y-16091936D02*
X11383467Y-16101460D01*
X11383467Y-16101460D02*
X11364420Y-16110984D01*
X11364420Y-16110984D02*
X11345372Y-16110984D01*
X11345372Y-16110984D02*
X11326324Y-16101460D01*
X11326324Y-16101460D02*
X11316800Y-16091936D01*
X11316800Y-16091936D02*
X11307277Y-16072888D01*
X11307277Y-16072888D02*
X11297753Y-16034793D01*
X11297753Y-16034793D02*
X11297753Y-15987174D01*
X11297753Y-15987174D02*
X11307277Y-15949079D01*
X11307277Y-15949079D02*
X11316800Y-15930031D01*
X11316800Y-15930031D02*
X11326324Y-15920508D01*
X11326324Y-15920508D02*
X11345372Y-15910984D01*
X11497753Y-16091936D02*
X11507277Y-16101460D01*
X11507277Y-16101460D02*
X11497753Y-16110984D01*
X11497753Y-16110984D02*
X11488229Y-16101460D01*
X11488229Y-16101460D02*
X11497753Y-16091936D01*
X11497753Y-16091936D02*
X11497753Y-16110984D01*
X11678705Y-15977650D02*
X11678705Y-16110984D01*
X11631086Y-15901460D02*
X11583467Y-16044317D01*
X11583467Y-16044317D02*
X11707277Y-16044317D01*
X11821562Y-15910984D02*
X11840610Y-15910984D01*
X11840610Y-15910984D02*
X11859658Y-15920508D01*
X11859658Y-15920508D02*
X11869181Y-15930031D01*
X11869181Y-15930031D02*
X11878705Y-15949079D01*
X11878705Y-15949079D02*
X11888229Y-15987174D01*
X11888229Y-15987174D02*
X11888229Y-16034793D01*
X11888229Y-16034793D02*
X11878705Y-16072888D01*
X11878705Y-16072888D02*
X11869181Y-16091936D01*
X11869181Y-16091936D02*
X11859658Y-16101460D01*
X11859658Y-16101460D02*
X11840610Y-16110984D01*
X11840610Y-16110984D02*
X11821562Y-16110984D01*
X11821562Y-16110984D02*
X11802515Y-16101460D01*
X11802515Y-16101460D02*
X11792991Y-16091936D01*
X11792991Y-16091936D02*
X11783467Y-16072888D01*
X11783467Y-16072888D02*
X11773943Y-16034793D01*
X11773943Y-16034793D02*
X11773943Y-15987174D01*
X11773943Y-15987174D02*
X11783467Y-15949079D01*
X11783467Y-15949079D02*
X11792991Y-15930031D01*
X11792991Y-15930031D02*
X11802515Y-15920508D01*
X11802515Y-15920508D02*
X11821562Y-15910984D01*
X12012039Y-15910984D02*
X12031086Y-15910984D01*
X12031086Y-15910984D02*
X12050134Y-15920508D01*
X12050134Y-15920508D02*
X12059658Y-15930031D01*
X12059658Y-15930031D02*
X12069181Y-15949079D01*
X12069181Y-15949079D02*
X12078705Y-15987174D01*
X12078705Y-15987174D02*
X12078705Y-16034793D01*
X12078705Y-16034793D02*
X12069181Y-16072888D01*
X12069181Y-16072888D02*
X12059658Y-16091936D01*
X12059658Y-16091936D02*
X12050134Y-16101460D01*
X12050134Y-16101460D02*
X12031086Y-16110984D01*
X12031086Y-16110984D02*
X12012039Y-16110984D01*
X12012039Y-16110984D02*
X11992991Y-16101460D01*
X11992991Y-16101460D02*
X11983467Y-16091936D01*
X11983467Y-16091936D02*
X11973943Y-16072888D01*
X11973943Y-16072888D02*
X11964420Y-16034793D01*
X11964420Y-16034793D02*
X11964420Y-15987174D01*
X11964420Y-15987174D02*
X11973943Y-15949079D01*
X11973943Y-15949079D02*
X11983467Y-15930031D01*
X11983467Y-15930031D02*
X11992991Y-15920508D01*
X11992991Y-15920508D02*
X12012039Y-15910984D01*
X12164420Y-16110984D02*
X12164420Y-15977650D01*
X12164420Y-15996698D02*
X12173943Y-15987174D01*
X12173943Y-15987174D02*
X12192991Y-15977650D01*
X12192991Y-15977650D02*
X12221562Y-15977650D01*
X12221562Y-15977650D02*
X12240610Y-15987174D01*
X12240610Y-15987174D02*
X12250134Y-16006222D01*
X12250134Y-16006222D02*
X12250134Y-16110984D01*
X12250134Y-16006222D02*
X12259658Y-15987174D01*
X12259658Y-15987174D02*
X12278705Y-15977650D01*
X12278705Y-15977650D02*
X12307277Y-15977650D01*
X12307277Y-15977650D02*
X12326324Y-15987174D01*
X12326324Y-15987174D02*
X12335848Y-16006222D01*
X12335848Y-16006222D02*
X12335848Y-16110984D01*
X12431086Y-16110984D02*
X12431086Y-15977650D01*
X12431086Y-15996698D02*
X12440610Y-15987174D01*
X12440610Y-15987174D02*
X12459658Y-15977650D01*
X12459658Y-15977650D02*
X12488229Y-15977650D01*
X12488229Y-15977650D02*
X12507277Y-15987174D01*
X12507277Y-15987174D02*
X12516801Y-16006222D01*
X12516801Y-16006222D02*
X12516801Y-16110984D01*
X12516801Y-16006222D02*
X12526324Y-15987174D01*
X12526324Y-15987174D02*
X12545372Y-15977650D01*
X12545372Y-15977650D02*
X12573943Y-15977650D01*
X12573943Y-15977650D02*
X12592991Y-15987174D01*
X12592991Y-15987174D02*
X12602515Y-16006222D01*
X12602515Y-16006222D02*
X12602515Y-16110984D01*
X12992991Y-15901460D02*
X12821563Y-16158603D01*
X13250134Y-15910984D02*
X13269182Y-15910984D01*
X13269182Y-15910984D02*
X13288229Y-15920508D01*
X13288229Y-15920508D02*
X13297753Y-15930031D01*
X13297753Y-15930031D02*
X13307277Y-15949079D01*
X13307277Y-15949079D02*
X13316801Y-15987174D01*
X13316801Y-15987174D02*
X13316801Y-16034793D01*
X13316801Y-16034793D02*
X13307277Y-16072888D01*
X13307277Y-16072888D02*
X13297753Y-16091936D01*
X13297753Y-16091936D02*
X13288229Y-16101460D01*
X13288229Y-16101460D02*
X13269182Y-16110984D01*
X13269182Y-16110984D02*
X13250134Y-16110984D01*
X13250134Y-16110984D02*
X13231086Y-16101460D01*
X13231086Y-16101460D02*
X13221563Y-16091936D01*
X13221563Y-16091936D02*
X13212039Y-16072888D01*
X13212039Y-16072888D02*
X13202515Y-16034793D01*
X13202515Y-16034793D02*
X13202515Y-15987174D01*
X13202515Y-15987174D02*
X13212039Y-15949079D01*
X13212039Y-15949079D02*
X13221563Y-15930031D01*
X13221563Y-15930031D02*
X13231086Y-15920508D01*
X13231086Y-15920508D02*
X13250134Y-15910984D01*
X13402515Y-16091936D02*
X13412039Y-16101460D01*
X13412039Y-16101460D02*
X13402515Y-16110984D01*
X13402515Y-16110984D02*
X13392991Y-16101460D01*
X13392991Y-16101460D02*
X13402515Y-16091936D01*
X13402515Y-16091936D02*
X13402515Y-16110984D01*
X13535848Y-15910984D02*
X13554896Y-15910984D01*
X13554896Y-15910984D02*
X13573944Y-15920508D01*
X13573944Y-15920508D02*
X13583467Y-15930031D01*
X13583467Y-15930031D02*
X13592991Y-15949079D01*
X13592991Y-15949079D02*
X13602515Y-15987174D01*
X13602515Y-15987174D02*
X13602515Y-16034793D01*
X13602515Y-16034793D02*
X13592991Y-16072888D01*
X13592991Y-16072888D02*
X13583467Y-16091936D01*
X13583467Y-16091936D02*
X13573944Y-16101460D01*
X13573944Y-16101460D02*
X13554896Y-16110984D01*
X13554896Y-16110984D02*
X13535848Y-16110984D01*
X13535848Y-16110984D02*
X13516801Y-16101460D01*
X13516801Y-16101460D02*
X13507277Y-16091936D01*
X13507277Y-16091936D02*
X13497753Y-16072888D01*
X13497753Y-16072888D02*
X13488229Y-16034793D01*
X13488229Y-16034793D02*
X13488229Y-15987174D01*
X13488229Y-15987174D02*
X13497753Y-15949079D01*
X13497753Y-15949079D02*
X13507277Y-15930031D01*
X13507277Y-15930031D02*
X13516801Y-15920508D01*
X13516801Y-15920508D02*
X13535848Y-15910984D01*
X13792991Y-16110984D02*
X13678705Y-16110984D01*
X13735848Y-16110984D02*
X13735848Y-15910984D01*
X13735848Y-15910984D02*
X13716801Y-15939555D01*
X13716801Y-15939555D02*
X13697753Y-15958603D01*
X13697753Y-15958603D02*
X13678705Y-15968127D01*
X13973944Y-15910984D02*
X13878705Y-15910984D01*
X13878705Y-15910984D02*
X13869182Y-16006222D01*
X13869182Y-16006222D02*
X13878705Y-15996698D01*
X13878705Y-15996698D02*
X13897753Y-15987174D01*
X13897753Y-15987174D02*
X13945372Y-15987174D01*
X13945372Y-15987174D02*
X13964420Y-15996698D01*
X13964420Y-15996698D02*
X13973944Y-16006222D01*
X13973944Y-16006222D02*
X13983467Y-16025269D01*
X13983467Y-16025269D02*
X13983467Y-16072888D01*
X13983467Y-16072888D02*
X13973944Y-16091936D01*
X13973944Y-16091936D02*
X13964420Y-16101460D01*
X13964420Y-16101460D02*
X13945372Y-16110984D01*
X13945372Y-16110984D02*
X13897753Y-16110984D01*
X13897753Y-16110984D02*
X13878705Y-16101460D01*
X13878705Y-16101460D02*
X13869182Y-16091936D01*
X14050134Y-15910984D02*
X14183467Y-15910984D01*
X14183467Y-15910984D02*
X14097753Y-16110984D01*
X14250134Y-15910984D02*
X14250134Y-15949079D01*
X14326325Y-15910984D02*
X14326325Y-15949079D01*
X14621563Y-16187174D02*
X14612039Y-16177650D01*
X14612039Y-16177650D02*
X14592991Y-16149079D01*
X14592991Y-16149079D02*
X14583467Y-16130031D01*
X14583467Y-16130031D02*
X14573944Y-16101460D01*
X14573944Y-16101460D02*
X14564420Y-16053841D01*
X14564420Y-16053841D02*
X14564420Y-16015746D01*
X14564420Y-16015746D02*
X14573944Y-15968127D01*
X14573944Y-15968127D02*
X14583467Y-15939555D01*
X14583467Y-15939555D02*
X14592991Y-15920508D01*
X14592991Y-15920508D02*
X14612039Y-15891936D01*
X14612039Y-15891936D02*
X14621563Y-15882412D01*
X14688229Y-15930031D02*
X14697753Y-15920508D01*
X14697753Y-15920508D02*
X14716801Y-15910984D01*
X14716801Y-15910984D02*
X14764420Y-15910984D01*
X14764420Y-15910984D02*
X14783467Y-15920508D01*
X14783467Y-15920508D02*
X14792991Y-15930031D01*
X14792991Y-15930031D02*
X14802515Y-15949079D01*
X14802515Y-15949079D02*
X14802515Y-15968127D01*
X14802515Y-15968127D02*
X14792991Y-15996698D01*
X14792991Y-15996698D02*
X14678706Y-16110984D01*
X14678706Y-16110984D02*
X14802515Y-16110984D01*
X14869182Y-15910984D02*
X14992991Y-15910984D01*
X14992991Y-15910984D02*
X14926325Y-15987174D01*
X14926325Y-15987174D02*
X14954896Y-15987174D01*
X14954896Y-15987174D02*
X14973944Y-15996698D01*
X14973944Y-15996698D02*
X14983467Y-16006222D01*
X14983467Y-16006222D02*
X14992991Y-16025269D01*
X14992991Y-16025269D02*
X14992991Y-16072888D01*
X14992991Y-16072888D02*
X14983467Y-16091936D01*
X14983467Y-16091936D02*
X14973944Y-16101460D01*
X14973944Y-16101460D02*
X14954896Y-16110984D01*
X14954896Y-16110984D02*
X14897753Y-16110984D01*
X14897753Y-16110984D02*
X14878706Y-16101460D01*
X14878706Y-16101460D02*
X14869182Y-16091936D01*
X15088229Y-16110984D02*
X15126325Y-16110984D01*
X15126325Y-16110984D02*
X15145372Y-16101460D01*
X15145372Y-16101460D02*
X15154896Y-16091936D01*
X15154896Y-16091936D02*
X15173944Y-16063365D01*
X15173944Y-16063365D02*
X15183467Y-16025269D01*
X15183467Y-16025269D02*
X15183467Y-15949079D01*
X15183467Y-15949079D02*
X15173944Y-15930031D01*
X15173944Y-15930031D02*
X15164420Y-15920508D01*
X15164420Y-15920508D02*
X15145372Y-15910984D01*
X15145372Y-15910984D02*
X15107277Y-15910984D01*
X15107277Y-15910984D02*
X15088229Y-15920508D01*
X15088229Y-15920508D02*
X15078706Y-15930031D01*
X15078706Y-15930031D02*
X15069182Y-15949079D01*
X15069182Y-15949079D02*
X15069182Y-15996698D01*
X15069182Y-15996698D02*
X15078706Y-16015746D01*
X15078706Y-16015746D02*
X15088229Y-16025269D01*
X15088229Y-16025269D02*
X15107277Y-16034793D01*
X15107277Y-16034793D02*
X15145372Y-16034793D01*
X15145372Y-16034793D02*
X15164420Y-16025269D01*
X15164420Y-16025269D02*
X15173944Y-16015746D01*
X15173944Y-16015746D02*
X15183467Y-15996698D01*
X15421563Y-16110984D02*
X15421563Y-15910984D01*
X15507277Y-16110984D02*
X15507277Y-16006222D01*
X15507277Y-16006222D02*
X15497753Y-15987174D01*
X15497753Y-15987174D02*
X15478706Y-15977650D01*
X15478706Y-15977650D02*
X15450134Y-15977650D01*
X15450134Y-15977650D02*
X15431087Y-15987174D01*
X15431087Y-15987174D02*
X15421563Y-15996698D01*
X15631087Y-16110984D02*
X15612039Y-16101460D01*
X15612039Y-16101460D02*
X15602515Y-16091936D01*
X15602515Y-16091936D02*
X15592991Y-16072888D01*
X15592991Y-16072888D02*
X15592991Y-16015746D01*
X15592991Y-16015746D02*
X15602515Y-15996698D01*
X15602515Y-15996698D02*
X15612039Y-15987174D01*
X15612039Y-15987174D02*
X15631087Y-15977650D01*
X15631087Y-15977650D02*
X15659658Y-15977650D01*
X15659658Y-15977650D02*
X15678706Y-15987174D01*
X15678706Y-15987174D02*
X15688229Y-15996698D01*
X15688229Y-15996698D02*
X15697753Y-16015746D01*
X15697753Y-16015746D02*
X15697753Y-16072888D01*
X15697753Y-16072888D02*
X15688229Y-16091936D01*
X15688229Y-16091936D02*
X15678706Y-16101460D01*
X15678706Y-16101460D02*
X15659658Y-16110984D01*
X15659658Y-16110984D02*
X15631087Y-16110984D01*
X15812039Y-16110984D02*
X15792991Y-16101460D01*
X15792991Y-16101460D02*
X15783468Y-16082412D01*
X15783468Y-16082412D02*
X15783468Y-15910984D01*
X15964420Y-16101460D02*
X15945372Y-16110984D01*
X15945372Y-16110984D02*
X15907277Y-16110984D01*
X15907277Y-16110984D02*
X15888229Y-16101460D01*
X15888229Y-16101460D02*
X15878706Y-16082412D01*
X15878706Y-16082412D02*
X15878706Y-16006222D01*
X15878706Y-16006222D02*
X15888229Y-15987174D01*
X15888229Y-15987174D02*
X15907277Y-15977650D01*
X15907277Y-15977650D02*
X15945372Y-15977650D01*
X15945372Y-15977650D02*
X15964420Y-15987174D01*
X15964420Y-15987174D02*
X15973944Y-16006222D01*
X15973944Y-16006222D02*
X15973944Y-16025269D01*
X15973944Y-16025269D02*
X15878706Y-16044317D01*
X16050134Y-16101460D02*
X16069182Y-16110984D01*
X16069182Y-16110984D02*
X16107277Y-16110984D01*
X16107277Y-16110984D02*
X16126325Y-16101460D01*
X16126325Y-16101460D02*
X16135849Y-16082412D01*
X16135849Y-16082412D02*
X16135849Y-16072888D01*
X16135849Y-16072888D02*
X16126325Y-16053841D01*
X16126325Y-16053841D02*
X16107277Y-16044317D01*
X16107277Y-16044317D02*
X16078706Y-16044317D01*
X16078706Y-16044317D02*
X16059658Y-16034793D01*
X16059658Y-16034793D02*
X16050134Y-16015746D01*
X16050134Y-16015746D02*
X16050134Y-16006222D01*
X16050134Y-16006222D02*
X16059658Y-15987174D01*
X16059658Y-15987174D02*
X16078706Y-15977650D01*
X16078706Y-15977650D02*
X16107277Y-15977650D01*
X16107277Y-15977650D02*
X16126325Y-15987174D01*
X16202515Y-16187174D02*
X16212039Y-16177650D01*
X16212039Y-16177650D02*
X16231087Y-16149079D01*
X16231087Y-16149079D02*
X16240610Y-16130031D01*
X16240610Y-16130031D02*
X16250134Y-16101460D01*
X16250134Y-16101460D02*
X16259658Y-16053841D01*
X16259658Y-16053841D02*
X16259658Y-16015746D01*
X16259658Y-16015746D02*
X16250134Y-15968127D01*
X16250134Y-15968127D02*
X16240610Y-15939555D01*
X16240610Y-15939555D02*
X16231087Y-15920508D01*
X16231087Y-15920508D02*
X16212039Y-15891936D01*
X16212039Y-15891936D02*
X16202515Y-15882412D01*
D12*
X11016500Y-16253500D02*
X11016500Y-16313500D01*
X10986500Y-16283500D02*
X11046500Y-16283500D01*
D11*
X11345372Y-16174984D02*
X11364420Y-16174984D01*
X11364420Y-16174984D02*
X11383467Y-16184508D01*
X11383467Y-16184508D02*
X11392991Y-16194031D01*
X11392991Y-16194031D02*
X11402515Y-16213079D01*
X11402515Y-16213079D02*
X11412039Y-16251174D01*
X11412039Y-16251174D02*
X11412039Y-16298793D01*
X11412039Y-16298793D02*
X11402515Y-16336888D01*
X11402515Y-16336888D02*
X11392991Y-16355936D01*
X11392991Y-16355936D02*
X11383467Y-16365460D01*
X11383467Y-16365460D02*
X11364420Y-16374984D01*
X11364420Y-16374984D02*
X11345372Y-16374984D01*
X11345372Y-16374984D02*
X11326324Y-16365460D01*
X11326324Y-16365460D02*
X11316800Y-16355936D01*
X11316800Y-16355936D02*
X11307277Y-16336888D01*
X11307277Y-16336888D02*
X11297753Y-16298793D01*
X11297753Y-16298793D02*
X11297753Y-16251174D01*
X11297753Y-16251174D02*
X11307277Y-16213079D01*
X11307277Y-16213079D02*
X11316800Y-16194031D01*
X11316800Y-16194031D02*
X11326324Y-16184508D01*
X11326324Y-16184508D02*
X11345372Y-16174984D01*
X11497753Y-16355936D02*
X11507277Y-16365460D01*
X11507277Y-16365460D02*
X11497753Y-16374984D01*
X11497753Y-16374984D02*
X11488229Y-16365460D01*
X11488229Y-16365460D02*
X11497753Y-16355936D01*
X11497753Y-16355936D02*
X11497753Y-16374984D01*
X11678705Y-16174984D02*
X11640610Y-16174984D01*
X11640610Y-16174984D02*
X11621562Y-16184508D01*
X11621562Y-16184508D02*
X11612039Y-16194031D01*
X11612039Y-16194031D02*
X11592991Y-16222603D01*
X11592991Y-16222603D02*
X11583467Y-16260698D01*
X11583467Y-16260698D02*
X11583467Y-16336888D01*
X11583467Y-16336888D02*
X11592991Y-16355936D01*
X11592991Y-16355936D02*
X11602515Y-16365460D01*
X11602515Y-16365460D02*
X11621562Y-16374984D01*
X11621562Y-16374984D02*
X11659658Y-16374984D01*
X11659658Y-16374984D02*
X11678705Y-16365460D01*
X11678705Y-16365460D02*
X11688229Y-16355936D01*
X11688229Y-16355936D02*
X11697753Y-16336888D01*
X11697753Y-16336888D02*
X11697753Y-16289269D01*
X11697753Y-16289269D02*
X11688229Y-16270222D01*
X11688229Y-16270222D02*
X11678705Y-16260698D01*
X11678705Y-16260698D02*
X11659658Y-16251174D01*
X11659658Y-16251174D02*
X11621562Y-16251174D01*
X11621562Y-16251174D02*
X11602515Y-16260698D01*
X11602515Y-16260698D02*
X11592991Y-16270222D01*
X11592991Y-16270222D02*
X11583467Y-16289269D01*
X11821562Y-16174984D02*
X11840610Y-16174984D01*
X11840610Y-16174984D02*
X11859658Y-16184508D01*
X11859658Y-16184508D02*
X11869181Y-16194031D01*
X11869181Y-16194031D02*
X11878705Y-16213079D01*
X11878705Y-16213079D02*
X11888229Y-16251174D01*
X11888229Y-16251174D02*
X11888229Y-16298793D01*
X11888229Y-16298793D02*
X11878705Y-16336888D01*
X11878705Y-16336888D02*
X11869181Y-16355936D01*
X11869181Y-16355936D02*
X11859658Y-16365460D01*
X11859658Y-16365460D02*
X11840610Y-16374984D01*
X11840610Y-16374984D02*
X11821562Y-16374984D01*
X11821562Y-16374984D02*
X11802515Y-16365460D01*
X11802515Y-16365460D02*
X11792991Y-16355936D01*
X11792991Y-16355936D02*
X11783467Y-16336888D01*
X11783467Y-16336888D02*
X11773943Y-16298793D01*
X11773943Y-16298793D02*
X11773943Y-16251174D01*
X11773943Y-16251174D02*
X11783467Y-16213079D01*
X11783467Y-16213079D02*
X11792991Y-16194031D01*
X11792991Y-16194031D02*
X11802515Y-16184508D01*
X11802515Y-16184508D02*
X11821562Y-16174984D01*
X12012039Y-16174984D02*
X12031086Y-16174984D01*
X12031086Y-16174984D02*
X12050134Y-16184508D01*
X12050134Y-16184508D02*
X12059658Y-16194031D01*
X12059658Y-16194031D02*
X12069181Y-16213079D01*
X12069181Y-16213079D02*
X12078705Y-16251174D01*
X12078705Y-16251174D02*
X12078705Y-16298793D01*
X12078705Y-16298793D02*
X12069181Y-16336888D01*
X12069181Y-16336888D02*
X12059658Y-16355936D01*
X12059658Y-16355936D02*
X12050134Y-16365460D01*
X12050134Y-16365460D02*
X12031086Y-16374984D01*
X12031086Y-16374984D02*
X12012039Y-16374984D01*
X12012039Y-16374984D02*
X11992991Y-16365460D01*
X11992991Y-16365460D02*
X11983467Y-16355936D01*
X11983467Y-16355936D02*
X11973943Y-16336888D01*
X11973943Y-16336888D02*
X11964420Y-16298793D01*
X11964420Y-16298793D02*
X11964420Y-16251174D01*
X11964420Y-16251174D02*
X11973943Y-16213079D01*
X11973943Y-16213079D02*
X11983467Y-16194031D01*
X11983467Y-16194031D02*
X11992991Y-16184508D01*
X11992991Y-16184508D02*
X12012039Y-16174984D01*
X12164420Y-16374984D02*
X12164420Y-16241650D01*
X12164420Y-16260698D02*
X12173943Y-16251174D01*
X12173943Y-16251174D02*
X12192991Y-16241650D01*
X12192991Y-16241650D02*
X12221562Y-16241650D01*
X12221562Y-16241650D02*
X12240610Y-16251174D01*
X12240610Y-16251174D02*
X12250134Y-16270222D01*
X12250134Y-16270222D02*
X12250134Y-16374984D01*
X12250134Y-16270222D02*
X12259658Y-16251174D01*
X12259658Y-16251174D02*
X12278705Y-16241650D01*
X12278705Y-16241650D02*
X12307277Y-16241650D01*
X12307277Y-16241650D02*
X12326324Y-16251174D01*
X12326324Y-16251174D02*
X12335848Y-16270222D01*
X12335848Y-16270222D02*
X12335848Y-16374984D01*
X12431086Y-16374984D02*
X12431086Y-16241650D01*
X12431086Y-16260698D02*
X12440610Y-16251174D01*
X12440610Y-16251174D02*
X12459658Y-16241650D01*
X12459658Y-16241650D02*
X12488229Y-16241650D01*
X12488229Y-16241650D02*
X12507277Y-16251174D01*
X12507277Y-16251174D02*
X12516801Y-16270222D01*
X12516801Y-16270222D02*
X12516801Y-16374984D01*
X12516801Y-16270222D02*
X12526324Y-16251174D01*
X12526324Y-16251174D02*
X12545372Y-16241650D01*
X12545372Y-16241650D02*
X12573943Y-16241650D01*
X12573943Y-16241650D02*
X12592991Y-16251174D01*
X12592991Y-16251174D02*
X12602515Y-16270222D01*
X12602515Y-16270222D02*
X12602515Y-16374984D01*
X12992991Y-16165460D02*
X12821563Y-16422603D01*
X13250134Y-16174984D02*
X13269182Y-16174984D01*
X13269182Y-16174984D02*
X13288229Y-16184508D01*
X13288229Y-16184508D02*
X13297753Y-16194031D01*
X13297753Y-16194031D02*
X13307277Y-16213079D01*
X13307277Y-16213079D02*
X13316801Y-16251174D01*
X13316801Y-16251174D02*
X13316801Y-16298793D01*
X13316801Y-16298793D02*
X13307277Y-16336888D01*
X13307277Y-16336888D02*
X13297753Y-16355936D01*
X13297753Y-16355936D02*
X13288229Y-16365460D01*
X13288229Y-16365460D02*
X13269182Y-16374984D01*
X13269182Y-16374984D02*
X13250134Y-16374984D01*
X13250134Y-16374984D02*
X13231086Y-16365460D01*
X13231086Y-16365460D02*
X13221563Y-16355936D01*
X13221563Y-16355936D02*
X13212039Y-16336888D01*
X13212039Y-16336888D02*
X13202515Y-16298793D01*
X13202515Y-16298793D02*
X13202515Y-16251174D01*
X13202515Y-16251174D02*
X13212039Y-16213079D01*
X13212039Y-16213079D02*
X13221563Y-16194031D01*
X13221563Y-16194031D02*
X13231086Y-16184508D01*
X13231086Y-16184508D02*
X13250134Y-16174984D01*
X13402515Y-16355936D02*
X13412039Y-16365460D01*
X13412039Y-16365460D02*
X13402515Y-16374984D01*
X13402515Y-16374984D02*
X13392991Y-16365460D01*
X13392991Y-16365460D02*
X13402515Y-16355936D01*
X13402515Y-16355936D02*
X13402515Y-16374984D01*
X13535848Y-16174984D02*
X13554896Y-16174984D01*
X13554896Y-16174984D02*
X13573944Y-16184508D01*
X13573944Y-16184508D02*
X13583467Y-16194031D01*
X13583467Y-16194031D02*
X13592991Y-16213079D01*
X13592991Y-16213079D02*
X13602515Y-16251174D01*
X13602515Y-16251174D02*
X13602515Y-16298793D01*
X13602515Y-16298793D02*
X13592991Y-16336888D01*
X13592991Y-16336888D02*
X13583467Y-16355936D01*
X13583467Y-16355936D02*
X13573944Y-16365460D01*
X13573944Y-16365460D02*
X13554896Y-16374984D01*
X13554896Y-16374984D02*
X13535848Y-16374984D01*
X13535848Y-16374984D02*
X13516801Y-16365460D01*
X13516801Y-16365460D02*
X13507277Y-16355936D01*
X13507277Y-16355936D02*
X13497753Y-16336888D01*
X13497753Y-16336888D02*
X13488229Y-16298793D01*
X13488229Y-16298793D02*
X13488229Y-16251174D01*
X13488229Y-16251174D02*
X13497753Y-16213079D01*
X13497753Y-16213079D02*
X13507277Y-16194031D01*
X13507277Y-16194031D02*
X13516801Y-16184508D01*
X13516801Y-16184508D02*
X13535848Y-16174984D01*
X13678705Y-16194031D02*
X13688229Y-16184508D01*
X13688229Y-16184508D02*
X13707277Y-16174984D01*
X13707277Y-16174984D02*
X13754896Y-16174984D01*
X13754896Y-16174984D02*
X13773944Y-16184508D01*
X13773944Y-16184508D02*
X13783467Y-16194031D01*
X13783467Y-16194031D02*
X13792991Y-16213079D01*
X13792991Y-16213079D02*
X13792991Y-16232127D01*
X13792991Y-16232127D02*
X13783467Y-16260698D01*
X13783467Y-16260698D02*
X13669182Y-16374984D01*
X13669182Y-16374984D02*
X13792991Y-16374984D01*
X13859658Y-16174984D02*
X13983467Y-16174984D01*
X13983467Y-16174984D02*
X13916801Y-16251174D01*
X13916801Y-16251174D02*
X13945372Y-16251174D01*
X13945372Y-16251174D02*
X13964420Y-16260698D01*
X13964420Y-16260698D02*
X13973944Y-16270222D01*
X13973944Y-16270222D02*
X13983467Y-16289269D01*
X13983467Y-16289269D02*
X13983467Y-16336888D01*
X13983467Y-16336888D02*
X13973944Y-16355936D01*
X13973944Y-16355936D02*
X13964420Y-16365460D01*
X13964420Y-16365460D02*
X13945372Y-16374984D01*
X13945372Y-16374984D02*
X13888229Y-16374984D01*
X13888229Y-16374984D02*
X13869182Y-16365460D01*
X13869182Y-16365460D02*
X13859658Y-16355936D01*
X14154896Y-16174984D02*
X14116801Y-16174984D01*
X14116801Y-16174984D02*
X14097753Y-16184508D01*
X14097753Y-16184508D02*
X14088229Y-16194031D01*
X14088229Y-16194031D02*
X14069182Y-16222603D01*
X14069182Y-16222603D02*
X14059658Y-16260698D01*
X14059658Y-16260698D02*
X14059658Y-16336888D01*
X14059658Y-16336888D02*
X14069182Y-16355936D01*
X14069182Y-16355936D02*
X14078705Y-16365460D01*
X14078705Y-16365460D02*
X14097753Y-16374984D01*
X14097753Y-16374984D02*
X14135848Y-16374984D01*
X14135848Y-16374984D02*
X14154896Y-16365460D01*
X14154896Y-16365460D02*
X14164420Y-16355936D01*
X14164420Y-16355936D02*
X14173944Y-16336888D01*
X14173944Y-16336888D02*
X14173944Y-16289269D01*
X14173944Y-16289269D02*
X14164420Y-16270222D01*
X14164420Y-16270222D02*
X14154896Y-16260698D01*
X14154896Y-16260698D02*
X14135848Y-16251174D01*
X14135848Y-16251174D02*
X14097753Y-16251174D01*
X14097753Y-16251174D02*
X14078705Y-16260698D01*
X14078705Y-16260698D02*
X14069182Y-16270222D01*
X14069182Y-16270222D02*
X14059658Y-16289269D01*
X14250134Y-16174984D02*
X14250134Y-16213079D01*
X14326325Y-16174984D02*
X14326325Y-16213079D01*
X14621563Y-16451174D02*
X14612039Y-16441650D01*
X14612039Y-16441650D02*
X14592991Y-16413079D01*
X14592991Y-16413079D02*
X14583467Y-16394031D01*
X14583467Y-16394031D02*
X14573944Y-16365460D01*
X14573944Y-16365460D02*
X14564420Y-16317841D01*
X14564420Y-16317841D02*
X14564420Y-16279746D01*
X14564420Y-16279746D02*
X14573944Y-16232127D01*
X14573944Y-16232127D02*
X14583467Y-16203555D01*
X14583467Y-16203555D02*
X14592991Y-16184508D01*
X14592991Y-16184508D02*
X14612039Y-16155936D01*
X14612039Y-16155936D02*
X14621563Y-16146412D01*
X14735848Y-16174984D02*
X14754896Y-16174984D01*
X14754896Y-16174984D02*
X14773944Y-16184508D01*
X14773944Y-16184508D02*
X14783467Y-16194031D01*
X14783467Y-16194031D02*
X14792991Y-16213079D01*
X14792991Y-16213079D02*
X14802515Y-16251174D01*
X14802515Y-16251174D02*
X14802515Y-16298793D01*
X14802515Y-16298793D02*
X14792991Y-16336888D01*
X14792991Y-16336888D02*
X14783467Y-16355936D01*
X14783467Y-16355936D02*
X14773944Y-16365460D01*
X14773944Y-16365460D02*
X14754896Y-16374984D01*
X14754896Y-16374984D02*
X14735848Y-16374984D01*
X14735848Y-16374984D02*
X14716801Y-16365460D01*
X14716801Y-16365460D02*
X14707277Y-16355936D01*
X14707277Y-16355936D02*
X14697753Y-16336888D01*
X14697753Y-16336888D02*
X14688229Y-16298793D01*
X14688229Y-16298793D02*
X14688229Y-16251174D01*
X14688229Y-16251174D02*
X14697753Y-16213079D01*
X14697753Y-16213079D02*
X14707277Y-16194031D01*
X14707277Y-16194031D02*
X14716801Y-16184508D01*
X14716801Y-16184508D02*
X14735848Y-16174984D01*
X15040610Y-16374984D02*
X15040610Y-16174984D01*
X15126325Y-16374984D02*
X15126325Y-16270222D01*
X15126325Y-16270222D02*
X15116801Y-16251174D01*
X15116801Y-16251174D02*
X15097753Y-16241650D01*
X15097753Y-16241650D02*
X15069182Y-16241650D01*
X15069182Y-16241650D02*
X15050134Y-16251174D01*
X15050134Y-16251174D02*
X15040610Y-16260698D01*
X15250134Y-16374984D02*
X15231087Y-16365460D01*
X15231087Y-16365460D02*
X15221563Y-16355936D01*
X15221563Y-16355936D02*
X15212039Y-16336888D01*
X15212039Y-16336888D02*
X15212039Y-16279746D01*
X15212039Y-16279746D02*
X15221563Y-16260698D01*
X15221563Y-16260698D02*
X15231087Y-16251174D01*
X15231087Y-16251174D02*
X15250134Y-16241650D01*
X15250134Y-16241650D02*
X15278706Y-16241650D01*
X15278706Y-16241650D02*
X15297753Y-16251174D01*
X15297753Y-16251174D02*
X15307277Y-16260698D01*
X15307277Y-16260698D02*
X15316801Y-16279746D01*
X15316801Y-16279746D02*
X15316801Y-16336888D01*
X15316801Y-16336888D02*
X15307277Y-16355936D01*
X15307277Y-16355936D02*
X15297753Y-16365460D01*
X15297753Y-16365460D02*
X15278706Y-16374984D01*
X15278706Y-16374984D02*
X15250134Y-16374984D01*
X15431087Y-16374984D02*
X15412039Y-16365460D01*
X15412039Y-16365460D02*
X15402515Y-16346412D01*
X15402515Y-16346412D02*
X15402515Y-16174984D01*
X15583468Y-16365460D02*
X15564420Y-16374984D01*
X15564420Y-16374984D02*
X15526325Y-16374984D01*
X15526325Y-16374984D02*
X15507277Y-16365460D01*
X15507277Y-16365460D02*
X15497753Y-16346412D01*
X15497753Y-16346412D02*
X15497753Y-16270222D01*
X15497753Y-16270222D02*
X15507277Y-16251174D01*
X15507277Y-16251174D02*
X15526325Y-16241650D01*
X15526325Y-16241650D02*
X15564420Y-16241650D01*
X15564420Y-16241650D02*
X15583468Y-16251174D01*
X15583468Y-16251174D02*
X15592991Y-16270222D01*
X15592991Y-16270222D02*
X15592991Y-16289269D01*
X15592991Y-16289269D02*
X15497753Y-16308317D01*
X15669182Y-16365460D02*
X15688229Y-16374984D01*
X15688229Y-16374984D02*
X15726325Y-16374984D01*
X15726325Y-16374984D02*
X15745372Y-16365460D01*
X15745372Y-16365460D02*
X15754896Y-16346412D01*
X15754896Y-16346412D02*
X15754896Y-16336888D01*
X15754896Y-16336888D02*
X15745372Y-16317841D01*
X15745372Y-16317841D02*
X15726325Y-16308317D01*
X15726325Y-16308317D02*
X15697753Y-16308317D01*
X15697753Y-16308317D02*
X15678706Y-16298793D01*
X15678706Y-16298793D02*
X15669182Y-16279746D01*
X15669182Y-16279746D02*
X15669182Y-16270222D01*
X15669182Y-16270222D02*
X15678706Y-16251174D01*
X15678706Y-16251174D02*
X15697753Y-16241650D01*
X15697753Y-16241650D02*
X15726325Y-16241650D01*
X15726325Y-16241650D02*
X15745372Y-16251174D01*
X15992991Y-16298793D02*
X16145372Y-16298793D01*
X16069182Y-16374984D02*
X16069182Y-16222603D01*
X16421563Y-16260698D02*
X16402515Y-16251174D01*
X16402515Y-16251174D02*
X16392991Y-16241650D01*
X16392991Y-16241650D02*
X16383468Y-16222603D01*
X16383468Y-16222603D02*
X16383468Y-16213079D01*
X16383468Y-16213079D02*
X16392991Y-16194031D01*
X16392991Y-16194031D02*
X16402515Y-16184508D01*
X16402515Y-16184508D02*
X16421563Y-16174984D01*
X16421563Y-16174984D02*
X16459658Y-16174984D01*
X16459658Y-16174984D02*
X16478706Y-16184508D01*
X16478706Y-16184508D02*
X16488230Y-16194031D01*
X16488230Y-16194031D02*
X16497753Y-16213079D01*
X16497753Y-16213079D02*
X16497753Y-16222603D01*
X16497753Y-16222603D02*
X16488230Y-16241650D01*
X16488230Y-16241650D02*
X16478706Y-16251174D01*
X16478706Y-16251174D02*
X16459658Y-16260698D01*
X16459658Y-16260698D02*
X16421563Y-16260698D01*
X16421563Y-16260698D02*
X16402515Y-16270222D01*
X16402515Y-16270222D02*
X16392991Y-16279746D01*
X16392991Y-16279746D02*
X16383468Y-16298793D01*
X16383468Y-16298793D02*
X16383468Y-16336888D01*
X16383468Y-16336888D02*
X16392991Y-16355936D01*
X16392991Y-16355936D02*
X16402515Y-16365460D01*
X16402515Y-16365460D02*
X16421563Y-16374984D01*
X16421563Y-16374984D02*
X16459658Y-16374984D01*
X16459658Y-16374984D02*
X16478706Y-16365460D01*
X16478706Y-16365460D02*
X16488230Y-16355936D01*
X16488230Y-16355936D02*
X16497753Y-16336888D01*
X16497753Y-16336888D02*
X16497753Y-16298793D01*
X16497753Y-16298793D02*
X16488230Y-16279746D01*
X16488230Y-16279746D02*
X16478706Y-16270222D01*
X16478706Y-16270222D02*
X16459658Y-16260698D01*
X16726325Y-16365460D02*
X16745372Y-16374984D01*
X16745372Y-16374984D02*
X16783468Y-16374984D01*
X16783468Y-16374984D02*
X16802515Y-16365460D01*
X16802515Y-16365460D02*
X16812039Y-16346412D01*
X16812039Y-16346412D02*
X16812039Y-16336888D01*
X16812039Y-16336888D02*
X16802515Y-16317841D01*
X16802515Y-16317841D02*
X16783468Y-16308317D01*
X16783468Y-16308317D02*
X16754896Y-16308317D01*
X16754896Y-16308317D02*
X16735849Y-16298793D01*
X16735849Y-16298793D02*
X16726325Y-16279746D01*
X16726325Y-16279746D02*
X16726325Y-16270222D01*
X16726325Y-16270222D02*
X16735849Y-16251174D01*
X16735849Y-16251174D02*
X16754896Y-16241650D01*
X16754896Y-16241650D02*
X16783468Y-16241650D01*
X16783468Y-16241650D02*
X16802515Y-16251174D01*
X16926325Y-16374984D02*
X16907277Y-16365460D01*
X16907277Y-16365460D02*
X16897754Y-16346412D01*
X16897754Y-16346412D02*
X16897754Y-16174984D01*
X17031087Y-16374984D02*
X17012039Y-16365460D01*
X17012039Y-16365460D02*
X17002515Y-16355936D01*
X17002515Y-16355936D02*
X16992992Y-16336888D01*
X16992992Y-16336888D02*
X16992992Y-16279746D01*
X16992992Y-16279746D02*
X17002515Y-16260698D01*
X17002515Y-16260698D02*
X17012039Y-16251174D01*
X17012039Y-16251174D02*
X17031087Y-16241650D01*
X17031087Y-16241650D02*
X17059658Y-16241650D01*
X17059658Y-16241650D02*
X17078706Y-16251174D01*
X17078706Y-16251174D02*
X17088230Y-16260698D01*
X17088230Y-16260698D02*
X17097754Y-16279746D01*
X17097754Y-16279746D02*
X17097754Y-16336888D01*
X17097754Y-16336888D02*
X17088230Y-16355936D01*
X17088230Y-16355936D02*
X17078706Y-16365460D01*
X17078706Y-16365460D02*
X17059658Y-16374984D01*
X17059658Y-16374984D02*
X17031087Y-16374984D01*
X17154896Y-16241650D02*
X17231087Y-16241650D01*
X17183468Y-16174984D02*
X17183468Y-16346412D01*
X17183468Y-16346412D02*
X17192992Y-16365460D01*
X17192992Y-16365460D02*
X17212039Y-16374984D01*
X17212039Y-16374984D02*
X17231087Y-16374984D01*
X17288230Y-16365460D02*
X17307277Y-16374984D01*
X17307277Y-16374984D02*
X17345373Y-16374984D01*
X17345373Y-16374984D02*
X17364420Y-16365460D01*
X17364420Y-16365460D02*
X17373944Y-16346412D01*
X17373944Y-16346412D02*
X17373944Y-16336888D01*
X17373944Y-16336888D02*
X17364420Y-16317841D01*
X17364420Y-16317841D02*
X17345373Y-16308317D01*
X17345373Y-16308317D02*
X17316801Y-16308317D01*
X17316801Y-16308317D02*
X17297754Y-16298793D01*
X17297754Y-16298793D02*
X17288230Y-16279746D01*
X17288230Y-16279746D02*
X17288230Y-16270222D01*
X17288230Y-16270222D02*
X17297754Y-16251174D01*
X17297754Y-16251174D02*
X17316801Y-16241650D01*
X17316801Y-16241650D02*
X17345373Y-16241650D01*
X17345373Y-16241650D02*
X17364420Y-16251174D01*
X17440611Y-16451174D02*
X17450135Y-16441650D01*
X17450135Y-16441650D02*
X17469182Y-16413079D01*
X17469182Y-16413079D02*
X17478706Y-16394031D01*
X17478706Y-16394031D02*
X17488230Y-16365460D01*
X17488230Y-16365460D02*
X17497754Y-16317841D01*
X17497754Y-16317841D02*
X17497754Y-16279746D01*
X17497754Y-16279746D02*
X17488230Y-16232127D01*
X17488230Y-16232127D02*
X17478706Y-16203555D01*
X17478706Y-16203555D02*
X17469182Y-16184508D01*
X17469182Y-16184508D02*
X17450135Y-16155936D01*
X17450135Y-16155936D02*
X17440611Y-16146412D01*
D12*
X11035810Y-16573310D02*
X11035810Y-16521690D01*
X10984190Y-16521690D01*
X10984190Y-16573310D01*
X11035810Y-16573310D01*
D11*
X11345372Y-16438984D02*
X11364420Y-16438984D01*
X11364420Y-16438984D02*
X11383467Y-16448508D01*
X11383467Y-16448508D02*
X11392991Y-16458031D01*
X11392991Y-16458031D02*
X11402515Y-16477079D01*
X11402515Y-16477079D02*
X11412039Y-16515174D01*
X11412039Y-16515174D02*
X11412039Y-16562793D01*
X11412039Y-16562793D02*
X11402515Y-16600888D01*
X11402515Y-16600888D02*
X11392991Y-16619936D01*
X11392991Y-16619936D02*
X11383467Y-16629460D01*
X11383467Y-16629460D02*
X11364420Y-16638984D01*
X11364420Y-16638984D02*
X11345372Y-16638984D01*
X11345372Y-16638984D02*
X11326324Y-16629460D01*
X11326324Y-16629460D02*
X11316800Y-16619936D01*
X11316800Y-16619936D02*
X11307277Y-16600888D01*
X11307277Y-16600888D02*
X11297753Y-16562793D01*
X11297753Y-16562793D02*
X11297753Y-16515174D01*
X11297753Y-16515174D02*
X11307277Y-16477079D01*
X11307277Y-16477079D02*
X11316800Y-16458031D01*
X11316800Y-16458031D02*
X11326324Y-16448508D01*
X11326324Y-16448508D02*
X11345372Y-16438984D01*
X11497753Y-16619936D02*
X11507277Y-16629460D01*
X11507277Y-16629460D02*
X11497753Y-16638984D01*
X11497753Y-16638984D02*
X11488229Y-16629460D01*
X11488229Y-16629460D02*
X11497753Y-16619936D01*
X11497753Y-16619936D02*
X11497753Y-16638984D01*
X11573943Y-16438984D02*
X11707277Y-16438984D01*
X11707277Y-16438984D02*
X11621562Y-16638984D01*
X11764420Y-16438984D02*
X11888229Y-16438984D01*
X11888229Y-16438984D02*
X11821562Y-16515174D01*
X11821562Y-16515174D02*
X11850134Y-16515174D01*
X11850134Y-16515174D02*
X11869181Y-16524698D01*
X11869181Y-16524698D02*
X11878705Y-16534222D01*
X11878705Y-16534222D02*
X11888229Y-16553269D01*
X11888229Y-16553269D02*
X11888229Y-16600888D01*
X11888229Y-16600888D02*
X11878705Y-16619936D01*
X11878705Y-16619936D02*
X11869181Y-16629460D01*
X11869181Y-16629460D02*
X11850134Y-16638984D01*
X11850134Y-16638984D02*
X11792991Y-16638984D01*
X11792991Y-16638984D02*
X11773943Y-16629460D01*
X11773943Y-16629460D02*
X11764420Y-16619936D01*
X12012039Y-16438984D02*
X12031086Y-16438984D01*
X12031086Y-16438984D02*
X12050134Y-16448508D01*
X12050134Y-16448508D02*
X12059658Y-16458031D01*
X12059658Y-16458031D02*
X12069181Y-16477079D01*
X12069181Y-16477079D02*
X12078705Y-16515174D01*
X12078705Y-16515174D02*
X12078705Y-16562793D01*
X12078705Y-16562793D02*
X12069181Y-16600888D01*
X12069181Y-16600888D02*
X12059658Y-16619936D01*
X12059658Y-16619936D02*
X12050134Y-16629460D01*
X12050134Y-16629460D02*
X12031086Y-16638984D01*
X12031086Y-16638984D02*
X12012039Y-16638984D01*
X12012039Y-16638984D02*
X11992991Y-16629460D01*
X11992991Y-16629460D02*
X11983467Y-16619936D01*
X11983467Y-16619936D02*
X11973943Y-16600888D01*
X11973943Y-16600888D02*
X11964420Y-16562793D01*
X11964420Y-16562793D02*
X11964420Y-16515174D01*
X11964420Y-16515174D02*
X11973943Y-16477079D01*
X11973943Y-16477079D02*
X11983467Y-16458031D01*
X11983467Y-16458031D02*
X11992991Y-16448508D01*
X11992991Y-16448508D02*
X12012039Y-16438984D01*
X12164420Y-16638984D02*
X12164420Y-16505650D01*
X12164420Y-16524698D02*
X12173943Y-16515174D01*
X12173943Y-16515174D02*
X12192991Y-16505650D01*
X12192991Y-16505650D02*
X12221562Y-16505650D01*
X12221562Y-16505650D02*
X12240610Y-16515174D01*
X12240610Y-16515174D02*
X12250134Y-16534222D01*
X12250134Y-16534222D02*
X12250134Y-16638984D01*
X12250134Y-16534222D02*
X12259658Y-16515174D01*
X12259658Y-16515174D02*
X12278705Y-16505650D01*
X12278705Y-16505650D02*
X12307277Y-16505650D01*
X12307277Y-16505650D02*
X12326324Y-16515174D01*
X12326324Y-16515174D02*
X12335848Y-16534222D01*
X12335848Y-16534222D02*
X12335848Y-16638984D01*
X12431086Y-16638984D02*
X12431086Y-16505650D01*
X12431086Y-16524698D02*
X12440610Y-16515174D01*
X12440610Y-16515174D02*
X12459658Y-16505650D01*
X12459658Y-16505650D02*
X12488229Y-16505650D01*
X12488229Y-16505650D02*
X12507277Y-16515174D01*
X12507277Y-16515174D02*
X12516801Y-16534222D01*
X12516801Y-16534222D02*
X12516801Y-16638984D01*
X12516801Y-16534222D02*
X12526324Y-16515174D01*
X12526324Y-16515174D02*
X12545372Y-16505650D01*
X12545372Y-16505650D02*
X12573943Y-16505650D01*
X12573943Y-16505650D02*
X12592991Y-16515174D01*
X12592991Y-16515174D02*
X12602515Y-16534222D01*
X12602515Y-16534222D02*
X12602515Y-16638984D01*
X12992991Y-16429460D02*
X12821563Y-16686603D01*
X13250134Y-16438984D02*
X13269182Y-16438984D01*
X13269182Y-16438984D02*
X13288229Y-16448508D01*
X13288229Y-16448508D02*
X13297753Y-16458031D01*
X13297753Y-16458031D02*
X13307277Y-16477079D01*
X13307277Y-16477079D02*
X13316801Y-16515174D01*
X13316801Y-16515174D02*
X13316801Y-16562793D01*
X13316801Y-16562793D02*
X13307277Y-16600888D01*
X13307277Y-16600888D02*
X13297753Y-16619936D01*
X13297753Y-16619936D02*
X13288229Y-16629460D01*
X13288229Y-16629460D02*
X13269182Y-16638984D01*
X13269182Y-16638984D02*
X13250134Y-16638984D01*
X13250134Y-16638984D02*
X13231086Y-16629460D01*
X13231086Y-16629460D02*
X13221563Y-16619936D01*
X13221563Y-16619936D02*
X13212039Y-16600888D01*
X13212039Y-16600888D02*
X13202515Y-16562793D01*
X13202515Y-16562793D02*
X13202515Y-16515174D01*
X13202515Y-16515174D02*
X13212039Y-16477079D01*
X13212039Y-16477079D02*
X13221563Y-16458031D01*
X13221563Y-16458031D02*
X13231086Y-16448508D01*
X13231086Y-16448508D02*
X13250134Y-16438984D01*
X13402515Y-16619936D02*
X13412039Y-16629460D01*
X13412039Y-16629460D02*
X13402515Y-16638984D01*
X13402515Y-16638984D02*
X13392991Y-16629460D01*
X13392991Y-16629460D02*
X13402515Y-16619936D01*
X13402515Y-16619936D02*
X13402515Y-16638984D01*
X13535848Y-16438984D02*
X13554896Y-16438984D01*
X13554896Y-16438984D02*
X13573944Y-16448508D01*
X13573944Y-16448508D02*
X13583467Y-16458031D01*
X13583467Y-16458031D02*
X13592991Y-16477079D01*
X13592991Y-16477079D02*
X13602515Y-16515174D01*
X13602515Y-16515174D02*
X13602515Y-16562793D01*
X13602515Y-16562793D02*
X13592991Y-16600888D01*
X13592991Y-16600888D02*
X13583467Y-16619936D01*
X13583467Y-16619936D02*
X13573944Y-16629460D01*
X13573944Y-16629460D02*
X13554896Y-16638984D01*
X13554896Y-16638984D02*
X13535848Y-16638984D01*
X13535848Y-16638984D02*
X13516801Y-16629460D01*
X13516801Y-16629460D02*
X13507277Y-16619936D01*
X13507277Y-16619936D02*
X13497753Y-16600888D01*
X13497753Y-16600888D02*
X13488229Y-16562793D01*
X13488229Y-16562793D02*
X13488229Y-16515174D01*
X13488229Y-16515174D02*
X13497753Y-16477079D01*
X13497753Y-16477079D02*
X13507277Y-16458031D01*
X13507277Y-16458031D02*
X13516801Y-16448508D01*
X13516801Y-16448508D02*
X13535848Y-16438984D01*
X13678705Y-16458031D02*
X13688229Y-16448508D01*
X13688229Y-16448508D02*
X13707277Y-16438984D01*
X13707277Y-16438984D02*
X13754896Y-16438984D01*
X13754896Y-16438984D02*
X13773944Y-16448508D01*
X13773944Y-16448508D02*
X13783467Y-16458031D01*
X13783467Y-16458031D02*
X13792991Y-16477079D01*
X13792991Y-16477079D02*
X13792991Y-16496127D01*
X13792991Y-16496127D02*
X13783467Y-16524698D01*
X13783467Y-16524698D02*
X13669182Y-16638984D01*
X13669182Y-16638984D02*
X13792991Y-16638984D01*
X13907277Y-16524698D02*
X13888229Y-16515174D01*
X13888229Y-16515174D02*
X13878705Y-16505650D01*
X13878705Y-16505650D02*
X13869182Y-16486603D01*
X13869182Y-16486603D02*
X13869182Y-16477079D01*
X13869182Y-16477079D02*
X13878705Y-16458031D01*
X13878705Y-16458031D02*
X13888229Y-16448508D01*
X13888229Y-16448508D02*
X13907277Y-16438984D01*
X13907277Y-16438984D02*
X13945372Y-16438984D01*
X13945372Y-16438984D02*
X13964420Y-16448508D01*
X13964420Y-16448508D02*
X13973944Y-16458031D01*
X13973944Y-16458031D02*
X13983467Y-16477079D01*
X13983467Y-16477079D02*
X13983467Y-16486603D01*
X13983467Y-16486603D02*
X13973944Y-16505650D01*
X13973944Y-16505650D02*
X13964420Y-16515174D01*
X13964420Y-16515174D02*
X13945372Y-16524698D01*
X13945372Y-16524698D02*
X13907277Y-16524698D01*
X13907277Y-16524698D02*
X13888229Y-16534222D01*
X13888229Y-16534222D02*
X13878705Y-16543746D01*
X13878705Y-16543746D02*
X13869182Y-16562793D01*
X13869182Y-16562793D02*
X13869182Y-16600888D01*
X13869182Y-16600888D02*
X13878705Y-16619936D01*
X13878705Y-16619936D02*
X13888229Y-16629460D01*
X13888229Y-16629460D02*
X13907277Y-16638984D01*
X13907277Y-16638984D02*
X13945372Y-16638984D01*
X13945372Y-16638984D02*
X13964420Y-16629460D01*
X13964420Y-16629460D02*
X13973944Y-16619936D01*
X13973944Y-16619936D02*
X13983467Y-16600888D01*
X13983467Y-16600888D02*
X13983467Y-16562793D01*
X13983467Y-16562793D02*
X13973944Y-16543746D01*
X13973944Y-16543746D02*
X13964420Y-16534222D01*
X13964420Y-16534222D02*
X13945372Y-16524698D01*
X14050134Y-16438984D02*
X14183467Y-16438984D01*
X14183467Y-16438984D02*
X14097753Y-16638984D01*
X14250134Y-16438984D02*
X14250134Y-16477079D01*
X14326325Y-16438984D02*
X14326325Y-16477079D01*
X14621563Y-16715174D02*
X14612039Y-16705650D01*
X14612039Y-16705650D02*
X14592991Y-16677079D01*
X14592991Y-16677079D02*
X14583467Y-16658031D01*
X14583467Y-16658031D02*
X14573944Y-16629460D01*
X14573944Y-16629460D02*
X14564420Y-16581841D01*
X14564420Y-16581841D02*
X14564420Y-16543746D01*
X14564420Y-16543746D02*
X14573944Y-16496127D01*
X14573944Y-16496127D02*
X14583467Y-16467555D01*
X14583467Y-16467555D02*
X14592991Y-16448508D01*
X14592991Y-16448508D02*
X14612039Y-16419936D01*
X14612039Y-16419936D02*
X14621563Y-16410412D01*
X14688229Y-16458031D02*
X14697753Y-16448508D01*
X14697753Y-16448508D02*
X14716801Y-16438984D01*
X14716801Y-16438984D02*
X14764420Y-16438984D01*
X14764420Y-16438984D02*
X14783467Y-16448508D01*
X14783467Y-16448508D02*
X14792991Y-16458031D01*
X14792991Y-16458031D02*
X14802515Y-16477079D01*
X14802515Y-16477079D02*
X14802515Y-16496127D01*
X14802515Y-16496127D02*
X14792991Y-16524698D01*
X14792991Y-16524698D02*
X14678706Y-16638984D01*
X14678706Y-16638984D02*
X14802515Y-16638984D01*
X15040610Y-16638984D02*
X15040610Y-16438984D01*
X15126325Y-16638984D02*
X15126325Y-16534222D01*
X15126325Y-16534222D02*
X15116801Y-16515174D01*
X15116801Y-16515174D02*
X15097753Y-16505650D01*
X15097753Y-16505650D02*
X15069182Y-16505650D01*
X15069182Y-16505650D02*
X15050134Y-16515174D01*
X15050134Y-16515174D02*
X15040610Y-16524698D01*
X15250134Y-16638984D02*
X15231087Y-16629460D01*
X15231087Y-16629460D02*
X15221563Y-16619936D01*
X15221563Y-16619936D02*
X15212039Y-16600888D01*
X15212039Y-16600888D02*
X15212039Y-16543746D01*
X15212039Y-16543746D02*
X15221563Y-16524698D01*
X15221563Y-16524698D02*
X15231087Y-16515174D01*
X15231087Y-16515174D02*
X15250134Y-16505650D01*
X15250134Y-16505650D02*
X15278706Y-16505650D01*
X15278706Y-16505650D02*
X15297753Y-16515174D01*
X15297753Y-16515174D02*
X15307277Y-16524698D01*
X15307277Y-16524698D02*
X15316801Y-16543746D01*
X15316801Y-16543746D02*
X15316801Y-16600888D01*
X15316801Y-16600888D02*
X15307277Y-16619936D01*
X15307277Y-16619936D02*
X15297753Y-16629460D01*
X15297753Y-16629460D02*
X15278706Y-16638984D01*
X15278706Y-16638984D02*
X15250134Y-16638984D01*
X15431087Y-16638984D02*
X15412039Y-16629460D01*
X15412039Y-16629460D02*
X15402515Y-16610412D01*
X15402515Y-16610412D02*
X15402515Y-16438984D01*
X15583468Y-16629460D02*
X15564420Y-16638984D01*
X15564420Y-16638984D02*
X15526325Y-16638984D01*
X15526325Y-16638984D02*
X15507277Y-16629460D01*
X15507277Y-16629460D02*
X15497753Y-16610412D01*
X15497753Y-16610412D02*
X15497753Y-16534222D01*
X15497753Y-16534222D02*
X15507277Y-16515174D01*
X15507277Y-16515174D02*
X15526325Y-16505650D01*
X15526325Y-16505650D02*
X15564420Y-16505650D01*
X15564420Y-16505650D02*
X15583468Y-16515174D01*
X15583468Y-16515174D02*
X15592991Y-16534222D01*
X15592991Y-16534222D02*
X15592991Y-16553269D01*
X15592991Y-16553269D02*
X15497753Y-16572317D01*
X15669182Y-16629460D02*
X15688229Y-16638984D01*
X15688229Y-16638984D02*
X15726325Y-16638984D01*
X15726325Y-16638984D02*
X15745372Y-16629460D01*
X15745372Y-16629460D02*
X15754896Y-16610412D01*
X15754896Y-16610412D02*
X15754896Y-16600888D01*
X15754896Y-16600888D02*
X15745372Y-16581841D01*
X15745372Y-16581841D02*
X15726325Y-16572317D01*
X15726325Y-16572317D02*
X15697753Y-16572317D01*
X15697753Y-16572317D02*
X15678706Y-16562793D01*
X15678706Y-16562793D02*
X15669182Y-16543746D01*
X15669182Y-16543746D02*
X15669182Y-16534222D01*
X15669182Y-16534222D02*
X15678706Y-16515174D01*
X15678706Y-16515174D02*
X15697753Y-16505650D01*
X15697753Y-16505650D02*
X15726325Y-16505650D01*
X15726325Y-16505650D02*
X15745372Y-16515174D01*
X15821563Y-16715174D02*
X15831087Y-16705650D01*
X15831087Y-16705650D02*
X15850134Y-16677079D01*
X15850134Y-16677079D02*
X15859658Y-16658031D01*
X15859658Y-16658031D02*
X15869182Y-16629460D01*
X15869182Y-16629460D02*
X15878706Y-16581841D01*
X15878706Y-16581841D02*
X15878706Y-16543746D01*
X15878706Y-16543746D02*
X15869182Y-16496127D01*
X15869182Y-16496127D02*
X15859658Y-16467555D01*
X15859658Y-16467555D02*
X15850134Y-16448508D01*
X15850134Y-16448508D02*
X15831087Y-16419936D01*
X15831087Y-16419936D02*
X15821563Y-16410412D01*
D12*
X10996500Y-16861500D02*
X11046500Y-16811500D01*
X10996500Y-16761500D01*
X10946500Y-16811500D01*
X10996500Y-16861500D01*
D11*
X11412039Y-16902984D02*
X11297753Y-16902984D01*
X11354896Y-16902984D02*
X11354896Y-16702984D01*
X11354896Y-16702984D02*
X11335848Y-16731555D01*
X11335848Y-16731555D02*
X11316800Y-16750603D01*
X11316800Y-16750603D02*
X11297753Y-16760127D01*
X11497753Y-16883936D02*
X11507277Y-16893460D01*
X11507277Y-16893460D02*
X11497753Y-16902984D01*
X11497753Y-16902984D02*
X11488229Y-16893460D01*
X11488229Y-16893460D02*
X11497753Y-16883936D01*
X11497753Y-16883936D02*
X11497753Y-16902984D01*
X11631086Y-16702984D02*
X11650134Y-16702984D01*
X11650134Y-16702984D02*
X11669181Y-16712508D01*
X11669181Y-16712508D02*
X11678705Y-16722031D01*
X11678705Y-16722031D02*
X11688229Y-16741079D01*
X11688229Y-16741079D02*
X11697753Y-16779174D01*
X11697753Y-16779174D02*
X11697753Y-16826793D01*
X11697753Y-16826793D02*
X11688229Y-16864889D01*
X11688229Y-16864889D02*
X11678705Y-16883936D01*
X11678705Y-16883936D02*
X11669181Y-16893460D01*
X11669181Y-16893460D02*
X11650134Y-16902984D01*
X11650134Y-16902984D02*
X11631086Y-16902984D01*
X11631086Y-16902984D02*
X11612039Y-16893460D01*
X11612039Y-16893460D02*
X11602515Y-16883936D01*
X11602515Y-16883936D02*
X11592991Y-16864889D01*
X11592991Y-16864889D02*
X11583467Y-16826793D01*
X11583467Y-16826793D02*
X11583467Y-16779174D01*
X11583467Y-16779174D02*
X11592991Y-16741079D01*
X11592991Y-16741079D02*
X11602515Y-16722031D01*
X11602515Y-16722031D02*
X11612039Y-16712508D01*
X11612039Y-16712508D02*
X11631086Y-16702984D01*
X11821562Y-16702984D02*
X11840610Y-16702984D01*
X11840610Y-16702984D02*
X11859658Y-16712508D01*
X11859658Y-16712508D02*
X11869181Y-16722031D01*
X11869181Y-16722031D02*
X11878705Y-16741079D01*
X11878705Y-16741079D02*
X11888229Y-16779174D01*
X11888229Y-16779174D02*
X11888229Y-16826793D01*
X11888229Y-16826793D02*
X11878705Y-16864889D01*
X11878705Y-16864889D02*
X11869181Y-16883936D01*
X11869181Y-16883936D02*
X11859658Y-16893460D01*
X11859658Y-16893460D02*
X11840610Y-16902984D01*
X11840610Y-16902984D02*
X11821562Y-16902984D01*
X11821562Y-16902984D02*
X11802515Y-16893460D01*
X11802515Y-16893460D02*
X11792991Y-16883936D01*
X11792991Y-16883936D02*
X11783467Y-16864889D01*
X11783467Y-16864889D02*
X11773943Y-16826793D01*
X11773943Y-16826793D02*
X11773943Y-16779174D01*
X11773943Y-16779174D02*
X11783467Y-16741079D01*
X11783467Y-16741079D02*
X11792991Y-16722031D01*
X11792991Y-16722031D02*
X11802515Y-16712508D01*
X11802515Y-16712508D02*
X11821562Y-16702984D01*
X12012039Y-16702984D02*
X12031086Y-16702984D01*
X12031086Y-16702984D02*
X12050134Y-16712508D01*
X12050134Y-16712508D02*
X12059658Y-16722031D01*
X12059658Y-16722031D02*
X12069181Y-16741079D01*
X12069181Y-16741079D02*
X12078705Y-16779174D01*
X12078705Y-16779174D02*
X12078705Y-16826793D01*
X12078705Y-16826793D02*
X12069181Y-16864889D01*
X12069181Y-16864889D02*
X12059658Y-16883936D01*
X12059658Y-16883936D02*
X12050134Y-16893460D01*
X12050134Y-16893460D02*
X12031086Y-16902984D01*
X12031086Y-16902984D02*
X12012039Y-16902984D01*
X12012039Y-16902984D02*
X11992991Y-16893460D01*
X11992991Y-16893460D02*
X11983467Y-16883936D01*
X11983467Y-16883936D02*
X11973943Y-16864889D01*
X11973943Y-16864889D02*
X11964420Y-16826793D01*
X11964420Y-16826793D02*
X11964420Y-16779174D01*
X11964420Y-16779174D02*
X11973943Y-16741079D01*
X11973943Y-16741079D02*
X11983467Y-16722031D01*
X11983467Y-16722031D02*
X11992991Y-16712508D01*
X11992991Y-16712508D02*
X12012039Y-16702984D01*
X12164420Y-16902984D02*
X12164420Y-16769650D01*
X12164420Y-16788698D02*
X12173943Y-16779174D01*
X12173943Y-16779174D02*
X12192991Y-16769650D01*
X12192991Y-16769650D02*
X12221562Y-16769650D01*
X12221562Y-16769650D02*
X12240610Y-16779174D01*
X12240610Y-16779174D02*
X12250134Y-16798222D01*
X12250134Y-16798222D02*
X12250134Y-16902984D01*
X12250134Y-16798222D02*
X12259658Y-16779174D01*
X12259658Y-16779174D02*
X12278705Y-16769650D01*
X12278705Y-16769650D02*
X12307277Y-16769650D01*
X12307277Y-16769650D02*
X12326324Y-16779174D01*
X12326324Y-16779174D02*
X12335848Y-16798222D01*
X12335848Y-16798222D02*
X12335848Y-16902984D01*
X12431086Y-16902984D02*
X12431086Y-16769650D01*
X12431086Y-16788698D02*
X12440610Y-16779174D01*
X12440610Y-16779174D02*
X12459658Y-16769650D01*
X12459658Y-16769650D02*
X12488229Y-16769650D01*
X12488229Y-16769650D02*
X12507277Y-16779174D01*
X12507277Y-16779174D02*
X12516801Y-16798222D01*
X12516801Y-16798222D02*
X12516801Y-16902984D01*
X12516801Y-16798222D02*
X12526324Y-16779174D01*
X12526324Y-16779174D02*
X12545372Y-16769650D01*
X12545372Y-16769650D02*
X12573943Y-16769650D01*
X12573943Y-16769650D02*
X12592991Y-16779174D01*
X12592991Y-16779174D02*
X12602515Y-16798222D01*
X12602515Y-16798222D02*
X12602515Y-16902984D01*
X12992991Y-16693460D02*
X12821563Y-16950603D01*
X13250134Y-16702984D02*
X13269182Y-16702984D01*
X13269182Y-16702984D02*
X13288229Y-16712508D01*
X13288229Y-16712508D02*
X13297753Y-16722031D01*
X13297753Y-16722031D02*
X13307277Y-16741079D01*
X13307277Y-16741079D02*
X13316801Y-16779174D01*
X13316801Y-16779174D02*
X13316801Y-16826793D01*
X13316801Y-16826793D02*
X13307277Y-16864889D01*
X13307277Y-16864889D02*
X13297753Y-16883936D01*
X13297753Y-16883936D02*
X13288229Y-16893460D01*
X13288229Y-16893460D02*
X13269182Y-16902984D01*
X13269182Y-16902984D02*
X13250134Y-16902984D01*
X13250134Y-16902984D02*
X13231086Y-16893460D01*
X13231086Y-16893460D02*
X13221563Y-16883936D01*
X13221563Y-16883936D02*
X13212039Y-16864889D01*
X13212039Y-16864889D02*
X13202515Y-16826793D01*
X13202515Y-16826793D02*
X13202515Y-16779174D01*
X13202515Y-16779174D02*
X13212039Y-16741079D01*
X13212039Y-16741079D02*
X13221563Y-16722031D01*
X13221563Y-16722031D02*
X13231086Y-16712508D01*
X13231086Y-16712508D02*
X13250134Y-16702984D01*
X13402515Y-16883936D02*
X13412039Y-16893460D01*
X13412039Y-16893460D02*
X13402515Y-16902984D01*
X13402515Y-16902984D02*
X13392991Y-16893460D01*
X13392991Y-16893460D02*
X13402515Y-16883936D01*
X13402515Y-16883936D02*
X13402515Y-16902984D01*
X13535848Y-16702984D02*
X13554896Y-16702984D01*
X13554896Y-16702984D02*
X13573944Y-16712508D01*
X13573944Y-16712508D02*
X13583467Y-16722031D01*
X13583467Y-16722031D02*
X13592991Y-16741079D01*
X13592991Y-16741079D02*
X13602515Y-16779174D01*
X13602515Y-16779174D02*
X13602515Y-16826793D01*
X13602515Y-16826793D02*
X13592991Y-16864889D01*
X13592991Y-16864889D02*
X13583467Y-16883936D01*
X13583467Y-16883936D02*
X13573944Y-16893460D01*
X13573944Y-16893460D02*
X13554896Y-16902984D01*
X13554896Y-16902984D02*
X13535848Y-16902984D01*
X13535848Y-16902984D02*
X13516801Y-16893460D01*
X13516801Y-16893460D02*
X13507277Y-16883936D01*
X13507277Y-16883936D02*
X13497753Y-16864889D01*
X13497753Y-16864889D02*
X13488229Y-16826793D01*
X13488229Y-16826793D02*
X13488229Y-16779174D01*
X13488229Y-16779174D02*
X13497753Y-16741079D01*
X13497753Y-16741079D02*
X13507277Y-16722031D01*
X13507277Y-16722031D02*
X13516801Y-16712508D01*
X13516801Y-16712508D02*
X13535848Y-16702984D01*
X13669182Y-16702984D02*
X13792991Y-16702984D01*
X13792991Y-16702984D02*
X13726324Y-16779174D01*
X13726324Y-16779174D02*
X13754896Y-16779174D01*
X13754896Y-16779174D02*
X13773944Y-16788698D01*
X13773944Y-16788698D02*
X13783467Y-16798222D01*
X13783467Y-16798222D02*
X13792991Y-16817270D01*
X13792991Y-16817270D02*
X13792991Y-16864889D01*
X13792991Y-16864889D02*
X13783467Y-16883936D01*
X13783467Y-16883936D02*
X13773944Y-16893460D01*
X13773944Y-16893460D02*
X13754896Y-16902984D01*
X13754896Y-16902984D02*
X13697753Y-16902984D01*
X13697753Y-16902984D02*
X13678705Y-16893460D01*
X13678705Y-16893460D02*
X13669182Y-16883936D01*
X13888229Y-16902984D02*
X13926324Y-16902984D01*
X13926324Y-16902984D02*
X13945372Y-16893460D01*
X13945372Y-16893460D02*
X13954896Y-16883936D01*
X13954896Y-16883936D02*
X13973944Y-16855365D01*
X13973944Y-16855365D02*
X13983467Y-16817270D01*
X13983467Y-16817270D02*
X13983467Y-16741079D01*
X13983467Y-16741079D02*
X13973944Y-16722031D01*
X13973944Y-16722031D02*
X13964420Y-16712508D01*
X13964420Y-16712508D02*
X13945372Y-16702984D01*
X13945372Y-16702984D02*
X13907277Y-16702984D01*
X13907277Y-16702984D02*
X13888229Y-16712508D01*
X13888229Y-16712508D02*
X13878705Y-16722031D01*
X13878705Y-16722031D02*
X13869182Y-16741079D01*
X13869182Y-16741079D02*
X13869182Y-16788698D01*
X13869182Y-16788698D02*
X13878705Y-16807746D01*
X13878705Y-16807746D02*
X13888229Y-16817270D01*
X13888229Y-16817270D02*
X13907277Y-16826793D01*
X13907277Y-16826793D02*
X13945372Y-16826793D01*
X13945372Y-16826793D02*
X13964420Y-16817270D01*
X13964420Y-16817270D02*
X13973944Y-16807746D01*
X13973944Y-16807746D02*
X13983467Y-16788698D01*
X14154896Y-16769650D02*
X14154896Y-16902984D01*
X14107277Y-16693460D02*
X14059658Y-16836317D01*
X14059658Y-16836317D02*
X14183467Y-16836317D01*
X14250134Y-16702984D02*
X14250134Y-16741079D01*
X14326325Y-16702984D02*
X14326325Y-16741079D01*
X14621563Y-16979174D02*
X14612039Y-16969650D01*
X14612039Y-16969650D02*
X14592991Y-16941079D01*
X14592991Y-16941079D02*
X14583467Y-16922031D01*
X14583467Y-16922031D02*
X14573944Y-16893460D01*
X14573944Y-16893460D02*
X14564420Y-16845841D01*
X14564420Y-16845841D02*
X14564420Y-16807746D01*
X14564420Y-16807746D02*
X14573944Y-16760127D01*
X14573944Y-16760127D02*
X14583467Y-16731555D01*
X14583467Y-16731555D02*
X14592991Y-16712508D01*
X14592991Y-16712508D02*
X14612039Y-16683936D01*
X14612039Y-16683936D02*
X14621563Y-16674412D01*
X14802515Y-16902984D02*
X14688229Y-16902984D01*
X14745372Y-16902984D02*
X14745372Y-16702984D01*
X14745372Y-16702984D02*
X14726325Y-16731555D01*
X14726325Y-16731555D02*
X14707277Y-16750603D01*
X14707277Y-16750603D02*
X14688229Y-16760127D01*
X14926325Y-16702984D02*
X14945372Y-16702984D01*
X14945372Y-16702984D02*
X14964420Y-16712508D01*
X14964420Y-16712508D02*
X14973944Y-16722031D01*
X14973944Y-16722031D02*
X14983467Y-16741079D01*
X14983467Y-16741079D02*
X14992991Y-16779174D01*
X14992991Y-16779174D02*
X14992991Y-16826793D01*
X14992991Y-16826793D02*
X14983467Y-16864889D01*
X14983467Y-16864889D02*
X14973944Y-16883936D01*
X14973944Y-16883936D02*
X14964420Y-16893460D01*
X14964420Y-16893460D02*
X14945372Y-16902984D01*
X14945372Y-16902984D02*
X14926325Y-16902984D01*
X14926325Y-16902984D02*
X14907277Y-16893460D01*
X14907277Y-16893460D02*
X14897753Y-16883936D01*
X14897753Y-16883936D02*
X14888229Y-16864889D01*
X14888229Y-16864889D02*
X14878706Y-16826793D01*
X14878706Y-16826793D02*
X14878706Y-16779174D01*
X14878706Y-16779174D02*
X14888229Y-16741079D01*
X14888229Y-16741079D02*
X14897753Y-16722031D01*
X14897753Y-16722031D02*
X14907277Y-16712508D01*
X14907277Y-16712508D02*
X14926325Y-16702984D01*
X15164420Y-16702984D02*
X15126325Y-16702984D01*
X15126325Y-16702984D02*
X15107277Y-16712508D01*
X15107277Y-16712508D02*
X15097753Y-16722031D01*
X15097753Y-16722031D02*
X15078706Y-16750603D01*
X15078706Y-16750603D02*
X15069182Y-16788698D01*
X15069182Y-16788698D02*
X15069182Y-16864889D01*
X15069182Y-16864889D02*
X15078706Y-16883936D01*
X15078706Y-16883936D02*
X15088229Y-16893460D01*
X15088229Y-16893460D02*
X15107277Y-16902984D01*
X15107277Y-16902984D02*
X15145372Y-16902984D01*
X15145372Y-16902984D02*
X15164420Y-16893460D01*
X15164420Y-16893460D02*
X15173944Y-16883936D01*
X15173944Y-16883936D02*
X15183467Y-16864889D01*
X15183467Y-16864889D02*
X15183467Y-16817270D01*
X15183467Y-16817270D02*
X15173944Y-16798222D01*
X15173944Y-16798222D02*
X15164420Y-16788698D01*
X15164420Y-16788698D02*
X15145372Y-16779174D01*
X15145372Y-16779174D02*
X15107277Y-16779174D01*
X15107277Y-16779174D02*
X15088229Y-16788698D01*
X15088229Y-16788698D02*
X15078706Y-16798222D01*
X15078706Y-16798222D02*
X15069182Y-16817270D01*
X15421563Y-16902984D02*
X15421563Y-16702984D01*
X15507277Y-16902984D02*
X15507277Y-16798222D01*
X15507277Y-16798222D02*
X15497753Y-16779174D01*
X15497753Y-16779174D02*
X15478706Y-16769650D01*
X15478706Y-16769650D02*
X15450134Y-16769650D01*
X15450134Y-16769650D02*
X15431087Y-16779174D01*
X15431087Y-16779174D02*
X15421563Y-16788698D01*
X15631087Y-16902984D02*
X15612039Y-16893460D01*
X15612039Y-16893460D02*
X15602515Y-16883936D01*
X15602515Y-16883936D02*
X15592991Y-16864889D01*
X15592991Y-16864889D02*
X15592991Y-16807746D01*
X15592991Y-16807746D02*
X15602515Y-16788698D01*
X15602515Y-16788698D02*
X15612039Y-16779174D01*
X15612039Y-16779174D02*
X15631087Y-16769650D01*
X15631087Y-16769650D02*
X15659658Y-16769650D01*
X15659658Y-16769650D02*
X15678706Y-16779174D01*
X15678706Y-16779174D02*
X15688229Y-16788698D01*
X15688229Y-16788698D02*
X15697753Y-16807746D01*
X15697753Y-16807746D02*
X15697753Y-16864889D01*
X15697753Y-16864889D02*
X15688229Y-16883936D01*
X15688229Y-16883936D02*
X15678706Y-16893460D01*
X15678706Y-16893460D02*
X15659658Y-16902984D01*
X15659658Y-16902984D02*
X15631087Y-16902984D01*
X15812039Y-16902984D02*
X15792991Y-16893460D01*
X15792991Y-16893460D02*
X15783468Y-16874412D01*
X15783468Y-16874412D02*
X15783468Y-16702984D01*
X15964420Y-16893460D02*
X15945372Y-16902984D01*
X15945372Y-16902984D02*
X15907277Y-16902984D01*
X15907277Y-16902984D02*
X15888229Y-16893460D01*
X15888229Y-16893460D02*
X15878706Y-16874412D01*
X15878706Y-16874412D02*
X15878706Y-16798222D01*
X15878706Y-16798222D02*
X15888229Y-16779174D01*
X15888229Y-16779174D02*
X15907277Y-16769650D01*
X15907277Y-16769650D02*
X15945372Y-16769650D01*
X15945372Y-16769650D02*
X15964420Y-16779174D01*
X15964420Y-16779174D02*
X15973944Y-16798222D01*
X15973944Y-16798222D02*
X15973944Y-16817270D01*
X15973944Y-16817270D02*
X15878706Y-16836317D01*
X16050134Y-16893460D02*
X16069182Y-16902984D01*
X16069182Y-16902984D02*
X16107277Y-16902984D01*
X16107277Y-16902984D02*
X16126325Y-16893460D01*
X16126325Y-16893460D02*
X16135849Y-16874412D01*
X16135849Y-16874412D02*
X16135849Y-16864889D01*
X16135849Y-16864889D02*
X16126325Y-16845841D01*
X16126325Y-16845841D02*
X16107277Y-16836317D01*
X16107277Y-16836317D02*
X16078706Y-16836317D01*
X16078706Y-16836317D02*
X16059658Y-16826793D01*
X16059658Y-16826793D02*
X16050134Y-16807746D01*
X16050134Y-16807746D02*
X16050134Y-16798222D01*
X16050134Y-16798222D02*
X16059658Y-16779174D01*
X16059658Y-16779174D02*
X16078706Y-16769650D01*
X16078706Y-16769650D02*
X16107277Y-16769650D01*
X16107277Y-16769650D02*
X16126325Y-16779174D01*
X16202515Y-16979174D02*
X16212039Y-16969650D01*
X16212039Y-16969650D02*
X16231087Y-16941079D01*
X16231087Y-16941079D02*
X16240610Y-16922031D01*
X16240610Y-16922031D02*
X16250134Y-16893460D01*
X16250134Y-16893460D02*
X16259658Y-16845841D01*
X16259658Y-16845841D02*
X16259658Y-16807746D01*
X16259658Y-16807746D02*
X16250134Y-16760127D01*
X16250134Y-16760127D02*
X16240610Y-16731555D01*
X16240610Y-16731555D02*
X16231087Y-16712508D01*
X16231087Y-16712508D02*
X16212039Y-16683936D01*
X16212039Y-16683936D02*
X16202515Y-16674412D01*
M02*
