G04 #@! TF.GenerationSoftware,KiCad,Pcbnew,8.0.6-8.0.6-0~ubuntu22.04.1*
G04 #@! TF.CreationDate,2024-11-22T22:59:57+01:00*
G04 #@! TF.ProjectId,rp2350b-launchpad-PCB,72703233-3530-4622-9d6c-61756e636870,rev?*
G04 #@! TF.SameCoordinates,Original*
G04 #@! TF.FileFunction,Profile,NP*
%FSLAX46Y46*%
G04 Gerber Fmt 4.6, Leading zero omitted, Abs format (unit mm)*
G04 Created by KiCad (PCBNEW 8.0.6-8.0.6-0~ubuntu22.04.1) date 2024-11-22 22:59:57*
%MOMM*%
%LPD*%
G01*
G04 APERTURE LIST*
G04 #@! TA.AperFunction,Profile*
%ADD10C,0.050000*%
G04 #@! TD*
G04 APERTURE END LIST*
D10*
X167716000Y-148336000D02*
G75*
G02*
X164516000Y-148336000I-1600000J0D01*
G01*
X164516000Y-148336000D02*
G75*
G02*
X167716000Y-148336000I1600000J0D01*
G01*
X114884000Y-148336000D02*
G75*
G02*
X111684000Y-148336000I-1600000J0D01*
G01*
X111684000Y-148336000D02*
G75*
G02*
X114884000Y-148336000I1600000J0D01*
G01*
X110490000Y-104856630D02*
G75*
G02*
X111488479Y-101853997I5006100J2630D01*
G01*
X111488482Y-97854002D02*
G75*
G02*
X111488481Y-101853999I-2999982J-1999998D01*
G01*
X111490000Y-97854002D02*
G75*
G02*
X110489999Y-94854002I4000000J3000002D01*
G01*
X112522000Y-151130000D02*
X125730000Y-151130000D01*
X110490000Y-69342000D02*
X110490000Y-94854002D01*
X112522000Y-67310000D02*
X118110000Y-67310000D01*
X118110000Y-67310000D02*
X166878000Y-67310000D01*
X137764628Y-151128482D02*
G75*
G02*
X134761998Y-150130000I-2628J5006082D01*
G01*
X130762000Y-150130000D02*
G75*
G02*
X134761998Y-150130000I1999999J-2999998D01*
G01*
X130762000Y-150130000D02*
G75*
G02*
X127762000Y-151130000I-3000000J4000000D01*
G01*
X125730000Y-151130000D02*
X127762000Y-151130000D01*
X137764628Y-151128482D02*
X166878000Y-151130000D01*
X110490000Y-104856630D02*
X110490000Y-149098000D01*
X168910000Y-94869000D02*
X168908482Y-94899372D01*
X166878000Y-67310000D02*
G75*
G02*
X168910000Y-69342000I0J-2032000D01*
G01*
X167910000Y-101902000D02*
G75*
G02*
X167909999Y-97902001I3000000J2000000D01*
G01*
X110490000Y-69342000D02*
G75*
G02*
X112522000Y-67310000I2032000J0D01*
G01*
X112522000Y-151130000D02*
G75*
G02*
X110490000Y-149098000I0J2032000D01*
G01*
X167716000Y-70104000D02*
G75*
G02*
X164516000Y-70104000I-1600000J0D01*
G01*
X164516000Y-70104000D02*
G75*
G02*
X167716000Y-70104000I1600000J0D01*
G01*
X167910000Y-101902000D02*
G75*
G02*
X168910000Y-104902000I-4000000J-3000000D01*
G01*
X168910000Y-149098000D02*
X168910000Y-104902000D01*
X168910000Y-149098000D02*
G75*
G02*
X166878000Y-151130000I-2032000J0D01*
G01*
X114884000Y-70104000D02*
G75*
G02*
X111684000Y-70104000I-1600000J0D01*
G01*
X111684000Y-70104000D02*
G75*
G02*
X114884000Y-70104000I1600000J0D01*
G01*
X168910000Y-69342000D02*
X168910000Y-94869000D01*
X168908482Y-94899372D02*
G75*
G02*
X167910000Y-97902002I-5006082J-2628D01*
G01*
M02*
